  0
SECTION
  2
HEADER
  9
$ACADVER
  1
AC1024
  9
$ACADMAINTVER
 70
6
  9
$DWGCODEPAGE
  3
ANSI_1252
  9
$LASTSAVEDBY
  1
ezdxf
  9
$INSBASE
 10
0.0
 20
0.0
 30
0.0
  9
$EXTMIN
 10
1e+20
 20
1e+20
 30
1e+20
  9
$EXTMAX
 10
-1e+20
 20
-1e+20
 30
-1e+20
  9
$LIMMIN
 10
0.0
 20
0.0
  9
$LIMMAX
 10
420.0
 20
297.0
  9
$ORTHOMODE
 70
0
  9
$REGENMODE
 70
1
  9
$FILLMODE
 70
1
  9
$QTEXTMODE
 70
0
  9
$MIRRTEXT
 70
1
  9
$LTSCALE
 40
1.0
  9
$ATTMODE
 70
1
  9
$TEXTSIZE
 40
2.5
  9
$TRACEWID
 40
1.0
  9
$TEXTSTYLE
  7
Standard
  9
$CLAYER
  8
0
  9
$CELTYPE
  6
ByLayer
  9
$CECOLOR
 62
256
  9
$CELTSCALE
 40
1.0
  9
$DISPSILH
 70
0
  9
$DIMSCALE
 40
1.0
  9
$DIMASZ
 40
2.5
  9
$DIMEXO
 40
0.625
  9
$DIMDLI
 40
3.75
  9
$DIMRND
 40
0.0
  9
$DIMDLE
 40
0.0
  9
$DIMEXE
 40
1.25
  9
$DIMTP
 40
0.0
  9
$DIMTM
 40
0.0
  9
$DIMTXT
 40
2.5
  9
$DIMCEN
 40
2.5
  9
$DIMTSZ
 40
0.0
  9
$DIMTOL
 70
0
  9
$DIMLIM
 70
0
  9
$DIMTIH
 70
0
  9
$DIMTOH
 70
0
  9
$DIMSE1
 70
0
  9
$DIMSE2
 70
0
  9
$DIMTAD
 70
1
  9
$DIMZIN
 70
8
  9
$DIMBLK
  1

  9
$DIMASO
 70
1
  9
$DIMSHO
 70
1
  9
$DIMPOST
  1

  9
$DIMAPOST
  1

  9
$DIMALT
 70
0
  9
$DIMALTD
 70
3
  9
$DIMALTF
 40
0.03937007874
  9
$DIMLFAC
 40
1.0
  9
$DIMTOFL
 70
1
  9
$DIMTVP
 40
0.0
  9
$DIMTIX
 70
0
  9
$DIMSOXD
 70
0
  9
$DIMSAH
 70
0
  9
$DIMBLK1
  1

  9
$DIMBLK2
  1

  9
$DIMSTYLE
  2
ISO-25
  9
$DIMCLRD
 70
0
  9
$DIMCLRE
 70
0
  9
$DIMCLRT
 70
0
  9
$DIMTFAC
 40
1.0
  9
$DIMGAP
 40
0.625
  9
$DIMJUST
 70
0
  9
$DIMSD1
 70
0
  9
$DIMSD2
 70
0
  9
$DIMTOLJ
 70
0
  9
$DIMTZIN
 70
8
  9
$DIMALTZ
 70
0
  9
$DIMALTTZ
 70
0
  9
$DIMUPT
 70
0
  9
$DIMDEC
 70
2
  9
$DIMTDEC
 70
2
  9
$DIMALTU
 70
2
  9
$DIMALTTD
 70
3
  9
$DIMTXSTY
  7
Standard
  9
$DIMAUNIT
 70
0
  9
$DIMADEC
 70
0
  9
$DIMALTRND
 40
0.0
  9
$DIMAZIN
 70
0
  9
$DIMDSEP
 70
44
  9
$DIMATFIT
 70
3
  9
$DIMFRAC
 70
0
  9
$DIMLDRBLK
  1

  9
$DIMLUNIT
 70
2
  9
$DIMLWD
 70
-2
  9
$DIMLWE
 70
-2
  9
$DIMTMOVE
 70
0
  9
$DIMFXL
 40
1.0
  9
$DIMFXLON
 70
0
  9
$DIMJOGANG
 40
0.785398163397
  9
$DIMTFILL
 70
0
  9
$DIMTFILLCLR
 70
0
  9
$DIMARCSYM
 70
0
  9
$DIMLTYPE
  6

  9
$DIMLTEX1
  6

  9
$DIMLTEX2
  6

  9
$DIMTXTDIRECTION
 70
0
  9
$LUNITS
 70
2
  9
$LUPREC
 70
4
  9
$SKETCHINC
 40
1.0
  9
$FILLETRAD
 40
10.0
  9
$AUNITS
 70
0
  9
$AUPREC
 70
2
  9
$MENU
  1
.
  9
$ELEVATION
 40
0.0
  9
$PELEVATION
 40
0.0
  9
$THICKNESS
 40
0.0
  9
$LIMCHECK
 70
0
  9
$CHAMFERA
 40
0.0
  9
$CHAMFERB
 40
0.0
  9
$CHAMFERC
 40
0.0
  9
$CHAMFERD
 40
0.0
  9
$SKPOLY
 70
0
  9
$TDCREATE
 40
2461247.7387037035
  9
$TDUCREATE
 40
2458532.153996898
  9
$TDUPDATE
 40
2461247.7387037035
  9
$TDUUPDATE
 40
2458532.1544311
  9
$TDINDWG
 40
0.0
  9
$TDUSRTIMER
 40
0.0
  9
$USRTIMER
 70
1
  9
$ANGBASE
 50
0.0
  9
$ANGDIR
 70
0
  9
$PDMODE
 70
0
  9
$PDSIZE
 40
0.0
  9
$PLINEWID
 40
0.0
  9
$SPLFRAME
 70
0
  9
$SPLINETYPE
 70
6
  9
$SPLINESEGS
 70
8
  9
$HANDSEED
  5
42
  9
$SURFTAB1
 70
6
  9
$SURFTAB2
 70
6
  9
$SURFTYPE
 70
6
  9
$SURFU
 70
6
  9
$SURFV
 70
6
  9
$UCSBASE
  2

  9
$UCSNAME
  2

  9
$UCSORG
 10
0.0
 20
0.0
 30
0.0
  9
$UCSXDIR
 10
1.0
 20
0.0
 30
0.0
  9
$UCSYDIR
 10
0.0
 20
1.0
 30
0.0
  9
$UCSORTHOREF
  2

  9
$UCSORTHOVIEW
 70
0
  9
$UCSORGTOP
 10
0.0
 20
0.0
 30
0.0
  9
$UCSORGBOTTOM
 10
0.0
 20
0.0
 30
0.0
  9
$UCSORGLEFT
 10
0.0
 20
0.0
 30
0.0
  9
$UCSORGRIGHT
 10
0.0
 20
0.0
 30
0.0
  9
$UCSORGFRONT
 10
0.0
 20
0.0
 30
0.0
  9
$UCSORGBACK
 10
0.0
 20
0.0
 30
0.0
  9
$PUCSBASE
  2

  9
$PUCSNAME
  2

  9
$PUCSORG
 10
0.0
 20
0.0
 30
0.0
  9
$PUCSXDIR
 10
1.0
 20
0.0
 30
0.0
  9
$PUCSYDIR
 10
0.0
 20
1.0
 30
0.0
  9
$PUCSORTHOREF
  2

  9
$PUCSORTHOVIEW
 70
0
  9
$PUCSORGTOP
 10
0.0
 20
0.0
 30
0.0
  9
$PUCSORGBOTTOM
 10
0.0
 20
0.0
 30
0.0
  9
$PUCSORGLEFT
 10
0.0
 20
0.0
 30
0.0
  9
$PUCSORGRIGHT
 10
0.0
 20
0.0
 30
0.0
  9
$PUCSORGFRONT
 10
0.0
 20
0.0
 30
0.0
  9
$PUCSORGBACK
 10
0.0
 20
0.0
 30
0.0
  9
$USERI1
 70
0
  9
$USERI2
 70
0
  9
$USERI3
 70
0
  9
$USERI4
 70
0
  9
$USERI5
 70
0
  9
$USERR1
 40
0.0
  9
$USERR2
 40
0.0
  9
$USERR3
 40
0.0
  9
$USERR4
 40
0.0
  9
$USERR5
 40
0.0
  9
$WORLDVIEW
 70
1
  9
$SHADEDGE
 70
3
  9
$SHADEDIF
 70
70
  9
$TILEMODE
 70
1
  9
$MAXACTVP
 70
64
  9
$PINSBASE
 10
0.0
 20
0.0
 30
0.0
  9
$PLIMCHECK
 70
0
  9
$PEXTMIN
 10
1e+20
 20
1e+20
 30
1e+20
  9
$PEXTMAX
 10
-1e+20
 20
-1e+20
 30
-1e+20
  9
$PLIMMIN
 10
0.0
 20
0.0
  9
$PLIMMAX
 10
420.0
 20
297.0
  9
$UNITMODE
 70
0
  9
$VISRETAIN
 70
1
  9
$PLINEGEN
 70
0
  9
$PSLTSCALE
 70
1
  9
$TREEDEPTH
 70
3020
  9
$CMLSTYLE
  2
Standard
  9
$CMLJUST
 70
0
  9
$CMLSCALE
 40
20.0
  9
$PROXYGRAPHICS
 70
1
  9
$MEASUREMENT
 70
1
  9
$CELWEIGHT
370
-1
  9
$ENDCAPS
280
0
  9
$JOINSTYLE
280
0
  9
$LWDISPLAY
290
0
  9
$INSUNITS
 70
4
  9
$HYPERLINKBASE
  1

  9
$STYLESHEET
  1

  9
$XEDIT
290
1
  9
$CEPSNTYPE
380
0
  9
$PSTYLEMODE
290
1
  9
$FINGERPRINTGUID
  2
{37FC3BA7-78C4-457B-A176-1BC0A8F106FD}
  9
$VERSIONGUID
  2
{C769B88F-37D7-4333-B72F-BA5F2C4F824E}
  9
$EXTNAMES
290
1
  9
$PSVPSCALE
 40
0.0
  9
$OLESTARTUP
290
0
  9
$SORTENTS
280
127
  9
$INDEXCTL
280
0
  9
$HIDETEXT
280
1
  9
$XCLIPFRAME
280
1
  9
$HALOGAP
280
0
  9
$OBSCOLOR
 70
257
  9
$OBSLTYPE
280
0
  9
$INTERSECTIONDISPLAY
280
0
  9
$INTERSECTIONCOLOR
 70
257
  9
$DIMASSOC
280
2
  9
$PROJECTNAME
  1

  9
$CAMERADISPLAY
290
0
  9
$LENSLENGTH
 40
50.0
  9
$CAMERAHEIGHT
 40
0.0
  9
$STEPSPERSEC
 40
24.0
  9
$STEPSIZE
 40
100.0
  9
$3DDWFPREC
 40
2.0
  9
$PSOLWIDTH
 40
0.005
  9
$PSOLHEIGHT
 40
0.08
  9
$LOFTANG1
 40
1.570796326795
  9
$LOFTANG2
 40
1.570796326795
  9
$LOFTMAG1
 40
0.0
  9
$LOFTMAG2
 40
0.0
  9
$LOFTPARAM
 70
7
  9
$LOFTNORMALS
280
1
  9
$LATITUDE
 40
37.795
  9
$LONGITUDE
 40
-122.394
  9
$NORTHDIRECTION
 40
0.0
  9
$TIMEZONE
 70
-8000
  9
$LIGHTGLYPHDISPLAY
280
1
  9
$TILEMODELIGHTSYNCH
280
1
  9
$CMATERIAL
347
20
  9
$SOLIDHIST
280
0
  9
$SHOWHIST
280
1
  9
$DWFFRAME
280
2
  9
$DGNFRAME
280
2
  9
$REALWORLDSCALE
290
1
  9
$INTERFERECOLOR
 62
256
  9
$CSHADOW
280
0
  9
$SHADOWPLANELOCATION
 40
0.0
  0
ENDSEC
  0
SECTION
  2
CLASSES
  0
CLASS
  1
ACDBDICTIONARYWDFLT
  2
AcDbDictionaryWithDefault
  3
ObjectDBX Classes
 90
0
 91
0
280
0
281
0
  0
CLASS
  1
SUN
  2
AcDbSun
  3
SCENEOE
 90
1153
 91
0
280
0
281
0
  0
CLASS
  1
VISUALSTYLE
  2
AcDbVisualStyle
  3
ObjectDBX Classes
 90
4095
 91
0
280
0
281
0
  0
CLASS
  1
MATERIAL
  2
AcDbMaterial
  3
ObjectDBX Classes
 90
1153
 91
0
280
0
281
0
  0
CLASS
  1
SCALE
  2
AcDbScale
  3
ObjectDBX Classes
 90
1153
 91
0
280
0
281
0
  0
CLASS
  1
TABLESTYLE
  2
AcDbTableStyle
  3
ObjectDBX Classes
 90
4095
 91
0
280
0
281
0
  0
CLASS
  1
MLEADERSTYLE
  2
AcDbMLeaderStyle
  3
ACDB_MLEADERSTYLE_CLASS
 90
4095
 91
0
280
0
281
0
  0
CLASS
  1
DICTIONARYVAR
  2
AcDbDictionaryVar
  3
ObjectDBX Classes
 90
0
 91
0
280
0
281
0
  0
CLASS
  1
CELLSTYLEMAP
  2
AcDbCellStyleMap
  3
ObjectDBX Classes
 90
1152
 91
0
280
0
281
0
  0
CLASS
  1
MENTALRAYRENDERSETTINGS
  2
AcDbMentalRayRenderSettings
  3
SCENEOE
 90
1024
 91
0
280
0
281
0
  0
CLASS
  1
ACDBDETAILVIEWSTYLE
  2
AcDbDetailViewStyle
  3
ObjectDBX Classes
 90
1025
 91
0
280
0
281
0
  0
CLASS
  1
ACDBSECTIONVIEWSTYLE
  2
AcDbSectionViewStyle
  3
ObjectDBX Classes
 90
1025
 91
0
280
0
281
0
  0
CLASS
  1
RASTERVARIABLES
  2
AcDbRasterVariables
  3
ISM
 90
0
 91
0
280
0
281
0
  0
CLASS
  1
LAYOUT
  2
AcDbLayout
  3
ObjectDBX Classes
 90
0
 91
0
280
0
281
0
  0
CLASS
  1
ACDBPLACEHOLDER
  2
AcDbPlaceHolder
  3
ObjectDBX Classes
 90
0
 91
0
280
0
281
0
  0
ENDSEC
  0
SECTION
  2
TABLES
  0
TABLE
  2
VPORT
  5
8
330
0
100
AcDbSymbolTable
 70
1
  0
VPORT
  5
23
330
8
100
AcDbSymbolTableRecord
100
AcDbViewportTableRecord
  2
*Active
 70
0
 10
0.0
 20
0.0
 11
1.0
 21
1.0
 12
0.0
 22
0.0
 13
0.0
 23
0.0
 14
0.5
 24
0.5
 15
0.5
 25
0.5
 16
0.0
 26
0.0
 36
1.0
 17
0.0
 27
0.0
 37
0.0
 40
1000.0
 41
1.34
 42
50.0
 43
0.0
 44
0.0
 50
0.0
 51
0.0
 71
0
 72
1000
 73
1
 74
3
 75
0
 76
0
 77
0
 78
0
281
0
 65
0
146
0.0
  0
ENDTAB
  0
TABLE
  2
LTYPE
  5
2
330
0
100
AcDbSymbolTable
 70
3
  0
LTYPE
  5
24
330
2
100
AcDbSymbolTableRecord
100
AcDbLinetypeTableRecord
  2
ByBlock
 70
0
  3

 72
65
 73
0
 40
0.0
  0
LTYPE
  5
25
330
2
100
AcDbSymbolTableRecord
100
AcDbLinetypeTableRecord
  2
ByLayer
 70
0
  3

 72
65
 73
0
 40
0.0
  0
LTYPE
  5
26
330
2
100
AcDbSymbolTableRecord
100
AcDbLinetypeTableRecord
  2
Continuous
 70
0
  3

 72
65
 73
0
 40
0.0
  0
ENDTAB
  0
TABLE
  2
LAYER
  5
1
330
0
100
AcDbSymbolTable
 70
2
  0
LAYER
  5
27
330
1
100
AcDbSymbolTableRecord
100
AcDbLayerTableRecord
  2
0
 70
0
 62
7
  6
Continuous
370
-3
390
13
347
21
  0
LAYER
  5
28
330
1
100
AcDbSymbolTableRecord
100
AcDbLayerTableRecord
  2
Defpoints
 70
0
 62
7
  6
Continuous
290
0
370
-3
390
13
347
21
  0
ENDTAB
  0
TABLE
  2
STYLE
  5
5
330
0
100
AcDbSymbolTable
 70
1
  0
STYLE
  5
29
330
5
100
AcDbSymbolTableRecord
100
AcDbTextStyleTableRecord
  2
Standard
 70
0
 40
0.0
 41
1.0
 50
0.0
 71
0
 42
2.5
  3
txt
  4

  0
ENDTAB
  0
TABLE
  2
VIEW
  5
7
330
0
100
AcDbSymbolTable
 70
0
  0
ENDTAB
  0
TABLE
  2
UCS
  5
6
330
0
100
AcDbSymbolTable
 70
0
  0
ENDTAB
  0
TABLE
  2
APPID
  5
3
330
0
100
AcDbSymbolTable
 70
3
  0
APPID
  5
2A
330
3
100
AcDbSymbolTableRecord
100
AcDbRegAppTableRecord
  2
ACAD
 70
0
  0
APPID
  5
3F
330
3
100
AcDbSymbolTableRecord
100
AcDbRegAppTableRecord
  2
HATCHBACKGROUNDCOLOR
 70
0
  0
APPID
  5
40
330
3
100
AcDbSymbolTableRecord
100
AcDbRegAppTableRecord
  2
EZDXF
 70
0
  0
ENDTAB
  0
TABLE
  2
DIMSTYLE
  5
4
330
0
100
AcDbSymbolTable
 70
1
100
AcDbDimStyleTable
  0
DIMSTYLE
105
2B
330
4
100
AcDbSymbolTableRecord
100
AcDbDimStyleTableRecord
  2
Standard
 70
0
 40
1.0
 41
2.5
 42
0.625
 43
3.75
 44
1.25
 45
0.0
 46
0.0
 47
0.0
 48
0.0
 49
2.5
140
2.5
141
2.5
142
0.0
143
0.03937007874
144
1.0
145
0.0
146
1.0
147
0.625
148
0.0
 69
0
 70
0
 71
0
 72
0
 73
0
 74
0
 75
0
 76
0
 77
1
 78
8
 79
3
170
0
171
3
172
1
173
0
174
0
175
0
176
0
177
0
178
0
179
2
271
2
272
2
273
2
274
3
275
0
276
0
277
2
278
44
279
0
280
0
281
0
282
0
283
0
284
8
285
0
286
0
288
0
289
3
290
0
371
-2
372
-2
  0
ENDTAB
  0
TABLE
  2
BLOCK_RECORD
  5
9
330
0
100
AcDbSymbolTable
 70
2
  0
BLOCK_RECORD
  5
17
330
9
100
AcDbSymbolTableRecord
100
AcDbBlockTableRecord
  2
*Model_Space
340
1A
 70
0
280
1
281
0
  0
BLOCK_RECORD
  5
1B
330
9
100
AcDbSymbolTableRecord
100
AcDbBlockTableRecord
  2
*Paper_Space
340
1E
 70
0
280
1
281
0
  0
ENDTAB
  0
ENDSEC
  0
SECTION
  2
BLOCKS
  0
BLOCK
  5
18
330
17
100
AcDbEntity
  8
0
100
AcDbBlockBegin
  2
*Model_Space
 70
0
 10
0.0
 20
0.0
 30
0.0
  3
*Model_Space
  1

  0
ENDBLK
  5
19
330
17
100
AcDbEntity
  8
0
100
AcDbBlockEnd
  0
BLOCK
  5
1C
330
1B
100
AcDbEntity
  8
0
100
AcDbBlockBegin
  2
*Paper_Space
 70
0
 10
0.0
 20
0.0
 30
0.0
  3
*Paper_Space
  1

  0
ENDBLK
  5
1D
330
1B
100
AcDbEntity
  8
0
100
AcDbBlockEnd
  0
ENDSEC
  0
SECTION
  2
ENTITIES
  0
TEXT
  5
2F
330
17
100
AcDbEntity
  8
RESEARCH_ONLY_WARNING
100
AcDbText
 10
0.0
 20
0.0
 30
0.0
 40
2.5
  1
RESEARCH-ONLY UNLOADED HAND-DRIVEN PROTOTYPE — NOT FOR HUMAN OR POWERED USE
100
AcDbText
  0
LWPOLYLINE
  5
30
330
17
100
AcDbEntity
  8
CLOSED_SECTOR_BODY
100
AcDbPolyline
 90
864
 70
1
 10
-16.808205599196285
 20
-22.244113855275852
 10
-16.930229064612295
 20
-21.50744876644781
 10
-16.67827831226336
 20
-21.554576174026124
 10
-16.66285189725946
 20
-21.472706578478622
 10
-16.693308124940188
 20
-21.46462669700982
 10
-16.737587033696794
 20
-21.452808387095377
 10
-16.781876330226453
 20
-21.440915859079695
 10
-16.826175899839622
 20
-21.42894902302351
 10
-16.870485629187527
 20
-21.41690778869271
 10
-16.914805403232897
 20
-21.40479206643971
 10
-16.95913510685116
 20
-21.3926017666626
 10
-17.00347462647993
 20
-21.380336799467955
 10
-17.047823845397435
 20
-21.367997075917835
 10
-17.092182648677223
 20
-21.355582506620838
 10
-17.136550919920182
 20
-21.34309300275622
 10
-17.18092854135769
 20
-21.33052847589572
 10
-17.2253153984279
 20
-21.31788883683095
 10
-17.2697113737285
 20
-21.305173997281273
 10
-17.314116348052593
 20
-21.292383869528507
 10
-17.35853020495153
 20
-21.279518365141357
 10
-17.402952827035765
 20
-21.266577396104395
 10
-17.447384094939952
 20
-21.25356087503297
 10
-17.49182388994221
 20
-21.2404687144519
 10
-17.53627209266131
 20
-21.227300827172108
 10
-17.58072858442619
 20
-21.214057125877165
 10
-17.62519324547723
 20
-21.200737523701566
 10
-17.669665955823174
 20
-21.187341933906065
 10
-17.714146594383685
 20
-21.173870270216028
 10
-17.75863504053895
 20
-21.16032244624982
 10
-17.803131174431876
 20
-21.1466983755562
 10
-17.847634872996203
 20
-21.132997972734383
 10
-17.892146015781105
 20
-21.11922115164677
 10
-17.936664480852553
 20
-21.105367826785596
 10
-17.981190144531347
 20
-21.091437913211337
 10
-18.025722885451195
 20
-21.07743132539105
 10
-18.07026258049231
 20
-21.06334797845604
 10
-18.114809105216946
 20
-21.049187788034832
 10
-18.159362337060234
 20
-21.03495066924605
 10
-18.20392215259436
 20
-21.020636537636634
 10
-18.24848842576777
 20
-21.006245309662415
 10
-18.293061032876807
 20
-20.991776901102874
 10
-18.33763984948936
 20
-20.97723122813177
 10
-18.38222474959567
 20
-20.9626082074992
 10
-18.426815607985993
 20
-20.947907755814377
 10
-18.471412298342813
 20
-20.9331297901548
 10
-18.51601469481266
 20
-20.9182742275367
 10
-18.56062267112756
 20
-20.903340985246064
 10
-18.605236099739162
 20
-20.88832998108689
 10
-18.64985485370131
 20
-20.87324113276304
 10
-18.694478805659326
 20
-20.8580743582393
 10
-18.739107827681345
 20
-20.842829575774
 10
-18.78374179140036
 20
-20.82750670389124
 10
-18.828380568614485
 20
-20.81210566115312
 10
-18.873024030871832
 20
-20.796626366341687
 10
-18.917672048240508
 20
-20.781068738850486
 10
-18.96232449180921
 20
-20.76543269781347
 10
-19.006981231855356
 20
-20.74971816279566
 10
-19.051642138124954
 20
-20.733925053625136
 10
-19.09630708054551
 20
-20.718053290209184
 10
-19.14097592798
 20
-20.702102792927967
 10
-19.16687204545834
 20
-20.69281081722923
 10
-19.20020255344008
 20
-20.76770298802864
 10
-18.97121919380317
 20
-20.869236370571713
 10
-19.481078662230093
 20
-21.398819127167584
 10
-20.079352026643242
 20
-22.743112800006713
 10
-20.567400036150318
 20
-22.527163511012517
 10
-23.12289729243564
 20
-25.181517044216992
 10
-23.956810097974603
 20
-24.8117522367366
 10
-23.70556575699996
 20
-21.138602051971027
 10
-24.194505539622533
 20
-20.922258175218076
 10
-23.599287334035957
 20
-19.584829308543444
 10
-23.548320747408344
 20
-18.83970634831335
 10
-23.3139275327799
 20
-18.943638511611624
 10
-23.281406027778928
 20
-18.8705641345718
 10
-23.293143186398947
 20
-18.864331548415016
 10
-23.337552273832898
 20
-18.84065949129439
 10
-23.381951489496725
 20
-18.816902292722542
 10
-23.426340674456263
 20
-18.793059899279644
 10
-23.470719669702778
 20
-18.769132257743625
 10
-23.515088316185217
 20
-18.745119315102446
 10
-23.55944645564269
 20
-18.721021018079053
 10
-23.603793928271426
 20
-18.696837314466098
 10
-23.648130573019934
 20
-18.672568152847994
 10
-23.692456231613377
 20
-18.64821348048413
 10
-23.736770743390426
 20
-18.623773246184047
 10
-23.781073946872606
 20
-18.599247399307348
 10
-23.825365682127305
 20
-18.574635888584922
 10
-23.869645788244096
 20
-18.549938663464005
 10
-23.913914103817607
 20
-18.525155673860443
 10
-23.958170467177265
 20
-18.500286870007116
 10
-24.002414716690534
 20
-18.47533220230983
 10
-24.046646690370835
 20
-18.450291621555195
 10
-24.09086622575377
 20
-18.425165078991387
 10
-24.135073160491803
 20
-18.399952525973035
 10
-24.179267332435735
 20
-18.374653913948585
 10
-24.223448577425685
 20
-18.349269195712157
 10
-24.267616732603987
 20
-18.3237983234416
 10
-24.311771635396575
 20
-18.298241249417536
 10
-24.355913120818798
 20
-18.272597927465974
 10
-24.400041025646434
 20
-18.246868310565013
 10
-24.444155185903213
 20
-18.22105235237551
 10
-24.488255436195566
 20
-18.195150007535087
 10
-24.532341612326654
 20
-18.169161230177306
 10
-24.576413549600073
 20
-18.14308597494298
 10
-24.620471082428132
 20
-18.116924197184
 10
-24.664514045504323
 20
-18.09067585227359
 10
-24.708542273777752
 20
-18.064340895640775
 10
-24.7525556005329
 20
-18.0379192839213
 10
-24.79655385978748
 20
-18.011410973456513
 10
-24.840536885695755
 20
-17.984815920765534
 10
-24.884504511182676
 20
-17.958134083268796
 10
-24.92845656953214
 20
-17.93136541838772
 10
-24.972392893691385
 20
-17.90450988393732
 10
-25.016313316560716
 20
-17.877567437973994
 10
-25.06021767020735
 20
-17.850538039264947
 10
-25.10410578734787
 20
-17.823421646363283
 10
-25.147977500112585
 20
-17.796218218426894
 10
-25.19183263913088
 20
-17.768927715714778
 10
-25.235671037249755
 20
-17.741550097292482
 10
-25.27949252589199
 20
-17.7140853234
 10
-25.323296934647402
 20
-17.68653335555333
 10
-25.367084095860616
 20
-17.658894153755025
 10
-25.410853839619683
 20
-17.63116767970047
 10
-25.45460599632002
 20
-17.603353895005373
 10
-25.498340396819057
 20
-17.575452761296727
 10
-25.542056869852956
 20
-17.547464241699924
 10
-25.568597587879655
 20
-17.53041199031843
 10
-25.61526736623171
 20
-17.59277211505074
 10
-25.415517525633557
 20
-17.741641729698873
 10
-26.02764208119387
 20
-18.143786916696083
 10
-26.910771074033683
 20
-19.323823250547278
 10
-27.338933902829915
 20
-19.005261415684352
 10
-30.418455922912454
 20
-21.02840351540705
 10
-31.149881766897114
 20
-20.483286266694257
 10
-30.092132108322577
 20
-16.95682607030675
 10
-30.52110715425723
 20
-16.63765992940761
 10
-29.645443469236227
 20
-15.467598734568952
 10
-29.430098360239473
 20
-14.749653851100792
 10
-29.223418020838047
 20
-14.903688629751427
 10
-29.177732160289022
 20
-14.842643215289659
 10
-29.215447608629482
 20
-14.810298699460764
 10
-29.256930585696303
 20
-14.774605237215656
 10
-29.298379905614773
 20
-14.738822536458587
 10
-29.33979538252763
 20
-14.702950593225044
 10
-29.381176830089835
 20
-14.666989404288378
 10
-29.422524061377757
 20
-14.6309389671881
 10
-29.463836889928427
 20
-14.594799279356057
 10
-29.505115128891028
 20
-14.558570338866245
 10
-29.54635859148003
 20
-14.52225214401151
 10
-29.58756709010578
 20
-14.485844694114629
 10
-29.628740437752604
 20
-14.449347988225412
 10
-29.66987844765435
 20
-14.412762025542825
 10
-29.710980931298884
 20
-14.376086807074797
 10
-29.75204770130303
 20
-14.339322333095563
 10
-29.793078570610525
 20
-14.30246860392811
 10
-29.83407335085958
 20
-14.265525621364004
 10
-29.875031853646103
 20
-14.228493387504823
 10
-29.91595389131961
 20
-14.19137190407984
 10
-29.956839275492634
 20
-14.154161173813822
 10
-29.997687817593185
 20
-14.11686119986739
 10
-30.038499329372183
 20
-14.079471985436212
 10
-30.079273622051787
 20
-14.041993534497625
 10
-30.12001050655509
 20
-14.004425851609803
 10
-30.160709794278645
 20
-13.96676894118338
 10
-30.20137129659764
 20
-13.929022807994096
 10
-30.241994823579294
 20
-13.891187458328073
 10
-30.282580186417228
 20
-13.853262897692641
 10
-30.32312719592608
 20
-13.815249132334873
 10
-30.363635661806942
 20
-13.777146169793633
 10
-30.404105395190726
 20
-13.738954016588348
 10
-30.44453620668307
 20
-13.700672680087072
 10
-30.484927905490913
 20
-13.662302169276966
 10
-30.525280301906868
 20
-13.62384249238862
 10
-30.56559320654893
 20
-13.585293657723252
 10
-30.605866428599168
 20
-13.54665567525275
 10
-30.646099778012353
 20
-13.507928554501973
 10
-30.686293064289163
 20
-13.469112305800929
 10
-30.726446096796877
 20
-13.43020693987388
 10
-30.766558685350955
 20
-13.391212467382648
 10
-30.80663063903708
 20
-13.352128900001572
 10
-30.846661767238864
 20
-13.312956249443868
 10
-30.886651878676922
 20
-13.273694528409791
 10
-30.926600782192367
 20
-13.234343749772297
 10
-30.966508287418463
 20
-13.194903925980878
 10
-31.006374202823626
 20
-13.155375070988782
 10
-31.046198336540506
 20
-13.115757199365397
 10
-31.085980497721998
 20
-13.076050325010275
 10
-31.1257204949791
 20
-13.036254462725338
 10
-31.147450444199997
 20
-13.014422046514548
 10
-31.20396982550429
 20
-13.063685968970985
 10
-31.037343490122364
 20
-13.254883790236693
 10
-31.729127864643512
 20
-13.521428858586832
 10
-32.833833206935516
 20
-14.484321888623363
 10
-33.18478271515966
 20
-14.08229382737658
 10
-36.62306651954691
 20
-15.40706730506888
 10
-37.22239477081236
 20
-14.719359353007851
 10
-35.441530491402716
 20
-11.497090224166161
 10
-35.79316164930939
 20
-11.094281303297425
 10
-34.68514967818719
 20
-10.128506120227302
 10
-34.32687958042573
 20
-9.480257576443528
 10
-34.16048312235438
 20
-9.671191621633024
 10
-34.10685810742139
 20
-9.624450512363603
 10
-34.11546313917613
 20
-9.61321474423741
 10
-34.15120287817416
 20
-9.566386910236767
 10
-34.18688471674662
 20
-9.519472756408904
 10
-34.22250845914527
 20
-9.472472333976341
 10
-34.25807390921247
 20
-9.425385695169226
 10
-34.29358087131964
 20
-9.378212891906859
 10
-34.32902914983535
 20
-9.33095397664248
 10
-34.36441854826192
 20
-9.283609003371259
 10
-34.3997488713612
 20
-9.236178024849886
 10
-34.43501992329037
 20
-9.188661095173096
 10
-34.470231507784256
 20
-9.141058269379394
 10
-34.505383429398854
 20
-9.09336960189281
 10
-34.540475492025536
 20
-9.045595148503992
 10
-34.5755074999911
 20
-8.997734964831237
 10
-34.61047925746915
 20
-8.949789107225126
 10
-34.64539056832565
 20
-8.90175763285885
 10
-34.680241237221004
 20
-8.85364059830856
 10
-34.71503106819092
 20
-8.805438061502254
 10
-34.74975986524338
 20
-8.75715008083137
 10
-34.78442743260806
 20
-8.708776714877459
 10
-34.81903357457457
 20
-8.66031802258641
 10
-34.85357809542611
 20
-8.611774063419464
 10
-34.88806079931372
 20
-8.563144897471156
 10
-34.92248149079644
 20
-8.514430584755065
 10
-34.95683997360111
 20
-8.465631186961645
 10
-34.99113605202736
 20
-8.41674676536634
 10
-35.025369531128774
 20
-8.367777380742279
 10
-35.05954021461022
 20
-8.318723096268753
 10
-35.09364790685762
 20
-8.269583974564368
 10
-35.127692412398304
 20
-8.220360078616737
 10
-35.16167353523108
 20
-8.171051472600498
 10
-35.19559108017568
 20
-8.121658220013622
 10
-35.229444851806186
 20
-8.07218038523233
 10
-35.26323465428267
 20
-8.022618033718121
 10
-35.296960291872
 20
-7.972971231255932
 10
-35.330621569415875
 20
-7.9232400432797565
 10
-35.364218291443144
 20
-7.873424536232549
 10
-35.397750262388506
 20
-7.823524777148066
 10
-35.43121728693913
 20
-7.773540833227965
 10
-35.46461916963589
 20
-7.723472772372324
 10
-35.49795571539397
 20
-7.673320662443918
 10
-35.5312267285868
 20
-7.623084572649311
 10
-35.564432013885124
 20
-7.572764572199379
 10
-35.59757137663796
 20
-7.522360729847333
 10
-35.63064462115661
 20
-7.471873116457461
 10
-35.663651552190345
 20
-7.421301802660719
 10
-35.67357212258188
 20
-7.406046202023408
 10
-35.73523476851837
 20
-7.440834984685123
 10
-35.61128717934064
 20
-7.660173895656186
 10
-36.33925418426713
 20
-7.781610179437298
 10
-37.618288892567826
 20
-8.5032149663888
 10
-37.88122448096355
 20
-8.038834945483638
 10
-41.515698475574595
 20
-8.645122060720716
 10
-41.96448765173756
 20
-7.850940182652569
 10
-39.57203137054026
 20
-5.052639947998143
 10
-39.83548520786592
 20
-4.587344628976112
 10
-38.55803388545916
 20
-3.8666331554219986
 10
-38.074558665055584
 20
-3.3011436903322284
 10
-37.94913055008175
 20
-3.523102554768606
 10
-37.89020889287257
 20
-3.4898601809523804
 10
-37.908502184306265
 20
-3.4523363269675995
 10
-37.93598388054624
 20
-3.3957221374113535
 10
-37.9633846310554
 20
-3.3390309537370917
 10
-37.99070424724563
 20
-3.28226288142951
 10
-38.017942540525866
 20
-3.225418026744705
 10
-38.04509932212058
 20
-3.168496497008049
 10
-38.07217440390667
 20
-3.111498398887249
 10
-38.099167597490336
 20
-3.0544238404297115
 10
-38.1260787144174
 20
-2.997272930428383
 10
-38.152907567352294
 20
-2.9400457760862535
 10
-38.17965396801674
 20
-2.8827424874575964
 10
-38.20631772841845
 20
-2.8253631745189356
 10
-38.232898661493486
 20
-2.7679079461646845
 10
-38.25939657952892
 20
-2.710376913387992
 10
-38.28581129529356
 20
-2.6527701868765954
 10
-38.3121426215203
 20
-2.5950878781951365
 10
-38.3383903710226
 20
-2.5373300994297328
 10
-38.36455435710409
 20
-2.4794969623868983
 10
-38.39063439299356
 20
-2.4215885798204146
 10
-38.4164756817771
 20
-2.3639499211482318
 10
-41.48088485151905
 20
-2.31318057679236
 10
-41.38149398937708
 20
3.6859961547702853
 10
-36.674196930940084
 20
3.608008401794956
 10
-36.59047382374236
 20
5.082490031282435
 10
-9.45831639192876
 20
3.541888588890117
 10
-9.452649860248991
 20
3.557725484004455
 10
-9.331183278363998
 20
3.865102666887401
 10
-9.199724631703877
 20
4.168341001024383
 10
-9.058414689480152
 20
4.467115771211911
 10
-8.907404769918388
 20
4.761107041942572
 10
-8.746856578222832
 20
5.049999999999997
 10
-8.57694203341845
 20
5.333485291568712
 10
-8.397843084255708
 20
5.61125935349798
 10
-8.209751514375316
 20
5.883024738364796
 10
-8.012868736941478
 20
6.148490432988075
 10
-7.807405578963644
 20
6.407372170052817
 10
-7.5935820555376745
 20
6.659392732510692
 10
-7.371627134248142
 20
6.904282250430997
 10
-7.141778489984134
 20
7.141778489984126
 10
-6.904282250431002
 20
7.371627134248137
 10
-6.659392732510697
 20
7.59358205553767
 10
-6.407372170052823
 20
7.80740557896364
 10
-6.148490432988081
 20
8.012868736941472
 10
-5.883024738364803
 20
8.209751514375313
 10
-5.6112593534979895
 20
8.397843084255703
 10
-5.3334852915687225
 20
8.576942033418444
 10
-5.050000000000004
 20
8.746856578222827
 10
-4.761107041942579
 20
8.907404769918385
 10
-4.467115771211914
 20
9.05841468948015
 10
-4.168341001024394
 20
9.199724631703871
 10
-3.865102666887412
 20
9.331183278363994
 10
-3.5577254840044628
 20
9.452649860248988
 10
-3.246538599561934
 20
9.563994307900566
 10
-2.9318752402700707
 20
9.665097390895308
 10
-2.614072355535467
 20
9.755850845519587
 10
-2.293470256647175
 20
9.836157490701067
 10
-1.9704122523628995
 20
9.905931332072626
 10
-1.6452442812853485
 20
9.965097654057278
 10
-1.3183145414225301
 20
10.013593099875484
 10
-0.9899731173285695
 20
10.051365739389187
 10
-0.6605716052244505
 20
10.078375124709895
 10
-0.33046273649994273
 20
10.094592333511294
 10
0.0
 20
10.1
 10
0.3304627364999301
 20
10.094592333511294
 10
0.6605716052244379
 20
10.078375124709895
 10
0.9899731173285569
 20
10.051365739389189
 10
1.3183145414225177
 20
10.013593099875486
 10
1.6452442812853447
 20
9.965097654057278
 10
1.9704122523628869
 20
9.90593133207263
 10
2.2934702566471628
 20
9.836157490701071
 10
2.614072355535455
 20
9.755850845519591
 10
2.9318752402700667
 20
9.66509739089531
 10
3.246538599561931
 20
9.563994307900566
 10
3.5577254840044503
 20
9.452649860248991
 10
3.8651026668874007
 20
9.331183278363998
 10
4.168341001024382
 20
9.199724631703877
 10
4.46711577121191
 20
9.058414689480154
 10
4.761107041942568
 20
8.90740476991839
 10
5.049999999999993
 20
8.746856578222834
 10
5.333485291568711
 20
8.57694203341845
 10
5.611259353497978
 20
8.397843084255708
 10
5.883024738364799
 20
8.209751514375315
 10
6.148490432988071
 20
8.012868736941481
 10
6.407372170052813
 20
7.807405578963648
 10
6.659392732510691
 20
7.593582055537675
 10
6.904282250430997
 20
7.3716271342481425
 10
7.141778489984128
 20
7.141778489984131
 10
7.371627134248134
 20
6.904282250431007
 10
7.5935820555376665
 20
6.6593927325107005
 10
7.80740557896364
 20
6.407372170052824
 10
8.012868736941472
 20
6.148490432988081
 10
8.209751514375313
 20
5.883024738364803
 10
8.397843084255703
 20
5.6112593534979895
 10
8.576942033418444
 20
5.333485291568723
 10
8.746856578222827
 20
5.050000000000004
 10
8.907404769918383
 20
4.761107041942579
 10
9.058414689480147
 20
4.4671157712119225
 10
9.199724631703871
 20
4.168341001024395
 10
9.331183278363994
 20
3.8651026668874127
 10
9.452649860248988
 20
3.557725484004463
 10
9.563994307900566
 20
3.246538599561935
 10
9.665097390895307
 20
2.9318752402700796
 10
9.755850845519587
 20
2.614072355535468
 10
9.836157490701067
 20
2.2934702566471756
 10
9.905931332072626
 20
1.9704122523629
 10
9.965097654057278
 20
1.645244281285349
 10
10.013593099875484
 20
1.318314541422531
 10
10.025767590118848
 20
1.2124868969796774
 10
10.827882404279867
 20
1.065478543697444
 10
9.965740458818315
 20
-3.6385862997245417
 10
9.971527916735718
 20
-3.649858427040214
 10
9.979777957395797
 20
-3.6660200711805895
 10
9.98799882826324
 20
-3.6822182373001087
 10
9.996190425447645
 20
-3.698452869086617
 10
10.0043526448458
 20
-3.7147239092473425
 10
10.012485382901355
 20
-3.731031301032987
 10
10.020588536401121
 20
-3.7473749877966567
 10
10.028662001530463
 20
-3.763754911118972
 10
10.03670567522392
 20
-3.7801710135522564
 10
10.044719454324099
 20
-3.7966232368471253
 10
10.05270323590738
 20
-3.81311152271099
 10
10.060656917380957
 20
-3.8296358129048818
 10
10.06858039580021
 20
-3.8461960479197064
 10
10.076473568625527
 20
-3.862792168484436
 10
10.084336333509816
 20
-3.879424115165042
 10
10.092168588378689
 20
-3.89609182849769
 10
10.099970230771069
 20
-3.9127952476092114
 10
10.10774115905889
 20
-3.9295343128355134
 10
10.115481271316561
 20
-3.946308963224669
 10
10.123190465880063
 20
-3.963119137856523
 10
10.130868641479502
 20
-3.9799647759990613
 10
10.138515695990968
 20
-3.9968458144825245
 10
10.146131528973896
 20
-4.01376219325474
 10
10.15371603942117
 20
-4.030713850320314
 10
10.161269125745825
 20
-4.047700721854873
 10
10.168790687676173
 20
-4.064722746327669
 10
10.176280624568953
 20
-4.081779860742543
 10
10.183738835896017
 20
-4.098872001757615
 10
10.19116522141904
 20
-4.115999106049164
 10
10.19855968086597
 20
-4.133161109590367
 10
10.205922114333008
 20
-4.150357948574099
 10
10.213252422133431
 20
-4.167589559052504
 10
10.220550504486729
 20
-4.184855876215018
 10
10.227816261678985
 20
-4.202156834766032
 10
10.235049594684362
 20
-4.2194923704060985
 10
10.242250404277565
 20
-4.236862417669357
 10
10.249418591223131
 20
-4.2542669104523245
 10
10.256554056875101
 20
-4.271705783389289
 10
10.263656702389753
 20
-4.289178969975418
 10
10.270726429265011
 20
-4.306686403884689
 10
10.277763139108462
 20
-4.324228018373733
 10
10.2847667338788
 20
-4.341803746920945
 10
10.291737115298321
 20
-4.359413521690788
 10
10.298674185400955
 20
-4.377057275009925
 10
10.305577846738842
 20
-4.394734939774689
 10
10.312448001839137
 20
-4.4124464481696535
 10
10.319284553289625
 20
-4.430191731799301
 10
10.32608740320124
 20
-4.447970720357967
 10
10.332856455398863
 20
-4.465783347347752
 10
10.339591613001286
 20
-4.483629543585056
 10
10.346292778420523
 20
-4.501509237439157
 10
10.352959856064757
 20
-4.519422361825048
 10
10.359592749379624
 20
-4.5373688463073645
 10
10.366191361595858
 20
-4.5553486192274475
 10
10.372755597412997
 20
-4.573361612159464
 10
10.37928536085457
 20
-4.591407754047074
 10
10.38578055573018
 20
-4.60948697257325
 10
10.392241087336059
 20
-4.62759919879376
 10
10.398666860143267
 20
-4.645744360635243
 10
10.405057778425487
 20
-4.663922384819293
 10
10.411413747790526
 20
-4.682133201041361
 10
10.417734673513259
 20
-4.700376737273105
 10
10.424020460722858
 20
-4.718652920320926
 10
10.430271015172277
 20
-4.736961678035046
 10
10.436486242505325
 20
-4.755302937131383
 10
10.442666048849668
 20
-4.773676625031871
 10
10.448810340334582
 20
-4.792082668288711
 10
10.45491902290518
 20
-4.810520992194729
 10
10.46099200329389
 20
-4.828991523567102
 10
10.467029188191066
 20
-4.8474941883039175
 10
10.473030484666355
 20
-4.866028912661105
 10
10.478995799328725
 20
-4.884595620616879
 10
10.484925039542187
 20
-4.90319423777315
 10
10.490818113207002
 20
-4.921824690466254
 10
10.496674927324122
 20
-4.940486901424193
 10
10.502495389643283
 20
-4.959180794934212
 10
10.503617084733843
 20
-4.9628122324268995
 10
10.77081574729418
 20
-4.947118729811928
 10
10.756039696786308
 20
-4.69268678385634
 10
11.468576447751564
 20
-4.906136827910456
 10
12.928651773931536
 20
-4.820381548561757
 10
12.96015330389093
 20
-5.3529588973991515
 10
16.490276158382322
 20
-6.410455058526102
 10
16.543163641680373
 20
-7.321135844643431
 10
13.162778318143387
 20
-8.778617684061611
 10
13.194358823875243
 20
-9.312530228604551
 10
11.724187100896536
 20
-9.398878504295539
 10
11.046323501474168
 20
-9.691145151793286
 10
11.031712194126273
 20
-9.439549953231953
 10
10.791932571156892
 20
-9.453633040714612
 10
10.78882380166703
 20
-9.473946024719393
 10
10.785197880774692
 20
-9.497316407413802
 10
10.781520957931207
 20
-9.5206979317375
 10
10.777792990359238
 20
-9.544090484796056
 10
10.774013935274663
 20
-9.567493955239883
 10
10.770183750317422
 20
-9.590908230685999
 10
10.766302393590738
 20
-9.614333197290062
 10
10.762369822918481
 20
-9.637768744322399
 10
10.758385996617454
 20
-9.661214759736763
 10
10.754350873738561
 20
-9.68467112843061
 10
10.75026441308723
 20
-9.708137738099333
 10
10.746126573493179
 20
-9.731614477786882
 10
10.741937314487155
 20
-9.755101233948896
 10
10.737696596143167
 20
-9.778597891274083
 10
10.733404377984446
 20
-9.802104338749604
 10
10.729060620109312
 20
-9.825620463815662
 10
10.724665283406264
 20
-9.84914615068571
 10
10.720218328310565
 20
-9.872681287350364
 10
10.715719715794375
 20
-9.896225760334502
 10
10.711169407154088
 20
-9.919779455602965
 10
10.706567363867734
 20
-9.943342259529366
 10
10.701913547602281
 20
-9.966914058669035
 10
10.697207920384255
 20
-9.990494739087032
 10
10.692450444692598
 20
-10.014084185690772
 10
10.687641082691655
 20
-10.037682286155452
 10
10.682779797325134
 20
-10.061288925649524
 10
10.677866551837939
 20
-10.084903988853863
 10
10.672901309233193
 20
-10.108527362905363
 10
10.667884033187395
 20
-10.132158932874306
 10
10.662814687460303
 20
-10.155798584521229
 10
10.657693236256113
 20
-10.17944620275356
 10
10.65251964388922
 20
-10.2031016729602
 10
10.64729387479989
 20
-10.226764881191277
 10
10.6420158939831
 20
-10.250435712001751
 10
10.636685666588901
 20
-10.274114050364878
 10
10.631303158013571
 20
-10.297799781216883
 10
10.62586833372285
 20
-10.321492790260544
 10
10.620381159705945
 20
-10.345192962013048
 10
10.614841602251087
 20
-10.368900180678077
 10
10.609249627700398
 20
-10.392614331306959
 10
10.603605202546223
 20
-10.416335299320941
 10
10.5979082939219
 20
-10.440062968529956
 10
10.592158869139412
 20
-10.463797222897181
 10
10.586356895455781
 20
-10.487537947705281
 10
10.580502340646099
 20
-10.511285027076754
 10
10.574595172712229
 20
-10.53503834520261
 10
10.568635359966295
 20
-10.558797786002781
 10
10.562622870867127
 20
-10.582563233765732
 10
10.556557674150518
 20
-10.60633457267203
 10
10.550439738850596
 20
-10.630111686661381
 10
10.5442690342036
 20
-10.653894459848733
 10
10.53804552994755
 20
-10.677682775355114
 10
10.531769195809225
 20
-10.701476517228347
 10
10.525440001834308
 20
-10.725275569301111
 10
10.51905791834718
 20
-10.74907981520143
 10
10.512622915885716
 20
-10.772889138734147
 10
10.50613496559902
 20
-10.796703422301913
 10
10.499594038232901
 20
-10.820522550651148
 10
10.493000105381036
 20
-10.844346406448656
 10
10.486353138714406
 20
-10.868174872785186
 10
10.479653109972805
 20
-10.892007833551972
 10
10.472899991632652
 20
-10.915845170760603
 10
10.466093755664609
 20
-10.93968676911173
 10
10.45923437515804
 20
-10.963532510307843
 10
10.452321823002107
 20
-10.987382277437696
 10
10.44535607228681
 20
-11.011235953921966
 10
10.438337096606105
 20
-11.03509342213426
 10
10.43126486926525
 20
-11.058954566369888
 10
10.424139365136174
 20
-11.082819266459012
 10
10.420502279037688
 20
-11.09491187165469
 10
10.5937493122081
 20
-11.182241127748677
 10
10.70742069948335
 20
-10.956544548543064
 10
11.214319486455901
 20
-11.49505417094734
 10
12.524133983971481
 20
-12.155297083024461
 10
12.284592520790852
 20
-12.632070755720505
 10
14.810297899856181
 20
-15.315282246732748
 10
14.399967619020241
 20
-16.130000382483992
 10
10.743975977925187
 20
-15.698451822302154
 10
10.503886249038644
 20
-16.17631674095934
 10
9.192593356952594
 20
-15.515328609205495
 10
8.45523875260513
 20
-15.42829221823763
 10
8.569572608283238
 20
-15.201280296130513
 10
8.406795553124523
 20
-15.119228679568641
 10
8.393367451664208
 20
-15.137760097304541
 10
8.376863920569889
 20
-15.160444321109575
 10
8.36030657322263
 20
-15.183111288463039
 10
8.3436954289293
 20
-15.205760880555227
 10
8.327030507317994
 20
-15.228392978522738
 10
8.310311828835204
 20
-15.25100746277589
 10
8.293539413632969
 20
-15.27360421447935
 10
8.276713281974486
 20
-15.29618311505912
 10
8.25983345522706
 20
-15.318744044819352
 10
8.24289995402346
 20
-15.341286885410929
 10
8.225912799322469
 20
-15.363811518459336
 10
8.208872013640367
 20
-15.386317823882635
 10
8.191777618289125
 20
-15.408805683534016
 10
8.174629634737894
 20
-15.431274979488597
 10
8.157428086133677
 20
-15.453725591962295
 10
8.140172994725365
 20
-15.476157402703743
 10
8.122864383294058
 20
-15.498570293172062
 10
8.105502274926877
 20
-15.520964144764127
 10
8.088086693171823
 20
-15.54333883868511
 10
8.070617661241839
 20
-15.565694256891856
 10
8.053095202657962
 20
-15.588030281372093
 10
8.035519342455743
 20
-15.610346792503442
 10
8.01789010417889
 20
-15.632643672920166
 10
8.000207512649405
 20
-15.654920804047315
 10
7.9824715927163705
 20
-15.677178067575436
 10
7.964682368966107
 20
-15.699415345946477
 10
7.946839867690041
 20
-15.721632519796904
 10
7.9289441137155094
 20
-15.743829471932806
 10
7.9109951328134915
 20
-15.766006084399713
 10
7.89299295157813
 20
-15.788162238529676
 10
7.87493759589786
 20
-15.810297816910882
 10
7.856829092543649
 20
-15.83241270139825
 10
7.838667468030142
 20
-15.854506774507344
 10
7.8204527494535885
 20
-15.876579918421154
 10
7.802184964758959
 20
-15.898632014626683
 10
7.783864141298494
 20
-15.920662945675852
 10
7.765490305954866
 20
-15.94267259504819
 10
7.747063487540398
 20
-15.964660844286856
 10
7.728583714867184
 20
-15.986627575227322
 10
7.7100510153491
 20
-16.0085726717565
 10
7.691465418490497
 20
-16.030496015644683
 10
7.672826953357611
 20
-16.052397489478665
 10
7.6541356488052426
 20
-16.07427697649185
 10
7.635391534901203
 20
-16.096134358811465
 10
7.616594641041225
 20
-16.11796951969949
 10
7.59774499751426
 20
-16.139782341739533
 10
7.578842634480855
 20
-16.161572707978447
 10
7.559887582433081
 20
-16.183340501458638
 10
7.540879872380273
 20
-16.205085604936958
 10
7.521819534806133
 20
-16.22680790213375
 10
7.502706601660108
 20
-16.248507275443334
 10
7.483541104264873
 20
-16.27018360827693
 10
7.464323073733552
 20
-16.291836784664838
 10
7.445052542808552
 20
-16.31346668712086
 10
7.425729543986555
 20
-16.335073198760387
 10
7.406354108941908
 20
-16.356656203960434
 10
7.386926270841014
 20
-16.378215585798422
 10
7.367446062853926
 20
-16.39975122763456
 10
7.34791351731555
 20
-16.42126301412688
 10
7.328328668882807
 20
-16.442750827708142
 10
7.308691551027746
 20
-16.464214552395763
 10
7.289002196900478
 20
-16.485654072953828
 10
7.269260641320816
 20
-16.507069272624907
 10
7.249466919139717
 20
-16.528460034956936
 10
7.2296210646025205
 20
-16.549826244464217
 10
7.209723111936345
 20
-16.5711677860417
 10
7.189773097538469
 20
-16.592484542579047
 10
7.169771056526535
 20
-16.613776398619123
 10
7.149717024022225
 20
-16.63504323908758
 10
7.139342869700204
 20
-16.64600339528906
 10
7.238469800915345
 20
-16.770636872621537
 10
7.438453155251739
 20
-16.611867882830673
 10
7.674113896055105
 20
-17.318377408831495
 10
8.58418116124489
 20
-18.462615876386675
 10
8.166579168036735
 20
-18.79478542101677
 10
9.332532277762507
 20
-22.29030604139399
 10
8.61809477058792
 20
-22.85750585489452
 10
5.4809263753913635
 20
-20.93101101303135
 10
5.062419476886307
 20
-21.26390033866176
 10
4.145338803676502
 20
-20.110843829240746
 10
3.5171162932651283
 20
-19.725060449648204
 10
3.7141150127180613
 20
-19.56866099439642
 10
3.6211427681783963
 20
-19.451765878302947
 10
3.6057922997933387
 20
-19.460938437258488
 10
3.5784785241610475
 20
-19.47719194942147
 10
3.5511208099988503
 20
-19.49340402559172
 10
3.5237192271957105
 20
-19.50957456572933
 10
3.4962738453549553
 20
-19.525703470258993
 10
3.468784735334934
 20
-19.541790639099762
 10
3.441251968395501
 20
-19.557835972205055
 10
3.4136756150513925
 20
-19.573839370192584
 10
3.3860557453019964
 20
-19.589800734267627
 10
3.358392432255845
 20
-19.60571996408929
 10
3.3306857466402837
 20
-19.621596960896092
 10
3.302935759206116
 20
-19.637431626237696
 10
3.275142543461475
 20
-19.653223860296936
 10
3.2473061708252713
 20
-19.668973564701197
 10
3.2194267133767465
 20
-19.684680640978453
 10
3.1915042441992867
 20
-19.70034499032682
 10
3.163538835476989
 20
-19.715966514703496
 10
3.135530559998206
 20
-19.73154511599418
 10
3.1074794919505866
 20
-19.74708069554913
 10
3.079385703978642
 20
-19.76257315580845
 10
3.0512492686786645
 20
-19.778022399525867
 10
3.023070261545648
 20
-19.79342832810299
 10
2.99484875608713
 20
-19.808790844245877
 10
2.966584825290983
 20
-19.824109851243843
 10
2.938278544559564
 20
-19.83938525130583
 10
2.909929988517663
 20
-19.854616947303896
 10
2.8815392313297252
 20
-19.869804842617317
 10
2.853106347867315
 20
-19.8849488405006
 10
2.824631414012563
 20
-19.900048843917244
 10
2.7961145046624996
 20
-19.915104756587308
 10
2.7675556949584736
 20
-19.930116482379212
 10
2.7389550615994698
 20
-19.945083924573243
 10
2.710312680274276
 20
-19.960006987221668
 10
2.681628626024345
 20
-19.97488557497534
 10
2.6529029763147207
 20
-19.989719591489834
 10
2.6241358080829573
 20
-20.00450894089847
 10
2.595327196533035
 20
-20.01925352850887
 10
2.5664772197259618
 20
-20.033953258418038
 10
2.537585954795045
 20
-20.048608035405948
 10
2.50865347808213
 20
-20.06321776494115
 10
2.479679868186328
 20
-20.077782351584183
 10
2.450665203001223
 20
-20.092301700483823
 10
2.421609559213649
 20
-20.106775717650354
 10
2.3925130153575953
 20
-20.12120430843757
 10
2.3633756509107204
 20
-20.135587377947772
 10
2.334197542933323
 20
-20.14992483272414
 10
2.304978770083576
 20
-20.164216578805473
 10
2.275719412683312
 20
-20.178462521624347
 10
2.2464195484682152
 20
-20.192662568119918
 10
2.217079256893025
 20
-20.206816624677863
 10
2.187698618557497
 20
-20.220924597333724
 10
2.1582777115892027
 20
-20.2349863935686
 10
2.1288166163884643
 20
-20.249001920047984
 10
2.0993154135900483
 20
-20.26297108352512
 10
2.0697741826434
 20
-20.276893791590673
 10
2.0401930043974357
 20
-20.29076995140812
 10
2.0105719590329523
 20
-20.304599470693976
 10
1.9809111282217655
 20
-20.31838225672968
 10
1.9512105925041536
 20
-20.332118217525263
 10
1.921470432181557
 20
-20.34580726149527
 10
1.8916907299982268
 20
-20.35944929614155
 10
1.8618715670511772
 20
-20.37304422995832
 10
1.8320130247836195
 20
-20.386591971544707
 10
1.8021151853866375
 20
-20.400092429386397
 10
1.7721781311784552
 20
-20.41354551216286
 10
1.7422019441183416
 20
-20.42695112894297
 10
1.7121867067810468
 20
-20.440309188783587
 10
1.6970316862175707
 20
-20.44702104723857
 10
1.7359590421297588
 20
-20.57484270074898
 10
1.976464385007974
 20
-20.5013602281747
 10
1.9377542119779902
 20
-21.237456219596762
 10
2.3669807326527987
 20
-22.646862081298153
 10
1.855442820043847
 20
-22.802654225923483
 10
1.6621041043687415
 20
-26.47910003991923
 10
0.7897003167750307
 20
-26.745648743695902
 10
-1.4273318779625208
 20
-23.802444266735463
 10
-1.937801554603226
 20
-23.957911073261002
 10
-2.3637293849330896
 20
-22.559336773180718
 10
-2.811902822023293
 20
-21.96436748512544
 10
-2.5676511485787983
 20
-21.889740382540882
 10
-2.597414768641428
 20
-21.792008722074577
 10
-2.6164310387663283
 20
-21.796133994291775
 10
-2.6526952454383177
 20
-21.803954848041727
 10
-2.688988942529919
 20
-21.811735930128275
 10
-2.7253121271958998
 20
-21.81947714998158
 10
-2.7616647968773056
 20
-21.82717841702473
 10
-2.798046948792897
 20
-21.834839640508918
 10
-2.834458580854422
 20
-21.842460729761417
 10
-2.870899689119925
 20
-21.850041593621693
 10
-2.9073702702015436
 20
-21.857582140935385
 10
-2.9438703200371794
 20
-21.865082280333876
 10
-2.9803998345498144
 20
-21.872541920324934
 10
-3.0169588101852165
 20
-21.879960969454533
 10
-3.0535472418732272
 20
-21.88733933586041
 10
-3.09016512442781
 20
-21.894676927558557
 10
-3.1268124534048543
 20
-21.901973652619326
 10
-3.163489224197331
 20
-21.909229419004937
 10
-3.200195430050115
 20
-21.916444134161853
 10
-3.236931064326007
 20
-21.92361770544187
 10
-3.2736961225832584
 20
-21.930750040545565
 10
-3.3104905984329815
 20
-21.937841046735723
 10
-3.347314484156646
 20
-21.944890630896445
 10
-3.3841677737406446
 20
-21.951898700157088
 10
-3.4210504597069025
 20
-21.9588651612967
 10
-3.45796253463564
 20
-21.965789920991448
 10
-3.494903990816508
 20
-21.97267288580335
 10
-3.531874820238798
 20
-21.979513962123953
 10
-3.5688750150775483
 20
-21.986313056319077
 10
-3.6059045664329985
 20
-21.993070074455215
 10
-3.6429634658388474
 20
-21.999784922598092
 10
-3.6800517039313476
 20
-22.006457506569436
 10
-3.7171692715255817
 20
-22.01308773212714
 10
-3.7543161594339987
 20
-22.01967550495979
 10
-3.791492357605883
 20
-22.02622073051352
 10
-3.828697855647476
 20
-22.032723314092312
 10
-3.8659326435880663
 20
-22.03918316098467
 10
-3.9031967108959376
 20
-22.045600176317357
 10
-3.940490045981173
 20
-22.051974264939286
 10
-3.9778126379877574
 20
-22.058305331742897
 10
-4.015164475832526
 20
-22.06459328151244
 10
-4.052545547245032
 20
-22.070838018750937
 10
-4.089955840504365
 20
-22.077039447962434
 10
-4.127395343525299
 20
-22.083197473531847
 10
-4.164864042956941
 20
-22.08931199954335
 10
-4.202361926627071
 20
-22.095382930191168
 10
-4.239888981146183
 20
-22.10141016941848
 10
-4.277445192943408
 20
-22.107393621032056
 10
-4.315030549046463
 20
-22.11333318888474
 10
-4.352645034903354
 20
-22.119228776495213
 10
-4.390288636199048
 20
-22.125080287338115
 10
-4.427961338176654
 20
-22.13088762475202
 10
-4.46566312725234
 20
-22.13665069216805
 10
-4.503393987141352
 20
-22.142369392575965
 10
-4.541153901767819
 20
-22.148043628849884
 10
-4.578942858002263
 20
-22.15367330429212
 10
-4.6167608380913165
 20
-22.15925832144878
 10
-4.654607825130102
 20
-22.164798582867828
 10
-4.692483804155092
 20
-22.17029399135044
 10
-4.7303887579717365
 20
-22.17574444930149
 10
-4.768322668690278
 20
-22.181149858945933
 10
-4.806285520102774
 20
-22.18651012267015
 10
-4.844277294114133
 20
-22.19182514256378
 10
-4.882297971727004
 20
-22.19709482047175
 10
-4.92034753591596
 20
-22.20231905847033
 10
-4.958425968200169
 20
-22.20749775837335
 10
-4.996533248722519
 20
-22.21263082173511
 10
-5.034669358811325
 20
-22.21771815018456
 10
-5.0728342805172835
 20
-22.222759645410473
 10
-5.111027991737998
 20
-22.22775520849436
 10
-5.145813124009379
 20
-22.232259629134433
 10
-5.141409753043352
 20
-22.317351768657208
 10
-4.890794724275428
 20
-22.304095220955034
 10
-5.10566343272017
 20
-23.008125019385552
 10
-5.029655570877638
 20
-24.47692508974771
 10
-5.562652234523753
 20
-24.50547536112468
 10
-6.638144123883603
 20
-28.02938697934151
 10
-7.549085814673899
 20
-28.07757220605049
 10
-8.989384232978308
 20
-24.689030222092796
 10
-9.523213571716148
 20
-24.717625096187682
 10
-9.598899627360156
 20
-23.2550437110454
 10
-9.890685121048055
 20
-22.568569725442302
 10
-9.635123013094747
 20
-22.555051496740667
 10
-9.639488003976332
 20
-22.470701026163237
 10
-9.646576965163591
 20
-22.470545193835562
 10
-9.687870084969111
 20
-22.469580267518587
 10
-9.729187591083285
 20
-22.468557494404156
 10
-9.770529427803073
 20
-22.467476769801586
 10
-9.811895535415864
 20
-22.466337989084735
 10
-9.853285856472612
 20
-22.465141047538168
 10
-9.894700334029556
 20
-22.463885840465604
 10
-9.936138908863953
 20
-22.46257226322859
 10
-9.977601521353629
 20
-22.46120021118738
 10
-10.019088113179585
 20
-22.459769579650935
 10
-10.060598625082754
 20
-22.458280263988417
 10
-10.10213299650523
 20
-22.456732159590146
 10
-10.14369116707565
 20
-22.455125161846784
 10
-10.185273076624757
 20
-22.453459166131488
 10
-10.22687866420893
 20
-22.45173406786897
 10
-10.26850786814693
 20
-22.44994976249425
 10
-10.310160627291827
 20
-22.448106145431517
 10
-10.351836879638247
 20
-22.446203112147067
 10
-10.393536562741538
 20
-22.444240558125138
 10
-10.435259614162174
 20
-22.442218378853717
 10
-10.477005970566974
 20
-22.44013646987289
 10
-10.518775568633968
 20
-22.437994726711988
 10
-10.560568345427178
 20
-22.4357930448995
 10
-10.602384235469167
 20
-22.433531320109406
 10
-10.644223175540983
 20
-22.431209447852535
 10
-10.686085101611154
 20
-22.42882732376945
 10
-10.727969947064853
 20
-22.426384843591062
 10
-10.769877647047707
 20
-22.42388190297539
 10
-10.811808135616243
 20
-22.421318397649816
 10
-10.85376134736172
 20
-22.41869422331268
 10
-10.895737215865712
 20
-22.41600927575621
 10
-10.937735673403756
 20
-22.41326345084344
 10
-10.979756653108954
 20
-22.410456644389992
 10
-11.021800088243834
 20
-22.40758875222268
 10
-11.0638659103316
 20
-22.404659670306792
 10
-11.105954051425897
 20
-22.401669294554107
 10
-11.148064443721516
 20
-22.39861752091282
 10
-11.19019701671495
 20
-22.39550424552445
 10
-11.232351701923037
 20
-22.392329364364937
 10
-11.274528430716227
 20
-22.389092773486016
 10
-11.316727132289175
 20
-22.38579436909084
 10
-11.358947736379708
 20
-22.382434047359133
 10
-11.401190172724826
 20
-22.379011704483617
 10
-11.443454370543721
 20
-22.375527236724743
 10
-11.485740257396078
 20
-22.37198054049103
 10
-11.52804776317097
 20
-22.368371511985274
 10
-11.570376815923897
 20
-22.364700047652818
 10
-11.612727341098212
 20
-22.360966044114193
 10
-11.6550992679721
 20
-22.35716939768075
 10
-11.697492524028325
 20
-22.353310004888144
 10
-11.739907034351043
 20
-22.34938776247364
 10
-11.78234272528067
 20
-22.345402567074622
 10
-11.824799524123353
 20
-22.34135431526613
 10
-11.867277355362516
 20
-22.337242903941583
 10
-11.909776144096016
 20
-22.333068229896067
 10
-11.952295816685638
 20
-22.32883018988088
 10
-11.994836295965479
 20
-22.32452868100352
 10
-12.03739750614484
 20
-22.32016360022597
 10
-12.079979372331938
 20
-22.31573484447551
 10
-12.122581817892309
 20
-22.31124231088248
 10
-12.165204764634298
 20
-22.3066858967636
 10
-12.207848136086515
 20
-22.302065499245106
 10
-12.239295759197672
 20
-22.298612544853366
 10
-12.25499893179967
 20
-22.381950921878325
 10
-12.008705017447934
 20
-22.42802021747478
 10
-12.382940507740507
 20
-23.060950227507046
 10
-12.655390132768574
 20
-24.50686884194094
 10
-13.18008181241402
 20
-24.409124484228922
 10
-15.055354795274488
 20
-27.58070114823583
 10
-15.952018738084687
 20
-27.412980088863588
 10
-16.553687649952764
 20
-23.780658380122688
 10
-17.079282225615014
 20
-23.68274582269517
 10
-16.808205599196285
 20
-22.244113855275852
  0
LWPOLYLINE
  5
31
330
17
100
AcDbEntity
  8
OPEN_WEB_CUTOUT
100
AcDbPolyline
 90
10
 70
1
 10
2.931875240270071
 20
-9.665097390895308
 10
2.6140723555354617
 20
-9.75585084551959
 10
2.2934702566471716
 20
-9.83615749070107
 10
1.9704122523628962
 20
-9.905931332072628
 10
1.645244281285347
 20
-9.965097654057278
 10
1.4613652384711915
 20
-9.992373533460722
 10
1.1390552526979643
 20
-12.036310153432153
 10
2.1880010463824924
 20
-11.201956265527771
 10
2.965595934101513
 20
-9.654262744895364
 10
2.931875240270071
 20
-9.665097390895308
  0
LWPOLYLINE
  5
32
330
17
100
AcDbEntity
  8
OPEN_WEB_CUTOUT
100
AcDbPolyline
 90
213
 70
1
 10
-30.43529991611165
 20
-4.450721944587163
 10
-30.414905370956284
 20
-4.481181768429806
 10
-30.38698424787186
 20
-4.522731880151562
 10
-30.359011719901233
 20
-4.564208113659408
 10
-30.330987960033486
 20
-4.605610425013991
 10
-30.302913140930894
 20
-4.646938771083777
 10
-30.274787434178393
 20
-4.6881931107370685
 10
-30.246611012937606
 20
-4.729373400886514
 10
-30.21838405060347
 20
-4.770479598463725
 10
-30.19010671927803
 20
-4.811511662641922
 10
-30.161779190209245
 20
-4.852469554217116
 10
-30.133401636921096
 20
-4.893353231071282
 10
-30.10497423137577
 20
-4.934162653640742
 10
-30.07649714575819
 20
-4.974897782481506
 10
-30.04797055423797
 20
-5.015558575603824
 10
-30.0193946269615
 20
-5.056144997113519
 10
-29.990769536082478
 20
-5.0966570086881955
 10
-29.9620954554442
 20
-5.13709456988979
 10
-29.933372556356158
 20
-5.177457644239175
 10
-29.904601011219032
 20
-5.217746194083704
 10
-29.875780992002525
 20
-5.257960182697542
 10
-29.846912670544008
 20
-5.298099573917734
 10
-29.81799621880984
 20
-5.338164331721655
 10
-29.789031809313727
 20
-5.378154419702158
 10
-29.76001961447404
 20
-5.418069801890157
 10
-29.73095980478793
 20
-5.457910445324417
 10
-29.70185255297349
 20
-5.497676314359197
 10
-29.67269803086393
 20
-5.537367374842419
 10
-29.643496409712903
 20
-5.576983593808452
 10
-29.614247862036883
 20
-5.616524936872603
 10
-29.58495255834635
 20
-5.655991372707479
 10
-29.572741944964488
 20
-5.6723841259120125
 10
-28.508133001491093
 20
-4.744440273247884
 10
-25.54880455911722
 20
-8.134480858573822
 10
-26.61244354838771
 20
-9.061579271186494
 10
-26.580758987515406
 20
-9.092482318885324
 10
-26.54773269061085
 20
-9.124588021650721
 10
-26.514676062693912
 20
-9.156617483542998
 10
-26.48158926451505
 20
-9.18857071068185
 10
-26.44847245823327
 20
-9.220447708087363
 10
-26.41532580586313
 20
-9.252248481083068
 10
-26.382149468198687
 20
-9.283973036428389
 10
-26.348943608501717
 20
-9.315621378712885
 10
-26.315708386040512
 20
-9.347193516534311
 10
-26.282443961118922
 20
-9.378689457770253
 10
-26.249150497453513
 20
-9.410109207239326
 10
-26.215828154887685
 20
-9.441452773622562
 10
-26.18247709185252
 20
-9.4727201671693
 10
-26.149097471126474
 20
-9.50391139426683
 10
-26.11568945251281
 20
-9.535026464241
 10
-26.082253194791715
 20
-9.566065387647708
 10
-26.048788860282308
 20
-9.597028171921716
 10
-26.01529660769605
 20
-9.627914828041629
 10
-25.98177659582182
 20
-9.658725367149245
 10
-25.94822898505379
 20
-9.68945979909417
 10
-25.91465393511551
 20
-9.720118134550416
 10
-25.881051604396514
 20
-9.750700385606224
 10
-25.847422152397915
 20
-9.781206563562444
 10
-25.813765738337025
 20
-9.811636680147217
 10
-25.780082519448836
 20
-9.84199074910575
 10
-25.746372655368518
 20
-9.872268782221392
 10
-25.71263630586443
 20
-9.902470791337704
 10
-25.678873627106526
 20
-9.932596791718964
 10
-25.64508477636977
 20
-9.962646797870466
 10
-25.611269914483685
 20
-9.992620821310187
 10
-25.577429197453654
 20
-10.02251887800191
 10
-25.57318787771078
 20
-10.026253701521945
 10
-24.73068821171192
 20
-8.900506245378265
 10
-21.120352131488374
 20
-11.586669566517932
 10
-21.962315702873152
 20
-12.711700693418514
 10
-21.94630132090238
 20
-12.721630691051912
 10
-21.91058608482155
 20
-12.743697442933383
 10
-21.874860604033316
 20
-12.765691573386295
 10
-21.839125012543732
 20
-12.787613130536045
 10
-21.803379446706995
 20
-12.809462161160491
 10
-21.767624040877436
 20
-12.831238713375845
 10
-21.73185892968646
 20
-12.852942835251643
 10
-21.696084247230658
 20
-12.87457457528188
 10
-21.66030012906594
 20
-12.896133981209541
 10
-21.624506707649747
 20
-12.917621102718538
 10
-21.588704116187195
 20
-12.939035989209195
 10
-21.552892490541105
 20
-12.960378688551657
 10
-21.517071962134363
 20
-12.981649251393733
 10
-21.48124266355886
 20
-13.002847727801743
 10
-21.445404728684533
 20
-13.023974167187014
 10
-21.409558289240096
 20
-13.04502862032379
 10
-21.373703475912624
 20
-13.066011138718721
 10
-21.337840423330206
 20
-13.086921771681277
 10
-21.301969262498297
 20
-13.107760570704254
 10
-21.26609012260032
 20
-13.128527588490446
 10
-21.230203138443137
 20
-13.14922287457134
 10
-21.194308438305082
 20
-13.16984648231864
 10
-21.158406151638054
 20
-13.190398464596795
 10
-21.12249641224128
 20
-13.210878871826708
 10
-21.08657934849576
 20
-13.231287757639723
 10
-21.050655089793892
 20
-13.251625175205131
 10
-21.014723766353853
 20
-13.27189117731019
 10
-20.978785507458475
 20
-13.292085817377073
 10
-20.942840441829397
 20
-13.312209149237605
 10
-20.906888698756063
 20
-13.332261226513134
 10
-20.870930407247382
 20
-13.352242103066684
 10
-20.834965695326762
 20
-13.372151833417107
 10
-20.83447630275453
 20
-13.372421741990298
 10
-20.265156577358834
 20
-12.09318560982073
 10
-16.150003064379543
 20
-13.914040234609372
 10
-16.718944700308793
 20
-15.192426816543634
 10
-16.687479784302333
 20
-15.203067391320069
 10
-16.65156747219329
 20
-15.215150741642917
 10
-16.615661823171262
 20
-15.227170734957753
 10
-16.579762933726176
 20
-15.239127447220135
 10
-16.543870897263368
 20
-15.251020955432814
 10
-16.507985806576784
 20
-15.262851336853625
 10
-16.472107756466677
 20
-15.274618668093837
 10
-16.436236839135415
 20
-15.286323026647606
 10
-16.400373149739472
 20
-15.297964489090354
 10
-16.364516779517132
 20
-15.30954313326172
 10
-16.328667818144897
 20
-15.321059037580874
 10
-16.292826362826094
 20
-15.332512278052661
 10
-16.256992503789238
 20
-15.343902932917686
 10
-16.221166329315007
 20
-15.355231081105124
 10
-16.185347933816253
 20
-15.366496799609038
 10
-16.149537408528616
 20
-15.377700166440167
 10
-16.113734840189593
 20
-15.388841261052148
 10
-16.077940322900886
 20
-15.399920160654478
 10
-16.042153946406334
 20
-15.41093694376918
 10
-16.006375796671676
 20
-15.421891690173581
 10
-15.970605967987506
 20
-15.432784477083684
 10
-15.934844545956317
 20
-15.443615384368076
 10
-15.899091618974039
 20
-15.454384491126643
 10
-15.863347277510927
 20
-15.4650918757945
 10
-15.827611609460943
 20
-15.475737617648154
 10
-15.791884702739004
 20
-15.486321795940789
 10
-15.756166642692545
 20
-15.496844490737685
 10
-15.720457517408747
 20
-15.507305781300742
 10
-15.684757413706768
 20
-15.517705747285
 10
-15.649066420938606
 20
-15.528044467635372
 10
-15.613384623386501
 20
-15.53832202275466
 10
-15.577712103173054
 20
-15.548538493727719
 10
-15.548165992658113
 20
-15.55695206589988
 10
-15.289822655453982
 20
-14.185896994196469
 10
-10.865930562607545
 20
-15.010020013442233
 10
-11.124201406723056
 20
-16.380690356753224
 10
-11.115372654203131
 20
-16.381494106770987
 10
-11.081504779515383
 20
-16.384528761747266
 10
-11.047654733230692
 20
-16.387513282604825
 10
-11.013822555478372
 20
-16.390447755715584
 10
-10.980008298300659
 20
-16.393332266378437
 10
-10.946212006896399
 20
-16.396166900384877
 10
-10.912433721767915
 20
-16.39895174394409
 10
-10.878673490964248
 20
-16.401686882565205
 10
-10.844931358415609
 20
-16.40437240205365
 10
-10.81120736725152
 20
-16.407008388244535
 10
-10.777501561321571
 20
-16.409594926869417
 10
-10.743813986781745
 20
-16.41213210344707
 10
-10.71014468417938
 20
-16.414620003850953
 10
-10.676493694309212
 20
-16.417058713934413
 10
-10.642861064614658
 20
-16.419448318994053
 10
-10.609246835394165
 20
-16.421788904786823
 10
-10.575651048049293
 20
-16.424080556976225
 10
-10.542073746276131
 20
-16.426323360996072
 10
-10.508514969404814
 20
-16.428517402538695
 10
-10.474974757854824
 20
-16.430662767182064
 10
-10.441453155274104
 20
-16.4327595402505
 10
-10.40795020223741
 20
-16.434807807199558
 10
-10.37446593707246
 20
-16.436807653595153
 10
-10.34100040039245
 20
-16.43875916480959
 10
-10.307553630352874
 20
-16.44066242630744
 10
-10.274125670956144
 20
-16.442517523194574
 10
-10.240716559432858
 20
-16.444324540851746
 10
-10.20732633129519
 20
-16.446083564773662
 10
-10.173955029409727
 20
-16.447794679966066
 10
-10.14060268993763
 20
-16.449457971745275
 10
-10.107269350874981
 20
-16.45107352529432
 10
-10.073955050982958
 20
-16.452641425695248
 10
-10.040659827129296
 20
-16.454161758075912
 10
-10.007383716916001
 20
-16.45563460747913
 10
-9.974126757386115
 20
-16.45706005891757
 10
-9.95063310835745
 20
-16.458034176586214
 10
-10.022638918082707
 20
-15.066571032812332
 10
-5.529080917244196
 20
-14.82587102637236
 10
-5.491004105829202
 20
-15.561679427368759
 10
-4.465611338264664
 20
-9.05912623327189
 10
-4.467115771211911
 20
-9.058414689480152
 10
-4.761107041942573
 20
-8.907404769918388
 10
-5.049999999999998
 20
-8.74685657822283
 10
-5.333485291568716
 20
-8.576942033418446
 10
-5.61125935349798
 20
-8.397843084255708
 10
-5.8830247383648
 20
-8.209751514375313
 10
-6.148490432988075
 20
-8.012868736941478
 10
-6.407372170052818
 20
-7.807405578963644
 10
-6.659392732510692
 20
-7.5935820555376745
 10
-6.904282250430998
 20
-7.371627134248142
 10
-7.141778489984129
 20
-7.14177848998413
 10
-7.371627134248137
 20
-6.904282250431002
 10
-7.59358205553767
 20
-6.659392732510696
 10
-7.80740557896364
 20
-6.407372170052823
 10
-8.012868736941474
 20
-6.148490432988081
 10
-8.209751514375313
 20
-5.883024738364801
 10
-8.397843084255705
 20
-5.611259353497985
 10
-8.576942033418446
 20
-5.333485291568717
 10
-8.746856578222829
 20
-5.050000000000003
 10
-8.907404769918385
 20
-4.761107041942578
 10
-9.05841468948015
 20
-4.467115771211917
 10
-9.199724631703875
 20
-4.168341001024389
 10
-9.331183278363996
 20
-3.865102666887408
 10
-9.452649860248988
 20
-3.557725484004462
 10
-9.563994307900566
 20
-3.2465385995619336
 10
-9.665097390895308
 20
-2.931875240270074
 10
-9.75585084551959
 20
-2.614072355535462
 10
-9.797317789486964
 20
-2.4485270355886413
 10
-30.610112465241016
 20
-1.266747754738486
 10
-29.20146194511605
 20
-3.754616217029659
 10
-30.43529991611165
 20
-4.450721944587163
  0
LWPOLYLINE
  5
33
330
17
100
AcDbEntity
  8
SHAFT_BORE_PLACEHOLDER
100
AcDbPolyline
 90
193
 70
1
 10
4.097804808653099
 20
0.13414823956928393
 10
4.091221585278274
 20
0.268152829843589
 10
4.080257379356007
 20
0.4018702753512017
 10
4.064923931632622
 20
0.5351573881022155
 10
4.045237661548003
 20
0.6678714409178149
 10
4.0212196496532435
 20
0.7998703202661277
 10
3.992895615037067
 20
0.9310126784409326
 10
3.960295887785179
 20
1.0611580849203384
 10
3.923455376502055
 20
1.1901671767432995
 10
3.8824135309299326
 20
1.3179018077429636
 10
3.8372142997050345
 20
1.4442251964770592
 10
3.7879060832962743
 20
1.5690020726968705
 10
3.734541682176819
 20
1.6920988221980213
 10
3.67717824028402
 20
1.8133836298979091
 10
3.6158771838282546
 20
1.9327266209865914
 10
3.550704155516197
 20
2.0500000000000016
 10
3.481728944258972
 20
2.1650781876665115
 10
3.4090254104404334
 20
2.277837955380372
 10
3.3326714068256216
 20
2.388158557157989
 10
3.252748695194063
 20
2.4959218589357555
 10
3.16934285878722
 20
2.6010124650709483
 10
3.0825432106638053
 20
2.7033178419102843
 10
2.9924426980611236
 20
2.802728438293775
 10
2.899137802864844
 20
2.8991378028648453
 10
2.802728438293771
 20
2.992442698061127
 10
2.7033178419102804
 20
3.082543210663809
 10
2.601012465070944
 20
3.1693428587872234
 10
2.4959218589357515
 20
3.2527486951940663
 10
2.3881585571579875
 20
3.3326714068256225
 10
2.277837955380367
 20
3.409025410440436
 10
2.165078187666506
 20
3.4817289442589745
 10
2.049999999999997
 20
3.5507041555161996
 10
1.9327266209865868
 20
3.6158771838282573
 10
1.813383629897904
 20
3.6771782402840225
 10
1.6920988221980167
 20
3.7345416821768214
 10
1.5690020726968654
 20
3.787906083296276
 10
1.444225196477054
 20
3.8372142997050362
 10
1.3179018077429618
 20
3.882413530929933
 10
1.1901671767432944
 20
3.9234553765020563
 10
1.061158084920333
 20
3.9602958877851804
 10
0.9310126784409274
 20
3.9928956150370682
 10
0.7998703202661224
 20
4.021219649653245
 10
0.6678714409178131
 20
4.045237661548003
 10
0.5351573881022101
 20
4.064923931632623
 10
0.40187027535119635
 20
4.080257379356007
 10
0.2681528298435837
 20
4.091221585278275
 10
0.13414823956927854
 20
4.097804808653099
 10
0.0
 20
4.1
 10
-0.13414823956928368
 20
4.097804808653099
 10
-0.2681528298435888
 20
4.091221585278274
 10
-0.40187027535120146
 20
4.080257379356007
 10
-0.5351573881022151
 20
4.064923931632622
 10
-0.6678714409178147
 20
4.045237661548003
 10
-0.7998703202661275
 20
4.0212196496532435
 10
-0.9310126784409324
 20
3.992895615037067
 10
-1.0611580849203381
 20
3.960295887785179
 10
-1.190167176743296
 20
3.923455376502056
 10
-1.3179018077429634
 20
3.8824135309299326
 10
-1.444225196477059
 20
3.8372142997050345
 10
-1.5690020726968703
 20
3.7879060832962743
 10
-1.692098822198021
 20
3.734541682176819
 10
-1.8133836298979054
 20
3.6771782402840216
 10
-1.9327266209865912
 20
3.615877183828255
 10
-2.0500000000000016
 20
3.550704155516197
 10
-2.165078187666511
 20
3.481728944258972
 10
-2.277837955380372
 20
3.4090254104404334
 10
-2.388158557157989
 20
3.3326714068256216
 10
-2.4959218589357555
 20
3.252748695194063
 10
-2.601012465070948
 20
3.16934285878722
 10
-2.703317841910283
 20
3.0825432106638067
 10
-2.8027284382937734
 20
2.992442698061125
 10
-2.8991378028648462
 20
2.899137802864843
 10
-2.9924426980611267
 20
2.802728438293771
 10
-3.0825432106638084
 20
2.703317841910281
 10
-3.1693428587872217
 20
2.601012465070945
 10
-3.252748695194065
 20
2.4959218589357532
 10
-3.3326714068256234
 20
2.388158557157986
 10
-3.409025410440436
 20
2.277837955380368
 10
-3.4817289442589745
 20
2.1650781876665066
 10
-3.5507041555161987
 20
2.049999999999999
 10
-3.6158771838282564
 20
1.9327266209865885
 10
-3.677178240284022
 20
1.8133836298979042
 10
-3.7345416821768214
 20
1.6920988221980169
 10
-3.787906083296276
 20
1.5690020726968656
 10
-3.837214299705036
 20
1.444225196477056
 10
-3.8824135309299335
 20
1.3179018077429603
 10
-3.9234553765020563
 20
1.1901671767432946
 10
-3.9602958877851804
 20
1.0611580849203333
 10
-3.9928956150370674
 20
0.9310126784409294
 10
-4.021219649653245
 20
0.7998703202661244
 10
-4.045237661548004
 20
0.6678714409178116
 10
-4.064923931632623
 20
0.5351573881022104
 10
-4.080257379356007
 20
0.40187027535119657
 10
-4.091221585278274
 20
0.26815282984358574
 10
-4.097804808653099
 20
0.13414823956928063
 10
-4.1
 20
0.0
 10
-4.097804808653099
 20
-0.13414823956928343
 10
-4.091221585278274
 20
-0.26815282984358857
 10
-4.080257379356007
 20
-0.40187027535119935
 10
-4.064923931632622
 20
-0.5351573881022131
 10
-4.045237661548003
 20
-0.6678714409178145
 10
-4.021219649653244
 20
-0.7998703202661273
 10
-3.992895615037067
 20
-0.9310126784409322
 10
-3.9602958877851795
 20
-1.0611580849203361
 10
-3.9234553765020554
 20
-1.1901671767432973
 10
-3.8824135309299326
 20
-1.3179018077429632
 10
-3.8372142997050345
 20
-1.4442251964770587
 10
-3.787906083296275
 20
-1.5690020726968685
 10
-3.73454168217682
 20
-1.6920988221980193
 10
-3.677178240284021
 20
-1.8133836298979067
 10
-3.615877183828255
 20
-1.932726620986591
 10
-3.5507041555161973
 20
-2.050000000000001
 10
-3.4817289442589727
 20
-2.165078187666509
 10
-3.4090254104404343
 20
-2.2778379553803703
 10
-3.3326714068256216
 20
-2.3881585571579884
 10
-3.2527486951940636
 20
-2.4959218589357555
 10
-3.16934285878722
 20
-2.601012465070948
 10
-3.0825432106638067
 20
-2.7033178419102826
 10
-2.992442698061125
 20
-2.8027284382937734
 10
-2.8991378028648445
 20
-2.899137802864845
 10
-2.8027284382937716
 20
-2.9924426980611267
 10
-2.703317841910281
 20
-3.0825432106638084
 10
-2.6010124650709456
 20
-3.1693428587872217
 10
-2.4959218589357532
 20
-3.252748695194065
 10
-2.388158557157988
 20
-3.332671406825622
 10
-2.277837955380368
 20
-3.4090254104404356
 10
-2.1650781876665084
 20
-3.481728944258973
 10
-2.049999999999999
 20
-3.5507041555161982
 10
-1.9327266209865888
 20
-3.6158771838282564
 10
-1.8133836298979045
 20
-3.677178240284022
 10
-1.6920988221980178
 20
-3.734541682176821
 10
-1.5690020726968668
 20
-3.7879060832962756
 10
-1.4442251964770563
 20
-3.8372142997050354
 10
-1.3179018077429614
 20
-3.882413530929933
 10
-1.1901671767432949
 20
-3.9234553765020563
 10
-1.0611580849203346
 20
-3.96029588778518
 10
-0.9310126784409297
 20
-3.9928956150370674
 10
-0.7998703202661246
 20
-4.021219649653245
 10
-0.6678714409178127
 20
-4.045237661548004
 10
-0.5351573881022106
 20
-4.064923931632623
 10
-0.4018702753511977
 20
-4.080257379356007
 10
-0.26815282984358596
 20
-4.091221585278274
 10
-0.13414823956928176
 20
-4.097804808653099
 10
0.0
 20
-4.1
 10
0.13414823956928318
 20
-4.097804808653099
 10
0.2681528298435874
 20
-4.091221585278274
 10
0.4018702753511991
 20
-4.080257379356007
 10
0.535157388102212
 20
-4.064923931632622
 10
0.6678714409178141
 20
-4.045237661548003
 10
0.7998703202661261
 20
-4.021219649653244
 10
0.931012678440931
 20
-3.9928956150370674
 10
1.061158084920336
 20
-3.9602958877851795
 10
1.1901671767432962
 20
-3.923455376502056
 10
1.317901807742963
 20
-3.8824135309299326
 10
1.4442251964770576
 20
-3.837214299705035
 10
1.569002072696868
 20
-3.787906083296275
 10
1.692098822198019
 20
-3.73454168217682
 10
1.8133836298979058
 20
-3.6771782402840216
 10
1.9327266209865908
 20
-3.615877183828255
 10
2.0500000000000003
 20
-3.550704155516198
 10
2.165078187666509
 20
-3.481728944258973
 10
2.27783795538037
 20
-3.4090254104404347
 10
2.388158557157989
 20
-3.3326714068256216
 10
2.4959218589357546
 20
-3.252748695194064
 10
2.6010124650709465
 20
-3.1693428587872208
 10
2.7033178419102826
 20
-3.082543210663807
 10
2.8027284382937725
 20
-2.992442698061126
 10
2.899137802864845
 20
-2.8991378028648445
 10
2.9924426980611263
 20
-2.8027284382937716
 10
3.0825432106638075
 20
-2.703317841910282
 10
3.169342858787221
 20
-2.601012465070946
 10
3.2527486951940645
 20
-2.495921858935754
 10
3.332671406825622
 20
-2.388158557157988
 10
3.409025410440435
 20
-2.277837955380369
 10
3.4817289442589736
 20
-2.165078187666508
 10
3.5507041555161982
 20
-2.0499999999999994
 10
3.6158771838282555
 20
-1.9327266209865899
 10
3.677178240284022
 20
-1.813383629897905
 10
3.7345416821768205
 20
-1.692098822198018
 10
3.787906083296275
 20
-1.5690020726968679
 10
3.8372142997050354
 20
-1.4442251964770572
 10
3.882413530929933
 20
-1.317901807742962
 10
3.923455376502056
 20
-1.1901671767432955
 10
3.96029588778518
 20
-1.061158084920335
 10
3.9928956150370674
 20
-0.93101267844093
 10
4.021219649653244
 20
-0.7998703202661257
 10
4.045237661548003
 20
-0.6678714409178137
 10
4.064923931632622
 20
-0.5351573881022114
 10
4.080257379356007
 20
-0.40187027535119846
 10
4.091221585278274
 20
-0.2681528298435865
 10
4.097804808653099
 20
-0.13414823956928215
 10
4.1
 20
0.0
 10
4.097804808653099
 20
0.13414823956928393
  0
LWPOLYLINE
  5
34
330
17
100
AcDbEntity
  8
OPEN_PITCH_SECTOR_REFERENCE
100
AcDbPolyline
 90
2001
 70
0
 10
11.223817260864191
 20
-0.0
 10
11.23399128947585
 20
-0.017646326766278843
 10
11.251589629784904
 20
-0.03534802761256531
 10
11.267154944550967
 20
-0.05309560982606918
 10
11.283220472574362
 20
-0.07089549804076194
 10
11.299107497472153
 20
-0.08874480751491785
 10
11.314997681188611
 20
-0.10664449840755423
 10
11.33084221789768
 20
-0.12459413864204436
 10
11.346654036757052
 20
-0.14259376577280053
 10
11.362429530359156
 20
-0.16064326529736014
 10
11.378169521130053
 20
-0.17874257012337408
 10
11.393873645133219
 20
-0.19689159831585756
 10
11.409541856377011
 20
-0.21509027213510454
 10
11.425174023944749
 20
-0.23333851230567212
 10
11.440770039931845
 20
-0.25163623972218485
 10
11.456329790438733
 20
-0.26998337494554586
 10
11.471853163385752
 20
-0.28837983835126874
 10
11.487340046486906
 20
-0.3068255500886413
 10
11.502790327680746
 20
-0.3253204300902742
 10
11.51820389507435
 20
-0.3438643980711702
 10
11.533580636964071
 20
-0.36245737352967616
 10
11.548920441806526
 20
-0.3810992757469867
 10
11.564223198262251
 20
-0.39979002378888046
 10
11.5794887951179
 20
-0.41852953650348074
 10
11.59471712140525
 20
-0.4373177325256964
 10
11.60990806628768
 20
-0.4561545302736497
 10
11.625061519091854
 20
-0.4750398479499641
 10
11.640177369370585
 20
-0.49397360354466746
 10
11.655255506814786
 20
-0.5129557148320508
 10
11.67029582132484
 20
-0.5319860993739526
 10
11.68529820294699
 20
-0.5510646745173537
 10
11.700262541950286
 20
-0.5701913573982166
 10
11.715188728750805
 20
-0.5893660649383634
 10
11.730076653939257
 20
-0.6085887138470041
 10
11.744926208317098
 20
-0.6278592206229727
 10
11.759737282826745
 20
-0.6471775015514744
 10
11.774509768650532
 20
-0.666543472709726
 10
11.789243557107168
 20
-0.6859570499617437
 10
11.803938539696254
 20
-0.7054181489609965
 10
11.818594608114157
 20
-0.7249266851517249
 10
11.83321165424466
 20
-0.7444825737688134
 10
11.847789570155449
 20
-0.7640857298379563
 10
11.86232824806593
 20
-0.7837360681738871
 10
11.876827580428387
 20
-0.8034335033859685
 10
11.891287459863753
 20
-0.8231779498744871
 10
11.905707779136527
 20
-0.8429693218291034
 10
11.920088431248354
 20
-0.8628075332356555
 10
11.934429309367001
 20
-0.8826924978716701
 10
11.948730306839192
 20
-0.9026241293075308
 10
11.962991317208266
 20
-0.922602340908141
 10
11.977212234206027
 20
-0.9426270458327162
 10
11.991392951742633
 20
-0.9626981570343423
 10
12.00553336391055
 20
-0.9828155872605859
 10
12.01963336501241
 20
-1.0029792490561296
 10
12.033692849504755
 20
-1.0231890547585274
 10
12.04771171206822
 20
-1.0434449165043598
 10
12.061689847545601
 20
-1.063746746224414
 10
12.075627150975551
 20
-1.0840944556468524
 10
12.089523517613914
 20
-1.104487956299566
 10
12.103378842865503
 20
-1.1249271595044126
 10
12.117193022321215
 20
-1.1454119763807544
 10
12.1309659517987
 20
-1.1659423178496875
 10
12.144697527311699
 20
-1.1865180946316922
 10
12.158387645009768
 20
-1.2071392172410405
 10
12.172036201276741
 20
-1.227805595995648
 10
12.18564309269593
 20
-1.2485171410141995
 10
12.199208216006017
 20
-1.2692737622119772
 10
12.21273146816165
 20
-1.2900753693073226
 10
12.226212746312763
 20
-1.3109218718199598
 10
12.23965194779016
 20
-1.3318131790698025
 10
12.253048970128038
 20
-1.352749200179698
 10
12.26640371104464
 20
-1.3737298440736883
 10
12.279716068475729
 20
-1.3947550194810987
 10
12.292985940516074
 20
-1.4158246349303296
 10
12.306213225463022
 20
-1.436938598754021
 10
12.319397821853261
 20
-1.4580968190938206
 10
12.332539628366657
 20
-1.4792992038895507
 10
12.345638543890585
 20
-1.5005456608869736
 10
12.358694467527666
 20
-1.5218360976391843
 10
12.371707298563468
 20
-1.5431704215030904
 10
12.384676936471454
 20
-1.5645485396402903
 10
12.397603280944901
 20
-1.58597035902143
 10
12.410486231859478
 20
-1.6074357864219029
 10
12.423325689292893
 20
-1.6289447284246494
 10
12.436121553519726
 20
-1.6504970914198713
 10
12.448873725012563
 20
-1.672092781605519
 10
12.461582104442206
 20
-1.6937317049876797
 10
12.474246592671454
 20
-1.7154137673800691
 10
12.486867090797428
 20
-1.7371388744102165
 10
12.499443500069573
 20
-1.7589069315085637
 10
12.511975721958358
 20
-1.78071784391822
 10
12.524463658160652
 20
-1.802571516696253
 10
12.536907210522815
 20
-1.824467854703064
 10
12.549306281115035
 20
-1.8464067626132732
 10
12.561660772233205
 20
-1.86838814491653
 10
12.573970586355045
 20
-1.8904119059114752
 10
12.586235626137544
 20
-1.9124779497055422
 10
12.5984557944843
 20
-1.9345861802254762
 10
12.610630994469881
 20
-1.9567365012063056
 10
12.622761129383672
 20
-1.9789288161983194
 10
12.63484610271538
 20
-2.0011630285652244
 10
12.64688581816452
 20
-2.023439041485992
 10
12.65888017963017
 20
-2.0457567579536113
 10
12.670829091206024
 20
-2.0681160807746046
 10
12.682732457216986
 20
-2.0905169125753353
 10
12.694590182158082
 20
-2.112959155792411
 10
12.706402170755736
 20
-2.1354427126830644
 10
12.718168327939745
 20
-2.1579674853209614
 10
12.72988855883603
 20
-2.180533375595299
 10
12.741562768773903
 20
-2.2031402852123434
 10
12.753190863312943
 20
-2.225788115700457
 10
12.764772748188966
 20
-2.248476768401126
 10
12.776308329360235
 20
-2.2712061444772917
 10
12.787797512996177
 20
-2.2939761449118072
 10
12.799240205471909
 20
-2.316786670506832
 10
12.810636313358815
 20
-2.3396376218824555
 10
12.821985743453412
 20
-2.362528899482283
 10
12.833288402757745
 20
-2.3854604035702756
 10
12.844544198466352
 20
-2.408432034228652
 10
12.855753038008231
 20
-2.4314436913660398
 10
12.866914828993817
 20
-2.4544952747079356
 10
12.878029479274211
 20
-2.4775866838082212
 10
12.889096896889916
 20
-2.5007178180398304
 10
12.900116990100903
 20
-2.5238885766008265
 10
12.91108966736874
 20
-2.5470988585113012
 10
12.922014837377802
 20
-2.570348562617885
 10
12.932892409020189
 20
-2.5936375875911764
 10
12.943722291386496
 20
-2.6169658319242037
 10
12.954504393808701
 20
-2.64033319394142
 10
12.965238625795445
 20
-2.663739571786011
 10
12.975924897104468
 20
-2.68718486343496
 10
12.986563117680832
 20
-2.7106689666868133
 10
12.99715319767202
 20
-2.73419177916501
 10
13.007695047488102
 20
-2.7577531983309105
 10
13.01818857770525
 20
-2.781353121463944
 10
13.028633699129168
 20
-2.8049914456752383
 10
13.039030322788417
 20
-2.828668067906659
 10
13.049378359915593
 20
-2.8523828849271244
 10
13.059677721965274
 20
-2.876135793336834
 10
13.069928320603005
 20
-2.899926689565249
 10
13.080130067707588
 20
-2.9237554698719266
 10
13.090282875380112
 20
-2.947622030348891
 10
13.100386655938314
 20
-2.971526266919785
 10
13.110441321909985
 20
-2.9954680753387204
 10
13.12044678603558
 20
-3.019447351191188
 10
13.130402961293605
 20
-3.0434639899002796
 10
13.140309760856285
 20
-3.06751788671687
 10
13.150167098126698
 20
-3.0916089367285196
 10
13.15997488672381
 20
-3.1157370348563997
 10
13.169733040479281
 20
-3.1399020758548897
 10
13.17944147345086
 20
-3.1641039543150993
 10
13.189100099906266
 20
-3.1883425646614074
 10
13.198708834350391
 20
-3.212617801158375
 10
13.208267591476087
 20
-3.2369295578992
 10
13.217776286223307
 20
-3.2612777288204113
 10
13.227234833738144
 20
-3.2856622076922903
 10
13.23664314940485
 20
-3.310082888127134
 10
13.246001148807482
 20
-3.334539663570106
 10
13.255308747733926
 20
-3.3590324273004577
 10
13.264565862259065
 20
-3.3835610724529697
 10
13.273772408610133
 20
-3.4081254919842934
 10
13.282928303256059
 20
-3.432725578695829
 10
13.292033462920358
 20
-3.457361225237626
 10
13.301087804503064
 20
-3.4820323240885767
 10
13.310091245139319
 20
-3.506738767571839
 10
13.319043702214934
 20
-3.5314804478594435
 10
13.32794509330106
 20
-3.556257256955461
 10
13.336795336199215
 20
-3.5810690867081427
 10
13.345594348973075
 20
-3.605915828818942
 10
13.354342049856479
 20
-3.6307973748181985
 10
13.363038357326445
 20
-3.6557136160850274
 10
13.371683190098246
 20
-3.6806644438464944
 10
13.38027646709989
 20
-3.705649749171041
 10
13.388818107479164
 20
-3.73066942297071
 10
13.397308030624243
 20
-3.7557233560072527
 10
13.405746156125044
 20
-3.780811438881732
 10
13.414132403832502
 20
-3.80593356205151
 10
13.422466693786621
 20
-3.83108961581038
 10
13.430748946268205
 20
-3.8562794903034767
 10
13.438979081784407
 20
-3.8815030755236095
 10
13.447157021069723
 20
-3.906760261311909
 10
13.455282685098027
 20
-3.932050937361722
 10
13.463355995028877
 20
-3.9573749932033206
 10
13.471376872300747
 20
-3.9827323182314673
 10
13.479345238558118
 20
-4.008122801684557
 10
13.487261015655559
 20
-4.033546332646022
 10
13.49512412569155
 20
-4.059002800054728
 10
13.502934491004261
 20
-4.084492092704191
 10
13.510692034131752
 20
-4.110014099230962
 10
13.518396677881448
 20
-4.135568708135991
 10
13.526048345244899
 20
-4.161155807759128
 10
13.533646959463525
 20
-4.186775286299448
 10
13.541192444024711
 20
-4.212427031814594
 10
13.548684722617361
 20
-4.238110932207373
 10
13.556123719177917
 20
-4.263826875240371
 10
13.56350935786192
 20
-4.289574748527484
 10
13.57084156306675
 20
-4.315354439541419
 10
13.578120259412888
 20
-4.341165835608181
 10
13.58534537174032
 20
-4.367008823906222
 10
13.592516825150659
 20
-4.39288329148033
 10
13.599634544965705
 20
-4.4187891252287965
 10
13.606698456701928
 20
-4.444726211895371
 10
13.613708486173639
 20
-4.470694438103184
 10
13.620664559372733
 20
-4.496693690315993
 10
13.627566602548123
 20
-4.522723854864455
 10
13.634414542169848
 20
-4.548784817934733
 10
13.641208304946717
 20
-4.574876465574687
 10
13.647947817845472
 20
-4.600998683700772
 10
13.654633008011992
 20
-4.62715135807192
 10
13.661263802866609
 20
-4.653334374321914
 10
13.66784013005361
 20
-4.679547617942827
 10
13.674361917450481
 20
-4.705790974288503
 10
13.680829093161158
 20
-4.732064328572584
 10
13.687241585542653
 20
-4.758367565878078
 10
13.693599323161559
 20
-4.784700571142703
 10
13.699902234850226
 20
-4.811063229178771
 10
13.706150249645647
 20
-4.837455424652266
 10
13.712343296834108
 20
-4.86387704209879
 10
13.718481305942372
 20
-4.89032796592093
 10
13.724564206725809
 20
-4.916808080384411
 10
13.730591929184754
 20
-4.943317269624314
 10
13.73656440352809
 20
-4.969855417632357
 10
13.742481560239279
 20
-4.996422408281028
 10
13.7483433300217
 20
-5.0230181253043344
 10
13.75414964380421
 20
-5.049642452300083
 10
13.759900432764724
 20
-5.076295272738845
 10
13.765595628328212
 20
-5.10297646996371
 10
13.771235162135374
 20
-5.129685927179076
 10
13.776818966081482
 20
-5.15642352746538
 10
13.782346972290913
 20
-5.183189153770049
 10
13.787819113130235
 20
-5.209982688912741
 10
13.793235321196285
 20
-5.2368040155812485
 10
13.798595529348535
 20
-5.263653016344138
 10
13.80389967065431
 20
-5.290529573630362
 10
13.809147678428738
 20
-5.317433569744741
 10
13.814339486252837
 20
-5.344364886875428
 10
13.819475027910798
 20
-5.371323407070143
 10
13.824554237443147
 20
-5.398309012257
 10
13.829577049121077
 20
-5.425321584234964
 10
13.834543397481811
 20
-5.452361004688088
 10
13.83945321727508
 20
-5.479427155164941
 10
13.844306443493757
 20
-5.506519917090927
 10
13.849103011386141
 20
-5.533639171773602
 10
13.85384285643892
 20
-5.56078480039635
 10
13.85852591436316
 20
-5.587956684013097
 10
13.86315212111751
 20
-5.61515470355794
 10
13.86772141293298
 20
-5.642378739855681
 10
13.872233726228956
 20
-5.669628673588153
 10
13.876688997703646
 20
-5.696904385331262
 10
13.88108716430255
 20
-5.724205755542711
 10
13.885428163173447
 20
-5.751532664543776
 10
13.889711931748979
 20
-5.778884992553694
 10
13.893938407683837
 20
-5.80626261966419
 10
13.898107528873158
 20
-5.833665425847391
 10
13.90221923347422
 20
-5.861093290965341
 10
13.906273459871487
 20
-5.888546094755765
 10
13.910270146686182
 20
-5.916023716836376
 10
13.914209232794235
 20
-5.943526036712867
 10
13.918090657325685
 20
-5.971052933779148
 10
13.921914359630934
 20
-5.998604287303294
 10
13.925680279326842
 20
-6.026179976447653
 10
13.929388356267355
 20
-6.053779880256681
 10
13.93303853053617
 20
-6.081403877654066
 10
13.936630742476515
 20
-6.1090518474560245
 10
13.940164932680727
 20
-6.136723668367251
 10
13.943641041972521
 20
-6.164419218973504
 10
13.947059011430337
 20
-6.192138377752237
 10
13.950418782382174
 20
-6.219881023070766
 10
13.953720296393708
 20
-6.247647033181385
 10
13.956963495273307
 20
-6.275436286223946
 10
13.960148321082118
 20
-6.303248660230761
 10
13.963274716119532
 20
-6.33108403312047
 10
13.966342622945245
 20
-6.358942282708416
 10
13.96935198436491
 20
-6.386823286700591
 10
13.97230274340791
 20
-6.414726922683838
 10
13.975194843382402
 20
-6.442653068151385
 10
13.978028227815837
 20
-6.470601600476014
 10
13.980802840492109
 20
-6.498572396927466
 10
13.983518625461137
 20
-6.5265653346773815
 10
13.98617552698409
 20
-6.554580290774218
 10
13.988773489616744
 20
-6.582617142182504
 10
13.99131245812717
 20
-6.610675765744805
 10
13.993792377518396
 20
-6.638756038192532
 10
13.99621319308917
 20
-6.666857836175138
 10
13.998574850354686
 20
-6.694981036223074
 10
14.00087729508932
 20
-6.723125514768389
 10
14.003120473313762
 20
-6.7512911481390265
 10
14.005304331295498
 20
-6.779477812559437
 10
14.007428815548655
 20
-6.807685384150869
 10
14.009493872835293
 20
-6.835913738932387
 10
14.011499450192602
 20
-6.864162752834573
 10
14.013445494871668
 20
-6.89243230167005
 10
14.015331954382509
 20
-6.920722261155791
 10
14.017158776511328
 20
-6.949032506922144
 10
14.018925909274802
 20
-6.977362914490742
 10
14.020633300913182
 20
-7.005713359271274
 10
14.022280899964569
 20
-7.034083716598866
 10
14.023868655197145
 20
-7.062473861700838
 10
14.02539651561436
 20
-7.090883669699506
 10
14.026864430502926
 20
-7.11931301563681
 10
14.028272349371104
 20
-7.147761774443578
 10
14.029620222004414
 20
-7.1762298209681425
 10
14.030907998410921
 20
-7.204717029948898
 10
14.032135628870549
 20
-7.233223276039842
 10
14.0333030639081
 20
-7.261748433797222
 10
14.034410254304975
 20
-7.290292377685961
 10
14.035457151089647
 20
-7.318854982075132
 10
14.036443705545997
 20
-7.347436121242693
 10
14.037369869199752
 20
-7.376035669368788
 10
14.038235593846558
 20
-7.404653500550855
 10
14.039040831522158
 20
-7.4332894887884295
 10
14.039785534516831
 20
-7.461943507991089
 10
14.040469655384403
 20
-7.490615431983682
 10
14.041093146901904
 20
-7.5193051344852595
 10
14.041655962136085
 20
-7.548012489144906
 10
14.042158054397742
 20
-7.576737369517907
 10
14.042599377230243
 20
-7.6054796490598235
 10
14.042979884440202
 20
-7.634239201143378
 10
14.043299530099894
 20
-7.663015899060277
 10
14.043558268536032
 20
-7.691809616015586
 10
14.043756054312464
 20
-7.720620225118661
 10
14.043892842242512
 20
-7.749447599390152
 10
14.043968587432705
 20
-7.778291611786634
 10
14.043983245202533
 20
-7.80715213515678
 10
14.043936771132978
 20
-7.836029042268434
 10
14.043829121084043
 20
-7.86492220581891
 10
14.043660251147887
 20
-7.893831498409316
 10
14.04343011767593
 20
-7.922756792560017
 10
14.043138677282897
 20
-7.951697960713396
 10
14.042785886823275
 20
-7.9806548752209725
 10
14.042371703421098
 20
-8.009627408360625
 10
14.041896084452576
 20
-8.038615432327244
 10
14.0413589875408
 20
-8.067618819230033
 10
14.040760370572121
 20
-8.096637441102313
 10
14.040100191689039
 20
-8.125671169897872
 10
14.039378409293539
 20
-8.15471987749335
 10
14.038594982035665
 20
-8.183783435682015
 10
14.037749868814934
 20
-8.212861716174922
 10
14.036843028804912
 20
-8.241954590615709
 10
14.035874421433414
 20
-8.27106193056951
 10
14.034844006360686
 20
-8.300183607510457
 10
14.033751743531703
 20
-8.329319492852903
 10
14.032597593145555
 20
-8.358469457933872
 10
14.031381515629672
 20
-8.387633373998058
 10
14.030103471704242
 20
-8.416811112236598
 10
14.028763422334169
 20
-8.446002543758928
 10
14.027361328725263
 20
-8.475207539590786
 10
14.025897152358118
 20
-8.504425970694982
 10
14.024370854975178
 20
-8.53365770796417
 10
14.022782398556663
 20
-8.562902622206584
 10
14.021131745353673
 20
-8.59216058416655
 10
14.019418857879211
 20
-8.621431464519528
 10
14.017643698885404
 20
-8.650715133858522
 10
14.015806231414288
 20
-8.680011462725751
 10
14.013906418723518
 20
-8.709320321567255
 10
14.01194422436231
 20
-8.738641580780216
 10
14.009919612125337
 20
-8.767975110684898
 10
14.007832546072784
 20
-8.79732078153752
 10
14.005682990514908
 20
-8.826678463521036
 10
14.003470910008511
 20
-8.856048026743242
 10
14.001196269411388
 20
-8.885429341271603
 10
13.998859033793558
 20
-8.91482227707765
 10
13.996459168509087
 20
-8.94422670408277
 10
13.993996639163596
 20
-8.973642492138072
 10
13.991471411627472
 20
-9.00306951103326
 10
13.988883452017038
 20
-9.032507630484929
 10
13.986232726716947
 20
-9.061956720151402
 10
13.983519202387198
 20
-9.091416649637784
 10
13.980742845913056
 20
-9.12088728846392
 10
13.977903624460042
 20
-9.150368506100438
 10
13.975001505459963
 20
-9.179860171960238
 10
13.97203645658449
 20
-9.20936215538158
 10
13.969008445774655
 20
-9.238874325647798
 10
13.965917441243112
 20
-9.268396551989344
 10
13.962763411443404
 20
-9.29792870356391
 10
13.959546325095868
 20
-9.327470649473911
 10
13.95626615118058
 20
-9.357022258762312
 10
13.952922858942655
 20
-9.386583400416589
 10
13.949516417888592
 20
-9.416153943366767
 10
13.946046797782104
 20
-9.445733756483051
 10
13.942513968627836
 20
-9.475322708565136
 10
13.938917900723883
 20
-9.504920668378267
 10
13.935258564618662
 20
-9.534527504624508
 10
13.931535931105959
 20
-9.564143085939692
 10
13.927749971261113
 20
-9.593767280918593
 10
13.923900656394759
 20
-9.62339995808363
 10
13.91998795811192
 20
-9.653040985925994
 10
13.916011848258947
 20
-9.682690232869556
 10
13.911972298931886
 20
-9.712347567276932
 10
13.907869282509042
 20
-9.742012857472576
 10
13.903702771627042
 20
-9.771685971726669
 10
13.899472739176918
 20
-9.801366778252735
 10
13.895179158304598
 20
-9.831055145208394
 10
13.89082200243706
 20
-9.860750940714247
 10
13.886401245245935
 20
-9.890454032828655
 10
13.881916860667012
 20
-9.920164289561924
 10
13.87736882291547
 20
-9.94988157888768
 10
13.872757106438401
 20
-9.979605768709396
 10
13.868081685968617
 20
-10.009336726899296
 10
13.863342536489684
 20
-10.03907432127377
 10
13.85853963324418
 20
-10.068818419599715
 10
13.853672951754747
 20
-10.09856888961025
 10
13.84874246778638
 20
-10.128325598977833
 10
13.843748157360398
 20
-10.158088415324714
 10
13.838689996797514
 20
-10.187857206255003
 10
13.833567962652806
 20
-10.217631839307579
 10
13.828382031728916
 20
-10.247412181965936
 10
13.823132181114337
 20
-10.277198101686967
 10
13.817818388170396
 20
-10.306989465891945
 10
13.8124406305002
 20
-10.3367861419439
 10
13.806998885950604
 20
-10.366587997149276
 10
13.801493132688044
 20
-10.39639489881528
 10
13.795923349096405
 20
-10.42620671417385
 10
13.790289513824634
 20
-10.456023310417653
 10
13.78459160580735
 20
-10.485844554716255
 10
13.778829604219819
 20
-10.515670314182488
 10
13.773003488515101
 20
-10.54550045590108
 10
13.76711323839559
 20
-10.575334846907412
 10
13.761158833846483
 20
-10.605173354213647
 10
13.755140255095093
 20
-10.635015844777932
 10
13.749057482633141
 20
-10.664862185521898
 10
13.742910497244619
 20
-10.694712243352845
 10
13.736699279935175
 20
-10.724565885109392
 10
13.730423811996344
 20
-10.754422977611767
 10
13.724084074985639
 20
-10.784283387646873
 10
13.71768005071177
 20
-10.81414698195717
 10
13.711211721263231
 20
-10.84401362726355
 10
13.704679068966122
 20
-10.873883190232574
 10
13.698082076436613
 20
-10.903755537518364
 10
13.691420726541196
 20
-10.933630535731655
 10
13.684695002411974
 20
-10.963508051452347
 10
13.677904887440159
 20
-10.99338795122477
 10
13.671050365283463
 20
-11.023270101564052
 10
13.664131419873492
 20
-11.0531543689626
 10
13.657148035388978
 20
-11.083040619868997
 10
13.650100196278759
 20
-11.112928720706936
 10
13.642987887254913
 20
-11.142818537870184
 10
13.635811093307451
 20
-11.172709937735068
 10
13.628569799662788
 20
-11.202602786627022
 10
13.621263991829716
 20
-11.232496950858563
 10
13.61389365557749
 20
-11.262392296711932
 10
13.606458776938961
 20
-11.292288690442074
 10
13.598959342209993
 20
-11.322185998276655
 10
13.591395337946686
 20
-11.352084086414182
 10
13.583766750975924
 20
-11.381982821033274
 10
13.57607356838416
 20
-11.411882068283798
 10
13.568315777525802
 20
-11.441781694294365
 10
13.560493366019086
 20
-11.471681565169357
 10
13.55260632173427
 20
-11.501581546979386
 10
13.544654632822912
 20
-11.531481505786545
 10
13.536638287685868
 20
-11.561381307617754
 10
13.528557275003179
 20
-11.59128081849069
 10
13.520411583708242
 20
-11.621179904392234
 10
13.512201202990784
 20
-11.651078431281384
 10
13.503926122335658
 20
-11.680976265123194
 10
13.495586331448882
 20
-11.710873271825479
 10
13.487181820340691
 20
-11.740769317311033
 10
13.478712579256888
 20
-11.770664267458667
 10
13.470178598716629
 20
-11.800557988136461
 10
13.461579869521962
 20
-11.830450345210698
 10
13.45291638269751
 20
-11.860341204493462
 10
13.444188129576347
 20
-11.890230431818505
 10
13.4353951017203
 20
-11.92011789297161
 10
13.426537290983216
 20
-11.950003453746893
 10
13.417614689481367
 20
-11.979886979921291
 10
13.408627289547443
 20
-12.009768337213773
 10
13.399575083852628
 20
-12.039647391394874
 10
13.390458065286941
 20
-12.069524008180354
 10
13.381276227000326
 20
-12.099398053268219
 10
13.372029562432184
 20
-12.129269392365925
 10
13.362718065269238
 20
-12.159137891152877
 10
13.353341729471499
 20
-12.189003415304414
 10
13.343900549262775
 20
-12.218865830483706
 10
13.334394519112559
 20
-12.24872500232563
 10
13.324823633773393
 20
-12.278580796471395
 10
13.315187888280814
 20
-12.308433078569307
 10
13.305487277885605
 20
-12.338281714212654
 10
13.295721798137519
 20
-12.368126569017424
 10
13.285891444848101
 20
-12.397967508588579
 10
13.2759962140745
 20
-12.427804398505383
 10
13.26603610216718
 20
-12.457637104366432
 10
13.256011105714911
 20
-12.487465491738742
 10
13.245921221584368
 20
-12.517289426195303
 10
13.235766446897097
 20
-12.547108773293951
 10
13.225546779048155
 20
-12.576923398595452
 10
13.2152622156983
 20
-12.606733167656687
 10
13.204912754756844
 20
-12.636537946014766
 10
13.194498394414401
 20
-12.666337599218755
 10
13.184019133114203
 20
-12.696131992802796
 10
13.173474969576844
 20
-12.725920992310352
 10
13.162865902772143
 20
-12.755704463267648
 10
13.152191931940624
 20
-12.785482271204831
 10
13.141453056589217
 20
-12.815254281652374
 10
13.130649276484794
 20
-12.845020360135319
 10
13.11978059166207
 20
-12.874780372181474
 10
13.108847002415338
 20
-12.904534183313814
 10
13.097848509313884
 20
-12.934281659066194
 10
13.086785113166544
 20
-12.964022664948887
 10
13.075656815074716
 20
-12.993757066501416
 10
13.064463616393509
 20
-13.02348472925476
 10
13.053205518725735
 20
-13.053205518725733
 10
13.041882523966935
 20
-13.082919300462398
 10
13.030494634248882
 20
-13.112625939988163
 10
13.01904185199557
 20
-13.14232530285842
 10
13.007524179870524
 20
-13.172017254608141
 10
12.995941620804675
 20
-13.201701660780301
 10
12.984294178006841
 20
-13.231378386937184
 10
12.972581854932809
 20
-13.261047298629485
 10
12.960804655326308
 20
-13.290708261438608
 10
12.94896258315719
 20
-13.32036114091395
 10
12.937055642693085
 20
-13.350005802646798
 10
12.92508383845533
 20
-13.379642112225774
 10
12.91304717521258
 20
-13.409269935230528
 10
12.900945658026629
 20
-13.438889137279817
 10
12.888779292188072
 20
-13.468499583965194
 10
12.876548083289423
 20
-13.498101140927648
 10
12.86425203716278
 20
-13.52769367379324
 10
12.851891159887357
 20
-13.557277048181158
 10
12.83946545785248
 20
-13.586851129770634
 10
12.826974937676644
 20
-13.616415784216356
 10
12.814419606241037
 20
-13.645970877184114
 10
12.801799470705747
 20
-13.675516274368634
 10
12.789114538487642
 20
-13.70505184147067
 10
12.776364817263081
 20
-13.73457744420037
 10
12.763550314968763
 20
-13.764092948278643
 10
12.75067103982588
 20
-13.793598219463767
 10
12.737727000294502
 20
-13.823093123502828
 10
12.72471820510085
 20
-13.852577526161514
 10
12.711644663245398
 20
-13.882051293233548
 10
12.698506383987816
 20
-13.911514290524948
 10
12.685303376840558
 20
-13.940966383847462
 10
12.672035651595353
 20
-13.97040743904813
 10
12.658703218298434
 20
-13.99983732198271
 10
12.64530608724132
 20
-14.02925589850588
 10
12.631844269018998
 20
-14.05866303453623
 10
12.618317774451054
 20
-14.088058595969434
 10
12.604726614632968
 20
-14.117442448735629
 10
12.591070800937638
 20
-14.146814458801899
 10
12.577350344967396
 20
-14.176174492118975
 10
12.563565258613487
 20
-14.20552241468851
 10
12.549715554026722
 20
-14.234858092530766
 10
12.535801243611045
 20
-14.264181391677822
 10
12.521822340035069
 20
-14.293492178187135
 10
12.50777885623551
 20
-14.322790318146067
 10
12.493670805404607
 20
-14.352075677658112
 10
12.479498200996845
 20
-14.381348122851051
 10
12.465261056734317
 20
-14.410607519883754
 10
12.450959386588007
 20
-14.439853734925112
 10
12.436593204817166
 20
-14.469086634200172
 10
12.422162525912388
 20
-14.49830608392476
 10
12.407667364639023
 20
-14.527511950356319
 10
12.393107736034914
 20
-14.556704099792016
 10
12.37848365537877
 20
-14.585882398532306
 10
12.363795138223812
 20
-14.615046712920844
 10
12.349042200379273
 20
-14.644196909323357
 10
12.334224857924324
 20
-14.673332854144691
 10
12.319343127189697
 20
-14.702454413807622
 10
12.30439702476189
 20
-14.731561454758264
 10
12.289386567513539
 20
-14.76065384350301
 10
12.274311772551268
 20
-14.789731446546753
 10
12.25917265725819
 20
-14.818794130444344
 10
12.243969239275414
 20
-14.847841761778989
 10
12.228701536484943
 20
-14.876874207142007
 10
12.213369567076866
 20
-14.905891333215013
 10
12.197973349460007
 20
-14.934893006662007
 10
12.18251290229985
 20
-14.963879094175745
 10
12.166988244561066
 20
-14.992849462530623
 10
12.151399395444557
 20
-15.021803978506217
 10
12.135746374400004
 20
-15.050742508902925
 10
12.120029201163582
 20
-15.079664920589265
 10
12.104247895716739
 20
-15.108571080451542
 10
12.088402478296842
 20
-15.137460855407435
 10
12.072492969417024
 20
-15.166334112431477
 10
12.056519389831822
 20
-15.195190718512624
 10
12.040481760570588
 20
-15.224030540696717
 10
12.024380102914936
 20
-15.252853446058802
 10
12.008214438405304
 20
-15.28165930171189
 10
11.991984788852806
 20
-15.31044797482268
 10
11.975691176311864
 20
-15.339219332577322
 10
11.959333623100356
 20
-15.367973242207587
 10
11.942912151807725
 20
-15.396709571001999
 10
11.926426785272458
 20
-15.425428186277525
 10
11.90987754658352
 20
-15.454128955381897
 10
11.893264459111819
 20
-15.48281174573494
 10
11.876587546465469
 20
-15.511476424771246
 10
11.85984683252327
 20
-15.540122859984175
 10
11.843042341423914
 20
-15.568750918912578
 10
11.826174097542497
 20
-15.597360469110372
 10
11.809242125554889
 20
-15.625951378231902
 10
11.79224645036265
 20
-15.654523513933787
 10
11.775187097118133
 20
-15.683076743908227
 10
11.758064091265114
 20
-15.71161093593776
 10
11.74087745848172
 20
-15.740125957820084
 10
11.723627224714697
 20
-15.768621677414277
 10
11.70631341615646
 20
-15.797097962610605
 10
11.688936059274528
 20
-15.825554681370795
 10
11.671495180781143
 20
-15.853991701687741
 10
11.653990807639898
 20
-15.882408891594856
 10
11.6364229671007
 20
-15.91080611921439
 10
11.618791686634838
 20
-15.939183252669613
 10
11.601096993992636
 20
-15.967540160163948
 10
11.583338917180006
 20
-15.995876709949778
 10
11.565517484455771
 20
-16.024192770325275
 10
11.547632724336294
 20
-16.052488209641414
 10
11.529684665590931
 20
-16.08076289629621
 10
11.511673337260165
 20
-16.109016698760716
 10
11.493598768612792
 20
-16.137249485519845
 10
11.475460989210022
 20
-16.165461125162608
 10
11.457260028842835
 20
-16.193651486295135
 10
11.438995917562245
 20
-16.22182043758353
 10
11.420668685693363
 20
-16.24996784777466
 10
11.402278363789812
 20
-16.278093585632096
 10
11.383824982689971
 20
-16.30619752001673
 10
11.365308573457073
 20
-16.33427951980196
 10
11.346729167437097
 20
-16.362339453957087
 10
11.328086796221642
 20
-16.390377191494945
 10
11.309381491644254
 20
-16.41839260146692
 10
11.290613285824545
 20
-16.44638555302756
 10
11.271782211103051
 20
-16.474355915340777
 10
11.25288830009958
 20
-16.50230355766523
 10
11.233931585677356
 20
-16.530228349302803
 10
11.214912100956155
 20
-16.55813015961838
 10
11.195829879322536
 20
-16.58600885805571
 10
11.176684954390314
 20
-16.613864314079596
 10
11.157477360055017
 20
-16.641696397257128
 10
11.138207130455836
 20
-16.669504977202042
 10
11.11887429997389
 20
-16.697289923572573
 10
11.09947890327112
 20
-16.725051106130355
 10
11.080020975244551
 20
-16.752788394672656
 10
11.060500551040729
 20
-16.780501659054465
 10
11.040917666080103
 20
-16.80819076922616
 10
11.021272356016137
 20
-16.835855595172273
 10
11.00156465675964
 20
-16.86349600694891
 10
10.981794604490911
 20
-16.891111874703167
 10
10.961962235624746
 20
-16.918703068620328
 10
10.942067586832561
 20
-16.946269458958238
 10
10.922110695047987
 20
-16.973810916056813
 10
10.902091597448281
 20
-17.001327310309964
 10
10.882010331462707
 20
-17.02881851217916
 10
10.861866934775376
 20
-17.056284392198595
 10
10.841661445324894
 20
-17.083724820975334
 10
10.821393901302944
 20
-17.111139669187875
 10
10.801064341143498
 20
-17.13852880756973
 10
10.78067280354472
 20
-17.165892106944693
 10
10.760219327449938
 20
-17.193229438197555
 10
10.739703952048483
 20
-17.22054067227588
 10
10.719126716795017
 20
-17.247825680221712
 10
10.69848766138853
 20
-17.27508433313874
 10
10.677786825766114
 20
-17.302316502182705
 10
10.657024250138582
 20
-17.329522058619673
 10
10.636199974956785
 20
-17.356700873772418
 10
10.615314040915793
 20
-17.383852819027677
 10
10.594366488973655
 20
-17.41097776586749
 10
10.573357360326899
 20
-17.438075585829893
 10
10.55228669643334
 20
-17.465146150547028
 10
10.531154538985104
 20
-17.492189331701397
 10
10.509960929946555
 20
-17.519205001089265
 10
10.488705911515298
 20
-17.54619303055692
 10
10.467389526135747
 20
-17.57315329202362
 10
10.446011816519373
 20
-17.60008565751633
 10
10.424572825604402
 20
-17.626989999102875
 10
10.403072596599657
 20
-17.65386618896638
 10
10.381511172950702
 20
-17.680714099349004
 10
10.359888598345254
 20
-17.707533602561508
 10
10.33820491674013
 20
-17.734324571030065
 10
10.316460172321051
 20
-17.761086877228422
 10
10.29465440953132
 20
-17.787820393727525
 10
10.272787673061066
 20
-17.814524993177972
 10
10.250860007845688
 20
-17.841200548307985
 10
10.228871459076462
 20
-17.86784693194257
 10
10.20682207218354
 20
-17.894464016974762
 10
10.184711892841449
 20
-17.921051676375747
 10
10.162540966978789
 20
-17.94760978321264
 10
10.140309340781277
 20
-17.97413821065487
 10
10.118017060657875
 20
-18.000636831914964
 10
10.095664173278552
 20
-18.027105520316034
 10
10.073250725566144
 20
-18.053544149278327
 10
10.050776764671047
 20
-18.079952592274736
 10
10.028242338008173
 20
-18.10633072289766
 10
10.005647493228167
 20
-18.132678414808172
 10
9.982992278228492
 20
-18.15899554175666
 10
9.960276741158276
 20
-18.185281977592435
 10
9.937500930401855
 20
-18.211537596234596
 10
9.914664894601245
 20
-18.237762271713734
 10
9.891768682632076
 20
-18.263955878128755
 10
9.868812343622391
 20
-18.290118289682063
 10
9.84579592694692
 20
-18.316249380669948
 10
9.822719482211564
 20
-18.3423490254545
 10
9.799583059283279
 20
-18.368417098519878
 10
9.77638670826776
 20
-18.39445347443178
 10
9.75313047950787
 20
-18.42045802783499
 10
9.729814423593176
 20
-18.44643063347206
 10
9.70643859136789
 20
-18.472371166199274
 10
9.683003033901906
 20
-18.498279500932565
 10
9.659507802523127
 20
-18.524155512709644
 10
9.635952948802814
 20
-18.549999076663084
 10
9.612338524535728
 20
-18.575810067982854
 10
9.588664581782794
 20
-18.601588361999067
 10
9.564931172837575
 20
-18.627333834118485
 10
9.541138350236041
 20
-18.65304635984395
 10
9.517286166750061
 20
-18.678725814762515
 10
9.49337467540702
 20
-18.704372074584626
 10
9.469403929474078
 20
-18.72998501511433
 10
9.445373982442902
 20
-18.755564512219735
 10
9.421284888068497
 20
-18.781110441910517
 10
9.397136700334038
 20
-18.806622680269317
 10
9.372929473468565
 20
-18.832101103487506
 10
9.348663261939619
 20
-18.857545587851448
 10
9.324338120457098
 20
-18.882956009751005
 10
9.299954103968592
 20
-18.908332245670962
 10
9.275511267668472
 20
-18.93367417221033
 10
9.251009666990505
 20
-18.958981666068308
 10
9.22644935758906
 20
-18.984254604006427
 10
9.201830395390699
 20
-19.009492862955234
 10
9.177152836536562
 20
-19.03469631989693
 10
9.152416737416624
 20
-19.05986485193656
 10
9.127622154660486
 20
-19.084998336284034
 10
9.102769145124299
 20
-19.110096650227543
 10
9.077857765931316
 20
-19.135159671219384
 10
9.052888074408862
 20
-19.160187276744626
 10
9.027860128143992
 20
-19.18517934443883
 10
9.002773984965293
 20
-19.210135752051002
 10
8.977629702913491
 20
-19.235056377381614
 10
8.952427340297927
 20
-19.259941098403903
 10
8.927166955645978
 20
-19.28478979315686
 10
8.901848607725585
 20
-19.309602339794083
 10
8.876472355548987
 20
-19.334378616592968
 10
8.851038258354091
 20
-19.35911850191524
 10
8.825546375626011
 20
-19.38382187425455
 10
8.799996767080167
 20
-19.40848861220067
 10
8.774389492669146
 20
-19.433118594455284
 10
8.74872461257612
 20
-19.45771169981831
 10
8.723002187237142
 20
-19.482267807238316
 10
8.697222277307299
 20
-19.506786795738364
 10
8.671384943675603
 20
-19.531268544449727
 10
8.645490247478143
 20
-19.555712932642383
 10
8.619538250079644
 20
-19.580119839684727
 10
8.59352901308554
 20
-19.604489145071703
 10
8.567462598315378
 20
-19.628820728365053
 10
8.541339067853029
 20
-19.653114469308868
 10
8.515158483996474
 20
-19.677370247715903
 10
8.48892090927738
 20
-19.70158794351302
 10
8.46262640647038
 20
-19.725767436763693
 10
8.436275038575825
 20
-19.74990860762913
 10
8.409866868833943
 20
-19.774011336402072
 10
8.383401960707616
 20
-19.798075503467427
 10
8.356880377904986
 20
-19.82210098935636
 10
8.330302184357365
 20
-19.846087674695234
 10
8.30366744423199
 20
-19.87003544023666
 10
8.276976221930786
 20
-19.893944166857626
 10
8.250228582073857
 20
-19.91781373552087
 10
8.223424589529346
 20
-19.941644027347383
 10
8.196564309392965
 20
-19.965434923568573
 10
8.169647806985429
 20
-19.989186305520693
 10
8.1426751478612
 20
-20.01289805466697
 10
8.115646397807676
 20
-20.036570052596822
 10
8.088561622840547
 20
-20.060202181015395
 10
8.061420889198201
 20
-20.0837943217306
 10
8.034224263371705
 20
-20.107346356728616
 10
8.00697181205607
 20
-20.130858168053784
 10
7.979663602181971
 20
-20.154329637888203
 10
7.9522997009261704
 20
-20.17776064857951
 10
7.924880175674326
 20
-20.201151082548208
 10
7.8974050940471745
 20
-20.22450082235442
 10
7.8698745238963275
 20
-20.247809750688596
 10
7.842288533303733
 20
-20.27107775037121
 10
7.8146471905747745
 20
-20.29430470433608
 10
7.786950564238853
 20
-20.31749049563261
 10
7.7591987230605595
 20
-20.340635007455877
 10
7.731391736033167
 20
-20.36373812313108
 10
7.703529672367732
 20
-20.38679972608575
 10
7.675612601505633
 20
-20.40981969988365
 10
7.647640593124337
 20
-20.43279792824144
 10
7.619613717113551
 20
-20.455734294966334
 10
7.591532043593927
 20
-20.478628684006704
 10
7.563395642917438
 20
-20.50148097945455
 10
7.535204585653999
 20
-20.52429106551044
 10
7.506958942607823
 20
-20.5470588265289
 10
7.478658784793681
 20
-20.569784146954778
 10
7.450304183463743
 20
-20.59246691139761
 10
7.42189521009886
 20
-20.615107004609325
 10
7.393431936383273
 20
-20.637704311414986
 10
7.364914434244436
 20
-20.66025871682428
 10
7.336342775832167
 20
-20.68277010597512
 10
7.307717033508258
 20
-20.705238364105227
 10
7.2790372798679615
 20
-20.727663376613595
 10
7.250303587725721
 20
-20.750045029021674
 10
7.22151603011948
 20
-20.772383206986344
 10
7.192674680312742
 20
-20.79467779630732
 10
7.163779611784302
 20
-20.81692868289855
 10
7.1348308982406055
 20
-20.839135752824994
 10
7.10582861360885
 20
-20.86129889228393
 10
7.076772832035564
 20
-20.88341798760181
 10
7.047663627891809
 20
-20.905492925250858
 10
7.018501075769608
 20
-20.92752359183957
 10
6.9892852504773915
 20
-20.949509874100514
 10
6.960016227048329
 20
-20.971451658916166
 10
6.930694080733846
 20
-20.9933488333007
 10
6.901318887005011
 20
-21.015201284405506
 10
6.871890721555124
 20
-21.037008899528008
 10
6.842409660295458
 20
-21.058771566100262
 10
6.812875779356145
 20
-21.08048917169247
 10
6.78328915508262
 20
-21.102161604003413
 10
6.753649864046766
 20
-21.123788750896104
 10
6.723957983036163
 20
-21.145370500365786
 10
6.694213589052391
 20
-21.166906740535804
 10
6.664416759315589
 20
-21.188397359672788
 10
6.634567571269456
 20
-21.209842246204037
 10
6.604666102569687
 20
-21.231241288682146
 10
6.574712431089447
 20
-21.25259437580349
 10
6.5447066349211225
 20
-21.273901396415233
 10
6.514648792368506
 20
-21.295162239491162
 10
6.484538981960595
 20
-21.316376794178147
 10
6.454377282432455
 20
-21.337544949734685
 10
6.424163772742347
 20
-21.358666595588463
 10
6.393898532059492
 20
-21.37974162129731
 10
6.363581639767177
 20
-21.400769916560616
 10
6.333213175471157
 20
-21.42175137124899
 10
6.302793218983475
 20
-21.442685875351106
 10
6.272321850331214
 20
-21.463573319004485
 10
6.241799149762526
 20
-21.484413592517345
 10
6.211225197733376
 20
-21.505206586325002
 10
6.180600074913168
 20
-21.52595219101004
 10
6.149923862187612
 20
-21.546650297313867
 10
6.119196640649635
 20
-21.56730079610633
 10
6.0884184916137665
 20
-21.587903578437363
 10
6.057589496599173
 20
-21.60845853547912
 10
6.02670973733741
 20
-21.62896555855403
 10
5.995779295780061
 20
-21.649424539164077
 10
5.964798254080806
 20
-21.669835368927806
 10
5.93376669460557
 20
-21.690197939617846
 10
5.902684699937819
 20
-21.710512143182093
 10
5.871552352865673
 20
-21.730777871697864
 10
5.840369736389364
 20
-21.75099501740077
 10
5.809136933719791
 20
-21.771163472680765
 10
5.777854028278151
 20
-21.791283130082398
 10
5.746521103691367
 20
-21.811353882288856
 10
5.715138243800405
 20
-21.83137562215487
 10
5.6837055326507695
 20
-21.851348242672337
 10
5.652223054503712
 20
-21.87127163701437
 10
5.6206908938206
 20
-21.89114569847711
 10
5.589109135272165
 20
-21.910970320516324
 10
5.557477863744475
 20
-21.930745396772714
 10
5.525797164321615
 20
-21.95047082100556
 10
5.49406712229944
 20
-21.970146487148064
 10
5.462287823180157
 20
-21.989772289287867
 10
5.430459352673904
 20
-22.009348121674602
 10
5.398581796693897
 20
-22.0288738787022
 10
5.366655241363127
 20
-22.048349454937355
 10
5.33467977300717
 20
-22.067774745091985
 10
5.3026554781579796
 20
-22.087149644040142
 10
5.270582443551825
 20
-22.106474046811112
 10
5.238460756133266
 20
-22.12574784860794
 10
5.2062905030462
 20
-22.144970944771085
 10
5.1740717716425015
 20
-22.164143230816723
 10
5.141804649479402
 20
-22.183264602427517
 10
5.109489224310088
 20
-22.20233495541347
 10
5.077125584099818
 20
-22.22135418578342
 10
5.044713817012514
 20
-22.2403221896885
 10
5.012254011416583
 20
-22.25923886344945
 10
4.97974625587738
 20
-22.278104103524527
 10
4.947190639170218
 20
-22.296917806569276
 10
4.914587250271274
 20
-22.315679869398206
 10
4.881936178347749
 20
-22.3343901889412
 10
4.849237512783311
 20
-22.35304866236118
 10
4.816491343153235
 20
-22.37165518694265
 10
4.783697759232739
 20
-22.390209660131138
 10
4.750856851002238
 20
-22.40871197955963
 10
4.7179687086386615
 20
-22.427162043010004
 10
4.685033422518637
 20
-22.445559748429535
 10
4.652051083221351
 20
-22.463904993946386
 10
4.619021781522609
 20
-22.482197677843555
 10
4.585945608393152
 20
-22.50043769855167
 10
4.552822655009972
 20
-22.5186249547063
 10
4.519653012745733
 20
-22.53675934509864
 10
4.486436773163221
 20
-22.55484076864911
 10
4.453174028032825
 20
-22.5728691244963
 10
4.41986486931854
 20
-22.590844311929338
 10
4.386509389178755
 20
-22.608766230393563
 10
4.353107679970399
 20
-22.626634779513186
 10
4.319659834247828
 20
-22.644449859088045
 10
4.286165944760428
 20
-22.66221136908328
 10
4.252626104450048
 20
-22.67991920961744
 10
4.219040406459289
 20
-22.697573281008488
 10
4.185408944122371
 20
-22.71517348372732
 10
4.1517318109664
 20
-22.732719718406557
 10
4.118009100715862
 20
-22.75021188586654
 10
4.084240907291801
 20
-22.767649887113944
 10
4.050427324800569
 20
-22.785033623281166
 10
4.0165684475481855
 20
-22.802362995707902
 10
3.9826643700350384
 20
-22.819637905914853
 10
3.94871518694724
 20
-22.836858255555775
 10
3.914720993170184
 20
-22.854023946497673
 10
3.8806818837792028
 20
-22.87113488076927
 10
3.846597954038226
 20
-22.88819096055516
 10
3.812469299404895
 20
-22.905192088227672
 10
3.7782960155314314
 20
-22.922138166355175
 10
3.7440781982552256
 20
-22.93902909764811
 10
3.709815943604233
 20
-22.95586478499247
 10
3.6755093478029925
 20
-22.97264513149042
 10
3.641158507259422
 20
-22.989370040381086
 10
3.606763518570771
 20
-23.006039415079034
 10
3.5723244785295085
 20
-23.02265315921453
 10
3.537841484109991
 20
-23.039211176551262
 10
3.5033146324769153
 20
-23.055713371042476
 10
3.4687440209878413
 20
-23.07215964685029
 10
3.434129747181033
 20
-23.08854990826883
 10
3.3994719087867127
 20
-23.10488405980047
 10
3.3647706037210607
 20
-23.121162006118926
 10
3.3300259300864394
 20
-23.13738365207299
 10
3.2952379861740337
 20
-23.153548902707534
 10
3.2604068704553204
 20
-23.169657663206824
 10
3.2255326815952086
 20
-23.185709838988767
 10
3.190615518439946
 20
-23.2017053356235
 10
3.155655480019594
 20
-23.217644058852382
 10
3.1206526655521474
 20
-23.233525914621005
 10
3.0856071744381097
 20
-23.24935080904253
 10
3.0505191062630685
 20
-23.265118648419357
 10
3.015388560794716
 20
-23.28082933922388
 10
2.9802156379871567
 20
-23.29648278813365
 10
2.9450004379743935
 20
-23.31207890198497
 10
2.9097430610745296
 20
-23.327617587807797
 10
2.8744436077886077
 20
-23.34309875281977
 10
2.8391021787997155
 20
-23.358522304423015
 10
2.8037188749718074
 20
-23.37388815019676
 10
2.7682937973491284
 20
-23.38919619789557
 10
2.732827047160342
 20
-23.40444635548737
 10
2.6973187258123135
 20
-23.419638531104628
 10
2.6617689348916684
 20
-23.434772633060085
 10
2.6261777761690115
 20
-23.449848569887035
 10
2.5905453515879864
 20
-23.464866250246992
 10
2.5548717632773124
 20
-23.479825583038743
 10
2.519157113544583
 20
-23.494726477348213
 10
2.483401504870662
 20
-23.509568842399098
 10
2.447605039919508
 20
-23.524352587647
 10
2.4117678215323424
 20
-23.539077622729838
 10
2.375889952726841
 20
-23.553743857462674
 10
2.339971536697566
 20
-23.568351201845942
 10
2.3040126768182936
 20
-23.582899566091974
 10
2.268013476635827
 20
-23.59738886056697
 10
2.231974039876003
 20
-23.611818995855607
 10
2.1958944704407184
 20
-23.62618988273548
 10
2.159774872404651
 20
-23.640501432145822
 10
2.12361535001944
 20
-23.654753555235303
 10
2.08741600771159
 20
-23.668946163345
 10
2.051176950080886
 20
-23.68307916799427
 10
2.0148982819023047
 20
-23.6971524809063
 10
1.978580108124977
 20
-23.711166014001883
 10
1.9422225338698735
 20
-23.725119679376032
 10
1.905825664430916
 20
-23.739013389315055
 10
1.8693896052764303
 20
-23.75284705631919
 10
1.8329144620456344
 20
-23.766620593065003
 10
1.7964003405499478
 20
-23.78033391242548
 10
1.7598473467726294
 20
-23.79398692747078
 10
1.7232555868673427
 20
-23.807579551453816
 10
1.6866251671602663
 20
-23.821111697844618
 10
1.649956194146617
 20
-23.83458328028807
 10
1.6132487744918746
 20
-23.847994212624783
 10
1.5765030150319685
 20
-23.861344408900756
 10
1.5397190227715007
 20
-23.874633783346336
 10
1.5028969048851297
 20
-23.88786225040309
 10
1.4660367687145537
 20
-23.901029724682502
 10
1.4291387217712197
 20
-23.914136121014895
 10
1.3922028717350439
 20
-23.92718135443596
 10
1.3552293264519097
 20
-23.940165340151694
 10
1.3182181939350994
 20
-23.953087993566736
 10
1.281169582365955
 20
-23.965949230304258
 10
1.2440836000919313
 20
-23.97874896617904
 10
1.206960355625913
 20
-23.991487117190065
 10
1.1697999576481595
 20
-24.004163599566844
 10
1.1326025150014174
 20
-24.016778329677848
 10
1.095368136696245
 20
-24.029331224146823
 10
1.0580969319074458
 20
-24.041822199789497
 10
1.0207890099729269
 20
-24.054251173594544
 10
0.9834444803958475
 20
-24.066618062780414
 10
0.9460634528416068
 20
-24.07892278473393
 10
0.9086460371398646
 20
-24.091165257067736
 10
0.8711923432829835
 20
-24.103345397592914
 10
0.833702481425633
 20
-24.11546312431843
 10
0.796176561883881
 20
-24.12751835543392
 10
0.7586146951368354
 20
-24.139511009368963
 10
0.7210169918241356
 20
-24.151441004732018
 10
0.6833835627460949
 20
-24.163308260322
 10
0.6457145188651288
 20
-24.175112695193032
 10
0.608009971301709
 20
-24.186854228524663
 10
0.5702700313376327
 20
-24.19853277975164
 10
0.5324948104144372
 20
-24.210148268526904
 10
0.49468442013157127
 20
-24.221700614656655
 10
0.45683897224759423
 20
-24.23318973816368
 10
0.4189585786801678
 20
-24.24461555931209
 10
0.38104335150439794
 20
-24.25597799854894
 10
0.3430934029525957
 20
-24.267276976497634
 10
0.3051088454150155
 20
-24.27851241403254
 10
0.2670897914384002
 20
-24.28968423221204
 10
0.22903635372583503
 20
-24.30079235228605
 10
0.19094864513682017
 20
-24.311836695740983
 10
0.15282677868640035
 20
-24.322817184252933
 10
0.11467086754489592
 20
-24.333733739698577
 10
0.07648102503770635
 20
-24.344586284178167
 10
0.03825736464471992
 20
-24.355374739993135
 10
1.49199325921717e-15
 20
-24.366099029629666
 10
-0.038290975281804765
 20
-24.376771918526632
 10
-0.07661554808948652
 20
-24.387406160604606
 10
-0.11497372523155133
 20
-24.398001661147916
 10
-0.1533655132533303
 20
-24.40855832526705
 10
-0.1917909184359167
 20
-24.419076057853
 10
-0.23024994679552716
 20
-24.429554763611094
 10
-0.2687426040826586
 20
-24.439994347053606
 10
-0.30726889578153066
 20
-24.450394712518023
 10
-0.3458288271086939
 20
-24.46075576411868
 10
-0.3844224030127812
 20
-24.471077405793604
 10
-0.42304962817395037
 20
-24.4813595413142
 10
-0.4617105070022039
 20
-24.491602074229313
 10
-0.5004050436372571
 20
-24.501804907909126
 10
-0.5391332419479135
 20
-24.511967945550442
 10
-0.5778951055305342
 20
-24.52209109014009
 10
-0.6166906377092947
 20
-24.532174244505704
 10
-0.6555198415345224
 20
-24.54221731127282
 10
-0.6943827197822244
 20
-24.55222019288226
 10
-0.7332792749533921
 20
-24.562182791593724
 10
-0.7722095092736972
 20
-24.572105009499655
 10
-0.8111734246916208
 20
-24.581986748488994
 10
-0.8501710228782583
 20
-24.59182791027035
 10
-0.8892023052277196
 20
-24.60162839640283
 10
-0.9282672728539149
 20
-24.611388108226347
 10
-0.9673659265912193
 20
-24.621106946906146
 10
-1.0064982669955722
 20
-24.630784813477955
 10
-1.0456642943397862
 20
-24.64042160874741
 10
-1.0848640086151602
 20
-24.650017233352923
 10
-1.1240974095311949
 20
-24.659571587776405
 10
-1.163364496514153
 20
-24.669084572324593
 10
-1.2026652687052148
 20
-24.67855608710812
 10
-1.2419997249617198
 20
-24.687986032084915
 10
-1.2813678638556398
 20
-24.697374307042505
 10
-1.3207696836716618
 20
-24.706720811576723
 10
-1.3602051824080197
 20
-24.716025445123453
 10
-1.3996743577757302
 20
-24.7252881069575
 10
-1.4391772071986935
 20
-24.734508696206138
 10
-1.478713727807463
 20
-24.74368711175521
 10
-1.5182839164464466
 20
-24.752823252388392
 10
-1.5578877696703475
 20
-24.76191701673463
 10
-1.5975252837383584
 20
-24.77096830318881
 10
-1.6371964546208453
 20
-24.779977010032468
 10
-1.6769012779956392
 20
-24.788943035384484
 10
-1.7166397492455365
 20
-24.797866277175594
 10
-1.7564118634601185
 20
-24.806746633187934
 10
-1.7962176154352136
 20
-24.815584001056585
 10
-1.8360569996692648
 20
-24.82437827822907
 10
-1.8759300103650813
 20
-24.833129362002037
 10
-1.9158366414317953
 20
-24.84183714955465
 10
-1.9557768864755618
 20
-24.850501537836752
 10
-1.995750738806879
 20
-24.859122423675963
 10
-2.0357581914397183
 20
-24.8676997037732
 10
-2.0757992370849982
 20
-24.876233274630682
 10
-2.1158738681556395
 20
-24.884723032624116
 10
-2.155982076761173
 20
-24.89316887394715
 10
-2.196123854711972
 20
-24.901570694669616
 10
-2.236299193515956
 20
-24.909928390707364
 10
-2.2765080843767063
 20
-24.918241857809562
 10
-2.3167505181960153
 20
-24.926510991595777
 10
-2.357026485568856
 20
-24.93473568750889
 10
-2.397335976787779
 20
-24.942915840870782
 10
-2.437678981839193
 20
-24.951051346850125
 10
-2.4780554904025296
 20
-24.959142100461236
 10
-2.518465491850069
 20
-24.967187996570996
 10
-2.5589089752485696
 20
-24.975188929921714
 10
-2.59938592935675
 20
-24.983144795112736
 10
-2.6398963426211224
 20
-24.991055486567802
 10
-2.6804402031797854
 20
-24.99892089858016
 10
-2.721017498864616
 20
-25.006740925338033
 10
-2.761628217192948
 20
-25.014515460853705
 10
-2.802272345371352
 20
-25.022244399006475
 10
-2.842949870296572
 20
-25.029927633556657
 10
-2.8836607785496415
 20
-25.03756505809972
 10
-2.924405056401586
 20
-25.04515656612314
 10
-2.9651826898062654
 20
-25.052702050950575
 10
-3.0059936644063026
 20
-25.060201405798693
 10
-3.0468379655273825
 20
-25.0676545237348
 10
-3.08771557818005
 20
-25.075061297698458
 10
-3.1286264870590466
 20
-25.082421620501414
 10
-3.169570676540619
 20
-25.089735384811874
 10
-3.2105481306855164
 20
-25.09700248318472
 10
-3.2515588332357637
 20
-25.10422280804064
 10
-3.292602767614656
 20
-25.11139625167225
 10
-3.3336799169252207
 20
-25.118522706237833
 10
-3.37479026395314
 20
-25.125602063789067
 10
-3.415933791161599
 20
-25.132634216237005
 10
-3.457110480692341
 20
-25.139619055365973
 10
-3.4983203143671697
 20
-25.14655647284993
 10
-3.53956327368555
 20
-25.153446360239318
 10
-3.5808393398223304
 20
-25.160288608950445
 10
-3.622148493632088
 20
-25.16708311030131
 10
-3.6634907156433014
 20
-25.173829755475136
 10
-3.704865986059046
 20
-25.180528435530963
 10
-3.7462742847610846
 20
-25.187179041436057
 10
-3.7877155913007647
 20
-25.193781464008847
 10
-3.829189884907483
 20
-25.200335593980824
 10
-3.870697144482761
 20
-25.20684132196123
 10
-3.912237348599584
 20
-25.213298538437687
 10
-3.953810475504139
 20
-25.21970713379215
 10
-3.995416503112207
 20
-25.22606699828233
 10
-4.037055409018246
 20
-25.232378022103415
 10
-4.078727170474342
 20
-25.23864009525976
 10
-4.120431764412451
 20
-25.244853107709428
 10
-4.162169167435693
 20
-25.25101694931263
 10
-4.203939355806231
 20
-25.25713150976255
 10
-4.245742305461468
 20
-25.26319667868882
 10
-4.28757799200712
 20
-25.269212345618797
 10
-4.329446390714098
 20
-25.275178399963256
 10
-4.371347476518537
 20
-25.281094731021184
 10
-4.413281224030284
 20
-25.286961228032766
 10
-4.455247607515551
 20
-25.292777780082904
 10
-4.497246600910252
 20
-25.298544276182582
 10
-4.539278177816761
 20
-25.30426060525341
 10
-4.581342311500432
 20
-25.309926656112033
 10
-4.623438974886528
 20
-25.31554231745698
 10
-4.665568140569817
 20
-25.32110747792578
 10
-4.707729780809287
 20
-25.326622026068442
 10
-4.749923867512307
 20
-25.332085850266456
 10
-4.7921503722640155
 20
-25.33749883889493
 10
-4.834409266306639
 20
-25.342860880214033
 10
-4.876700520535337
 20
-25.348171862352157
 10
-4.919024105513862
 20
-25.353431673391423
 10
-4.961379991468898
 20
-25.35864020134082
 10
-5.003768148273465
 20
-25.363797334054553
 10
-5.046188545469674
 20
-25.368902959352788
 10
-5.0886411522581625
 20
-25.373956964970056
 10
-5.131125937494729
 20
-25.37895923854215
 10
-5.173642869692296
 20
-25.38390966761935
 10
-5.216191917016926
 20
-25.388808139650475
 10
-5.258773047304415
 20
-25.393654542067143
 10
-5.301386228034152
 20
-25.398448762158967
 10
-5.344031426343452
 20
-25.40319068714741
 10
-5.386708609029423
 20
-25.407880204197205
 10
-5.429417742545846
 20
-25.412517200404242
 10
-5.472158792987404
 20
-25.41710156272475
 10
-5.514931726116911
 20
-25.42163317810646
 10
-5.557736507348092
 20
-25.426111933410372
 10
-5.600573101737696
 20
-25.43053771537826
 10
-5.643441474009316
 20
-25.434910410744774
 10
-5.686341588529959
 20
-25.439229906133313
 10
-5.729273409322785
 20
-25.443496088116706
 10
-5.772236900055873
 20
-25.44770884317004
 10
-5.81523202405521
 20
-25.451868057731364
 10
-5.8582587442961
 20
-25.45597361816616
 10
-5.901317023398155
 20
-25.460025410748624
 10
-5.944406823640838
 20
-25.464023321731954
 10
-5.987528106942523
 20
-25.467967237260705
 10
-6.030680834876538
 20
-25.471857043442544
 10
-6.0738649686650215
 20
-25.475692626324495
 10
-6.117080469171916
 20
-25.479473871866347
 10
-6.160327296922997
 20
-25.483200666027177
 10
-6.203605412074737
 20
-25.486872894637916
 10
-6.246914774435407
 20
-25.49049044349258
 10
-6.290255343471324
 20
-25.494053198375454
 10
-6.333627078279361
 20
-25.497561044951368
 10
-6.37702993760904
 20
-25.50101386885883
 10
-6.420463879857049
 20
-25.504411555689824
 10
-6.463928863064078
 20
-25.507753990979577
 10
-6.507424844915219
 20
-25.51104106021087
 10
-6.550951782734804
 20
-25.51427264879637
 10
-6.594509633501264
 20
-25.51744864213927
 10
-6.638098353829278
 20
-25.520568925565748
 10
-6.681717899975856
 20
-25.523633384351633
 10
-6.72536822784887
 20
-25.52664190375727
 10
-6.769049292989835
 20
-25.529594368963934
 10
-6.812761050589674
 20
-25.53249066513648
 10
-6.856503455475765
 20
-25.535330677376447
 10
-6.900276462120685
 20
-25.538114290757495
 10
-6.944080024635884
 20
-25.5408413903039
 10
-6.987914096771615
 20
-25.54351186099294
 10
-7.031778631930583
 20
-25.546125587806976
 10
-7.075673583138783
 20
-25.548682455628985
 10
-7.119598903073761
 20
-25.551182349348338
 10
-7.16355454404816
 20
-25.553625153802678
 10
-7.207540458013514
 20
-25.556010753794386
 10
-7.2515565965676
 20
-25.5583390341185
 10
-7.295602910933499
 20
-25.560609879490862
 10
-7.339679351986096
 20
-25.56282317464393
 10
-7.383785870232099
 20
-25.56497880425827
 10
-7.427922415809916
 20
-25.56707665296509
 10
-7.472088938509094
 20
-25.56911660541515
 10
-7.516285387748448
 20
-25.571098546205384
 10
-7.560511712578993
 20
-25.573022359891432
 10
-7.604767861701744
 20
-25.57488793105013
 10
-7.6490537834403165
 20
-25.576695144188562
 10
-7.693369425758215
 20
-25.578443883805043
 10
-7.737714736265034
 20
-25.58013403441099
 10
-7.782089662187929
 20
-25.581765480438325
 10
-7.826494150407572
 20
-25.58333810636067
 10
-7.8709281474253
 20
-25.584851796586744
 10
-7.915391599381101
 20
-25.586306435521795
 10
-7.959884452059084
 20
-25.58770190758672
 10
-8.00440665086158
 20
-25.58903809713647
 10
-8.048958140835778
 20
-25.59031488854783
 10
-8.09353886665756
 20
-25.591532166169348
 10
-8.13814877264157
 20
-25.592689814355357
 10
-8.18278780273087
 20
-25.593787717434907
 10
-8.227455900501011
 20
-25.594825759726724
 10
-8.272153009163144
 20
-25.595803825550856
 10
-8.31687907156258
 20
-25.59672179922555
 10
-8.361634030169935
 20
-25.59757956504201
 10
-8.406417827094375
 20
-25.598377007307036
 10
-8.451230404074746
 20
-25.599114010317436
 10
-8.496071702478105
 20
-25.599790458357464
 10
-8.54094166330901
 20
-25.600406235728745
 10
-8.58584022720511
 20
-25.600961226738473
 10
-8.630767334418161
 20
-25.601455315644465
 10
-8.67572292484994
 20
-25.601888386764337
 10
-8.720706938028174
 20
-25.602260324405012
 10
-8.765719313100439
 20
-25.602571012846976
 10
-8.810759988858006
 20
-25.602820336415963
 10
-8.855828903712542
 20
-25.603008179416285
 10
-8.900925995715262
 20
-25.60313442618844
 10
-8.94605120253083
 20
-25.60319896103507
 10
-8.991204461471474
 20
-25.603201668321134
 10
-9.03638570946842
 20
-25.60314243239316
 10
-9.081594883077756
 20
-25.60302113759825
 10
-9.126831918501061
 20
-25.602837668343682
 10
-9.172096751553434
 20
-25.60259190900824
 10
-9.21738931767952
 20
-25.6022837439893
 10
-9.262709551960045
 20
-25.60191305772234
 10
-9.308057389096628
 20
-25.6014797346403
 10
-9.353432763424355
 20
-25.60098365920994
 10
-9.398835608903255
 20
-25.600424715909924
 10
-9.444265859122773
 20
-25.59980278924448
 10
-9.48972344729812
 20
-25.599117763735173
 10
-9.535208306268173
 20
-25.598369523916745
 10
-9.580720368506732
 20
-25.59755795436896
 10
-9.626259566119405
 20
-25.596682939709332
 10
-9.671825830819962
 20
-25.595744364531743
 10
-9.717419093961619
 20
-25.594742113491453
 10
-9.763039286530637
 20
-25.593676071289114
 10
-9.808686339116672
 20
-25.592546122594264
 10
-9.85436018196511
 20
-25.59135215218428
 10
-9.900060744934555
 20
-25.59009404483405
 10
-9.945787957498549
 20
-25.588771685322634
 10
-9.991541748772624
 20
-25.58738495850463
 10
-10.037322047496465
 20
-25.585933749265145
 10
-10.083128782029798
 20
-25.584417942510985
 10
-10.128961880355572
 20
-25.582837423180205
 10
-10.174821270095366
 20
-25.581192076282566
 10
-10.220706878486858
 20
-25.579481786843637
 10
-10.266618632395353
 20
-25.577706439935486
 10
-10.312556458308004
 20
-25.575865920663524
 10
-10.358520282345815
 20
-25.57396011419782
 10
-10.404510030246373
 20
-25.57198890573129
 10
-10.450525627376479
 20
-25.569952180512562
 10
-10.496566998729543
 20
-25.567849823840724
 10
-10.542634068922036
 20
-25.565681721057857
 10
-10.58872676219579
 20
-25.56344775755603
 10
-10.634845002419707
 20
-25.561147818782693
 10
-10.680988713081248
 20
-25.558781790221534
 10
-10.72715781729922
 20
-25.556349557424372
 10
-10.773352237819699
 20
-25.553851006002546
 10
-10.819571896993123
 20
-25.55128602157394
 10
-10.86581671682923
 20
-25.54865448989438
 10
-10.912086618935891
 20
-25.545956296713932
 10
-10.95838152455307
 20
-25.543191327858633
 10
-11.00470135454444
 20
-25.54035946921196
 10
-11.051046029396563
 20
-25.537460606714042
 10
-11.097415469230762
 20
-25.53449462639033
 10
-11.143809593782727
 20
-25.531461414305614
 10
-11.19022832241086
 20
-25.528360856584662
 10
-11.236671574103037
 20
-25.525192839428858
 10
-11.28313926747584
 20
-25.52195724911551
 10
-11.329631320757505
 20
-25.518653971960198
 10
-11.376147651816378
 20
-25.51528289438254
 10
-11.422688178138495
 20
-25.51184390285642
 10
-11.469252816819633
 20
-25.508336883893854
 10
-11.515841484604096
 20
-25.50476172413262
 10
-11.562454097848324
 20
-25.50111831025604
 10
-11.609090572533592
 20
-25.497406529022637
 10
-11.655750824264883
 20
-25.49362626726462
 10
-11.702434768276701
 20
-25.48977741190176
 10
-11.749142319424942
 20
-25.485859849924672
 10
-11.795873392177533
 20
-25.481873468375735
 10
-11.842627900659942
 20
-25.477818154448645
 10
-11.88940575858927
 20
-25.473693795346968
 10
-11.936206879310104
 20
-25.46950027836292
 10
-11.9830311758152
 20
-25.46523749092244
 10
-12.029878560705066
 20
-25.460905320499613
 10
-12.076748946200711
 20
-25.45650365464532
 10
-12.123642244152766
 20
-25.452032381007655
 10
-12.170558366050678
 20
-25.447491387351867
 10
-12.21749722297914
 20
-25.442880561470275
 10
-12.264458725675569
 20
-25.43819979130348
 10
-12.311442784494844
 20
-25.433448964867537
 10
-12.35844930940027
 20
-25.42862797023674
 10
-12.405478209997058
 20
-25.42373669561374
 10
-12.452529395516436
 20
-25.41877502929752
 10
-12.499602774812034
 20
-25.413742859677086
 10
-12.546698256346327
 20
-25.40864007520492
 10
-12.593815748234126
 20
-25.403466564486507
 10
-12.640955158200319
 20
-25.39822221619522
 10
-12.688116393594152
 20
-25.392906919102547
 10
-12.7352993613954
 20
-25.387520562091368
 10
-12.782503968206647
 20
-25.38206303414134
 10
-12.829730120266083
 20
-25.376534224355424
 10
-12.876977723418474
 20
-25.37093402190305
 10
-12.924246683144862
 20
-25.365262316080205
 10
-12.971536904555801
 20
-25.359518996296703
 10
-13.018848292395056
 20
-25.353703952084256
 10
-13.066180751009806
 20
-25.3478170730392
 10
-13.113534184386245
 20
-25.341858248893132
 10
-13.160908496141893
 20
-25.33582736949862
 10
-13.208303589513992
 20
-25.32972432480752
 10
-13.255719367370238
 20
-25.323549004892705
 10
-13.303155732198418
 20
-25.31730129992913
 10
-13.350612586128895
 20
-25.31098110023755
 10
-13.398089830895419
 20
-25.304588296210802
 10
-13.445587367880682
 20
-25.298122778401343
 10
-13.493105098088034
 20
-25.291584437468195
 10
-13.540642922133163
 20
-25.284973164162594
 10
-13.588200740284176
 20
-25.27828884940394
 10
-13.635778452432083
 20
-25.27153138422501
 10
-13.683375958075418
 20
-25.26470065974476
 10
-13.730993156350838
 20
-25.25779656722593
 10
-13.778629946046594
 20
-25.250818998100357
 10
-13.826286225549383
 20
-25.243767843872003
 10
-13.873961892879755
 20
-25.236642996183104
 10
-13.921656845707878
 20
-25.229444346843437
 10
-13.969370981300912
 20
-25.22217178773543
 10
-14.017104196576426
 20
-25.21482521091208
 10
-14.064856388087756
 20
-25.20740450857093
 10
-14.112627451989095
 20
-25.19990957299215
 10
-14.160417284095491
 20
-25.19234029664713
 10
-14.20822577983171
 20
-25.184696572107583
 10
-14.256052834263407
 20
-25.176978292102007
 10
-14.303898342079409
 20
-25.169185349484998
 10
-14.351762197593638
 20
-25.161317637241538
 10
-14.399644294775376
 20
-25.153375048540944
 10
-14.44754452719858
 20
-25.14535747664844
 10
-14.495462788078182
 20
-25.13726481498989
 10
-14.543398970259233
 20
-25.129096957133346
 10
-14.591352966222535
 20
-25.12085379679959
 10
-14.639324668074266
 20
-25.1125352278449
 10
-14.6873139675618
 20
-25.10414114428917
 10
-14.735320756052914
 20
-25.095671440280764
 10
-14.783344924547047
 20
-25.08712601011682
 10
-14.83138636369537
 20
-25.07850474827792
 10
-14.879444963765355
 20
-25.069807549368527
 10
-14.927520614655206
 20
-25.061034308142425
 10
-14.975613205907168
 20
-25.052184919525786
 10
-15.023722626694376
 20
-25.043259278595663
 10
-15.071848765818125
 20
-25.034257280576167
 10
-15.119991511716771
 20
-25.02517882085407
 10
-15.168150752469684
 20
-25.016023794986065
 10
-15.216326375779289
 20
-25.006792098669575
 10
-15.264518268990006
 20
-24.997483627774855
 10
-15.312726319085998
 20
-24.988098278341887
 10
-15.360950412672144
 20
-24.978635946549822
 10
-15.409190435994828
 20
-24.96909652875187
 10
-15.457446274949216
 20
-24.95947992148751
 10
-15.505717815061935
 20
-24.94978602145494
 10
-15.554004941476915
 20
-24.940014725489146
 10
-15.602307538989209
 20
-24.930165930617157
 10
-15.650625492031695
 20
-24.92023953403715
 10
-15.69895868468535
 20
-24.910235433135288
 10
-15.747307000644977
 20
-24.900153525431953
 10
-15.795670323255335
 20
-24.88999370863991
 10
-15.844048535510895
 20
-24.879755880664348
 10
-15.892441520012696
 20
-24.869439939535518
 10
-15.940849159040393
 20
-24.85904578352267
 10
-15.989271334486368
 20
-24.848573311031284
 10
-16.0377079278899
 20
-24.83802242065714
 10
-16.08615882042939
 20
-24.82739301117486
 10
-16.134623892914863
 20
-24.816684981526976
 10
-16.18310302582388
 20
-24.805898230879798
 10
-16.23159609924618
 20
-24.79503265853872
 10
-16.280102992917424
 20
-24.784088164001027
 10
-16.328623586234812
 20
-24.77306464697992
 10
-16.377157758207417
 20
-24.761962007329583
 10
-16.425705387511574
 20
-24.75078014512997
 10
-16.47426635245848
 20
-24.73951896063808
 10
-16.52284053098059
 20
-24.728178354268447
 10
-16.571427800694707
 20
-24.71675822668824
 10
-16.620028038839326
 20
-24.70525847872368
 10
-16.668641122273662
 20
-24.693679011359855
 10
-16.717266927545758
 20
-24.682019725842192
 10
-16.765905330823912
 20
-24.670280523575197
 10
-16.81455620790319
 20
-24.65846130613305
 10
-16.863219434276832
 20
-24.64656197536498
 10
-16.91189488503137
 20
-24.634582433241853
 10
-16.960582434913455
 20
-24.622522581954836
 10
-17.009281958341358
 20
-24.61038232393236
 10
-17.05799332935264
 20
-24.59816156176452
 10
-17.106716421636115
 20
-24.58586019825026
 10
-17.155451108530055
 20
-24.573478136395153
 10
-17.204197263037244
 20
-24.561015279433512
 10
-17.252954757783147
 20
-24.548471530768857
 10
-17.301723465056803
 20
-24.535846794033052
 10
-17.350503256792344
 20
-24.52314097306047
 10
-17.39929400456197
 20
-24.510353971878555
 10
-17.448095579620333
 20
-24.49748569477097
 10
-17.49690785284709
 20
-24.48453604619697
 10
-17.545730694764387
 20
-24.4715049308169
 10
-17.594563975568764
 20
-24.458392253537152
 10
-17.643407565099906
 20
-24.44519791946689
 10
-17.692261332838168
 20
-24.4319218339153
 10
-17.74112514794322
 20
-24.418563902445527
 10
-17.789998879187138
 20
-24.405124030782755
 10
-17.83888239502826
 20
-24.391602124916563
 10
-17.887775563577538
 20
-24.37799809105492
 10
-17.936678252573277
 20
-24.36431183559017
 10
-17.985590329453185
 20
-24.350543265197786
 10
-18.03451166125769
 20
-24.3366922867054
 10
-18.083442114706465
 20
-24.322758807197214
 10
-18.132381556198293
 20
-24.308742734013883
 10
-18.181329851757795
 20
-24.294643974681183
 10
-18.23028686705818
 20
-24.280462436941544
 10
-18.279252467466502
 20
-24.26619802881463
 10
-18.328226517985478
 20
-24.251850658520098
 10
-18.377208883277213
 20
-24.23742023450977
 10
-18.4261994276615
 20
-24.222906665465835
 10
-18.47519801511122
 20
-24.20830986029522
 10
-18.524204509280978
 20
-24.19362972816767
 10
-18.573218773462163
 20
-24.178866178457103
 10
-18.622240670631694
 20
-24.16401912080579
 10
-18.67127006338649
 20
-24.149088465039526
 10
-18.72030681402851
 20
-24.134074121278605
 10
-18.76935078450418
 20
-24.118975999859334
 10
-18.818401836401684
 20
-24.103794011331466
 10
-18.86745983102127
 20
-24.08852806654884
 10
-18.91652462927879
 20
-24.07317807654587
 10
-18.965596091772127
 20
-24.0577439526233
 10
-19.014674078775162
 20
-24.0422256063406
 10
-19.06375845021218
 20
-24.02662294948388
 10
-19.112849065661973
 20
-24.010935894071665
 10
-19.161945784405415
 20
-23.995164352415234
 10
-19.211048465365845
 20
-23.979308237043696
 10
-19.260156967117116
 20
-23.96336746071499
 10
-19.309271147938674
 20
-23.94734193648486
 10
-19.358390865751343
 20
-23.931231577627106
 10
-19.407515978154027
 20
-23.915036297679773
 10
-19.45664634241398
 20
-23.898756010433274
 10
-19.505781815459223
 20
-23.882390629921566
 10
-19.55492225390583
 20
-23.865940070456038
 10
-19.604067514029175
 20
-23.849404246590442
 10
-19.65321745177134
 20
-23.832783073130532
 10
-19.70237192275667
 20
-23.816076465153323
 10
-19.751530782275008
 20
-23.799284337986986
 10
-19.800693885293587
 20
-23.782406607225727
 10
-19.849861086443273
 20
-23.76544318871346
 10
-19.89903224004537
 20
-23.7483939985764
 10
-19.94820720008718
 20
-23.731258953194022
 10
-19.99738582021963
 20
-23.71403796919675
 10
-20.046567953793488
 20
-23.696730963509278
 10
-20.095753453811614
 20
-23.67933785329432
 10
-20.144942172973288
 20
-23.66185855600531
 10
-20.19413396364269
 20
-23.644292989349523
 10
-20.243328677863452
 20
-23.62664107130569
 10
-20.29252616736165
 20
-23.608902720127688
 10
-20.34172628354629
 20
-23.59107785434539
 10
-20.39092887748752
 20
-23.573166392739687
 10
-20.440133799953003
 20
-23.55516825438521
 10
-20.489340901403168
 20
-23.537083358644686
 10
-20.538550031947132
 20
-23.518911625118676
 10
-20.58776104139095
 20
-23.500652973701524
 10
-20.636973779237888
 20
-23.48230732458171
 10
-20.686188094652397
 20
-23.46387459820106
 10
-20.73540383648529
 20
-23.445354715283823
 10
-20.784620853291916
 20
-23.426747596857588
 10
-20.833838993302994
 20
-23.408053164220252
 10
-20.88305810441384
 20
-23.389271338928516
 10
-20.932278034225707
 20
-23.37040204284477
 10
-20.981498630041855
 20
-23.35144519813255
 10
-21.03071973881424
 20
-23.332400727197452
 10
-21.079941207220358
 20
-23.313268552773103
 10
-21.129162881596507
 20
-23.294048597847265
 10
-21.178384607989592
 20
-23.274740785719427
 10
-21.227606232134907
 20
-23.25534503997651
 10
-21.276827599441653
 20
-23.235861284477295
 10
-21.326048555027437
 20
-23.21628944339054
 10
-21.375268943692255
 20
-23.19662944116673
 10
-21.424488609937395
 20
-23.176881202559017
 10
-21.473707397933012
 20
-23.15704465258826
 10
-21.52292515159096
 20
-23.137119716622063
 10
-21.572141714474537
 20
-23.117106320277486
 10
-21.621356929841294
 20
-23.09700438946782
 10
-21.670570640690965
 20
-23.0768138504538
 10
-21.71978268966194
 20
-23.05653462973323
 10
-21.768992919125537
 20
-23.036166654142015
 10
-21.81820117115073
 20
-23.015709850816485
 10
-21.86740728747073
 20
-22.99516414715863
 10
-21.91661110956848
 20
-22.974529470926406
 10
-21.965812478586102
 20
-22.953805750138635
 10
-22.015011235383003
 20
-22.932992913136328
 10
-22.06420722053401
 20
-22.912090888580856
 10
-22.11340027426396
 20
-22.89109960538608
 10
-22.162590236566377
 20
-22.87001899284198
 10
-22.211776947104482
 20
-22.848848980511974
 10
-22.260960245228414
 20
-22.82758949825131
 10
-22.31013997004068
 20
-22.806240476274567
 10
-22.359315960303263
 20
-22.784801845060315
 10
-22.408488054489744
 20
-22.763273535405084
 10
-22.457656090814897
 20
-22.74165547845352
 10
-22.5068199071757
 20
-22.71994760563838
 10
-22.555979341166836
 20
-22.69814984869684
 10
-22.605134230115553
 20
-22.67626213970578
 10
-22.65428441104924
 20
-22.654284411049222
 10
-22.703429720685325
 20
-22.63221659540866
 10
-22.752569995488678
 20
-22.61005862582052
 10
-22.801705071618343
 20
-22.58781043562309
 10
-22.85083478493441
 20
-22.565471958463768
 10
-22.89995897102949
 20
-22.54304312833042
 10
-22.94907746518649
 20
-22.52052387950981
 10
-22.998190102433924
 20
-22.49791414664234
 10
-23.04729671750032
 20
-22.475213864677208
 10
-23.09639714480615
 20
-22.452422968865
 10
-23.14549121853494
 20
-22.429541394827268
 10
-23.1945787725557
 20
-22.406569078480892
 10
-23.2436596404609
 20
-22.383505956075467
 10
-23.292733655561563
 20
-22.36035196418861
 10
-23.34180065089539
 20
-22.337107039733937
 10
-23.39086045922457
 20
-22.313771119959107
 10
-23.439912913009408
 20
-22.290344142420754
 10
-23.48895784445464
 20
-22.266826045028957
 10
-23.537995085485395
 20
-22.243216766024364
 10
-23.587024467736736
 20
-22.219516243968545
 10
-23.63604582256913
 20
-22.19572441775883
 10
-23.685058981086414
 20
-22.171841226645395
 10
-23.734063774109465
 20
-22.14786661020642
 10
-23.783060032169043
 20
-22.123800508341812
 10
-23.832047585541872
 20
-22.099642861307096
 10
-23.88102626424048
 20
-22.07539360970381
 10
-23.929995897967142
 20
-22.051052694437153
 10
-23.978956316191034
 20
-22.026620056787568
 10
-24.027907348111334
 20
-22.002095638376613
 10
-24.07684882263342
 20
-21.97747938114528
 10
-24.125780568405695
 20
-21.95277122738808
 10
-24.17470241382216
 20
-21.927971119755355
 10
-24.223614187003
 20
-21.90307900123565
 10
-24.27251571577414
 20
-21.878094815137537
 10
-24.321406827738997
 20
-21.853018505154687
 10
-24.37028735022947
 20
-21.827850015321406
 10
-24.41915711027864
 20
-21.802589289988546
 10
-24.468015934704994
 20
-21.777236273899085
 10
-24.516863650031716
 20
-21.75179091211605
 10
-24.565700082528394
 20
-21.72625315005986
 10
-24.61452505821958
 20
-21.700622933515977
 10
-24.663338402835837
 20
-21.674900208591836
 10
-24.712139941893682
 20
-21.64908492178739
 10
-24.760929500632123
 20
-21.623177019939252
 10
-24.809706904011367
 20
-21.597176450219926
 10
-24.858471976763564
 20
-21.571083160182283
 10
-24.90722454336527
 20
-21.544897097735447
 10
-24.955964428022938
 20
-21.518618211132456
 10
-25.004691454695447
 20
-21.49224644898986
 10
-25.053405447079957
 20
-21.465781760275675
 10
-25.102106228662407
 20
-21.43922409435275
 10
-25.150793622625233
 20
-21.412573400899703
 10
-25.199467451910213
 20
-21.38582962996518
 10
-25.248127539256917
 20
-21.35899273200016
 10
-25.29677370709408
 20
-21.332062657766027
 10
-25.34540577763316
 20
-21.30503935841398
 10
-25.394023572835085
 20
-21.27792278545692
 10
-25.44262691442132
 20
-21.250712890778864
 10
-25.491215623856124
 20
-21.2234096266201
 10
-25.53978952236587
 20
-21.196012945593527
 10
-25.588348430930772
 20
-21.168522800677835
 10
-25.636892170291528
 20
-21.14093914522299
 10
-25.685420560936464
 20
-21.113261932939825
 10
-25.733933423128782
 20
-21.085491117922516
 10
-25.782430576895763
 20
-21.057626654639666
 10
-25.830911841980896
 20
-21.029668497895326
 10
-25.879377037947762
 20
-21.001616602914037
 10
-25.927825984094106
 20
-20.9734709252705
 10
-25.976258499466127
 20
-20.94523142090162
 10
-26.024674402915252
 20
-20.916898046152443
 10
-26.07307351302423
 20
-20.888470757716377
 10
-26.121455648143215
 20
-20.859949512664578
 10
-26.16982062640513
 20
-20.831334268458214
 10
-26.218168265702626
 20
-20.802624982930013
 10
-26.266498383690326
 20
-20.773821614286298
 10
-26.314810797802753
 20
-20.74492412112111
 10
-26.363105325255276
 20
-20.71593246241701
 10
-26.41138178299416
 20
-20.686846597505802
 10
-26.45963998778393
 20
-20.65766648613735
 10
-26.507879756133324
 20
-20.628392088421375
 10
-26.556100904336905
 20
-20.599023364860237
 10
-26.60430324845579
 20
-20.569560276333817
 10
-26.652486604335405
 20
-20.540002784113423
 10
-26.70065078759579
 20
-20.510350849854305
 10
-26.748795613621564
 20
-20.480604435587956
 10
-26.79692089760597
 20
-20.450763503756
 10
-26.845026454494704
 20
-20.42082801716708
 10
-26.89311209899863
 20
-20.39079793900695
 10
-26.941177645672305
 20
-20.360673232897938
 10
-26.9892229087916
 20
-20.330453862806092
 10
-27.037247702421286
 20
-20.300139793092693
 10
-27.085251840458113
 20
-20.269730988546456
 10
-27.13323513651333
 20
-20.2392274142953
 10
-27.181197404054185
 20
-20.208629035912544
 10
-27.229138456286893
 20
-20.177935819329218
 10
-27.27705810620705
 20
-20.147147730871993
 10
-27.324956166640366
 20
-20.116264737293125
 10
-27.372832450150575
 20
-20.085286805702474
 10
-27.42068676911436
 20
-20.05421390362284
 10
-27.468518935706967
 20
-20.023045998979267
 10
-27.516328761880906
 20
-19.99178306008356
 10
-27.564116059397662
 20
-19.960425055657343
 10
-27.611880639798677
 20
-19.928971954810983
 10
-27.659622314427175
 20
-19.897423727059486
 10
-27.707340894420426
 20
-19.86578034231687
 10
-27.755036190712815
 20
-19.83404177089837
 10
-27.802708014039336
 20
-19.802207983523
 10
-27.850356174921142
 20
-19.770278951303172
 10
-27.897980483701865
 20
-19.7382546457706
 10
-27.945580750508483
 20
-19.70613503884845
 10
-27.993156785268212
 20
-19.67392010286337
 10
-28.040708397733695
 20
-19.64160981056325
 10
-28.088235397417797
 20
-19.609204135071284
 10
-28.135737593683643
 20
-19.576703049949277
 10
-28.183214795689214
 20
-19.544106529158555
 10
-28.23066681237074
 20
-19.511414547048677
 10
-28.278093452489742
 20
-19.47862707839015
 10
-28.325494524631587
 20
-19.445744098373197
 10
-28.372869837170686
 20
-19.41276558258378
 10
-28.420219198296945
 20
-19.379691507021832
 10
-28.467542416025108
 20
-19.3465218481076
 10
-28.514839298145077
 20
-19.313256582647714
 10
-28.562109652309395
 20
-19.279895687894737
 10
-28.609353285946057
 20
-19.246439141487897
 10
-28.656570006307142
 20
-19.21288692148608
 10
-28.70375962048704
 20
-19.17923900638
 10
-28.75092193534591
 20
-19.14549537504075
 10
-28.798056757619968
 20
-19.11165600679365
 10
-28.845163893838105
 20
-19.07772088136244
 10
-28.892243150315533
 20
-19.043689978865277
 10
-28.939294333253173
 20
-19.009563279880425
 10
-28.986317248629245
 20
-18.975340765374522
 10
-29.03331170225038
 20
-18.941022416736384
 10
-29.08027749977319
 20
-18.90660821579099
 10
-29.127214446640565
 20
-18.87209814475778
 10
-29.174122348152494
 20
-18.837492186296856
 10
-29.221001009425386
 20
-18.80279032348241
 10
-29.267850235402136
 20
-18.76799253980925
 10
-29.31466983084635
 20
-18.73309881918905
 10
-29.361459600377376
 20
-18.698109145972825
 10
-29.40821934842143
 20
-18.663023504919433
 10
-29.45494887923365
 20
-18.62784188120982
 10
-29.50164799692945
 20
-18.59256426046682
 10
-29.548316505436347
 20
-18.55719062872445
 10
-29.59495420852911
 20
-18.521720972450147
 10
-29.641560909790915
 20
-18.48615527852035
 10
-29.68813641268318
 20
-18.450493534264222
 10
-29.734680520487466
 20
-18.414735727427033
 10
-29.781193036304924
 20
-18.37888184617005
 10
-29.827673763115374
 20
-18.342931879107002
 10
-29.874122503701354
 20
-18.306885815257072
 10
-29.920539060704872
 20
-18.270743644079865
 10
-29.966923236632276
 20
-18.234505355478216
 10
-30.013274833791066
 20
-18.198170939759482
 10
-30.05959365437365
 20
-18.1617403876866
 10
-30.10587950037959
 20
-18.125213690430762
 10
-30.152132173698877
 20
-18.088590839621794
 10
-30.198351476045904
 20
-18.051871827308045
 10
-30.244537208963216
 20
-18.01505664595887
 10
-30.290689173895323
 20
-17.97814528850865
 10
-30.33680717210936
 20
-17.941137748309117
 10
-30.382891004713468
 20
-17.904034019140525
 10
-30.428940472674455
 20
-17.866834095222035
 10
-30.474955376852435
 20
-17.82953797123183
 10
-30.52093551789958
 20
-17.792145642247625
 10
-30.56688069637315
 20
-17.754657103812956
 10
-30.612790712677548
 20
-17.717072351902953
 10
-30.658665367055338
 20
-17.679391382919256
 10
-30.704504459632147
 20
-17.641614193715952
 10
-30.750307790394324
 20
-17.603740781586406
 10
-30.796075159167454
 20
-17.56577114425102
 10
-30.84180636565601
 20
-17.527705279879772
 10
-30.887501209440625
 20
-17.489543187090582
 10
-30.933159489948753
 20
-17.451284864932386
 10
-30.97878100647094
 20
-17.41293031289448
 10
-31.02436555817486
 20
-17.374479530914293
 10
-31.06991294410738
 20
-17.335932519378336
 10
-31.115422963155513
 20
-17.297289279100298
 10
-31.160895414107298
 20
-17.25854981135493
 10
-31.20633009559432
 20
-17.21971411784601
 10
-31.251726806137338
 20
-17.1807822007315
 10
-31.297085344138043
 20
-17.14175406261881
 10
-31.342405507855567
 20
-17.102629706551816
 10
-31.387687095423203
 20
-17.063409136019988
 10
-31.432929904872683
 20
-17.02409235497151
 10
-31.478133734094648
 20
-16.984679367791525
 10
-31.52329838086025
 20
-16.945170179313948
 10
-31.56842364283018
 20
-16.90556479482608
 10
-31.61350931753543
 20
-16.865863220058177
 10
-31.65855520240895
 20
-16.826065461200276
 10
-31.70356109472283
 20
-16.786171524868614
 10
-31.748526791689677
 20
-16.74618141815942
 10
-31.79345209037933
 20
-16.706095148604533
 10
-31.838336787727258
 20
-16.66591272417586
 10
-31.883180680590574
 20
-16.625634153314756
 10
-31.927983565715078
 20
-16.585259444914414
 10
-31.972745239712868
 20
-16.544788608308146
 10
-32.017465499092054
 20
-16.504221653284848
 10
-32.06214414027239
 20
-16.463558590096845
 10
-32.106780959540785
 20
-16.422799429436775
 10
-32.15137575309633
 20
-16.381944182460675
 10
-32.19592831702873
 20
-16.34099286077679
 10
-32.24043844732216
 20
-16.29994547644735
 10
-32.284905939844755
 20
-16.25880204198321
 10
-32.32933059039182
 20
-16.2175625703655
 10
-32.37371219464847
 20
-16.176227075026638
 10
-32.41805054816968
 20
-16.134795569840215
 10
-32.46234544646691
 20
-16.093268069164203
 10
-32.506596684907684
 20
-16.05164458779067
 10
-32.55080405876979
 20
-16.009925140972772
 10
-32.594967363267735
 20
-15.968109744437468
 10
-32.63908639350612
 20
-15.926198414362425
 10
-32.68316094446321
 20
-15.884191167367907
 10
-32.72719081107278
 20
-15.84208802055668
 10
-32.77117578816474
 20
-15.799888991484721
 10
-32.815115670458866
 20
-15.757594098158288
 10
-32.859010252620024
 20
-15.715203359060267
 10
-32.90285932918543
 20
-15.672716793115109
 10
-32.9466626946403
 20
-15.630134419725005
 10
-32.99042014337168
 20
-15.587456258747501
 10
-33.03413146968487
 20
-15.544682330503273
 10
-33.07779646781026
 20
-15.501812655779096
 10
-33.121414931868614
 20
-15.458847255811548
 10
-33.16498665592121
 20
-15.415786152310202
 10
-33.20851143396844
 20
-15.372629367456794
 10
-33.2519890598957
 20
-15.329376923880014
 10
-33.295419327518964
 20
-15.286028844676341
 10
-33.3388020306009
 20
-15.242585153417428
 10
-33.382136962811984
 20
-15.1990458741319
 10
-33.425423917740794
 20
-15.15541103131012
 10
-33.46866268893162
 20
-15.111680649920954
 10
-33.511853069813476
 20
-15.06785475537954
 10
-33.55499485379084
 20
-15.02393337358808
 10
-33.59808783418722
 20
-14.979916530910133
 10
-33.64113180420818
 20
-14.935804254154048
 10
-33.68412655706906
 20
-14.891596570629883
 10
-33.72707188587367
 20
-14.847293508095042
 10
-33.76996758365666
 20
-14.802895094772957
 10
-33.81281344342717
 20
-14.758401359372263
 10
-33.85560925808293
 20
-14.713812331048802
 10
-33.89835482049512
 20
-14.669128039442546
 10
-33.941049923470906
 20
-14.624348514661106
 10
-33.983694359730166
 20
-14.579473787269515
 10
-34.026287921975324
 20
-14.53450388832021
 10
-34.06883040280721
 20
-14.489438849316576
 10
-34.11132159482181
 20
-14.444278702254287
 10
-34.15376129052705
 20
-14.399023479585448
 10
-34.19614928236166
 20
-14.353673214226726
 10
-34.23848536277003
 20
-14.308227939590473
 10
-34.280769324084126
 20
-14.26268768953507
 10
-34.323000958609384
 20
-14.217052498400754
 10
-34.36518005862041
 20
-14.171322401007359
 10
-34.40730641631144
 20
-14.125497432633818
 10
-34.449379823855345
 20
-14.079577629042307
 10
-34.4914000733616
 20
-14.033563026460598
 10
-34.53336695691576
 20
-13.9874536615982
 10
-34.57528026653947
 20
-13.941249571629754
 10
-34.617139794211305
 20
-13.894950794203455
 10
-34.65894533189356
 20
-13.848557367451466
 10
-34.700696671487435
 20
-13.802069329971804
 10
-34.74239360485468
 20
-13.75548672083679
 10
-34.78403592381866
 20
-13.70880957959335
 10
-34.82562342019497
 20
-13.66203794627474
 10
-34.86715588573213
 20
-13.615171861377084
 10
-34.90863311214231
 20
-13.568211365871303
 10
-34.95005489113254
 20
-13.52115650121491
 10
-34.991421014358686
 20
-13.47400730933405
 10
-35.03273127343484
 20
-13.426763832626941
 10
-35.073985459971
 20
-13.379426113978068
 10
-35.11518336554535
 20
-13.331994196747377
 10
-35.15632478167946
 20
-13.284468124760624
 10
-35.19740949990168
 20
-13.236847942333346
 10
-35.23843731172496
 20
-13.18913369426196
 10
-35.27940800857011
 20
-13.141325425794923
 10
-35.32032138191383
 20
-13.093423182688076
 10
-35.36117722318957
 20
-13.045427011167037
 10
-35.40197532376342
 20
-12.997336957918314
 10
-35.44271547504603
 20
-12.949153070130626
 10
-35.48339746840829
 20
-12.900875395463192
 10
-35.52402109517537
 20
-12.852503982043613
 10
-35.56458614669847
 20
-12.80403887849388
 10
-35.605092414295854
 20
-12.75548013390856
 10
-35.645539689256985
 20
-12.706827797856109
 10
-35.68592776289574
 20
-12.65808192039782
 10
-35.72625642647739
 20
-12.609242552061543
 10
-35.76652547128002
 20
-12.560309743863103
 10
-35.80673468856716
 20
-12.511283547296564
 10
-35.846883869588574
 20
-12.462164014334194
 10
-35.886972805600145
 20
-12.41295119743327
 10
-35.927001287842366
 20
-12.363645149528196
 10
-35.96696910755863
 20
-12.31424592403678
 10
-36.0068760559754
 20
-12.264753574853044
 10
-36.046721924324956
 20
-12.215168156354942
 10
-36.086506503859795
 20
-12.165489723408763
 10
-36.12622958580226
 20
-12.115718331352024
 10
-36.165890961377364
 20
-12.06585403600434
 10
-36.20549042183576
 20
-12.015896893674697
 10
-36.245027758432514
 20
-11.965846961154218
 10
-36.284502762395554
 20
-11.915704295705478
 10
-36.323915224970335
 20
-11.865468955077011
 10
-36.36326493744776
 20
-11.815140997512222
 10
-36.402551691087986
 20
-11.76472048172409
 10
-36.44177527714249
 20
-11.714207466902426
 10
-36.48093548694468
 20
-11.663602012742663
 10
-36.52003211176835
 20
-11.612904179400106
 10
-36.55906494293387
 20
-11.56211402752378
 10
-36.59803377179742
 20
-11.511231618252587
 10
-36.63693838967496
 20
-11.460257013191
 10
-36.67577858793724
 20
-11.409190274438988
 10
-36.7145541579651
 20
-11.35803146457755
 10
-36.75326489117122
 20
-11.306780646675087
 10
-36.79191057895187
 20
-11.255437884272515
 10
-36.83049101277701
 20
-11.204003241410613
 10
-36.86900598409925
 20
-11.152476782601713
 10
-36.90745528438976
 20
-11.100858572840723
 10
-36.945838705193225
 20
-11.04914867762127
 10
-36.98415603802975
 20
-10.997347162905927
 10
-37.02240707446913
 20
-10.945454095148222
 10
-37.06059160611514
 20
-10.89346954128774
 10
-37.09870942457608
 20
-10.841393568741038
 10
-37.13676032152911
 20
-10.789226245420421
 10
-37.17474408864436
 20
-10.736967639711294
 10
-37.212660517643485
 20
-10.68461782048924
 10
-37.25050940029868
 20
-10.632176857119193
 10
-37.28829052838965
 20
-10.579644819442738
 10
-37.326003693748184
 20
-10.527021777790873
 10
-37.36364868822999
 20
-10.474307802975593
 10
-37.40122530375002
 20
-10.421502966299503
 10
-37.438733332246656
 20
-10.368607339545616
 10
-37.47617256571048
 20
-10.315620994985036
 10
-37.51354279618608
 20
-10.262544005377176
 10
-37.550843815709214
 20
-10.209376443952193
 10
-37.5880754164168
 20
-10.156118384440996
 10
-37.62523739048998
 20
-10.102769901059103
 10
-37.66232953011198
 20
-10.049331068495228
 10
-37.699351627565115
 20
-9.995801961936953
 10
-37.7363034751413
 20
-9.942182657046734
 10
-37.77318486519551
 20
-9.888473229975657
 10
-37.809995590153996
 20
-9.83467375736528
 10
-37.84673544248672
 20
-9.780784316340176
 10
-37.883404214704555
 20
-9.726804984506943
 10
-37.92000169937142
 20
-9.67273583995702
 10
-37.95652768913652
 20
-9.61857696127473
 10
-37.99298197667612
 20
-9.56432842752216
 10
-38.029364354747045
 20
-9.509990318252255
 10
-38.06567461615089
 20
-9.455562713499699
 10
-38.10191255375953
 20
-9.401045693786932
 10
-38.13807796051784
 20
-9.346439340124542
 10
-38.17417062939757
 20
-9.291743733999539
 10
-38.21019035346903
 20
-9.236958957392824
 10
-38.24613692587968
 20
-9.182085092773384
 10
-38.28201013979241
 20
-9.127122223083253
 10
-38.317809788484986
 20
-9.072070431761098
 10
-38.35353566529928
 20
-9.016929802729763
 10
-38.38918756361125
 20
-8.961700420388917
 10
-38.42476527692171
 20
-8.906382369636
 10
-38.46026859876403
 20
-8.850975735844461
 10
-38.495697322764784
 20
-8.795480604877522
 10
-38.531051242628976
 20
-8.739897063084317
 10
-38.56633015211965
 20
-8.68422519729511
 10
-38.60153384509146
 20
-8.628465094828549
 10
-38.636662115478934
 20
-8.572616843488744
 10
-38.671714757291795
 20
-8.516680531563788
 10
-38.7066915646127
 20
-8.460656247825145
 10
-38.74159233164286
 20
-8.4045440815372
 10
-38.776416852618254
 20
-8.348344122438677
 10
-38.81116492186961
 20
-8.292056460755472
 10
-38.84583633386606
 20
-8.235681187209655
 10
-38.88043088310625
 20
-8.179218392995752
 10
-38.91494836418018
 20
-8.122668169793695
 10
-38.94938857179905
 20
-8.06603060977489
 10
-38.98375130074523
 20
-8.009305805591255
 10
-39.01803634588835
 20
-7.952493850378256
 10
-39.05224350221677
 20
-7.8955948377611636
 10
-39.086372564783154
 20
-7.838608861843485
 10
-39.12042332873053
 20
-7.781536017212187
 10
-39.15439558934649
 20
-7.724376398947973
 10
-39.18828914197728
 20
-7.667130102607917
 10
-39.222103782063485
 20
-7.6097972242322545
 10
-39.25583930516349
 20
-7.5523778603487095
 10
-39.28949550693278
 20
-7.494872107967964
 10
-39.323072183122804
 20
-7.437280064583326
 10
-39.3565691296063
 20
-7.379601828175112
 10
-39.38998614235559
 20
-7.321837497206036
 10
-39.423323017414035
 20
-7.263987170615889
 10
-39.45657955097714
 20
-7.2060509478361965
 10
-39.489755539328264
 20
-7.148028928777779
 10
-39.522850778867756
 20
-7.089921213836071
 10
-39.55586506610061
 20
-7.031727903888251
 10
-39.58879819763573
 20
-6.973449100293102
 10
-39.62164997021939
 20
-6.915084904896354
 10
-39.65442018068874
 20
-6.8566354200222985
 10
-39.6871086259986
 20
-6.798100748478092
 10
-39.71971510324606
 20
-6.7394809935576365
 10
-39.7522394096108
 20
-6.680776259031081
 10
-39.784681342397946
 20
-6.621986649151698
 10
-39.81704069906618
 20
-6.563112268660408
 10
-39.84931727715257
 20
-6.5041532227725956
 10
-39.88151087433454
 20
-6.445109617188401
 10
-39.913621288417204
 20
-6.385981558090094
 10
-39.94564831733068
 20
-6.3267691521411615
 10
-39.97759175911003
 20
-6.267472506483074
 10
-40.00945141195417
 20
-6.208091728743969
 10
-40.04122707416259
 20
-6.148626927028556
 10
-40.07291854413805
 20
-6.089078209918209
 10
-40.10452562050004
 20
-6.0294456864879615
 10
-40.13604810191218
 20
-5.969729466279848
 10
-40.16748578720986
 20
-5.909929659321915
 10
-40.19883847536572
 20
-5.850046376122695
 10
-40.23010596546297
 20
-5.790079727666782
 10
-40.26128805675463
 20
-5.730029825423377
 10
-40.292384548594825
 20
-5.6698967813357015
 10
-40.323395240518025
 20
-5.609680707832229
 10
-40.354319932151625
 20
-5.549381717813864
 10
-40.38515842329501
 20
-5.488999924664591
 10
-40.41591051389672
 20
-5.42853544224807
 10
-40.446576004028536
 20
-5.367988384903487
 10
-40.47715469388511
 20
-5.307358867445571
 10
-40.507646383849625
 20
-5.246647005172794
 10
-40.5380508744687
 20
-5.185852913863355
 10
-40.568367966350465
 20
-5.124976709762053
 10
-40.59859746033782
 20
-5.0640185096020005
 10
-40.6287391573883
 20
-5.002978430588969
 10
-40.65879285859296
 20
-4.941856590403389
 10
-40.68875836524422
 20
-4.880653107208505
 10
-40.71863547874407
 20
-4.819368099638647
 10
-40.74842400067289
 20
-4.75800168680714
 10
-40.77812373275313
 20
-4.696553988301827
 10
-40.80773447686202
 20
-4.635025124185961
 10
-40.83725603505831
 20
-4.5734152150011464
 10
-40.86668820954188
 20
-4.511724381762031
 10
-40.89603080266504
 20
-4.449952745957566
 10
-40.9252836169802
 20
-4.388100429555706
 10
-40.95444645514766
 20
-4.326167554992879
 10
-40.98351912001498
 20
-4.264154245182548
 10
-41.01250141464427
 20
-4.202060623517227
 10
-41.04139314216527
 20
-4.139886813853084
 10
-41.0701941059513
 20
-4.07763294052759
 10
-41.098904109524206
 20
-4.015299128349497
 10
-41.127522956567795
 20
-3.952885502599799
 10
-41.15605045095544
 20
-3.8903921890339137
 10
-41.184486396703235
 20
-3.82781931387706
 10
-41.21283059801558
 20
-3.765167003827984
 10
-41.24108285927927
 20
-3.702435386058179
 10
-41.269242985046525
 20
-3.639624588209839
 10
-41.297310780044675
 20
-3.57673473839628
 10
-41.32528604918446
 20
-3.5137659652025333
 10
-41.353168597548056
 20
-3.4507183976836195
 10
-41.38095823042186
 20
-3.38759216536719
 10
-41.408654753231545
 20
-3.324387398247505
 10
-41.436257971621785
 20
-3.261104226791823
 10
-41.463767691402325
 20
-3.1977427819354345
 10
-41.49118371856955
 20
-3.134303195083101
 10
-41.51850585930607
 20
-3.0707855981086905
 10
-41.545733919990774
 20
-3.0071901233553104
 10
-41.57286770717632
 20
-2.9435169036335256
 10
-41.59990702760257
 20
-2.879766072221705
 10
-41.62685168823563
 20
-2.8159377628685514
 10
-41.653701496178144
 20
-2.752032109786377
 10
-41.6804562587519
 20
-2.6880492476563664
 10
-41.70711578348422
 20
-2.6239893116273625
 10
-41.73367987808448
 20
-2.5598524373136464
 10
-41.76014835044874
 20
-2.4956387607951895
 10
-41.78652100869421
 20
-2.4313484186191157
 10
-41.81279766111113
 20
-2.366981547796545
 10
-41.83897811618454
 20
-2.3025382858034673
 10
-41.865062182654185
 20
-2.2380187705836283
 10
-41.891049669384735
 20
-2.173423140541043
 10
-41.916940385492
 20
-2.1087515345463372
 10
-41.94273414029855
 20
-2.0440040919340814
 10
-41.968430743294135
 20
-1.979180952500193
 10
-41.99403000421627
 20
-1.9142822565057642
 10
-42.01953173296806
 20
-1.8493081446725952
 10
-42.04493573969942
 20
-1.7842587581864482
 10
-42.0702418347697
 20
-1.71913423869507
 10
-42.09544982869833
 20
-1.6539347283055417
 10
-42.12055953226402
 20
-1.5886603695882684
 10
-42.14557075645399
 20
-1.5233113055742447
 10
-42.170483312447494
 20
-1.457887679753992
 10
-42.19529701165174
 20
-1.3923896360787467
 10
-42.22001166569623
 20
-1.3268173189595374
 10
-42.24462708641352
 20
-1.2611708732663387
 10
-42.26914308585568
 20
-1.1954504443279996
 10
-42.29355947631655
 20
-1.129656177932659
 10
-42.317876070284804
 20
-1.0637882203258577
 10
-42.34209268048734
 20
-0.9978467182112309
 10
-42.36620911975547
 20
-0.9318318187472766
 10
-42.390225201755996
 20
-0.8657436695624949
 10
-42.4141407380055
 20
-0.7995824186941747
 10
-42.437955549011036
 20
-0.7333482147988469
 10
-42.46166942302039
 20
-0.6670412064352654
 10
-42.48528226950338
 20
-0.6006615444890151
 10
-42.50879354695945
 20
-0.5342093740307408
 10
-42.53220439706156
 20
-0.46768486132731735
 10
-42.555509684334645
 20
-0.4010881055953278
 10
-42.57872768783885
 20
-0.33441942151030624
 10
-42.6017893533661
 20
-0.26767845944122426
 10
-42.62495137276404
 20
-0.20086683799779276
 10
-42.64725543636655
 20
-0.13398074515392744
 10
-42.67227501895189
 20
-0.06702950798530301
 10
-42.68668006973296
 20
-5.227610611362558e-15
  0
LWPOLYLINE
  5
35
330
17
100
AcDbEntity
  8
TOOTH_PROFILE_001
100
AcDbPolyline
 90
5
 70
1
 10
10.756039696786308
 20
-4.69268678385634
 10
16.490276158382322
 20
-6.410455058526102
 10
16.543163641680373
 20
-7.321135844643431
 10
11.046323501474168
 20
-9.691145151793286
 10
10.756039696786308
 20
-4.69268678385634
  0
LWPOLYLINE
  5
36
330
17
100
AcDbEntity
  8
TOOTH_PROFILE_002
100
AcDbPolyline
 90
5
 70
1
 10
10.70742069948335
 20
-10.956544548543064
 10
14.810297899856181
 20
-15.315282246732748
 10
14.399967619020241
 20
-16.130000382483992
 10
8.45523875260513
 20
-15.42829221823763
 10
10.70742069948335
 20
-10.956544548543064
  0
LWPOLYLINE
  5
37
330
17
100
AcDbEntity
  8
TOOTH_PROFILE_003
100
AcDbPolyline
 90
5
 70
1
 10
7.438453155251739
 20
-16.611867882830673
 10
9.332532277762507
 20
-22.29030604139399
 10
8.61809477058792
 20
-22.85750585489452
 10
3.5171162932651283
 20
-19.725060449648204
 10
7.438453155251739
 20
-16.611867882830673
  0
LWPOLYLINE
  5
38
330
17
100
AcDbEntity
  8
TOOTH_PROFILE_004
100
AcDbPolyline
 90
5
 70
1
 10
1.976464385007974
 20
-20.5013602281747
 10
1.6621041043687415
 20
-26.47910003991923
 10
0.7897003167750307
 20
-26.745648743695902
 10
-2.811902822023293
 20
-21.96436748512544
 10
1.976464385007974
 20
-20.5013602281747
  0
LWPOLYLINE
  5
39
330
17
100
AcDbEntity
  8
TOOTH_PROFILE_005
100
AcDbPolyline
 90
5
 70
1
 10
-4.890794724275428
 20
-22.304095220955034
 10
-6.638144123883603
 20
-28.02938697934151
 10
-7.549085814673899
 20
-28.07757220605049
 10
-9.890685121048055
 20
-22.568569725442302
 10
-4.890794724275428
 20
-22.304095220955034
  0
LWPOLYLINE
  5
3A
330
17
100
AcDbEntity
  8
TOOTH_PROFILE_006
100
AcDbPolyline
 90
5
 70
1
 10
-12.008705017447934
 20
-22.42802021747478
 10
-15.055354795274488
 20
-27.58070114823583
 10
-15.952018738084687
 20
-27.412980088863588
 10
-16.930229064612295
 20
-21.50744876644781
 10
-12.008705017447934
 20
-22.42802021747478
  0
LWPOLYLINE
  5
3B
330
17
100
AcDbEntity
  8
TOOTH_PROFILE_007
100
AcDbPolyline
 90
5
 70
1
 10
-18.97121919380317
 20
-20.869236370571713
 10
-23.12289729243564
 20
-25.181517044216992
 10
-23.956810097974603
 20
-24.8117522367366
 10
-23.548320747408344
 20
-18.83970634831335
 10
-18.97121919380317
 20
-20.869236370571713
  0
LWPOLYLINE
  5
3C
330
17
100
AcDbEntity
  8
TOOTH_PROFILE_008
100
AcDbPolyline
 90
5
 70
1
 10
-25.415517525633557
 20
-17.741641729698873
 10
-30.418455922912454
 20
-21.02840351540705
 10
-31.149881766897114
 20
-20.483286266694257
 10
-29.430098360239473
 20
-14.749653851100792
 10
-25.415517525633557
 20
-17.741641729698873
  0
LWPOLYLINE
  5
3D
330
17
100
AcDbEntity
  8
TOOTH_PROFILE_009
100
AcDbPolyline
 90
5
 70
1
 10
-31.037343490122364
 20
-13.254883790236693
 10
-36.62306651954691
 20
-15.40706730506888
 10
-37.22239477081236
 20
-14.719359353007851
 10
-34.32687958042573
 20
-9.480257576443528
 10
-31.037343490122364
 20
-13.254883790236693
  0
LWPOLYLINE
  5
3E
330
17
100
AcDbEntity
  8
TOOTH_PROFILE_010
100
AcDbPolyline
 90
5
 70
1
 10
-35.61128717934064
 20
-7.660173895656186
 10
-41.515698475574595
 20
-8.645122060720716
 10
-41.96448765173756
 20
-7.850940182652569
 10
-38.074558665055584
 20
-3.3011436903322284
 10
-35.61128717934064
 20
-7.660173895656186
  0
ENDSEC
  0
SECTION
  2
OBJECTS
  0
DICTIONARY
  5
A
330
0
100
AcDbDictionary
281
1
  3
ACAD_COLOR
350
B
  3
ACAD_GROUP
350
C
  3
ACAD_LAYOUT
350
D
  3
ACAD_MATERIAL
350
E
  3
ACAD_MLEADERSTYLE
350
F
  3
ACAD_MLINESTYLE
350
10
  3
ACAD_PLOTSETTINGS
350
11
  3
ACAD_PLOTSTYLENAME
350
12
  3
ACAD_SCALELIST
350
14
  3
ACAD_TABLESTYLE
350
15
  3
ACAD_VISUALSTYLE
350
16
  3
EZDXF_META
350
2D
  0
DICTIONARY
  5
B
330
A
100
AcDbDictionary
281
1
  0
DICTIONARY
  5
C
330
A
100
AcDbDictionary
281
1
  0
DICTIONARY
  5
D
330
A
100
AcDbDictionary
281
1
  3
Model
350
1A
  3
Layout1
350
1E
  0
DICTIONARY
  5
E
330
A
100
AcDbDictionary
281
1
  3
ByBlock
350
1F
  3
ByLayer
350
20
  3
Global
350
21
  0
DICTIONARY
  5
F
330
A
100
AcDbDictionary
281
1
  3
Standard
350
2C
  0
DICTIONARY
  5
10
330
A
100
AcDbDictionary
281
1
  3
Standard
350
22
  0
DICTIONARY
  5
11
330
A
100
AcDbDictionary
281
1
  0
ACDBDICTIONARYWDFLT
  5
12
330
A
100
AcDbDictionary
281
1
  3
Normal
350
13
100
AcDbDictionaryWithDefault
340
13
  0
ACDBPLACEHOLDER
  5
13
330
12
  0
DICTIONARY
  5
14
330
A
100
AcDbDictionary
281
1
  0
DICTIONARY
  5
15
330
A
100
AcDbDictionary
281
1
  0
DICTIONARY
  5
16
330
A
100
AcDbDictionary
281
1
  0
LAYOUT
  5
1A
330
D
100
AcDbPlotSettings
  1

  4
A3
  6

 40
7.5
 41
20.0
 42
7.5
 43
20.0
 44
420.0
 45
297.0
 46
0.0
 47
0.0
 48
0.0
 49
0.0
140
0.0
141
0.0
142
1.0
143
1.0
 70
1024
 72
1
 73
0
 74
5
  7

 75
16
 76
0
 77
2
 78
300
147
1.0
148
0.0
149
0.0
100
AcDbLayout
  1
Model
 70
1
 71
0
 10
0.0
 20
0.0
 11
420.0
 21
297.0
 12
0.0
 22
0.0
 32
0.0
 14
1e+20
 24
1e+20
 34
1e+20
 15
-1e+20
 25
-1e+20
 35
-1e+20
146
0.0
 13
0.0
 23
0.0
 33
0.0
 16
1.0
 26
0.0
 36
0.0
 17
0.0
 27
1.0
 37
0.0
 76
1
330
17
  0
LAYOUT
  5
1E
330
D
100
AcDbPlotSettings
  1

  4
A3
  6

 40
7.5
 41
20.0
 42
7.5
 43
20.0
 44
420.0
 45
297.0
 46
0.0
 47
0.0
 48
0.0
 49
0.0
140
0.0
141
0.0
142
1.0
143
1.0
 70
0
 72
1
 73
0
 74
5
  7

 75
16
 76
0
 77
2
 78
300
147
1.0
148
0.0
149
0.0
100
AcDbLayout
  1
Layout1
 70
1
 71
1
 10
0.0
 20
0.0
 11
420.0
 21
297.0
 12
0.0
 22
0.0
 32
0.0
 14
1e+20
 24
1e+20
 34
1e+20
 15
-1e+20
 25
-1e+20
 35
-1e+20
146
0.0
 13
0.0
 23
0.0
 33
0.0
 16
1.0
 26
0.0
 36
0.0
 17
0.0
 27
1.0
 37
0.0
 76
1
330
1B
  0
MATERIAL
  5
1F
102
{ACAD_REACTORS
330
E
102
}
330
E
100
AcDbMaterial
  1
ByBlock
  2

 70
0
 40
1.0
 71
1
 41
1.0
 91
-1023410177
 42
1.0
 72
1
  3

 73
1
 74
1
 75
1
 44
0.5
 73
0
 45
1.0
 46
1.0
 77
1
  4

 78
1
 79
1
170
1
 48
1.0
171
1
  6

172
1
173
1
174
1
140
1.0
141
1.0
175
1
  7

176
1
177
1
178
1
143
1.0
179
1
  8

270
1
271
1
272
1
145
1.0
146
1.0
273
1
  9

274
1
275
1
276
1
 42
1.0
 72
1
  3

 73
1
 74
1
 75
1
 94
63
  0
MATERIAL
  5
20
102
{ACAD_REACTORS
330
E
102
}
330
E
100
AcDbMaterial
  1
ByLayer
  2

 70
0
 40
1.0
 71
1
 41
1.0
 91
-1023410177
 42
1.0
 72
1
  3

 73
1
 74
1
 75
1
 44
0.5
 73
0
 45
1.0
 46
1.0
 77
1
  4

 78
1
 79
1
170
1
 48
1.0
171
1
  6

172
1
173
1
174
1
140
1.0
141
1.0
175
1
  7

176
1
177
1
178
1
143
1.0
179
1
  8

270
1
271
1
272
1
145
1.0
146
1.0
273
1
  9

274
1
275
1
276
1
 42
1.0
 72
1
  3

 73
1
 74
1
 75
1
 94
63
  0
MATERIAL
  5
21
102
{ACAD_REACTORS
330
E
102
}
330
E
100
AcDbMaterial
  1
Global
  2

 70
0
 40
1.0
 71
1
 41
1.0
 91
-1023410177
 42
1.0
 72
1
  3

 73
1
 74
1
 75
1
 44
0.5
 73
0
 45
1.0
 46
1.0
 77
1
  4

 78
1
 79
1
170
1
 48
1.0
171
1
  6

172
1
173
1
174
1
140
1.0
141
1.0
175
1
  7

176
1
177
1
178
1
143
1.0
179
1
  8

270
1
271
1
272
1
145
1.0
146
1.0
273
1
  9

274
1
275
1
276
1
 42
1.0
 72
1
  3

 73
1
 74
1
 75
1
 94
63
  0
MLINESTYLE
  5
22
102
{ACAD_REACTORS
330
10
102
}
330
10
100
AcDbMlineStyle
  2
Standard
 70
0
  3

 62
256
 51
90.0
 52
90.0
 71
2
 49
0.5
 62
256
  6
BYLAYER
 49
-0.5
 62
256
  6
BYLAYER
  0
MLEADERSTYLE
  5
2C
102
{ACAD_REACTORS
330
F
102
}
330
F
100
AcDbMLeaderStyle
179
2
170
2
171
1
172
0
 90
2
 40
0.0
 41
0.0
173
1
 91
-1056964608
 92
-2
290
1
 42
2.0
291
1
 43
8.0
  3
Standard
 44
4.0
300

342
29
174
1
175
1
176
0
178
1
 93
-1056964608
 45
4.0
292
0
297
0
 46
4.0
 94
-1056964608
 47
1.0
 49
1.0
140
1.0
294
1
141
0.0
177
0
142
1.0
295
0
296
0
143
3.75
271
0
272
9
273
9
  0
DICTIONARY
  5
2D
330
A
100
AcDbDictionary
280
1
281
1
  3
CREATED_BY_EZDXF
350
2E
  3
WRITTEN_BY_EZDXF
350
41
  0
DICTIONARYVAR
  5
2E
330
2D
100
DictionaryVariables
280
0
  1
1.4.4 @ 2026-07-25T21:43:44.766671+00:00
  0
DICTIONARYVAR
  5
41
330
2D
100
DictionaryVariables
280
0
  1
1.4.4 @ 2026-07-25T21:43:44.775467+00:00
  0
ENDSEC
  0
EOF
