  0
SECTION
  2
HEADER
  9
$ACADVER
  1
AC1024
  9
$ACADMAINTVER
 70
6
  9
$DWGCODEPAGE
  3
ANSI_1252
  9
$LASTSAVEDBY
  1
ezdxf
  9
$INSBASE
 10
0.0
 20
0.0
 30
0.0
  9
$EXTMIN
 10
1e+20
 20
1e+20
 30
1e+20
  9
$EXTMAX
 10
-1e+20
 20
-1e+20
 30
-1e+20
  9
$LIMMIN
 10
0.0
 20
0.0
  9
$LIMMAX
 10
420.0
 20
297.0
  9
$ORTHOMODE
 70
0
  9
$REGENMODE
 70
1
  9
$FILLMODE
 70
1
  9
$QTEXTMODE
 70
0
  9
$MIRRTEXT
 70
1
  9
$LTSCALE
 40
1.0
  9
$ATTMODE
 70
1
  9
$TEXTSIZE
 40
2.5
  9
$TRACEWID
 40
1.0
  9
$TEXTSTYLE
  7
Standard
  9
$CLAYER
  8
0
  9
$CELTYPE
  6
ByLayer
  9
$CECOLOR
 62
256
  9
$CELTSCALE
 40
1.0
  9
$DISPSILH
 70
0
  9
$DIMSCALE
 40
1.0
  9
$DIMASZ
 40
2.5
  9
$DIMEXO
 40
0.625
  9
$DIMDLI
 40
3.75
  9
$DIMRND
 40
0.0
  9
$DIMDLE
 40
0.0
  9
$DIMEXE
 40
1.25
  9
$DIMTP
 40
0.0
  9
$DIMTM
 40
0.0
  9
$DIMTXT
 40
2.5
  9
$DIMCEN
 40
2.5
  9
$DIMTSZ
 40
0.0
  9
$DIMTOL
 70
0
  9
$DIMLIM
 70
0
  9
$DIMTIH
 70
0
  9
$DIMTOH
 70
0
  9
$DIMSE1
 70
0
  9
$DIMSE2
 70
0
  9
$DIMTAD
 70
1
  9
$DIMZIN
 70
8
  9
$DIMBLK
  1

  9
$DIMASO
 70
1
  9
$DIMSHO
 70
1
  9
$DIMPOST
  1

  9
$DIMAPOST
  1

  9
$DIMALT
 70
0
  9
$DIMALTD
 70
3
  9
$DIMALTF
 40
0.03937007874
  9
$DIMLFAC
 40
1.0
  9
$DIMTOFL
 70
1
  9
$DIMTVP
 40
0.0
  9
$DIMTIX
 70
0
  9
$DIMSOXD
 70
0
  9
$DIMSAH
 70
0
  9
$DIMBLK1
  1

  9
$DIMBLK2
  1

  9
$DIMSTYLE
  2
ISO-25
  9
$DIMCLRD
 70
0
  9
$DIMCLRE
 70
0
  9
$DIMCLRT
 70
0
  9
$DIMTFAC
 40
1.0
  9
$DIMGAP
 40
0.625
  9
$DIMJUST
 70
0
  9
$DIMSD1
 70
0
  9
$DIMSD2
 70
0
  9
$DIMTOLJ
 70
0
  9
$DIMTZIN
 70
8
  9
$DIMALTZ
 70
0
  9
$DIMALTTZ
 70
0
  9
$DIMUPT
 70
0
  9
$DIMDEC
 70
2
  9
$DIMTDEC
 70
2
  9
$DIMALTU
 70
2
  9
$DIMALTTD
 70
3
  9
$DIMTXSTY
  7
Standard
  9
$DIMAUNIT
 70
0
  9
$DIMADEC
 70
0
  9
$DIMALTRND
 40
0.0
  9
$DIMAZIN
 70
0
  9
$DIMDSEP
 70
44
  9
$DIMATFIT
 70
3
  9
$DIMFRAC
 70
0
  9
$DIMLDRBLK
  1

  9
$DIMLUNIT
 70
2
  9
$DIMLWD
 70
-2
  9
$DIMLWE
 70
-2
  9
$DIMTMOVE
 70
0
  9
$DIMFXL
 40
1.0
  9
$DIMFXLON
 70
0
  9
$DIMJOGANG
 40
0.785398163397
  9
$DIMTFILL
 70
0
  9
$DIMTFILLCLR
 70
0
  9
$DIMARCSYM
 70
0
  9
$DIMLTYPE
  6

  9
$DIMLTEX1
  6

  9
$DIMLTEX2
  6

  9
$DIMTXTDIRECTION
 70
0
  9
$LUNITS
 70
2
  9
$LUPREC
 70
4
  9
$SKETCHINC
 40
1.0
  9
$FILLETRAD
 40
10.0
  9
$AUNITS
 70
0
  9
$AUPREC
 70
2
  9
$MENU
  1
.
  9
$ELEVATION
 40
0.0
  9
$PELEVATION
 40
0.0
  9
$THICKNESS
 40
0.0
  9
$LIMCHECK
 70
0
  9
$CHAMFERA
 40
0.0
  9
$CHAMFERB
 40
0.0
  9
$CHAMFERC
 40
0.0
  9
$CHAMFERD
 40
0.0
  9
$SKPOLY
 70
0
  9
$TDCREATE
 40
2461248.673587963
  9
$TDUCREATE
 40
2458532.153996898
  9
$TDUPDATE
 40
2461248.673587963
  9
$TDUUPDATE
 40
2458532.1544311
  9
$TDINDWG
 40
0.0
  9
$TDUSRTIMER
 40
0.0
  9
$USRTIMER
 70
1
  9
$ANGBASE
 50
0.0
  9
$ANGDIR
 70
0
  9
$PDMODE
 70
0
  9
$PDSIZE
 40
0.0
  9
$PLINEWID
 40
0.0
  9
$SPLFRAME
 70
0
  9
$SPLINETYPE
 70
6
  9
$SPLINESEGS
 70
8
  9
$HANDSEED
  5
3D
  9
$SURFTAB1
 70
6
  9
$SURFTAB2
 70
6
  9
$SURFTYPE
 70
6
  9
$SURFU
 70
6
  9
$SURFV
 70
6
  9
$UCSBASE
  2

  9
$UCSNAME
  2

  9
$UCSORG
 10
0.0
 20
0.0
 30
0.0
  9
$UCSXDIR
 10
1.0
 20
0.0
 30
0.0
  9
$UCSYDIR
 10
0.0
 20
1.0
 30
0.0
  9
$UCSORTHOREF
  2

  9
$UCSORTHOVIEW
 70
0
  9
$UCSORGTOP
 10
0.0
 20
0.0
 30
0.0
  9
$UCSORGBOTTOM
 10
0.0
 20
0.0
 30
0.0
  9
$UCSORGLEFT
 10
0.0
 20
0.0
 30
0.0
  9
$UCSORGRIGHT
 10
0.0
 20
0.0
 30
0.0
  9
$UCSORGFRONT
 10
0.0
 20
0.0
 30
0.0
  9
$UCSORGBACK
 10
0.0
 20
0.0
 30
0.0
  9
$PUCSBASE
  2

  9
$PUCSNAME
  2

  9
$PUCSORG
 10
0.0
 20
0.0
 30
0.0
  9
$PUCSXDIR
 10
1.0
 20
0.0
 30
0.0
  9
$PUCSYDIR
 10
0.0
 20
1.0
 30
0.0
  9
$PUCSORTHOREF
  2

  9
$PUCSORTHOVIEW
 70
0
  9
$PUCSORGTOP
 10
0.0
 20
0.0
 30
0.0
  9
$PUCSORGBOTTOM
 10
0.0
 20
0.0
 30
0.0
  9
$PUCSORGLEFT
 10
0.0
 20
0.0
 30
0.0
  9
$PUCSORGRIGHT
 10
0.0
 20
0.0
 30
0.0
  9
$PUCSORGFRONT
 10
0.0
 20
0.0
 30
0.0
  9
$PUCSORGBACK
 10
0.0
 20
0.0
 30
0.0
  9
$USERI1
 70
0
  9
$USERI2
 70
0
  9
$USERI3
 70
0
  9
$USERI4
 70
0
  9
$USERI5
 70
0
  9
$USERR1
 40
0.0
  9
$USERR2
 40
0.0
  9
$USERR3
 40
0.0
  9
$USERR4
 40
0.0
  9
$USERR5
 40
0.0
  9
$WORLDVIEW
 70
1
  9
$SHADEDGE
 70
3
  9
$SHADEDIF
 70
70
  9
$TILEMODE
 70
1
  9
$MAXACTVP
 70
64
  9
$PINSBASE
 10
0.0
 20
0.0
 30
0.0
  9
$PLIMCHECK
 70
0
  9
$PEXTMIN
 10
1e+20
 20
1e+20
 30
1e+20
  9
$PEXTMAX
 10
-1e+20
 20
-1e+20
 30
-1e+20
  9
$PLIMMIN
 10
0.0
 20
0.0
  9
$PLIMMAX
 10
420.0
 20
297.0
  9
$UNITMODE
 70
0
  9
$VISRETAIN
 70
1
  9
$PLINEGEN
 70
0
  9
$PSLTSCALE
 70
1
  9
$TREEDEPTH
 70
3020
  9
$CMLSTYLE
  2
Standard
  9
$CMLJUST
 70
0
  9
$CMLSCALE
 40
20.0
  9
$PROXYGRAPHICS
 70
1
  9
$MEASUREMENT
 70
1
  9
$CELWEIGHT
370
-1
  9
$ENDCAPS
280
0
  9
$JOINSTYLE
280
0
  9
$LWDISPLAY
290
0
  9
$INSUNITS
 70
4
  9
$HYPERLINKBASE
  1

  9
$STYLESHEET
  1

  9
$XEDIT
290
1
  9
$CEPSNTYPE
380
0
  9
$PSTYLEMODE
290
1
  9
$FINGERPRINTGUID
  2
{7841E7E2-FC1A-462C-99DC-192189F94915}
  9
$VERSIONGUID
  2
{CF2B0FE6-B9F6-491D-A74D-102908F9A878}
  9
$EXTNAMES
290
1
  9
$PSVPSCALE
 40
0.0
  9
$OLESTARTUP
290
0
  9
$SORTENTS
280
127
  9
$INDEXCTL
280
0
  9
$HIDETEXT
280
1
  9
$XCLIPFRAME
280
1
  9
$HALOGAP
280
0
  9
$OBSCOLOR
 70
257
  9
$OBSLTYPE
280
0
  9
$INTERSECTIONDISPLAY
280
0
  9
$INTERSECTIONCOLOR
 70
257
  9
$DIMASSOC
280
2
  9
$PROJECTNAME
  1

  9
$CAMERADISPLAY
290
0
  9
$LENSLENGTH
 40
50.0
  9
$CAMERAHEIGHT
 40
0.0
  9
$STEPSPERSEC
 40
24.0
  9
$STEPSIZE
 40
100.0
  9
$3DDWFPREC
 40
2.0
  9
$PSOLWIDTH
 40
0.005
  9
$PSOLHEIGHT
 40
0.08
  9
$LOFTANG1
 40
1.570796326795
  9
$LOFTANG2
 40
1.570796326795
  9
$LOFTMAG1
 40
0.0
  9
$LOFTMAG2
 40
0.0
  9
$LOFTPARAM
 70
7
  9
$LOFTNORMALS
280
1
  9
$LATITUDE
 40
37.795
  9
$LONGITUDE
 40
-122.394
  9
$NORTHDIRECTION
 40
0.0
  9
$TIMEZONE
 70
-8000
  9
$LIGHTGLYPHDISPLAY
280
1
  9
$TILEMODELIGHTSYNCH
280
1
  9
$CMATERIAL
347
20
  9
$SOLIDHIST
280
0
  9
$SHOWHIST
280
1
  9
$DWFFRAME
280
2
  9
$DGNFRAME
280
2
  9
$REALWORLDSCALE
290
1
  9
$INTERFERECOLOR
 62
256
  9
$CSHADOW
280
0
  9
$SHADOWPLANELOCATION
 40
0.0
  0
ENDSEC
  0
SECTION
  2
CLASSES
  0
CLASS
  1
ACDBDICTIONARYWDFLT
  2
AcDbDictionaryWithDefault
  3
ObjectDBX Classes
 90
0
 91
0
280
0
281
0
  0
CLASS
  1
SUN
  2
AcDbSun
  3
SCENEOE
 90
1153
 91
0
280
0
281
0
  0
CLASS
  1
VISUALSTYLE
  2
AcDbVisualStyle
  3
ObjectDBX Classes
 90
4095
 91
0
280
0
281
0
  0
CLASS
  1
MATERIAL
  2
AcDbMaterial
  3
ObjectDBX Classes
 90
1153
 91
0
280
0
281
0
  0
CLASS
  1
SCALE
  2
AcDbScale
  3
ObjectDBX Classes
 90
1153
 91
0
280
0
281
0
  0
CLASS
  1
TABLESTYLE
  2
AcDbTableStyle
  3
ObjectDBX Classes
 90
4095
 91
0
280
0
281
0
  0
CLASS
  1
MLEADERSTYLE
  2
AcDbMLeaderStyle
  3
ACDB_MLEADERSTYLE_CLASS
 90
4095
 91
0
280
0
281
0
  0
CLASS
  1
DICTIONARYVAR
  2
AcDbDictionaryVar
  3
ObjectDBX Classes
 90
0
 91
0
280
0
281
0
  0
CLASS
  1
CELLSTYLEMAP
  2
AcDbCellStyleMap
  3
ObjectDBX Classes
 90
1152
 91
0
280
0
281
0
  0
CLASS
  1
MENTALRAYRENDERSETTINGS
  2
AcDbMentalRayRenderSettings
  3
SCENEOE
 90
1024
 91
0
280
0
281
0
  0
CLASS
  1
ACDBDETAILVIEWSTYLE
  2
AcDbDetailViewStyle
  3
ObjectDBX Classes
 90
1025
 91
0
280
0
281
0
  0
CLASS
  1
ACDBSECTIONVIEWSTYLE
  2
AcDbSectionViewStyle
  3
ObjectDBX Classes
 90
1025
 91
0
280
0
281
0
  0
CLASS
  1
RASTERVARIABLES
  2
AcDbRasterVariables
  3
ISM
 90
0
 91
0
280
0
281
0
  0
CLASS
  1
ACDBPLACEHOLDER
  2
AcDbPlaceHolder
  3
ObjectDBX Classes
 90
0
 91
0
280
0
281
0
  0
CLASS
  1
LAYOUT
  2
AcDbLayout
  3
ObjectDBX Classes
 90
0
 91
0
280
0
281
0
  0
ENDSEC
  0
SECTION
  2
TABLES
  0
TABLE
  2
VPORT
  5
8
330
0
100
AcDbSymbolTable
 70
1
  0
VPORT
  5
23
330
8
100
AcDbSymbolTableRecord
100
AcDbViewportTableRecord
  2
*Active
 70
0
 10
0.0
 20
0.0
 11
1.0
 21
1.0
 12
0.0
 22
0.0
 13
0.0
 23
0.0
 14
0.5
 24
0.5
 15
0.5
 25
0.5
 16
0.0
 26
0.0
 36
1.0
 17
0.0
 27
0.0
 37
0.0
 40
1000.0
 41
1.34
 42
50.0
 43
0.0
 44
0.0
 50
0.0
 51
0.0
 71
0
 72
1000
 73
1
 74
3
 75
0
 76
0
 77
0
 78
0
281
0
 65
0
146
0.0
  0
ENDTAB
  0
TABLE
  2
LTYPE
  5
2
330
0
100
AcDbSymbolTable
 70
3
  0
LTYPE
  5
24
330
2
100
AcDbSymbolTableRecord
100
AcDbLinetypeTableRecord
  2
ByBlock
 70
0
  3

 72
65
 73
0
 40
0.0
  0
LTYPE
  5
25
330
2
100
AcDbSymbolTableRecord
100
AcDbLinetypeTableRecord
  2
ByLayer
 70
0
  3

 72
65
 73
0
 40
0.0
  0
LTYPE
  5
26
330
2
100
AcDbSymbolTableRecord
100
AcDbLinetypeTableRecord
  2
Continuous
 70
0
  3

 72
65
 73
0
 40
0.0
  0
ENDTAB
  0
TABLE
  2
LAYER
  5
1
330
0
100
AcDbSymbolTable
 70
2
  0
LAYER
  5
27
330
1
100
AcDbSymbolTableRecord
100
AcDbLayerTableRecord
  2
0
 70
0
 62
7
  6
Continuous
370
-3
390
13
347
21
  0
LAYER
  5
28
330
1
100
AcDbSymbolTableRecord
100
AcDbLayerTableRecord
  2
Defpoints
 70
0
 62
7
  6
Continuous
290
0
370
-3
390
13
347
21
  0
ENDTAB
  0
TABLE
  2
STYLE
  5
5
330
0
100
AcDbSymbolTable
 70
1
  0
STYLE
  5
29
330
5
100
AcDbSymbolTableRecord
100
AcDbTextStyleTableRecord
  2
Standard
 70
0
 40
0.0
 41
1.0
 50
0.0
 71
0
 42
2.5
  3
txt
  4

  0
ENDTAB
  0
TABLE
  2
VIEW
  5
7
330
0
100
AcDbSymbolTable
 70
0
  0
ENDTAB
  0
TABLE
  2
UCS
  5
6
330
0
100
AcDbSymbolTable
 70
0
  0
ENDTAB
  0
TABLE
  2
APPID
  5
3
330
0
100
AcDbSymbolTable
 70
3
  0
APPID
  5
2A
330
3
100
AcDbSymbolTableRecord
100
AcDbRegAppTableRecord
  2
ACAD
 70
0
  0
APPID
  5
3A
330
3
100
AcDbSymbolTableRecord
100
AcDbRegAppTableRecord
  2
HATCHBACKGROUNDCOLOR
 70
0
  0
APPID
  5
3B
330
3
100
AcDbSymbolTableRecord
100
AcDbRegAppTableRecord
  2
EZDXF
 70
0
  0
ENDTAB
  0
TABLE
  2
DIMSTYLE
  5
4
330
0
100
AcDbSymbolTable
 70
1
100
AcDbDimStyleTable
  0
DIMSTYLE
105
2B
330
4
100
AcDbSymbolTableRecord
100
AcDbDimStyleTableRecord
  2
Standard
 70
0
 40
1.0
 41
2.5
 42
0.625
 43
3.75
 44
1.25
 45
0.0
 46
0.0
 47
0.0
 48
0.0
 49
2.5
140
2.5
141
2.5
142
0.0
143
0.03937007874
144
1.0
145
0.0
146
1.0
147
0.625
148
0.0
 69
0
 70
0
 71
0
 72
0
 73
0
 74
0
 75
0
 76
0
 77
1
 78
8
 79
3
170
0
171
3
172
1
173
0
174
0
175
0
176
0
177
0
178
0
179
2
271
2
272
2
273
2
274
3
275
0
276
0
277
2
278
44
279
0
280
0
281
0
282
0
283
0
284
8
285
0
286
0
288
0
289
3
290
0
371
-2
372
-2
  0
ENDTAB
  0
TABLE
  2
BLOCK_RECORD
  5
9
330
0
100
AcDbSymbolTable
 70
2
  0
BLOCK_RECORD
  5
17
330
9
100
AcDbSymbolTableRecord
100
AcDbBlockTableRecord
  2
*Model_Space
340
1A
 70
0
280
1
281
0
  0
BLOCK_RECORD
  5
1B
330
9
100
AcDbSymbolTableRecord
100
AcDbBlockTableRecord
  2
*Paper_Space
340
1E
 70
0
280
1
281
0
  0
ENDTAB
  0
ENDSEC
  0
SECTION
  2
BLOCKS
  0
BLOCK
  5
18
330
17
100
AcDbEntity
  8
0
100
AcDbBlockBegin
  2
*Model_Space
 70
0
 10
0.0
 20
0.0
 30
0.0
  3
*Model_Space
  1

  0
ENDBLK
  5
19
330
17
100
AcDbEntity
  8
0
100
AcDbBlockEnd
  0
BLOCK
  5
1C
330
1B
100
AcDbEntity
  8
0
100
AcDbBlockBegin
  2
*Paper_Space
 70
0
 10
0.0
 20
0.0
 30
0.0
  3
*Paper_Space
  1

  0
ENDBLK
  5
1D
330
1B
100
AcDbEntity
  8
0
100
AcDbBlockEnd
  0
ENDSEC
  0
SECTION
  2
ENTITIES
  0
TEXT
  5
2F
330
17
100
AcDbEntity
  8
RESEARCH_ONLY
100
AcDbText
 10
0.0
 20
0.0
 30
0.0
 40
3.0
  1
RESEARCH BENCH PROTOTYPE — NOT FOR HUMAN USE
100
AcDbText
  0
LWPOLYLINE
  5
30
330
17
100
AcDbEntity
  8
TOOTH_001
100
AcDbPolyline
 90
82
 70
1
 10
15.722660718768596
 20
-2.8100521820629374
 10
15.81023196785708
 20
-3.072846585352812
 10
15.748438626134591
 20
-3.1732813578765
 10
15.604708381677606
 20
-3.3905961534778544
 10
15.60136218483036
 20
-3.3953170991787824
 10
14.023371514114867
 20
-5.035647787250569
 10
13.933214002969116
 20
-5.0976198452511055
 10
13.833119817677046
 20
-5.162546190064258
 10
13.738294301877934
 20
-5.220552976944947
 10
13.648869420278322
 20
-5.272098156060262
 10
13.564956788249221
 20
-5.317625625912596
 10
13.486649217166505
 20
-5.3575653804167205
 10
13.414022147810597
 20
-5.392333698994972
 10
13.34713496951163
 20
-5.422333378372833
 10
13.286032253628154
 20
-5.44795398488888
 10
13.230744896708677
 20
-5.46957213184781
 10
13.18129115267443
 20
-5.487551782357659
 10
13.137677611517212
 20
-5.502244554294461
 10
13.099900096163104
 20
-5.513990036842693
 10
13.067944494697937
 20
-5.523116111547399
 10
13.041787520936944
 20
-5.529939277869292
 10
13.021491421448275
 20
-5.5347427299551555
 10
13.014290804088237
 20
-5.534860943075314
 10
12.871369575920205
 20
-5.541712853559249
 10
12.733859909692844
 20
-5.553646433238722
 10
12.601999035554876
 20
-5.570499950434901
 10
12.476025552448943
 20
-5.592100949916824
 10
12.356179268467631
 20
-5.618265771098663
 10
12.24270097534201
 20
-5.648799048049493
 10
12.13583221464015
 20
-5.683493184420203
 10
12.03581506698345
 20
-5.722127782693578
 10
11.942891774363869
 20
-5.764469093835342
 10
11.857304528158465
 20
-5.810269363239033
 10
11.779295025574573
 20
-5.859266223513341
 10
11.709104117798383
 20
-5.911181997425731
 10
11.646971329771262
 20
-5.965723013707802
 10
11.593134387684126
 20
-6.022578852592033
 10
11.592103078672578
 20
-6.065324946411454
 10
11.54782865783464
 20
-6.081421576277148
 10
11.547812123469152
 20
-6.127622905858963
 10
11.51128651887528
 20
-6.141904939435357
 10
11.512463468814664
 20
-6.1916182771849
 10
11.48373669505456
 20
-6.2036635251962435
 10
11.486294442386486
 20
-6.256942052363589
 10
11.465403480275958
 20
-6.266311892460739
 10
11.469538293739067
 20
-6.32320471868764
 10
11.456505900665947
 20
-6.329443637567634
 10
11.462423368697753
 20
-6.38999535277976
 10
11.457256763375014
 20
-6.392630512386383
 10
11.483492047121853
 20
-6.605584961202635
 10
11.509120118740915
 20
-6.86782950325547
 10
11.528272554046795
 20
-7.131356790133399
 10
11.540976471814252
 20
-7.395982626883031
 10
11.547263175219518
 20
-7.6615274892932455
 10
11.547167876653882
 20
-7.927816536979874
 10
11.540803436382939
 20
-8.191612312914609
 10
11.376066851446987
 20
-8.254102851226557
 10
8.590453488001407
 20
-0.9107122381512955
 10
8.699837131023946
 20
-0.8692190705124374
 10
9.12116353827949
 20
-1.3659230687867996
 10
9.471115325598895
 20
-2.0799575224616316
 10
9.70044395556809
 20
-2.055410090652359
 10
9.772372695439133
 20
-2.146168923610025
 10
9.912525064037249
 20
-2.335438032430169
 10
9.920499079812528
 20
-2.3330730428823867
 10
9.969537205964023
 20
-2.3949487702748025
 10
9.988639440590587
 20
-2.3885951388601225
 10
10.037830504663459
 20
-2.4465867524490297
 10
11.662561275996017
 20
-1.845384237659361
 10
14.121479537959832
 20
-1.582180605525692
 10
14.17611333684816
 20
-1.588918258051092
 10
14.230473156924965
 20
-1.5956221224440739
 10
14.435124297047366
 20
-1.6263717339468862
 10
14.64555917547472
 20
-1.6636305701518355
 10
14.86142957040222
 20
-1.7076189635155905
 10
14.967170342520571
 20
-1.7319859306508556
 10
15.082390338459426
 20
-1.7585372958255407
 10
15.30809990438788
 20
-1.8165671192123138
 10
15.334892904223077
 20
-1.824170602409051
 10
15.439971357230093
 20
-2.0679320635449088
 10
15.586769607278443
 20
-2.437443980324437
 10
15.722660718768596
 20
-2.8100521820629374
  0
LWPOLYLINE
  5
31
330
17
100
AcDbEntity
  8
TOOTH_002
100
AcDbPolyline
 90
134
 70
1
 10
11.540502547235022
 20
-8.204083682409202
 10
11.547068087192088
 20
-8.206654319824276
 10
11.547047721604859
 20
-8.263561082194059
 10
11.561642057028092
 20
-8.268878901525001
 10
11.562933617903225
 20
-8.32343330512458
 10
11.58587222219646
 20
-8.331172520966726
 10
11.588374372162619
 20
-8.383292940870874
 10
11.619972963311707
 20
-8.393105474999508
 10
11.623578174616046
 20
-8.442711258205712
 10
11.66415202659112
 20
-8.454225556851513
 10
11.668746283470579
 20
-8.501237240341995
 10
11.718609496047362
 20
-8.514057048875255
 10
11.724071991224726
 20
-8.558396674125042
 10
11.789739390986373
 20
-8.613691093794518
 10
11.865922107163785
 20
-8.666596813228766
 10
11.952781813852837
 20
-8.716563860047506
 10
12.050466671446
 20
-8.763014950397773
 10
12.159109530159228
 20
-8.805344412505093
 10
12.27882599006851
 20
-8.842917140018901
 10
12.409712297803022
 20
-8.875067562139686
 10
12.551842958628612
 20
-8.901098615165242
 10
12.705268117059545
 20
-8.920280769596495
 10
12.827809348023665
 20
-8.92888720164646
 10
12.927583581479741
 20
-9.132464502457932
 10
13.70036630176391
 20
-9.049745519084126
 10
13.724686479353752
 20
-9.059267715104946
 10
13.81279205019863
 20
-9.096175308961135
 10
13.906641619996114
 20
-9.1380803877653
 10
14.005921179984018
 20
-9.185179178656908
 10
14.11032017565241
 20
-9.237651877596862
 10
14.219531771965794
 20
-9.295663481458586
 10
14.333253065201223
 20
-9.35936457023702
 10
14.45118528791556
 20
-9.42889206074786
 10
14.57303395056818
 20
-9.504369905930094
 10
14.698508957933441
 20
-9.58590975177792
 10
14.827324736961769
 20
-9.673611583696795
 10
14.959200296052634
 20
-9.76756430716854
 10
15.093859302252723
 20
-9.867846319885762
 10
15.231030127186258
 20
-9.974526044667888
 10
15.370445872706041
 20
-10.087662427888045
 10
15.511844406054514
 20
-10.207305428602384
 10
15.654968349115236
 20
-10.333496454627744
 10
15.799565082371277
 20
-10.4662687915301
 10
15.945386747331046
 20
-10.605648018433643
 10
16.0921902122831
 20
-10.751652374002745
 10
16.239737063188542
 20
-10.904293131877369
 10
16.249037799042043
 20
-10.914299027965216
 10
16.189007504048835
 20
-11.21888152806539
 10
16.107380590300654
 20
-11.59021649418497
 10
16.017880640683398
 20
-11.959210891371459
 10
15.920640837110074
 20
-12.325729752288735
 10
15.915276577455291
 20
-12.34434856083398
 10
15.835819298033202
 20
-12.375417493031359
 10
15.620611509307881
 20
-12.453659513000547
 10
15.411682894169822
 20
-12.524044545076473
 10
15.209115399351647
 20
-12.587025208387011
 10
15.012975646117402
 20
-12.643039990099986
 10
14.823315997759625
 20
-12.69251357741637
 10
14.6401756082649
 20
-12.735857180773035
 10
14.463581359757324
 20
-12.773468876236612
 10
14.293548752181534
 20
-12.805733944258595
 10
14.130082693805992
 20
-12.833025218843796
 10
13.97317827872434
 20
-12.855703422753162
 10
13.959971262076508
 20
-12.857320876431476
 10
13.822821507401537
 20
-12.874117506669329
 10
13.67898990718746
 20
-12.888604987779267
 10
13.541653169853134
 20
-12.899492276032904
 10
13.410773700567363
 20
-12.907094999840458
 10
13.286307145524974
 20
-12.911718322061533
 10
13.168202888239126
 20
-12.913657249247873
 10
13.056404491420093
 20
-12.913196933509829
 10
12.950850138094593
 20
-12.910612965425285
 10
12.851473022051533
 20
-12.906171660284864
 10
12.80969321014618
 20
-12.90346551782159
 10
12.75820170570975
 20
-12.900130334145587
 10
12.68815748570442
 20
-12.894194835643441
 10
12.670960478243527
 20
-12.892737573188127
 10
12.589669665611769
 20
-12.884233493314413
 10
12.51424593662331
 20
-12.874849992420735
 10
12.444602575650777
 20
-12.864810993561367
 10
12.380649751421
 20
-12.854332681123777
 10
12.322294759538597
 20
-12.843623728858395
 10
12.269442239058552
 20
-12.832885517296868
 10
12.221994404182059
 20
-12.822312349253933
 10
12.179851240481337
 20
-12.812091654877761
 10
12.142910677306455
 20
-12.802404185708202
 10
12.11106878204364
 20
-12.793424209826473
 10
12.084219918282324
 20
-12.7853196950482
 10
12.062256898194848
 20
-12.778252485781902
 10
12.045071132139455
 20
-12.772378476078272
 10
12.032552762671813
 20
-12.767847774464071
 10
12.024590793112301
 20
-12.76480486379831
 10
12.023310358641796
 20
-12.76428938684714
 10
11.939357979249168
 20
-12.72526899960743
 10
11.829621871904287
 20
-12.678392534881358
 10
11.72252162790961
 20
-12.637060467985663
 10
11.618251853549047
 20
-12.601221047107778
 10
11.517009432589795
 20
-12.570817091786443
 10
11.41899349299553
 20
-12.545785789417566
 10
11.324405354454983
 20
-12.5260584832686
 10
11.23344853529751
 20
-12.511560468066468
 10
11.146328707046594
 20
-12.502210761670442
 10
11.063253659306906
 20
-12.497921870753176
 10
10.984433236337882
 20
-12.498599545809194
 10
10.910079336259038
 20
-12.504142525745742
 10
10.840405789356684
 20
-12.514442271962116
 10
10.775628353013692
 20
-12.52938268722931
 10
10.715964631066896
 20
-12.548839818976063
 10
10.698439549195728
 20
-12.57871195136076
 10
10.661633966167184
 20
-12.572681562506702
 10
10.643398734525187
 20
-12.605169829578998
 10
10.612857383393095
 20
-12.600767333994392
 10
10.593990473567457
 20
-12.635950125027104
 10
10.56985749341844
 20
-12.632947729841497
 10
10.550441383439228
 20
-12.670903602384596
 10
10.532858363882669
 20
-12.669064189074664
 10
10.512979706993798
 20
-12.709871783056713
 10
10.502085422907474
 20
-12.708948608997934
 10
10.481835206197788
 20
-12.752686586427023
 10
10.477765310607655
 20
-12.752422973050724
 10
10.400737456111449
 20
-12.927847752042096
 10
10.28453304800007
 20
-13.17883498106791
 10
10.241112037930497
 20
-13.267971131418273
 10
10.163235238515835
 20
-13.42783931712625
 10
10.036919670101964
 20
-13.674769192372079
 10
9.905662535118156
 20
-13.91953595038204
 10
9.769540521692969
 20
-14.162053754016139
 10
9.754135055607065
 20
-14.188312925057339
 10
9.357975130766583
 20
-14.095491754216926
 10
10.97459842489474
 20
-7.195758030772634
 10
11.376066851446987
 20
-8.254102851226557
 10
11.540803436382939
 20
-8.191612312914609
 10
11.547167876653882
 20
-7.927816536979874
 10
11.540502547235022
 20
-8.204083682409202
  0
LWPOLYLINE
  5
32
330
17
100
AcDbEntity
  8
TOOTH_003
100
AcDbPolyline
 90
152
 70
1
 10
9.611765514270584
 20
-14.430986928957356
 10
9.615832594517055
 20
-14.435902986494181
 10
9.593569802379614
 20
-14.475566838916567
 10
9.602142924142651
 20
-14.485535742927286
 10
9.581598052163637
 20
-14.523847578003172
 10
9.594942813993947
 20
-14.538774249790729
 10
9.576074424399089
 20
-14.575659402961103
 10
9.594460593419361
 20
-14.595439568699408
 10
9.577224298675416
 20
-14.630822830335141
 10
9.600925785805162
 20
-14.655342587524391
 10
9.58527413850117
 20
-14.6891482206356
 10
9.614568977181445
 20
-14.71828359591037
 10
9.60045133731093
 20
-14.75043539178165
 10
9.622984048508503
 20
-14.814473178160252
 10
9.653100998121479
 20
-14.881038987574648
 10
9.691031282199562
 20
-14.949898339231108
 10
9.737004128186246
 20
-15.020804353375192
 10
9.79124866085344
 20
-15.093497267375586
 10
9.853993610495712
 20
-15.167703872125024
 10
9.925467011176366
 20
-15.243136957059967
 10
10.005895870678154
 20
-15.319494727013103
 10
10.095505786502773
 20
-15.396460172285282
 10
10.194520549257874
 20
-15.473700435934374
 10
10.303161702217652
 20
-15.55086614445133
 10
10.421647997870929
 20
-15.627590670032518
 10
10.550194954206486
 20
-15.703489463397922
 10
10.632542358538155
 20
-15.747783484385863
 10
10.639840792896122
 20
-15.753459581828782
 10
10.661068467759486
 20
-15.77068591698383
 10
10.687272281908642
 20
-15.79285802075834
 10
10.718168261389295
 20
-15.82009871345689
 10
10.753476771278436
 20
-15.85251987031816
 10
10.792922572267107
 20
-15.890222945837895
 10
10.83623485313833
 20
-15.933299460815906
 10
10.88314726341204
 20
-15.98183147497928
 10
10.93339792694663
 20
-16.035892027347643
 10
10.983290787868402
 20
-16.091699269844085
 10
10.986729454506492
 20
-16.09554556166602
 10
11.042888938215537
 20
-16.160848320434805
 10
11.101627945409906
 20
-16.23184872404721
 10
11.162702517293203
 20
-16.308587745804505
 10
11.2258731335853
 20
-16.39109923437924
 10
11.290904690709537
 20
-16.47941023843058
 10
11.357566495138261
 20
-16.57354134398321
 10
11.425632209466192
 20
-16.673506938648124
 10
11.4948798252182
 20
-16.779315497843452
 10
11.56509163350958
 20
-16.890969863313906
 10
11.63605417548797
 20
-17.008467479051582
 10
11.707558208778979
 20
-17.131800643436275
 10
11.779398668689234
 20
-17.260956745625982
 10
11.851374615565163
 20
-17.39591846971635
 10
11.923289188536572
 20
-17.536663997827027
 10
11.994949573500634
 20
-17.6831672348904
 10
12.06616694683809
 20
-17.83539798051239
 10
12.13675643418915
 20
-17.99332212000914
 10
12.206537059034641
 20
-18.15690179004081
 10
12.275331694712603
 20
-18.326095539001862
 10
12.342967024994975
 20
-18.50085850566139
 10
12.409273489201281
 20
-18.681142551261438
 10
12.474085233863667
 20
-18.86689639916186
 10
12.519914666375808
 20
-19.005621869172334
 10
12.319329563845006
 20
-19.259114135597077
 10
12.084062104642523
 20
-19.545698615893343
 10
11.843907878105371
 20
-19.82781257290562
 10
11.59898009610535
 20
-20.10540599350717
 10
11.522956091482829
 20
-20.188568564560235
 10
11.493784121811771
 20
-20.184363463511637
 10
11.321350937188233
 20
-20.15950744680624
 10
11.32135093718823
 20
-20.15950744680624
 10
11.117803956262534
 20
-20.12615741281549
 10
10.921364516472575
 20
-20.09010804469994
 10
10.731953758032146
 20
-20.051624869674622
 10
10.549489133008697
 20
-20.010964865961366
 10
10.373884666248989
 20
-19.968376711009657
 10
10.20505115255174
 20
-19.92410100652223
 10
10.04289645405214
 20
-19.878370522528826
 10
9.887325705948081
 20
-19.831410418805824
 10
9.738241505408366
 20
-19.78343845323294
 10
9.59554413373702
 20
-19.734665198483725
 10
9.459131723613446
 20
-19.685294237805387
 10
9.437188301507328
 20
-19.676907886580235
 10
9.328900427449131
 20
-19.635522356972082
 10
9.20474459708214
 20
-19.585539737492773
 10
9.086556938962362
 20
-19.53553013972248
 10
8.974228635641472
 20
-19.485671068208553
 10
8.86764949938608
 20
-19.436133947302075
 10
8.766708092892365
 20
-19.387084281500766
 10
8.67129185592082
 20
-19.338681815081863
 10
8.581287222476453
 20
-19.291080686840615
 10
8.49657971624676
 20
-19.244429570427876
 10
8.41705406382089
 20
-19.1988718226927
 10
8.342594292413677
 20
-19.1545456224211
 10
8.273083808224577
 20
-19.111584096173775
 10
8.208405492027039
 20
-19.070115451858808
 10
8.14844178047965
 20
-19.03026310365934
 10
8.093074738228657
 20
-18.992145788763846
 10
8.042186140732765
 20
-18.955877690601696
 10
7.995657535582928
 20
-18.921568546525418
 10
7.953370307906653
 20
-18.88932375641241
 10
7.915205745556351
 20
-18.859244490525015
 10
7.88104510291013
 20
-18.83142779594218
 10
7.850769648110262
 20
-18.80596668901623
 10
7.824260719483237
 20
-18.78295025380807
 10
7.801399781340171
 20
-18.76246374001396
 10
7.782068466136617
 20
-18.744588648693128
 10
7.766148619996033
 20
-18.72940281944743
 10
7.7535223524562245
 20
-18.716980521708813
 10
7.7440720731549355
 20
-18.70739253335607
 10
7.737680531288587
 20
-18.700706220937505
 10
7.7342308545912415
 20
-18.696985619338466
 10
7.7337938550257475
 20
-18.696499729167144
 10
7.660012653279521
 20
-18.6169385938619
 10
7.586641820453267
 20
-18.542701778651146
 10
7.513834476557793
 20
-18.473799924697904
 10
7.441745927656695
 20
-18.410240658599616
 10
7.3705336958635375
 20
-18.352028526261883
 10
7.30035755592793
 20
-18.299164919394116
 10
7.231379490239678
 20
-18.251647933441532
 10
7.163763705451556
 20
-18.209472278046192
 10
7.097676672851526
 20
-18.172629191859038
 10
7.033287081252802
 20
-18.141106298984035
 10
6.9707658596572095
 20
-18.114887508729414
 10
6.910286187188796
 20
-18.093952898804023
 10
6.852023476127014
 20
-18.078278583500364
 10
6.796155371182421
 20
-18.067836587351458
 10
6.773305896640599
 20
-18.083553917519883
 10
6.742861749774439
 20
-18.062594713530594
 10
6.718521783454482
 20
-18.07992717300582
 10
6.6923247260041
 20
-18.06251640525358
 10
6.666522408944897
 20
-18.08153373070957
 10
6.644728627645472
 20
-18.067560600020393
 10
6.617494098567416
 20
-18.08833326436051
 10
6.60025999203364
 20
-18.07768158312368
 10
6.571625461420764
 20
-18.1002807812354
 10
6.559107568627926
 20
-18.092828829497876
 10
6.5291073736368315
 20
-18.117326479458423
 10
6.521462285242194
 20
-18.112946848510777
 10
6.490132976904861
 20
-18.13941556896285
 10
6.487517256246903
 20
-18.137975008446446
 10
6.362735921695597
 20
-18.24704759851306
 10
6.285914068299317
 20
-18.311950919718313
 10
6.1457365619853634
 20
-18.43038057633067
 10
5.92551345490548
 20
-18.610211027168354
 10
5.702143415185754
 20
-18.78650111021859
 10
5.475702963367902
 20
-18.95921463447876
 10
5.309602346990554
 20
-19.081637340658244
 10
4.911223989167777
 20
-18.745823871630375
 10
9.56074953929857
 20
-13.230052396834571
 10
9.357975130766583
 20
-14.095491754216926
 10
9.754135055607065
 20
-14.188312925057339
 10
9.769540521692969
 20
-14.162053754016139
 10
9.611765514270584
 20
-14.430986928957356
  0
LWPOLYLINE
  5
33
330
17
100
AcDbEntity
  8
TOOTH_004
100
AcDbPolyline
 90
161
 70
1
 10
5.246268312180325
 20
-19.128317022551293
 10
5.013915330837663
 20
-19.293775289014373
 10
4.998286358406763
 20
-19.30452589596772
 10
4.998369193645782
 20
-19.304845673801786
 10
4.9653449239966125
 20
-19.32836221478089
 10
4.966954100303643
 20
-19.33418261437216
 10
4.9357460232235555
 20
-19.357184198196045
 10
4.9390791180997935
 20
-19.368515158189297
 10
4.909678220784361
 20
-19.39094018230047
 10
4.91493653063195
 20
-19.40778750668357
 10
4.887332258339871
 20
-19.42957359518952
 10
4.894720835368634
 20
-19.45193878203211
 10
4.8689010472915095
 20
-19.473022782671325
 10
4.878628740555847
 20
-19.500902860031662
 10
4.854579642511888
 20
-19.52122085896085
 10
4.866859131857012
 20
-19.554608192210193
 10
4.8445652342496
 20
-19.574095507067533
 10
4.839057119819811
 20
-19.63156881291769
 10
4.838256682046058
 20
-19.693557069774865
 10
4.842367362481301
 20
-19.75997058731824
 10
4.851594629222982
 20
-19.83071346378291
 10
4.866145945569084
 20
-19.905683407871493
 10
4.88623072656649
 20
-19.9847714756172
 10
4.912060301966503
 20
-20.06786187233429
 10
4.943847861516752
 20
-20.154831681700216
 10
4.981808400832732
 20
-20.24555061885836
 10
5.026158673577114
 20
-20.339880792885527
 10
5.077117113778764
 20
-20.43767640009
 10
5.134903766153029
 20
-20.53878344655665
 10
5.199740202977768
 20
-20.643039444300136
 10
5.27184945300439
 20
-20.75027312502036
 10
5.286069050645603
 20
-20.770352186155165
 10
5.289754444697118
 20
-20.7767089088386
 10
5.297967969434996
 20
-20.791475334912544
 10
5.308747609221588
 20
-20.811688181478903
 10
5.3218686268304
 20
-20.837367601885614
 10
5.337110467715248
 20
-20.868528180070548
 10
5.354256719840204
 20
-20.905179163156326
 10
5.3730950758042075
 20
-20.9473246902991
 10
5.39341729039182
 20
-20.994964005136353
 10
5.4150191378201695
 20
-21.048091658402754
 10
5.437700372239038
 20
-21.106697712339255
 10
5.461264681978432
 20
-21.17076792242273
 10
5.485519644651291
 20
-21.240283913245598
 10
5.510276687674228
 20
-21.315223362441632
 10
5.535351040851976
 20
-21.39556015770972
 10
5.5605616925827315
 20
-21.481264554605694
 10
5.58573134737359
 20
-21.572303335015963
 10
5.6106863775212865
 20
-21.668639937459787
 10
5.6352567824689785
 20
-21.770234606835313
 10
5.659276145675299
 20
-21.877044532924874
 10
5.682581588984493
 20
-21.989023971023222
 10
5.705013727458702
 20
-22.106124354434094
 10
5.726416630495514
 20
-22.228294430935925
 10
5.732266923373858
 20
-22.265091304852035
 10
5.746637778786419
 20
-22.35548037864354
 10
5.765528017487447
 20
-22.48762588735912
 10
5.782941519457435
 20
-22.624672288905693
 10
5.79873574402653
 20
-22.766558671144402
 10
5.812771390333962
 20
-22.913221925175076
 10
5.824912362237976
 20
-23.06459687333946
 10
5.835025728535699
 20
-23.22061637950799
 10
5.842981679347115
 20
-23.381211379778712
 10
5.848653491622733
 20
-23.54631101211627
 10
5.851917488328107
 20
-23.715842692540893
 10
5.852653000989396
 20
-23.889732166459577
 10
5.850977264287161
 20
-24.045996011755893
 10
5.850742332188778
 20
-24.067903625898335
 10
5.846070718280868
 20
-24.250279734116603
 10
5.83852629446185
 20
-24.43678171319001
 10
5.8280000582188425
 20
-24.627329416965935
 10
5.824953195209562
 20
-24.670861194576766
 10
5.54322715633664
 20
-24.82436258044847
 10
5.220009978294499
 20
-24.99396915998461
 10
4.894363659962428
 20
-25.158438187792868
 10
4.566379164475315
 20
-25.317761494737777
 10
4.401339254174866
 20
-25.39481116800393
 10
4.340990466522663
 20
-25.35751210362594
 10
4.1738453631319326
 20
-25.25034665392052
 10
4.013073085585806
 20
-25.143496150169998
 10
3.85855468923997
 20
-25.03711831001085
 10
3.71017055270519
 20
-24.931365534450794
 10
3.5678004446510947
 20
-24.826385027649582
 10
3.4313236008755457
 20
-24.722318920111924
 10
3.300618817330217
 20
-24.619304403636455
 10
3.1755645322534445
 20
-24.51747385875236
 10
3.05603887706868
 20
-24.416954956322304
 10
2.9419197435886346
 20
-24.31787076930326
 10
2.833084873897054
 20
-24.220339904853894
 10
2.7294118964466754
 20
-24.124476590851987
 10
2.6307783774989266
 20
-24.030390770963038
 10
2.5370619123143783
 20
-23.938188239228094
 10
2.4481401500964464
 20
-23.84797071302922
 10
2.3638908349248053
 20
-23.759835916439112
 10
2.284191884954202
 20
-23.673877704491108
 10
2.2089214114234497
 20
-23.590186126358823
 10
2.1379577662130167
 20
-23.508847514309622
 10
2.071179594364256
 20
-23.429944581918733
 10
2.0084658562738698
 20
-23.353556485506168
 10
1.9496958832753553
 20
-23.279758925021643
 10
1.8947494051355156
 20
-23.208624212805496
 10
1.8435065823513541
 20
-23.140221346040565
 10
1.7974719424369454
 20
-23.076851495687606
 10
1.7441670189428526
 20
-23.0016176254414
 10
1.6952670607226137
 20
-22.93118159281084
 10
1.6487382174925667
 20
-22.862768963659494
 10
1.604545148267865
 20
-22.796427221282748
 10
1.5626509157526298
 20
-22.73220273695001
 10
1.523017050044338
 20
-22.670140756759682
 10
1.4856035870243756
 20
-22.6102853492541
 10
1.4503691247084805
 20
-22.552679381069968
 10
1.417270871558853
 20
-22.497364479838797
 10
1.3862646954168363
 20
-22.444380997840856
 10
1.3573051873709603
 20
-22.39376800143817
 10
1.3303457151122664
 20
-22.345563245047746
 10
1.3053384773273522
 20
-22.299803147246173
 10
1.282234563932555
 20
-22.25652277940551
 10
1.2609840091773243
 20
-22.215755843082928
 10
1.241535855792691
 20
-22.177534670316664
 10
1.2281638731160163
 20
-22.150602437813202
 10
1.1960812332198016
 20
-22.088203362195845
 10
1.1638268936251133
 20
-22.029370217454595
 10
1.1314707298043576
 20
-21.974098149143256
 10
1.0990823414651398
 20
-21.922380377470176
 10
1.0667309882504625
 20
-21.874208184111673
 10
1.0344855213271817
 20
-21.829570896628653
 10
1.002414309674195
 20
-21.78845587151293
 10
0.970585181692629
 20
-21.750848501952362
 10
0.9390653373519384
 20
-21.7167321926947
 10
0.907921292546004
 20
-21.686088379668206
 10
0.8772188042283429
 20
-21.658896528559204
 10
0.8470227986785187
 20
-21.635134142212607
 10
0.8173972916916282
 20
-21.614776767274428
 10
0.7884053329692504
 20
-21.597798023277488
 10
0.7723883370642827
 20
-21.601857023638818
 10
0.7601089166584263
 20
-21.584169612690616
 10
0.7430578119170818
 20
-21.588665214169204
 10
0.7325689448728723
 20
-21.57386136472139
 10
0.7101041044706675
 20
-21.580014824462193
 10
0.6994830993544144
 20
-21.565394279888228
 10
0.6700690636311424
 20
-21.573826563534624
 10
0.659543559099496
 20
-21.55977630937231
 10
0.6284103337540007
 20
-21.569198566970126
 10
0.6207790527928525
 20
-21.559318971527624
 10
0.587933155520447
 20
-21.569791025774787
 10
0.5833434722251634
 20
-21.56402775223037
 10
0.5487926548819018
 20
-21.57561020716338
 10
0.5473928699301626
 20
-21.57390520741203
 10
0.416756448456217
 20
-21.6198726451618
 10
0.1428527708603401
 20
-21.711693251610008
 10
-0.1325370886329898
 20
-21.79949409698852
 10
-0.4093463750290516
 20
-21.8832685332362
 10
-0.5011623185278641
 20
-21.909589915522105
 10
-0.6742851193873838
 20
-21.959219982481976
 10
-0.8369960343713794
 20
-22.003788964358403
 10
-1.1038403664484893
 20
-21.479108385771294
 10
5.392073189850707
 20
-18.17538839897647
 10
4.911223989167777
 20
-18.745823871630375
 10
5.309602346990554
 20
-19.081637340658244
 10
5.475702963367902
 20
-18.95921463447876
 10
5.246268312180325
 20
-19.128317022551293
  0
LWPOLYLINE
  5
34
330
17
100
AcDbEntity
  8
TOOTH_005
100
AcDbPolyline
 90
166
 70
1
 10
-0.9016061522652826
 20
-22.021486653377792
 10
-0.9797412276216749
 20
-22.042889032915852
 10
-1.1685993151472254
 20
-22.0926823284473
 10
-1.2718156124492734
 20
-22.11989577565817
 10
-1.326868797474198
 20
-22.133847261894065
 10
-1.3269274003434914
 20
-22.13442624971855
 10
-1.3499246223834005
 20
-22.140489572123425
 10
-1.350281228874752
 20
-22.14438554654534
 10
-1.3720445403065749
 20
-22.150346846885096
 10
-1.3727911980778265
 20
-22.159464567742667
 10
-1.3981629900500772
 20
-22.16673803910648
 10
-1.3992920097449972
 20
-22.182868805119856
 10
-1.4290416232403262
 20
-22.191872322059645
 10
-1.4302212829661356
 20
-22.213226721372052
 10
-1.4582520737245601
 20
-22.22216360499495
 10
-1.4593292524780999
 20
-22.248792009518642
 10
-1.4856359827324757
 20
-22.257610802850763
 10
-1.4864544028627125
 20
-22.28956127675173
 10
-1.5110328259995174
 20
-22.298209761782022
 10
-1.5342798958658204
 20
-22.343953149429623
 10
-1.555212311068791
 20
-22.394830383135105
 10
-1.5736630038457091
 20
-22.45082751982463
 10
-1.5894627140237696
 20
-22.51192713930155
 10
-1.6024399989392382
 20
-22.57810828307751
 10
-1.6124212162906497
 20
-22.649346280350997
 10
-1.6192305376399723
 20
-22.72561269757799
 10
-1.6226899423111592
 20
-22.80687520524336
 10
-1.6226192185002544
 20
-22.89309742025562
 10
-1.6188359690014458
 20
-22.98423883742488
 10
-1.6111556109689154
 20
-23.080254692583644
 10
-1.5993913856693884
 20
-23.181095776045428
 10
-1.5833543605044518
 20
-23.286708363237338
 10
-1.5628534374647427
 20
-23.397034045057644
 10
-1.5548922278727728
 20
-23.43528655820938
 10
-1.5545134731784498
 20
-23.4372637357297
 10
-1.5532339692333552
 20
-23.444567282103183
 10
-1.551230723169853
 20
-23.45716719707402
 10
-1.548677182987141
 20
-23.47503033114081
 10
-1.5457432794638941
 20
-23.49812051260108
 10
-1.542595467928795
 20
-23.52639867141354
 10
-1.5393967710078105
 20
-23.55982294620743
 10
-1.5363068190762665
 20
-23.598348800411348
 10
-1.533481890919462
 20
-23.641929135881394
 10
-1.531074955208344
 20
-23.69051438362123
 10
-1.529235709506685
 20
-23.744052613443774
 10
-1.5281106204949568
 20
-23.80248963039037
 10
-1.5278429629995134
 20
-23.8657690591788
 10
-1.528572858760788
 20
-23.933832447758977
 10
-1.5304373148407344
 20
-24.00661933693847
 10
-1.5335702608238078
 20
-24.084067348899357
 10
-1.5381025862929276
 20
-24.166112268941852
 10
-1.543898396058579
 20
-24.248919372846608
 10
-1.552263893165629
 20
-24.351073626634197
 10
-1.561490494710384
 20
-24.451875503468635
 10
-1.5719774967096898
 20
-24.555485557825065
 10
-1.5837839706410834
 20
-24.661904102609657
 10
-1.5969692325870952
 20
-24.771129539970442
 10
-1.6115927766145242
 20
-24.88315832068112
 10
-1.6277142152128157
 20
-24.99798496426428
 10
-1.645393215361898
 20
-25.11560204832232
 10
-1.6646894395787963
 20
-25.236000231623795
 10
-1.6856624889125453
 20
-25.359168283124223
 10
-1.708371840414693
 20
-25.48509307283723
 10
-1.732876790195764
 20
-25.61375959897167
 10
-1.7592364000332688
 20
-25.745151024026626
 10
-1.7875094406007275
 20
-25.87924868973629
 10
-1.817754342448995
 20
-26.01603216423914
 10
-1.8500291426325381
 20
-26.155479261316522
 10
-1.8843914341542576
 20
-26.297566069064914
 10
-1.920898313837141
 20
-26.442266969547266
 10
-1.959606352108251
 20
-26.589554738546905
 10
-2.0005715394113706
 20
-26.73940053903229
 10
-2.0438492354230253
 20
-26.891773934043606
 10
-2.0894941526995994
 20
-27.046643011238697
 10
-2.1375603000847754
 20
-27.203974354342904
 10
-2.175407540244688
 20
-27.32360929646905
 10
-2.1881009415748545
 20
-27.363733076356358
 10
-2.218395952265175
 20
-27.45630043695548
 10
-2.2404721254286715
 20
-27.460660962441448
 10
-2.5848448744865338
 20
-27.52520549123013
 10
-2.929872380436005
 20
-27.586396002885344
 10
-3.2755203255442593
 20
-27.644219757956847
 10
-3.6217541276351506
 20
-27.698664750418132
 10
-3.927872407962454
 20
-27.743732626608065
 10
-3.9793246183020945
 20
-27.67712165718287
 10
-4.095720084045807
 20
-27.521748024296862
 10
-4.199278648791398
 20
-27.37919253210887
 10
-4.298237815693821
 20
-27.239522861196868
 10
-4.387467787950483
 20
-27.110995036915558
 10
-4.4738715868689205
 20
-26.983953171218428
 10
-4.557471982966388
 20
-26.85845394616365
 10
-4.638293597298782
 20
-26.73455320394216
 10
-4.716362844208496
 20
-26.612305929582266
 10
-4.791707910010407
 20
-26.491766175892476
 10
-4.864358705259418
 20
-26.372987028302695
 10
-4.9343468331658835
 20
-26.25602054173317
 10
-5.001705552405445
 20
-26.140917683777154
 10
-5.066469714787168
 20
-26.027728319080193
 10
-5.128675720765436
 20
-25.916501165394475
 10
-5.188361474512017
 20
-25.80728374792937
 10
-5.245566325371472
 20
-25.700122378980293
 10
-5.300331021898804
 20
-25.59506211482386
 10
-5.352697650052776
 20
-25.492146742743287
 10
-5.402709576991963
 20
-25.391418759702898
 10
-5.450411389415346
 20
-25.292919364577195
 10
-5.495848858204952
 20
-25.196688397441267
 10
-5.539068864944781
 20
-25.102764356723203
 10
-5.5801193384549475
 20
-25.011184403902913
 10
-5.619049221243635
 20
-24.921984302182878
 10
-5.6559083932846725
 20
-24.835198451024286
 10
-5.690747615206497
 20
-24.750859885883482
 10
-5.723618487051604
 20
-24.669000240311984
 10
-5.754573386124524
 20
-24.589649761575675
 10
-5.7836654167867465
 20
-24.51283730045559
 10
-5.810948344780668
 20
-24.438590346191205
 10
-5.836476560123256
 20
-24.3669349918964
 10
-5.860305022206239
 20
-24.29789594627953
 10
-5.882489206084975
 20
-24.23149655147596
 10
-5.903085056177044
 20
-24.167758781639737
 10
-5.922148933370202
 20
-24.106703268638366
 10
-5.939737576208632
 20
-24.048349287269193
 10
-5.9559080542895195
 20
-23.992714768595203
 10
-5.97071771762779
 20
-23.939816332886572
 10
-5.984224158021167
 20
-23.889669290085013
 10
-5.996485171793151
 20
-23.842287634949408
 10
-6.00755871313911
 20
-23.79768408372088
 10
-6.017502855464726
 20
-23.75587008820391
 10
-6.026444819871954
 20
-23.716552167118948
 10
-6.043029530616544
 20
-23.64853330184158
 10
-6.060651229182905
 20
-23.58383065732128
 10
-6.079245958798602
 20
-23.52246554343496
 10
-6.098749201445236
 20
-23.464457902986066
 10
-6.1190959063605925
 20
-23.409826292062185
 10
-6.140220522867438
 20
-23.358587847693148
 10
-6.162057020311689
 20
-23.3107582850317
 10
-6.18453895442247
 20
-23.26635179241627
 10
-6.207599482650259
 20
-23.225381053136445
 10
-6.231171411272166
 20
-23.18785719427622
 10
-6.255187231001248
 20
-23.153789762198244
 10
-6.279579179083254
 20
-23.123186663842876
 10
-6.304279258204609
 20
-23.096054172128213
 10
-6.329219314045584
 20
-23.07239685789409
 10
-6.3463721833185325
 20
-23.07261952470444
 10
-6.354331045090464
 20
-23.052217600914886
 10
-6.372671612746216
 20
-23.052637307293438
 10
-6.3795460892891915
 20
-23.03551752367622
 10
-6.399069959453086
 20
-23.03615769462977
 10
-6.404796063143674
 20
-23.022295979514684
 10
-6.425498161084267
 20
-23.0231799128143
 10
-6.430012610357056
 20
-23.012550528024672
 10
-6.451887181760868
 20
-23.013701372134367
 10
-6.45512746533835
 20
-23.006276905272188
 10
-6.478168059259254
 20
-23.00771763606616
 10
-6.480072498080677
 20
-23.003469002554738
 10
-6.504271988063374
 20
-23.005222401611682
 10
-6.504779801810499
 20
-23.004118840491266
 10
-6.619574444528676
 20
-23.013576760260317
 10
-6.9201037733531505
 20
-23.03535192337828
 10
-7.220819181394764
 20
-23.054155689899027
 10
-7.5216935197699355
 20
-23.06998500393155
 10
-7.815271455516241
 20
-23.08252012545322
 10
-7.939322787750832
 20
-22.344978663980253
 10
-0.27000298344357865
 20
-21.055031740647426
 10
-1.1038403664484893
 20
-21.479108385771294
 10
-0.8369960343713797
 20
-22.003788964358403
 10
-0.9016061522652826
 20
-22.021486653377792
  0
LWPOLYLINE
  5
35
330
17
100
AcDbEntity
  8
TOOTH_006
100
AcDbPolyline
 90
167
 70
1
 10
-7.822699461231559
 20
-23.082837284690918
 10
-8.123809625815742
 20
-23.092710428671477
 10
-8.424996537923818
 20
-23.099602803570715
 10
-8.511175121789227
 20
-23.1007215149702
 10
-8.511475650777188
 20
-23.101581795494923
 10
-8.535899544135834
 20
-23.102140712973604
 10
-8.537295772504864
 20
-23.10626828470024
 10
-8.560513640431358
 20
-23.107029578671423
 10
-8.562940167260964
 20
-23.114443907926347
 10
-8.584949296066423
 20
-23.115383648521842
 10
-8.588340239716864
 20
-23.126102404913574
 10
-8.60913851443853
 20
-23.12719662392767
 10
-8.6134275608393
 20
-23.1412356403161
 10
-8.633013482215349
 20
-23.14246035006758
 10
-8.63813393227305
 20
-23.159833574132257
 10
-8.656506616779364
 20
-23.16116478597639
 10
-8.662391443931377
 20
-23.181884259858858
 10
-8.679550654095582
 20
-23.18329800556328
 10
-8.702078682924986
 20
-23.208846160562327
 10
-8.724024214330354
 20
-23.237793464418992
 10
-8.745321266361545
 20
-23.270122206319638
 10
-8.765904403353028
 20
-23.30581270684343
 10
-8.785708816300374
 20
-23.344843324885524
 10
-8.804670394928875
 20
-23.387190463481392
 10
-8.822725791311182
 20
-23.43282856123224
 10
-8.83981248833957
 20
-23.481730092481182
 10
-8.855868870231005
 20
-23.533865574447653
 10
-8.870834294826674
 20
-23.589203586540798
 10
-8.884649157922965
 20
-23.64771076651404
 10
-8.897254970375188
 20
-23.709351861184242
 10
-8.908594419451582
 20
-23.77408972439023
 10
-8.918611438199623
 20
-23.841885351478396
 10
-8.925210001543356
 20
-23.892435957026134
 10
-8.931381587842173
 20
-23.936393730146456
 10
-8.93485219176215
 20
-23.959483402047912
 10
-8.938401800149533
 20
-23.98309868484396
 10
-8.946328432758188
 20
-24.03255665937063
 10
-8.95521958053777
 20
-24.08477154382481
 10
-8.96513357433292
 20
-24.13974526615908
 10
-8.976128919294966
 20
-24.197477799894322
 10
-8.988264234756823
 20
-24.25796717746304
 10
-9.001598192967371
 20
-24.32120949717175
 10
-9.016189462369047
 20
-24.38719895007793
 10
-9.032096647487641
 20
-24.455927827556515
 10
-9.049378233691654
 20
-24.527386548957697
 10
-9.068092528392691
 20
-24.601563671698813
 10
-9.088297616232634
 20
-24.678445953604786
 10
-9.110051302629461
 20
-24.758018360476033
 10
-9.133411058688596
 20
-24.840264082069158
 10
-9.158433985568424
 20
-24.925164610448206
 10
-9.185176758604243
 20
-25.012699739201917
 10
-9.213695579111429
 20
-25.10284759216206
 10
-9.244046142109422
 20
-25.195584694589275
 10
-9.276283590792188
 20
-25.290885996778254
 10
-9.310462481919503
 20
-25.38872492603776
 10
-9.346636733911017
 20
-25.48907338501623
 10
-9.384859606985954
 20
-25.59190183996152
 10
-9.4251836685398
 20
-25.697179355023554
 10
-9.467660755274137
 20
-25.804873619671454
 10
-9.512341947372912
 20
-25.914951000124262
 10
-9.559277529641534
 20
-26.027376557453128
 10
-9.60851697935497
 20
-26.14211412509362
 10
-9.660108943473933
 20
-26.259126354477036
 10
-9.71410119678249
 20
-26.37837471328229
 10
-9.770540627141227
 20
-26.499819547309134
 10
-9.829473236938297
 20
-26.62342016627104
 10
-9.890944104984255
 20
-26.749134841690083
 10
-9.954997363583445
 20
-26.876920837122892
 10
-10.021676184245207
 20
-27.00673445400908
 10
-10.091022789023828
 20
-27.13853112153883
 10
-10.163078407380633
 20
-27.272265375571905
 10
-10.237883277944771
 20
-27.40789092655256
 10
-10.315476638196731
 20
-27.545360695641797
 10
-10.395896707621919
 20
-27.68462684146247
 10
-10.479180704526835
 20
-27.825640838535023
 10
-10.565364801611782
 20
-27.968353449918762
 10
-10.62527917139503
 20
-28.065406675467134
 10
-10.964957954714793
 20
-28.047943184819776
 10
-11.315036537124467
 20
-28.026470889947372
 10
-11.664875590888927
 20
-28.00153863266941
 10
-12.014439564791981
 20
-27.97315068885935
 10
-12.353499914230248
 20
-27.942241141160228
 10
-12.397831329200974
 20
-27.840664500247996
 10
-12.463219990600575
 20
-27.686705246107202
 10
-12.525934523058265
 20
-27.534886307876423
 10
-12.586020754514923
 20
-27.385251164824954
 10
-12.643525624515593
 20
-27.23784189841212
 10
-12.698497130870077
 20
-27.092699170371162
 10
-12.750984249855199
 20
-26.94986227531261
 10
-12.8010369067589
 20
-26.80936906747572
 10
-12.848705913460332
 20
-26.671255969084825
 10
-12.894042905900083
 20
-26.535557992694578
 10
-12.937100293836595
 20
-26.40230872792628
 10
-12.977931199147804
 20
-26.27154037242192
 10
-13.016589416977668
 20
-26.143283693169757
 10
-13.053129363819096
 20
-26.017568031287208
 10
-13.087606012916211
 20
-25.89442135576489
 10
-13.099657018207564
 20
-25.849678088068423
 10
-13.120074853684155
 20
-25.773870248272093
 10
-13.150591854674376
 20
-25.655939867996736
 10
-13.179213403763892
 20
-25.540654008562072
 10
-13.205996261508705
 20
-25.42803511625314
 10
-13.230997519468982
 20
-25.31810429537978
 10
-13.254274566870453
 20
-25.21088127822793
 10
-13.275885036089457
 20
-25.106384491987363
 10
-13.295886768959166
 20
-25.004631047386027
 10
-13.314337776397805
 20
-24.905636754871665
 10
-13.331296199029092
 20
-24.809416151960637
 10
-13.346820275791503
 20
-24.715982485832136
 10
-13.360968300372345
 20
-24.62534777733969
 10
-13.373798593612374
 20
-24.537522800175957
 10
-13.385369465522958
 20
-24.452517127039616
 10
-13.39573918636705
 20
-24.370339134549393
 10
-13.404965957873419
 20
-24.29099599999979
 10
-13.413107880680727
 20
-24.214493742525658
 10
-13.420222925254475
 20
-24.140837249395354
 10
-13.426368906223724
 20
-24.070030283802392
 10
-13.431603456609762
 20
-24.00207549469794
 10
-13.435984001926316
 20
-23.936974442641993
 10
-13.439567735651119
 20
-23.87472762108525
 10
-13.442411595604623
 20
-23.815334492612845
 10
-13.444572243783442
 20
-23.758793469395016
 10
-13.44610604338668
 20
-23.705101961910742
 10
-13.447069039008248
 20
-23.65425639332946
 10
-13.447516937563044
 20
-23.60625221252452
 10
-13.44750508943679
 20
-23.56108391543704
 10
-13.44699710420569
 20
-23.509459919307325
 10
-13.447473775719983
 20
-23.441707464398792
 10
-13.449657818152815
 20
-23.376800213154535
 10
-13.453498686321797
 20
-23.314775022788822
 10
-13.45894497652504
 20
-23.25566797246794
 10
-13.465944431173599
 20
-23.199514381161663
 10
-13.474443951192633
 20
-23.14634873318141
 10
-13.484389606434387
 20
-23.096204659634143
 10
-13.495726644117445
 20
-23.04911492329225
 10
-13.50839949880553
 20
-23.005111387639346
 10
-13.522351814972014
 20
-22.96422495325286
 10
-13.53752645144751
 20
-22.92648556380241
 10
-13.553865501644541
 20
-22.891922156517264
 10
-13.571310302549247
 20
-22.86056264505317
 10
-13.589801463365012
 20
-22.832433863853666
 10
-13.606407161109123
 20
-22.828658679119147
 10
-13.609278877230489
 20
-22.80756155144894
 10
-13.627092461004537
 20
-22.80369429733023
 10
-13.62968174662355
 20
-22.785970310348333
 10
-13.648708487366504
 20
-22.782034046807297
 10
-13.650948584723247
 20
-22.767683593161777
 10
-13.67119328088853
 20
-22.763701553240892
 10
-13.673017270497091
 20
-22.752723635602614
 10
-13.694484211058068
 20
-22.748719219982338
 10
-13.69582504416608
 20
-22.741111450506306
 10
-13.718518009782526
 20
-22.737108213258256
 10
-13.719308547314654
 20
-22.732866780699126
 10
-13.743230800901168
 20
-22.728888417062045
 10
-13.743403851600375
 20
-22.728008068101804
 10
-13.827874137342544
 20
-22.714811901628345
 10
-14.125249810474202
 20
-22.665357172780965
 10
-14.422148772974769
 20
-22.612981603819264
 10
-14.718543932616065
 20
-22.557692430046654
 10
-15.014408235340634
 20
-22.499497263520304
 10
-15.033962855935698
 20
-22.495451791878736
 10
-14.98085485978505
 20
-21.750386270686214
 10
-7.5523327699963625
 20
-22.27988859139226
 10
-7.939322787750832
 20
-22.344978663980253
 10
-7.815271455516241
 20
-23.08252012545322
 10
-7.5216935197699355
 20
-23.06998500393155
 10
-7.822699461231559
 20
-23.082837284690918
  0
LWPOLYLINE
  5
36
330
17
100
AcDbEntity
  8
TOOTH_007
100
AcDbPolyline
 90
170
 70
1
 10
-15.309714790720756
 20
-22.438404066157975
 10
-15.567958709277255
 20
-22.382340397536485
 10
-15.604436781815732
 20
-22.374421161404307
 10
-15.71764533031465
 20
-22.348684020412342
 10
-15.71830134662272
 20
-22.34970164326521
 10
-15.741744887296065
 20
-22.344612149181586
 10
-15.744207828785147
 20
-22.348515885745403
 10
-15.766571494200205
 20
-22.343889277226033
 10
-15.77078874004305
 20
-22.350720648622566
 10
-15.792062388769073
 20
-22.346536218399546
 10
-15.797980321056084
 20
-22.356335747538186
 10
-15.818154219348013
 20
-22.352572534368026
 10
-15.825718232682783
 20
-22.36537969773536
 10
-15.844783036219305
 20
-22.36201649995266
 10
-15.853937555707805
 20
-22.37786969002221
 10
-15.871884336560854
 20
-22.374885070697353
 10
-15.882572836672344
 20
-22.3938215574981
 10
-15.899393095036425
 20
-22.39119385324034
 10
-15.92724376920323
 20
-22.410957056329877
 10
-15.955370368000912
 20
-22.434187479434893
 10
-15.983706444371439
 20
-22.46089644968434
 10
-16.012185171401825
 20
-22.491093822103938
 10
-16.04073934577211
 20
-22.52478791759298
 10
-16.069301434892207
 20
-22.56198549469447
 10
-16.09780362687191
 20
-22.602691730053056
 10
-16.12617786598694
 20
-22.646910180830268
 10
-16.15435589491975
 20
-22.694642752322324
 10
-16.18226928070399
 20
-22.74588963114826
 10
-16.209849500664433
 20
-22.800649322092173
 10
-16.237027960139695
 20
-22.858918566133667
 10
-16.263736052137308
 20
-22.92069232697738
 10
-16.289905202506585
 20
-22.985963745728565
 10
-16.30417575355729
 20
-23.02322110759371
 10
-16.319844651019697
 20
-23.06294724042883
 10
-16.33705125169481
 20
-23.105337728234684
 10
-16.355850793499847
 20
-23.150368573976884
 10
-16.376297885971223
 20
-23.198014306598587
 10
-16.39844647791621
 20
-23.248248023524166
 10
-16.422349818223896
 20
-23.30104141381602
 10
-16.448060429562926
 20
-23.35636480930301
 10
-16.475630090522856
 20
-23.41418724701536
 10
-16.505109800449727
 20
-23.474476491054233
 10
-16.536549753061887
 20
-23.53719907111913
 10
-16.56999931295293
 20
-23.60232032415889
 10
-16.605507008393552
 20
-23.669804463370532
 10
-16.64312049480836
 20
-23.739614585911692
 10
-16.68257350552329
 20
-23.811145173100805
 10
-16.682886545226232
 20
-23.81171273216307
 10
-16.724851032514465
 20
-23.886059923194995
 10
-16.769058908606006
 20
-23.962616192820132
 10
-16.801538847207524
 20
-24.017610262954644
 10
-16.81555420647631
 20
-24.04134065419842
 10
-16.864380004938916
 20
-24.122191500667537
 10
-16.915578435267246
 20
-24.205126075868012
 10
-16.96919065494336
 20
-24.290100884707297
 10
-17.025256843772205
 20
-24.377071641872124
 10
-17.0838162114594
 20
-24.46599333157798
 10
-17.144906976426768
 20
-24.556820221540704
 10
-17.20856635222772
 20
-24.64950588763398
 10
-17.274830549179164
 20
-24.744003260139852
 10
-17.343734778800375
 20
-24.840264669574683
 10
-17.415313248227253
 20
-24.938241876493286
 10
-17.48959915036495
 20
-25.037886093301655
 10
-17.566624648364066
 20
-25.139147999479675
 10
-17.646420911412353
 20
-25.24197782153143
 10
-17.7290180924161
 20
-25.34632533322663
 10
-17.814445320116974
 20
-25.452139875598306
 10
-17.902730718009757
 20
-25.55937040930991
 10
-17.99390140643984
 20
-25.66796554185147
 10
-18.08798347407231
 20
-25.777873519179074
 10
-18.185002024903493
 20
-25.889042306102223
 10
-18.284981167482965
 20
-26.00141959326528
 10
-18.38794400498436
 20
-26.114952808303194
 10
-18.493912638599788
 20
-26.229589139871187
 10
-18.602908186857498
 20
-26.345275578944396
 10
-18.71495079887063
 20
-26.461958949466293
 10
-18.83005964676419
 20
-26.57958591726912
 10
-18.930659821293148
 20
-26.68046170262411
 10
-19.23069459476
 20
-26.59199865170293
 10
-19.565596424588108
 20
-26.489724782965535
 10
-19.899461967214226
 20
-26.384231970209797
 10
-20.23226122691192
 20
-26.275535528905458
 10
-20.56396450157726
 20
-26.16365111476571
 10
-20.588181560225735
 20
-26.155222457834242
 10
-20.605884016257527
 20
-26.054780274653695
 10
-20.63326525631231
 20
-25.88998273592612
 10
-20.65855913982955
 20
-25.727945714706145
 10
-20.681824704696957
 20
-25.5686899857095
 10
-20.70312117077255
 20
-25.412235014280323
 10
-20.72250790717458
 20
-25.258598951901327
 10
-20.740044400007587
 20
-25.107798608637484
 10
-20.75579021097765
 20
-24.95984951682227
 10
-20.769804942309914
 20
-24.81476596163181
 10
-20.782148206952517
 20
-24.672560979347196
 10
-20.79287959786482
 20
-24.53324635775372
 10
-20.80205865649154
 20
-24.39683266258554
 10
-20.80974484172422
 20
-24.263329272721638
 10
-20.815997501710886
 20
-24.13274441834986
 10
-20.820875849841013
 20
-24.0050851364759
 10
-20.824438935821313
 20
-23.880357331634368
 10
-20.826745620740716
 20
-23.75856580565216
 10
-20.827854554155028
 20
-23.6397142497562
 10
-20.827824149992185
 20
-23.52380526713828
 10
-20.826712564814024
 20
-23.410840429930264
 10
-20.8245776769581
 20
-23.300820243098812
 10
-20.82147706510268
 20
-23.193744187130374
 10
-20.81746798982251
 20
-23.08961074929582
 10
-20.81260737521683
 20
-22.988417445753267
 10
-20.806951790981426
 20
-22.890160823128806
 10
-20.80055743463945
 20
-22.79483647464082
 10
-20.793480116207927
 20
-22.702439071719112
 10
-20.785775244400718
 20
-22.61296240099552
 10
-20.777497810314042
 20
-22.526399352305596
 10
-20.768702372244118
 20
-22.442741934759308
 10
-20.762600457268796
 20
-22.389520528919554
 10
-20.759443044262273
 20
-22.361981312181296
 10
-20.74977348537129
 20
-22.284107836244125
 10
-20.73974688597498
 20
-22.20911104281526
 10
-20.72941595619769
 20
-22.136979671940043
 10
-20.71883291542783
 20
-22.067701685343877
 10
-20.70804948328691
 20
-22.00126429274442
 10
-20.697116872099162
 20
-21.937653977805393
 10
-20.686085775140597
 20
-21.876856497444603
 10
-20.67500635644164
 20
-21.818856890443985
 10
-20.663928247965273
 20
-21.763639523740792
 10
-20.652900542398463
 20
-21.71118810456268
 10
-20.641971781558745
 20
-21.66148567538846
 10
-20.631189955514287
 20
-21.61451465581351
 10
-20.616451610966205
 20
-21.55290528345127
 10
-20.602552664430764
 20
-21.489756312049522
 10
-20.590826279319522
 20
-21.428883302630286
 10
-20.5812365832242
 20
-21.37033058530457
 10
-20.57374682544389
 20
-21.314142149003597
 10
-20.56831937508204
 20
-21.260361615640416
 10
-20.564915723523697
 20
-21.209032267346196
 10
-20.56349647558989
 20
-21.16019694048217
 10
-20.564021355537953
 20
-21.113898086551885
 10
-20.56644920261283
 20
-21.070177718136563
 10
-20.57073797021283
 20
-21.029077391743325
 10
-20.576844728837564
 20
-20.990638164319186
 10
-20.584725663269463
 20
-20.954900604783514
 10
-20.59433607888418
 20
-20.921904738368816
 10
-20.60563039275702
 20
-20.89169006336918
 10
-20.620488682928983
 20
-20.884442606255952
 10
-20.618562150355405
 20
-20.8642954771791
 10
-20.634541633944686
 20
-20.85668659216921
 10
-20.633084017095225
 20
-20.839759288750827
 10
-20.650196321078877
 20
-20.83180817121851
 10
-20.649147791589538
 20
-20.81811917267493
 10
-20.66740424784516
 20
-20.809845319715613
 10
-20.666704392167286
 20
-20.799412168517748
 10
-20.686116048385582
 20
-20.790835366094193
 10
-20.685703881067393
 20
-20.783674626026386
 10
-20.706281479720417
 20
-20.77481495095182
 10
-20.70609545971448
 20
-20.77094219401615
 10
-20.727849433924998
 20
-20.761820007739722
 10
-20.727827480839892
 20
-20.761249788907858
 10
-20.7798180850012
 20
-20.740027772855914
 10
-21.05854772543586
 20
-20.62314689048464
 10
-21.276251665112266
 20
-20.529414565323247
 10
-21.336191093450942
 20
-20.503607673654773
 10
-21.508008206600486
 20
-20.427692387710234
 10
-21.612725159490697
 20
-20.381424485309953
 10
-21.888127107259805
 20
-20.25661191551839
 10
-21.92206404327917
 20
-20.240843345299297
 10
-21.694079365129706
 20
-19.52154541496126
 10
-14.569520507227839
 20
-21.779706031956703
 10
-14.98085485978505
 20
-21.750386270686214
 10
-15.033962855935698
 20
-22.495451791878736
 10
-15.309714790720756
 20
-22.438404066157975
  0
LWPOLYLINE
  5
37
330
17
100
AcDbEntity
  8
TOOTH_008
100
AcDbPolyline
 90
173
 70
1
 10
-22.162374279999867
 20
-20.12918480193712
 10
-22.435444274301584
 20
-19.99915818532692
 10
-22.5668940999845
 20
-19.935040648036153
 10
-22.567952236584667
 20
-19.936062413659883
 10
-22.588748686025248
 20
-19.926159853822874
 10
-22.592140100843004
 20
-19.92949698922872
 10
-22.612033866911077
 20
-19.92025348395212
 10
-22.617722845580374
 20
-19.925958048519927
 10
-22.63669962319085
 20
-19.917357744857906
 10
-22.644649382417725
 20
-19.92548141293149
 10
-22.662695058263026
 20
-19.917508152196593
 10
-22.672867748510114
 20
-19.92810219105358
 10
-22.689968434415345
 20
-19.92073949906861
 10
-22.702325134234762
 20
-19.93385473747656
 10
-22.718467163294196
 20
-19.927085831963723
 10
-22.73296788055617
 20
-19.942772634513712
 10
-22.74813782155828
 20
-19.936580424658736
 10
-22.778926140416267
 20
-19.949255744421112
 10
-22.81077703804705
 20
-19.96514343071183
 10
-22.84363460911579
 20
-19.984274258838738
 10
-22.877442163110018
 20
-20.0066781264919
 10
-22.91214219140429
 20
-20.032383997216666
 10
-22.94767641366299
 20
-20.06141988983532
 10
-22.983985792187042
 20
-20.093812852537656
 10
-23.021010518256258
 20
-20.129588907971907
 10
-23.058690053782314
 20
-20.168773044059296
 10
-23.096963142513335
 20
-20.211389179758324
 10
-23.135767816595276
 20
-20.25746012149661
 10
-23.175041412293726
 20
-20.307007524581127
 10
-23.214720619114622
 20
-20.360051897570948
 10
-23.25474146899649
 20
-20.41661253072344
 10
-23.27186584167773
 20
-20.441544975762692
 10
-23.296983672864094
 20
-20.47736475717341
 10
-23.324229510471763
 20
-20.515428062485213
 10
-23.35364497094881
 20
-20.555692190523185
 10
-23.38527069405068
 20
-20.59811370414555
 10
-23.41914632505217
 20
-20.64264844987655
 10
-23.455310531560052
 20
-20.689251621225537
 10
-23.493800984337167
 20
-20.737877771930744
 10
-23.53465435538287
 20
-20.788480851041285
 10
-23.57790632046942
 20
-20.841014241737888
 10
-23.62359155799126
 20
-20.895430792817038
 10
-23.671743734805013
 20
-20.951682834153914
 10
-23.686941159891475
 20
-20.9690968162918
 10
-23.722395526493557
 20
-21.009722231663545
 10
-23.775578609408242
 20
-21.069500405657884
 10
-23.831323659099894
 20
-21.13096835727544
 10
-23.88966034616017
 20
-21.194076690111828
 10
-23.950146108206543
 20
-21.25827548114162
 10
-23.950617349506164
 20
-21.258775650449163
 10
-24.0142223620611
 20
-21.325015156237622
 10
-24.08050208802766
 20
-21.39274481677126
 10
-24.149482232088413
 20
-21.461913943351906
 10
-24.221187525139268
 20
-21.532471597040775
 10
-24.295641734419416
 20
-21.60436661661788
 10
-24.372867657555783
 20
-21.677547631271306
 10
-24.452887112483964
 20
-21.75196306847108
 10
-24.53572096116502
 20
-21.827561194675706
 10
-24.62138911982591
 20
-21.9042901394073
 10
-24.709910563645323
 20
-21.982097914903967
 10
-24.797781793571207
 20
-22.057894789338782
 10
-24.801303327385632
 20
-22.060932430402588
 10
-24.8955844992577
 20
-22.140741501608638
 10
-24.99277024954829
 20
-22.221472888543772
 10
-25.092875860578225
 20
-22.30307433221148
 10
-25.19591568936956
 20
-22.385493534102626
 10
-25.30190317800154
 20
-22.468678178297985
 10
-25.41085090181421
 20
-22.55257597933403
 10
-25.52277053474037
 20
-22.637134665253107
 10
-25.63767289988128
 20
-22.7223020261587
 10
-25.75556795518512
 20
-22.808025911096962
 10
-25.876464779805083
 20
-22.894254228040513
 10
-26.000371623327943
 20
-22.980934987881376
 10
-26.127295913764105
 20
-23.068016316798914
 10
-26.257244226807256
 20
-23.155446442184
 10
-26.39022234545117
 20
-23.243173741426755
 10
-26.526235230216418
 20
-23.331146726722714
 10
-26.665287048499366
 20
-23.419314072849648
 10
-26.674303711171063
 20
-23.424917868346363
 10
-26.924851559118057
 20
-23.283247018801166
 10
-27.227225336038263
 20
-23.108544432307067
 10
-27.527928552299745
 20
-22.93106762682702
 10
-27.8269387749876
 20
-22.750837868222835
 10
-28.124233872586984
 20
-22.56787659438564
 10
-28.178966516381045
 20
-22.53349325877837
 10
-28.173073809153088
 20
-22.431117007937765
 10
-28.161998790143507
 20
-22.266015328406745
 10
-28.149589565066766
 20
-22.10400761595808
 10
-28.135905505620766
 20
-21.945094643510483
 10
-28.133230010085004
 20
-21.917115073041344
 10
-28.121005646256776
 20
-21.789276156997314
 10
-28.10494866420291
 20
-21.636550887200162
 10
-28.08779286581261
 20
-21.48691659823877
 10
-28.069596173734528
 20
-21.340370134366466
 10
-28.050416109418972
 20
-21.19690740442483
 10
-28.03030977622176
 20
-21.056523391750808
 10
-28.009333847544568
 20
-20.919212184382285
 10
-27.98754455450091
 20
-20.78496700181997
 10
-27.964997677508986
 20
-20.65378023209791
 10
-27.948762423766823
 20
-20.564300235298923
 10
-27.94174852949089
 20
-20.52564341802179
 10
-27.917851939757018
 20
-20.40054725089618
 10
-27.893362253844348
 20
-20.27848165004283
 10
-27.868333324260703
 20
-20.159435773344587
 10
-27.842818490951426
 20
-20.043397988819414
 10
-27.81687058331124
 20
-19.930355942632545
 10
-27.790541902271713
 20
-19.820296532046864
 10
-27.763884217835777
 20
-19.71320594920881
 10
-27.736948767571704
 20
-19.60906971767226
 10
-27.70978624036271
 20
-19.507872670946853
 10
-27.682446771049154
 20
-19.409598975118428
 10
-27.654979943167433
 20
-19.314232176760317
 10
-27.627434773147602
 20
-19.221755179779844
 10
-27.599859713237624
 20
-19.132150292138615
 10
-27.572302643737732
 20
-19.045399227019672
 10
-27.544810863129154
 20
-18.961483104580296
 10
-27.51743109865711
 20
-18.880382510148735
 10
-27.490209493441164
 20
-18.802077479353365
 10
-27.47092000186013
 20
-18.748152668032414
 10
-27.463191601290088
 20
-18.72654750851842
 10
-27.436422385530634
 20
-18.653771574325866
 10
-27.40994622073513
 20
-18.58372816075097
 10
-27.383806889856704
 20
-18.516395269685827
 10
-27.358047577751964
 20
-18.451750423795115
 10
-27.332710873202235
 20
-18.389770689806156
 10
-27.307838769251905
 20
-18.330432695752968
 10
-27.28347265962835
 20
-18.273712638240248
 10
-27.259653331742882
 20
-18.21958628150376
 10
-27.23642097985084
 20
-18.16802900296127
 10
-27.213815202028698
 20
-18.119015797582573
 10
-27.191874985032122
 20
-18.072521258245118
 10
-27.159205474273552
 20
-18.004829887734374
 10
-27.13360843197596
 20
-17.949045882247216
 10
-27.1104695167586
 20
-17.894944618214314
 10
-27.089766238492203
 20
-17.842572528087814
 10
-27.071475346265625
 20
-17.791976030665822
 10
-27.05557280524648
 20
-17.743201487819068
 10
-27.042033772935966
 20
-17.696295136574186
 10
-27.030832616757085
 20
-17.651303143847397
 10
-27.021942896856704
 20
-17.608271560257233
 10
-27.015337363390906
 20
-17.56724631856164
 10
-27.01098794863694
 20
-17.52827320843685
 10
-27.008865762837488
 20
-17.49139786430356
 10
-27.008941089360487
 20
-17.456665767709246
 10
-27.011183378465386
 20
-17.424122197605563
 10
-27.01556124319162
 20
-17.393812249579348
 10
-27.02797335838161
 20
-17.383884332526904
 10
-27.02204245515869
 20
-17.365780797942627
 10
-27.035422908641415
 20
-17.355274344162872
 10
-27.030593937276382
 20
-17.340072495165575
 10
-27.044957743181705
 20
-17.32900176440797
 10
-27.04118176023574
 20
-17.316731744733932
 10
-27.05654381361424
 20
-17.305111299820588
 10
-27.053771148081786
 20
-17.295802670326275
 10
-27.07014619031029
 20
-17.283647399299994
 10
-27.068326452570272
 20
-17.27732913922045
 10
-27.08572909856207
 20
-17.264654229890077
 10
-27.084811177693002
 20
-17.26135469707008
 10
-27.103255877142473
 20
-17.248175661352956
 10
-27.103187948991547
 20
-17.247922587395202
 10
-27.12526024224345
 20
-17.232453187024074
 10
-27.3087445442273
 20
-17.101350689203464
 10
-27.37201731028715
 20
-17.056141275728976
 10
-27.56165756964187
 20
-16.918020147836003
 10
-27.617198328343825
 20
-16.87756801883107
 10
-27.86078588796368
 20
-16.696751825230333
 10
-28.102762790386528
 20
-16.51371123842689
 10
-28.143220893436013
 20
-16.482528641782476
 10
-27.752945761524234
 20
-15.82383645973339
 10
-21.30274487668481
 20
-19.64558062156191
 10
-21.694079365129706
 20
-19.52154541496126
 10
-21.92206404327917
 20
-20.240843345299297
 10
-22.162374279999867
 20
-20.12918480193712
  0
LWPOLYLINE
  5
38
330
17
100
AcDbEntity
  8
TOOTH_009
100
AcDbPolyline
 90
167
 70
1
 10
-28.343112087419037
 20
-16.328464906586618
 10
-28.581817120065704
 20
-16.14103154375367
 10
-28.719644905269586
 20
-16.030789026819136
 10
-28.721092862831824
 20
-16.031670963717843
 10
-28.738320007542782
 20
-16.01814405299718
 10
-28.74242787335369
 20
-16.020697064102336
 10
-28.758950472418977
 20
-16.007962469464026
 10
-28.76569862459581
 20
-16.012241210123722
 10
-28.781500529335663
 20
-16.000288044812347
 10
-28.790868414028285
 20
-16.006347182398766
 10
-28.805933564448654
 20
-15.995164250235543
 10
-28.81789967117145
 20
-16.003058437910525
 10
-28.832212073210407
 20
-15.99263425309236
 10
-28.846753946267953
 20
-16.00241812604139
 10
-28.860297711928407
 20
-15.992740886687484
 10
-28.87739191938399
 20
-16.004469030267476
 10
-28.89015124433375
 20
-15.995526637926972
 10
-28.921732576793517
 20
-16.001033625951884
 10
-28.955000738899777
 20
-16.00930358351659
 10
-28.98991388021397
 20
-16.02037783526446
 10
-29.026429268606233
 20
-16.034297275718878
 10
-29.06450331165729
 20
-16.051102357752757
 10
-29.104091521650265
 20
-16.07083305836837
 10
-29.145148534719194
 20
-16.09352886341263
 10
-29.187628117819695
 20
-16.11922875051987
 10
-29.23148313136852
 20
-16.14797114296346
 10
-29.276665600432953
 20
-16.17979393055034
 10
-29.323126649757562
 20
-16.214734404429134
 10
-29.370816530987568
 20
-16.252829247607988
 10
-29.419684619675145
 20
-16.29411450546575
 10
-29.469679444938812
 20
-16.338625583557935
 10
-29.48538653802839
 20
-16.352960626835543
 10
-29.51969435074359
 20
-16.383688522787015
 10
-29.543522176629494
 20
-16.404632488984475
 10
-29.55652346917385
 20
-16.416060247139004
 10
-29.595899247100487
 20
-16.450025412959437
 10
-29.637846067349823
 20
-16.48553342264656
 10
-29.682387358164412
 20
-16.52253349902187
 10
-29.729545609045154
 20
-16.560974714385527
 10
-29.7793423568272
 20
-16.60080599377636
 10
-29.831798193437482
 20
-16.641976137165145
 10
-29.886932792982094
 20
-16.684433854508093
 10
-29.94476489611339
 20
-16.728127766977813
 10
-30.005312341108247
 20
-16.77300644370013
 10
-30.06859205903924
 20
-16.819018409552825
 10
-30.134620068948287
 20
-16.866112154020364
 10
-30.203411509231845
 20
-16.914236165130582
 10
-30.274980644385618
 20
-16.96333894425389
 10
-30.349340851475077
 20
-17.013369006801405
 10
-30.42650465824339
 20
-17.06427491851159
 10
-30.506483728080877
 20
-17.116005293519382
 10
-30.589288881424242
 20
-17.168508818507906
 10
-30.67493011995432
 20
-17.221734275007943
 10
-30.76341659342853
 20
-17.275630527238384
 10
-30.85475663846006
 20
-17.33014655433541
 10
-30.948957792892468
 20
-17.38523146566942
 10
-30.95372658910457
 20
-17.38796312632995
 10
-31.04602680413329
 20
-17.440834512553728
 10
-31.145969623302072
 20
-17.496905090910353
 10
-31.248791416490057
 20
-17.553392754951396
 10
-31.35449659402738
 20
-17.61024723893051
 10
-31.463088802274005
 20
-17.66741845820409
 10
-31.574570933943043
 20
-17.724856520539067
 10
-31.68894514354105
 20
-17.782511739281006
 10
-31.806212884488925
 20
-17.840334656880266
 10
-31.926374866732754
 20
-17.898276027407118
 10
-32.049431062492715
 20
-17.956286826020754
 10
-32.17538080829597
 20
-18.01431830122807
 10
-32.304222731697664
 20
-18.07232194230991
 10
-32.43595473962826
 20
-18.13024948061162
 10
-32.57057412782755
 20
-18.18805294125096
 10
-32.70807749520864
 20
-18.24568460806128
 10
-32.84846080703646
 20
-18.303097055421624
 10
-32.99171940492007
 20
-18.3602431536272
 10
-33.13784796524917
 20
-18.417076055992098
 10
-33.286840574896054
 20
-18.473549231756937
 10
-33.43869070714888
 20
-18.52961645840829
 10
-33.48280907414107
 20
-18.545477162869584
 10
-33.67869876982712
 20
-18.369219720585846
 10
-33.93542522371113
 20
-18.134072596255454
 10
-34.19002917224259
 20
-17.89669505875955
 10
-34.44249558497325
 20
-17.657110786621605
 10
-34.69280973070939
 20
-17.41534349458142
 10
-34.767316888175216
 20
-17.34210367127277
 10
-34.73775909639946
 20
-17.239476896155946
 10
-34.69112601459814
 20
-17.08291633175116
 10
-34.66739634861786
 20
-17.005807014097122
 10
-34.643922862971785
 20
-16.929530151935055
 10
-34.59620261069293
 20
-16.779304355503694
 10
-34.54801765826544
 20
-16.632224236350606
 10
-34.49941985870375
 20
-16.488274479713983
 10
-34.45046049267771
 20
-16.347439116259917
 10
-34.44880869058706
 20
-16.342821414662954
 10
-34.40119026364579
 20
-16.20970154069319
 10
-34.35165929392564
 20
-16.075044529249983
 10
-34.301917128306975
 20
-15.943450278139608
 10
-34.252012730397055
 20
-15.814900415720848
 10
-34.20199446884891
 20
-15.689375991918133
 10
-34.15191012412005
 20
-15.566857518483163
 10
-34.101806884903795
 20
-15.447324980480065
 10
-34.05173134334823
 20
-15.33075784518873
 10
-34.00172948186355
 20
-15.217135050909148
 10
-33.95184669375286
 20
-15.106435074727258
 10
-33.902127782817715
 20
-14.99863594425531
 10
-33.85261692492769
 20
-14.893715171130847
 10
-33.80335770069899
 20
-14.791649841074992
 10
-33.75439310335773
 20
-14.692416640140074
 10
-33.70576549943223
 20
-14.59599178933284
 10
-33.657516665405424
 20
-14.50235113349982
 10
-33.60968776707286
 20
-14.411470110875854
 10
-33.562319361107036
 20
-14.32332377089063
 10
-33.51545141284876
 20
-14.23788681774576
 10
-33.46912327329831
 20
-14.155133578683332
 10
-33.42337369424816
 20
-14.075038043065002
 10
-33.37824082742227
 20
-13.997573870137632
 10
-33.333762228273834
 20
-13.922714404727833
 10
-33.28997484000786
 20
-13.850432659705037
 10
-33.24691501959892
 20
-13.78070136905242
 10
-33.20461852642519
 20
-13.71349297563185
 10
-33.16312052072919
 20
-13.648779638270053
 10
-33.12245557748943
 20
-13.586533260239449
 10
-33.08265767674964
 20
-13.52672548192596
 10
-33.04376021052559
 20
-13.46932769804606
 10
-33.00579598722903
 20
-13.414311071490014
 10
-32.96879723316684
 20
-13.361646540601333
 10
-32.93279558772548
 20
-13.311304819653245
 10
-32.89782211857689
 20
-13.263256425298847
 10
-32.8639073170058
 20
-13.217471675850764
 10
-32.831081098672335
 20
-13.173920697446276
 10
-32.77818288337748
 20
-13.10494200711291
 10
-32.74373765421453
 20
-13.058040993463509
 10
-32.71188907492156
 20
-13.012248091959925
 10
-32.6826259758167
 20
-12.967608627622338
 10
-32.65593654721079
 20
-12.92416805441155
 10
-32.631808309807475
 20
-12.881971913353858
 10
-32.610228133871566
 20
-12.841065869138756
 10
-32.59118219555429
 20
-12.801495635605594
 10
-32.574656015030804
 20
-12.763307055270477
 10
-32.56063440631071
 20
-12.72654600289587
 10
-32.54910150038148
 20
-12.691258443121681
 10
-32.540040720929234
 20
-12.657490379225118
 10
-32.53343478811644
 20
-12.625287878612616
 10
-32.52926570113038
 20
-12.594697020053143
 10
-32.52751474146731
 20
-12.565763938529308
 10
-32.53715822091115
 20
-12.55397471371091
 10
-32.52816245792178
 20
-12.538534760771284
 10
-32.53858800464042
 20
-12.526009938590228
 10
-32.53118866464219
 20
-12.513055631410035
 10
-32.54241260769891
 20
-12.499804657725292
 10
-32.53657243156225
 20
-12.48937269355204
 10
-32.54861107293161
 20
-12.475405294874998
 10
-32.544292078281615
 20
-12.467532073254306
 10
-32.55716169016184
 20
-12.452858257108852
 10
-32.5543251694025
 20
-12.447579867048432
 10
-32.568041984356256
 20
-12.432209930409268
 10
-32.56664850436182
 20
-12.429562140238147
 10
-32.78434360077296
 20
-12.189840098164565
 10
-32.987025003067004
 20
-11.962731959598955
 10
-33.18776652798015
 20
-11.73384827167215
 10
-33.3865566825877
 20
-11.503209177335366
 10
-33.4279472467383
 20
-11.45434352703899
 10
-32.89636439915309
 20
-10.886949403441665
 10
-27.41002377731755
 20
-16.027017742689225
 10
-27.752945761524234
 20
-15.82383645973339
 10
-28.143220893436013
 20
-16.482528641782476
 10
-28.102762790386528
 20
-16.51371123842689
 10
-28.343112087419037
 20
-16.328464906586618
  0
LWPOLYLINE
  5
39
330
17
100
AcDbEntity
  8
TOOTH_010
100
AcDbPolyline
 90
164
 70
1
 10
-33.58338418660495
 20
-11.270834862623904
 10
-33.77823797621028
 20
-11.036745549902342
 10
-33.90913492853656
 20
-10.876723059264563
 10
-33.910919517562924
 20
-10.877347414053977
 10
-33.92420108817845
 20
-10.861391482462665
 10
-33.9287951700379
 20
-10.863043070669832
 10
-33.941572694748096
 20
-10.847957940351966
 10
-33.94897014288517
 20
-10.850689280754441
 10
-33.96122717934484
 20
-10.836468497064773
 10
-33.97142111134335
 20
-10.840332337793862
 10
-33.98314121352478
 20
-10.826969182306605
 10
-33.99612398328359
 20
-10.832018492889468
 10
-34.00729070625896
 20
-10.819505979949898
 10
-34.02305388901727
 20
-10.825793940346319
 10
-34.033650787622605
 20
-10.814124820484656
 10
-34.062195804225375
 20
-10.810871566044629
 10
-34.09289933342104
 20
-10.809791997183423
 10
-34.12573413423105
 20
-10.81093180361987
 10
-34.16067218994988
 20
-10.814336568863064
 10
-34.197684672152356
 20
-10.820051758779881
 10
-34.23674191855773
 20
-10.828122702047732
 10
-34.27781349652602
 20
-10.838594590106496
 10
-34.320868121916256
 20
-10.851512449333452
 10
-34.36587366874261
 20
-10.866921125252087
 10
-34.41279721537647
 20
-10.884865285578208
 10
-34.46160498002096
 20
-10.905389386259742
 10
-34.5122623447203
 20
-10.928537665227218
 10
-34.56473383734738
 20
-10.954354120856472
 10
-34.61898314024837
 20
-10.98288250169719
 10
-34.67497308506348
 20
-11.014166290276773
 10
-34.685831817322466
 20
-11.020386386589514
 10
-34.728387730113184
 20
-11.044261384938725
 10
-34.7736549150727
 20
-11.069130018880966
 10
-34.821644020828415
 20
-11.094941392627506
 10
-34.872364885212775
 20
-11.121644723430743
 10
-34.92582653889594
 20
-11.149189350994028
 10
-34.953474424398586
 20
-11.163126451779332
 10
-34.982037220956094
 20
-11.177524752665457
 10
-35.0410044046596
 20
-11.206600563086875
 10
-35.10273477508521
 20
-11.236366568929988
 10
-35.167234241614764
 20
-11.266772722317276
 10
-35.234507992008986
 20
-11.297769172156908
 10
-35.30456046223703
 20
-11.329306254441342
 10
-35.37739533111675
 20
-11.361334496650729
 10
-35.45301558695498
 20
-11.393804652252767
 10
-35.531423481116754
 20
-11.42666768475659
 10
-35.612620573306344
 20
-11.459874792641786
 10
-35.69660773649199
 20
-11.49337741479724
 10
-35.783385138566224
 20
-11.52712722803332
 10
-35.872952293358466
 20
-11.561076171456264
 10
-35.965308044940755
 20
-11.595176443742487
 10
-36.06045057997646
 20
-11.629380511861475
 10
-36.158377432083405
 20
-11.663641116528352
 10
-36.259085528828095
 20
-11.697911291987776
 10
-36.362571147740674
 20
-11.732144353418821
 10
-36.468829955748525
 20
-11.766293914605548
 10
-36.57785702483284
 20
-11.80031389482298
 10
-36.68964681549092
 20
-11.834158517156835
 10
-36.80419321048714
 20
-11.86778232126168
 10
-36.921489521711685
 20
-11.901140168151088
 10
-37.04152848055934
 20
-11.934187239173186
 10
-37.16430226260273
 20
-11.96687904660372
 10
-37.28980251046568
 20
-11.999171440489363
 10
-37.41802030596754
 20
-12.031020604455357
 10
-37.548946208184134
 20
-12.062383066996476
 10
-37.68257025833683
 20
-12.093215704809792
 10
-37.81888199034392
 20
-12.123475746513568
 10
-37.95787041644934
 20
-12.153120771480388
 10
-38.099524058076796
 20
-12.18210871857567
 10
-38.24383097716932
 20
-12.210397893753122
 10
-38.39077873877188
 20
-12.237946963214018
 10
-38.54035442840651
 20
-12.264714959611757
 10
-38.69254468306157
 20
-12.2906612883654
 10
-38.847335695377566
 20
-12.315745729761534
 10
-39.004713222556376
 20
-12.339928440872258
 10
-39.0858161760704
 20
-12.351713142853407
 10
-39.22691778361599
 20
-12.158335267810884
 10
-39.42912542722958
 20
-11.876245446978876
 10
-39.6289263914335
 20
-11.592498795872569
 10
-39.826312113120515
 20
-11.307119146430242
 10
-40.021274261530756
 20
-11.020130320377376
 10
-40.10127837483799
 20
-10.900216200830984
 10
-40.04832025106576
 20
-10.801668135135587
 10
-39.97082420151911
 20
-10.660398320687055
 10
-39.89345181996434
 20
-10.522192572522744
 10
-39.816246987293404
 20
-10.387027122840157
 10
-39.7392529771436
 20
-10.254877810463793
 10
-39.66251245435517
 20
-10.125720089195681
 10
-39.5860674509373
 20
-9.99952899938337
 10
-39.50995940623675
 20
-9.87627924739614
 10
-39.43422914592866
 20
-9.755945178381872
 10
-39.35891687833074
 20
-9.63850078319219
 10
-39.284062214786545
 20
-9.523919738363126
 10
-39.20970415375205
 20
-9.412175391362295
 10
-39.13588108486659
 20
-9.3032407751888
 10
-39.0626308024384
 20
-9.197088638162418
 10
-38.98999049815544
 20
-9.09369143883396
 10
-38.91799675415417
 20
-8.993021346506541
 10
-38.846685568240936
 20
-8.895050282552852
 10
-38.77609233823784
 20
-8.799749906354336
 10
-38.70625186726144
 20
-8.707091628987325
 10
-38.637198365863036
 20
-8.61704662344517
 10
-38.56896546644333
 20
-8.529585849341439
 10
-38.50158621353507
 20
-8.444680045916297
 10
-38.43509305815405
 20
-8.362299731302471
 10
-38.36951788061371
 20
-8.282415237475817
 10
-38.30489198996187
 20
-8.204996713282295
 10
-38.24124611754309
 20
-8.130014122539572
 10
-38.17861042050056
 20
-8.05743725301855
 10
-38.11701448747455
 20
-7.987235728574291
 10
-38.05648734654145
 20
-7.919379022556472
 10
-37.9970574760491
 20
-7.853836474047102
 10
-37.93875278237385
 20
-7.790577267034525
 10
-37.88160061993578
 20
-7.7295704578
 10
-37.825627800622335
 20
-7.670784987869593
 10
-37.77086058365426
 20
-7.614189677534319
 10
-37.71732468535501
 20
-7.559753239588634
 10
-37.70975973273718
 20
-7.552184010990547
 10
-37.665045281524826
 20
-7.507444285580156
 10
-37.63910746085855
 20
-7.48190587902008
 10
-37.614047022819925
 20
-7.45723134435356
 10
-37.564354013414295
 20
-7.409082843917463
 10
-37.51598983864565
 20
-7.362967142459601
 10
-37.468977552465255
 20
-7.318852518632683
 10
-37.42333969930256
 20
-7.2767071955491565
 10
-37.379098296041164
 20
-7.236499326357076
 10
-37.33627484871644
 20
-7.1981970129222095
 10
-37.262276540200055
 20
-7.133059998818755
 10
-37.22164364137334
 20
-7.095668124956239
 10
-37.183629840738305
 20
-7.058851930419846
 10
-37.14823309376425
 20
-7.022653685812552
 10
-37.1154508376661
 20
-6.987115874805468
 10
-37.085279995157784
 20
-6.952281202871825
 10
-37.0577169389729
 20
-6.918192561934976
 10
-37.03275751304281
 20
-6.8848930580805074
 10
-37.010396995776084
 20
-6.852425969338558
 10
-36.990630124878024
 20
-6.820834782934597
 10
-36.973451068811336
 20
-6.790163162125571
 10
-36.95885342313474
 20
-6.760454943229481
 10
-36.94683021073757
 20
-6.731754144308202
 10
-36.93737386559801
 20
-6.704104940343699
 10
-36.93047623596208
 20
-6.677551685128011
 10
-36.937282198639984
 20
-6.664643154911142
 10
-36.92612856502774
 20
-6.652138866332682
 10
-36.93351935042916
 20
-6.638394032193589
 10
-36.9243214951142
 20
-6.6279111409862255
 10
-36.932313400079174
 20
-6.613335239207862
 10
-36.92504505322032
 20
-6.604913302732082
 10
-36.93365441023699
 20
-6.589511806813708
 10
-36.92828864608893
 20
-6.583190283015767
 10
-36.93753182276646
 20
-6.566968902484643
 10
-36.934041054392736
 20
-6.562787139833958
 10
-36.94393444544916
 20
-6.545751832245807
 10
-36.942290422772956
 20
-6.543749063450447
 10
-37.092350948823544
 20
-6.290195292357579
 10
-37.245743722609426
 20
-6.026070174049859
 10
-37.396980304060975
 20
-5.7606564290204
 10
-37.54605426820009
 20
-5.493974254523559
 10
-37.58338619785515
 20
-5.425887040995156
 10
-36.93686403372107
 20
-4.973603746982548
 10
-32.61701473039543
 20
-11.148667821406049
 10
-32.89636439915309
 20
-10.886949403441665
 10
-33.4279472467383
 20
-11.45434352703899
 10
-33.58338418660495
 20
-11.270834862623904
  0
ENDSEC
  0
SECTION
  2
OBJECTS
  0
DICTIONARY
  5
A
330
0
100
AcDbDictionary
281
1
  3
ACAD_COLOR
350
B
  3
ACAD_GROUP
350
C
  3
ACAD_LAYOUT
350
D
  3
ACAD_MATERIAL
350
E
  3
ACAD_MLEADERSTYLE
350
F
  3
ACAD_MLINESTYLE
350
10
  3
ACAD_PLOTSETTINGS
350
11
  3
ACAD_PLOTSTYLENAME
350
12
  3
ACAD_SCALELIST
350
14
  3
ACAD_TABLESTYLE
350
15
  3
ACAD_VISUALSTYLE
350
16
  3
EZDXF_META
350
2D
  0
DICTIONARY
  5
B
330
A
100
AcDbDictionary
281
1
  0
DICTIONARY
  5
C
330
A
100
AcDbDictionary
281
1
  0
DICTIONARY
  5
D
330
A
100
AcDbDictionary
281
1
  3
Model
350
1A
  3
Layout1
350
1E
  0
DICTIONARY
  5
E
330
A
100
AcDbDictionary
281
1
  3
ByBlock
350
1F
  3
ByLayer
350
20
  3
Global
350
21
  0
DICTIONARY
  5
F
330
A
100
AcDbDictionary
281
1
  3
Standard
350
2C
  0
DICTIONARY
  5
10
330
A
100
AcDbDictionary
281
1
  3
Standard
350
22
  0
DICTIONARY
  5
11
330
A
100
AcDbDictionary
281
1
  0
ACDBDICTIONARYWDFLT
  5
12
330
A
100
AcDbDictionary
281
1
  3
Normal
350
13
100
AcDbDictionaryWithDefault
340
13
  0
ACDBPLACEHOLDER
  5
13
330
12
  0
DICTIONARY
  5
14
330
A
100
AcDbDictionary
281
1
  0
DICTIONARY
  5
15
330
A
100
AcDbDictionary
281
1
  0
DICTIONARY
  5
16
330
A
100
AcDbDictionary
281
1
  0
LAYOUT
  5
1A
330
D
100
AcDbPlotSettings
  1

  4
A3
  6

 40
7.5
 41
20.0
 42
7.5
 43
20.0
 44
420.0
 45
297.0
 46
0.0
 47
0.0
 48
0.0
 49
0.0
140
0.0
141
0.0
142
1.0
143
1.0
 70
1024
 72
1
 73
0
 74
5
  7

 75
16
 76
0
 77
2
 78
300
147
1.0
148
0.0
149
0.0
100
AcDbLayout
  1
Model
 70
1
 71
0
 10
0.0
 20
0.0
 11
420.0
 21
297.0
 12
0.0
 22
0.0
 32
0.0
 14
1e+20
 24
1e+20
 34
1e+20
 15
-1e+20
 25
-1e+20
 35
-1e+20
146
0.0
 13
0.0
 23
0.0
 33
0.0
 16
1.0
 26
0.0
 36
0.0
 17
0.0
 27
1.0
 37
0.0
 76
1
330
17
  0
LAYOUT
  5
1E
330
D
100
AcDbPlotSettings
  1

  4
A3
  6

 40
7.5
 41
20.0
 42
7.5
 43
20.0
 44
420.0
 45
297.0
 46
0.0
 47
0.0
 48
0.0
 49
0.0
140
0.0
141
0.0
142
1.0
143
1.0
 70
0
 72
1
 73
0
 74
5
  7

 75
16
 76
0
 77
2
 78
300
147
1.0
148
0.0
149
0.0
100
AcDbLayout
  1
Layout1
 70
1
 71
1
 10
0.0
 20
0.0
 11
420.0
 21
297.0
 12
0.0
 22
0.0
 32
0.0
 14
1e+20
 24
1e+20
 34
1e+20
 15
-1e+20
 25
-1e+20
 35
-1e+20
146
0.0
 13
0.0
 23
0.0
 33
0.0
 16
1.0
 26
0.0
 36
0.0
 17
0.0
 27
1.0
 37
0.0
 76
1
330
1B
  0
MATERIAL
  5
1F
102
{ACAD_REACTORS
330
E
102
}
330
E
100
AcDbMaterial
  1
ByBlock
  2

 70
0
 40
1.0
 71
1
 41
1.0
 91
-1023410177
 42
1.0
 72
1
  3

 73
1
 74
1
 75
1
 44
0.5
 73
0
 45
1.0
 46
1.0
 77
1
  4

 78
1
 79
1
170
1
 48
1.0
171
1
  6

172
1
173
1
174
1
140
1.0
141
1.0
175
1
  7

176
1
177
1
178
1
143
1.0
179
1
  8

270
1
271
1
272
1
145
1.0
146
1.0
273
1
  9

274
1
275
1
276
1
 42
1.0
 72
1
  3

 73
1
 74
1
 75
1
 94
63
  0
MATERIAL
  5
20
102
{ACAD_REACTORS
330
E
102
}
330
E
100
AcDbMaterial
  1
ByLayer
  2

 70
0
 40
1.0
 71
1
 41
1.0
 91
-1023410177
 42
1.0
 72
1
  3

 73
1
 74
1
 75
1
 44
0.5
 73
0
 45
1.0
 46
1.0
 77
1
  4

 78
1
 79
1
170
1
 48
1.0
171
1
  6

172
1
173
1
174
1
140
1.0
141
1.0
175
1
  7

176
1
177
1
178
1
143
1.0
179
1
  8

270
1
271
1
272
1
145
1.0
146
1.0
273
1
  9

274
1
275
1
276
1
 42
1.0
 72
1
  3

 73
1
 74
1
 75
1
 94
63
  0
MATERIAL
  5
21
102
{ACAD_REACTORS
330
E
102
}
330
E
100
AcDbMaterial
  1
Global
  2

 70
0
 40
1.0
 71
1
 41
1.0
 91
-1023410177
 42
1.0
 72
1
  3

 73
1
 74
1
 75
1
 44
0.5
 73
0
 45
1.0
 46
1.0
 77
1
  4

 78
1
 79
1
170
1
 48
1.0
171
1
  6

172
1
173
1
174
1
140
1.0
141
1.0
175
1
  7

176
1
177
1
178
1
143
1.0
179
1
  8

270
1
271
1
272
1
145
1.0
146
1.0
273
1
  9

274
1
275
1
276
1
 42
1.0
 72
1
  3

 73
1
 74
1
 75
1
 94
63
  0
MLINESTYLE
  5
22
102
{ACAD_REACTORS
330
10
102
}
330
10
100
AcDbMlineStyle
  2
Standard
 70
0
  3

 62
256
 51
90.0
 52
90.0
 71
2
 49
0.5
 62
256
  6
BYLAYER
 49
-0.5
 62
256
  6
BYLAYER
  0
MLEADERSTYLE
  5
2C
102
{ACAD_REACTORS
330
F
102
}
330
F
100
AcDbMLeaderStyle
179
2
170
2
171
1
172
0
 90
2
 40
0.0
 41
0.0
173
1
 91
-1056964608
 92
-2
290
1
 42
2.0
291
1
 43
8.0
  3
Standard
 44
4.0
300

342
29
174
1
175
1
176
0
178
1
 93
-1056964608
 45
4.0
292
0
297
0
 46
4.0
 94
-1056964608
 47
1.0
 49
1.0
140
1.0
294
1
141
0.0
177
0
142
1.0
295
0
296
0
143
3.75
271
0
272
9
273
9
  0
DICTIONARY
  5
2D
330
A
100
AcDbDictionary
280
1
281
1
  3
CREATED_BY_EZDXF
350
2E
  3
WRITTEN_BY_EZDXF
350
3C
  0
DICTIONARYVAR
  5
2E
330
2D
100
DictionaryVariables
280
0
  1
1.4.4 @ 2026-07-26T20:09:58.464591+00:00
  0
DICTIONARYVAR
  5
3C
330
2D
100
DictionaryVariables
280
0
  1
1.4.4 @ 2026-07-26T20:09:58.467391+00:00
  0
ENDSEC
  0
EOF
