  0
SECTION
  2
HEADER
  9
$ACADVER
  1
AC1024
  9
$ACADMAINTVER
 70
6
  9
$DWGCODEPAGE
  3
ANSI_1252
  9
$LASTSAVEDBY
  1
ezdxf
  9
$INSBASE
 10
0.0
 20
0.0
 30
0.0
  9
$EXTMIN
 10
1e+20
 20
1e+20
 30
1e+20
  9
$EXTMAX
 10
-1e+20
 20
-1e+20
 30
-1e+20
  9
$LIMMIN
 10
0.0
 20
0.0
  9
$LIMMAX
 10
420.0
 20
297.0
  9
$ORTHOMODE
 70
0
  9
$REGENMODE
 70
1
  9
$FILLMODE
 70
1
  9
$QTEXTMODE
 70
0
  9
$MIRRTEXT
 70
1
  9
$LTSCALE
 40
1.0
  9
$ATTMODE
 70
1
  9
$TEXTSIZE
 40
2.5
  9
$TRACEWID
 40
1.0
  9
$TEXTSTYLE
  7
Standard
  9
$CLAYER
  8
0
  9
$CELTYPE
  6
ByLayer
  9
$CECOLOR
 62
256
  9
$CELTSCALE
 40
1.0
  9
$DISPSILH
 70
0
  9
$DIMSCALE
 40
1.0
  9
$DIMASZ
 40
2.5
  9
$DIMEXO
 40
0.625
  9
$DIMDLI
 40
3.75
  9
$DIMRND
 40
0.0
  9
$DIMDLE
 40
0.0
  9
$DIMEXE
 40
1.25
  9
$DIMTP
 40
0.0
  9
$DIMTM
 40
0.0
  9
$DIMTXT
 40
2.5
  9
$DIMCEN
 40
2.5
  9
$DIMTSZ
 40
0.0
  9
$DIMTOL
 70
0
  9
$DIMLIM
 70
0
  9
$DIMTIH
 70
0
  9
$DIMTOH
 70
0
  9
$DIMSE1
 70
0
  9
$DIMSE2
 70
0
  9
$DIMTAD
 70
1
  9
$DIMZIN
 70
8
  9
$DIMBLK
  1

  9
$DIMASO
 70
1
  9
$DIMSHO
 70
1
  9
$DIMPOST
  1

  9
$DIMAPOST
  1

  9
$DIMALT
 70
0
  9
$DIMALTD
 70
3
  9
$DIMALTF
 40
0.03937007874
  9
$DIMLFAC
 40
1.0
  9
$DIMTOFL
 70
1
  9
$DIMTVP
 40
0.0
  9
$DIMTIX
 70
0
  9
$DIMSOXD
 70
0
  9
$DIMSAH
 70
0
  9
$DIMBLK1
  1

  9
$DIMBLK2
  1

  9
$DIMSTYLE
  2
ISO-25
  9
$DIMCLRD
 70
0
  9
$DIMCLRE
 70
0
  9
$DIMCLRT
 70
0
  9
$DIMTFAC
 40
1.0
  9
$DIMGAP
 40
0.625
  9
$DIMJUST
 70
0
  9
$DIMSD1
 70
0
  9
$DIMSD2
 70
0
  9
$DIMTOLJ
 70
0
  9
$DIMTZIN
 70
8
  9
$DIMALTZ
 70
0
  9
$DIMALTTZ
 70
0
  9
$DIMUPT
 70
0
  9
$DIMDEC
 70
2
  9
$DIMTDEC
 70
2
  9
$DIMALTU
 70
2
  9
$DIMALTTD
 70
3
  9
$DIMTXSTY
  7
Standard
  9
$DIMAUNIT
 70
0
  9
$DIMADEC
 70
0
  9
$DIMALTRND
 40
0.0
  9
$DIMAZIN
 70
0
  9
$DIMDSEP
 70
44
  9
$DIMATFIT
 70
3
  9
$DIMFRAC
 70
0
  9
$DIMLDRBLK
  1

  9
$DIMLUNIT
 70
2
  9
$DIMLWD
 70
-2
  9
$DIMLWE
 70
-2
  9
$DIMTMOVE
 70
0
  9
$DIMFXL
 40
1.0
  9
$DIMFXLON
 70
0
  9
$DIMJOGANG
 40
0.785398163397
  9
$DIMTFILL
 70
0
  9
$DIMTFILLCLR
 70
0
  9
$DIMARCSYM
 70
0
  9
$DIMLTYPE
  6

  9
$DIMLTEX1
  6

  9
$DIMLTEX2
  6

  9
$DIMTXTDIRECTION
 70
0
  9
$LUNITS
 70
2
  9
$LUPREC
 70
4
  9
$SKETCHINC
 40
1.0
  9
$FILLETRAD
 40
10.0
  9
$AUNITS
 70
0
  9
$AUPREC
 70
2
  9
$MENU
  1
.
  9
$ELEVATION
 40
0.0
  9
$PELEVATION
 40
0.0
  9
$THICKNESS
 40
0.0
  9
$LIMCHECK
 70
0
  9
$CHAMFERA
 40
0.0
  9
$CHAMFERB
 40
0.0
  9
$CHAMFERC
 40
0.0
  9
$CHAMFERD
 40
0.0
  9
$SKPOLY
 70
0
  9
$TDCREATE
 40
2461248.673587963
  9
$TDUCREATE
 40
2458532.153996898
  9
$TDUPDATE
 40
2461248.673587963
  9
$TDUUPDATE
 40
2458532.1544311
  9
$TDINDWG
 40
0.0
  9
$TDUSRTIMER
 40
0.0
  9
$USRTIMER
 70
1
  9
$ANGBASE
 50
0.0
  9
$ANGDIR
 70
0
  9
$PDMODE
 70
0
  9
$PDSIZE
 40
0.0
  9
$PLINEWID
 40
0.0
  9
$SPLFRAME
 70
0
  9
$SPLINETYPE
 70
6
  9
$SPLINESEGS
 70
8
  9
$HANDSEED
  5
3D
  9
$SURFTAB1
 70
6
  9
$SURFTAB2
 70
6
  9
$SURFTYPE
 70
6
  9
$SURFU
 70
6
  9
$SURFV
 70
6
  9
$UCSBASE
  2

  9
$UCSNAME
  2

  9
$UCSORG
 10
0.0
 20
0.0
 30
0.0
  9
$UCSXDIR
 10
1.0
 20
0.0
 30
0.0
  9
$UCSYDIR
 10
0.0
 20
1.0
 30
0.0
  9
$UCSORTHOREF
  2

  9
$UCSORTHOVIEW
 70
0
  9
$UCSORGTOP
 10
0.0
 20
0.0
 30
0.0
  9
$UCSORGBOTTOM
 10
0.0
 20
0.0
 30
0.0
  9
$UCSORGLEFT
 10
0.0
 20
0.0
 30
0.0
  9
$UCSORGRIGHT
 10
0.0
 20
0.0
 30
0.0
  9
$UCSORGFRONT
 10
0.0
 20
0.0
 30
0.0
  9
$UCSORGBACK
 10
0.0
 20
0.0
 30
0.0
  9
$PUCSBASE
  2

  9
$PUCSNAME
  2

  9
$PUCSORG
 10
0.0
 20
0.0
 30
0.0
  9
$PUCSXDIR
 10
1.0
 20
0.0
 30
0.0
  9
$PUCSYDIR
 10
0.0
 20
1.0
 30
0.0
  9
$PUCSORTHOREF
  2

  9
$PUCSORTHOVIEW
 70
0
  9
$PUCSORGTOP
 10
0.0
 20
0.0
 30
0.0
  9
$PUCSORGBOTTOM
 10
0.0
 20
0.0
 30
0.0
  9
$PUCSORGLEFT
 10
0.0
 20
0.0
 30
0.0
  9
$PUCSORGRIGHT
 10
0.0
 20
0.0
 30
0.0
  9
$PUCSORGFRONT
 10
0.0
 20
0.0
 30
0.0
  9
$PUCSORGBACK
 10
0.0
 20
0.0
 30
0.0
  9
$USERI1
 70
0
  9
$USERI2
 70
0
  9
$USERI3
 70
0
  9
$USERI4
 70
0
  9
$USERI5
 70
0
  9
$USERR1
 40
0.0
  9
$USERR2
 40
0.0
  9
$USERR3
 40
0.0
  9
$USERR4
 40
0.0
  9
$USERR5
 40
0.0
  9
$WORLDVIEW
 70
1
  9
$SHADEDGE
 70
3
  9
$SHADEDIF
 70
70
  9
$TILEMODE
 70
1
  9
$MAXACTVP
 70
64
  9
$PINSBASE
 10
0.0
 20
0.0
 30
0.0
  9
$PLIMCHECK
 70
0
  9
$PEXTMIN
 10
1e+20
 20
1e+20
 30
1e+20
  9
$PEXTMAX
 10
-1e+20
 20
-1e+20
 30
-1e+20
  9
$PLIMMIN
 10
0.0
 20
0.0
  9
$PLIMMAX
 10
420.0
 20
297.0
  9
$UNITMODE
 70
0
  9
$VISRETAIN
 70
1
  9
$PLINEGEN
 70
0
  9
$PSLTSCALE
 70
1
  9
$TREEDEPTH
 70
3020
  9
$CMLSTYLE
  2
Standard
  9
$CMLJUST
 70
0
  9
$CMLSCALE
 40
20.0
  9
$PROXYGRAPHICS
 70
1
  9
$MEASUREMENT
 70
1
  9
$CELWEIGHT
370
-1
  9
$ENDCAPS
280
0
  9
$JOINSTYLE
280
0
  9
$LWDISPLAY
290
0
  9
$INSUNITS
 70
4
  9
$HYPERLINKBASE
  1

  9
$STYLESHEET
  1

  9
$XEDIT
290
1
  9
$CEPSNTYPE
380
0
  9
$PSTYLEMODE
290
1
  9
$FINGERPRINTGUID
  2
{EDD3CCC8-65CF-4E89-8142-357DAB5628CD}
  9
$VERSIONGUID
  2
{05502716-41C2-4D49-BCE3-31A0D1AA5852}
  9
$EXTNAMES
290
1
  9
$PSVPSCALE
 40
0.0
  9
$OLESTARTUP
290
0
  9
$SORTENTS
280
127
  9
$INDEXCTL
280
0
  9
$HIDETEXT
280
1
  9
$XCLIPFRAME
280
1
  9
$HALOGAP
280
0
  9
$OBSCOLOR
 70
257
  9
$OBSLTYPE
280
0
  9
$INTERSECTIONDISPLAY
280
0
  9
$INTERSECTIONCOLOR
 70
257
  9
$DIMASSOC
280
2
  9
$PROJECTNAME
  1

  9
$CAMERADISPLAY
290
0
  9
$LENSLENGTH
 40
50.0
  9
$CAMERAHEIGHT
 40
0.0
  9
$STEPSPERSEC
 40
24.0
  9
$STEPSIZE
 40
100.0
  9
$3DDWFPREC
 40
2.0
  9
$PSOLWIDTH
 40
0.005
  9
$PSOLHEIGHT
 40
0.08
  9
$LOFTANG1
 40
1.570796326795
  9
$LOFTANG2
 40
1.570796326795
  9
$LOFTMAG1
 40
0.0
  9
$LOFTMAG2
 40
0.0
  9
$LOFTPARAM
 70
7
  9
$LOFTNORMALS
280
1
  9
$LATITUDE
 40
37.795
  9
$LONGITUDE
 40
-122.394
  9
$NORTHDIRECTION
 40
0.0
  9
$TIMEZONE
 70
-8000
  9
$LIGHTGLYPHDISPLAY
280
1
  9
$TILEMODELIGHTSYNCH
280
1
  9
$CMATERIAL
347
20
  9
$SOLIDHIST
280
0
  9
$SHOWHIST
280
1
  9
$DWFFRAME
280
2
  9
$DGNFRAME
280
2
  9
$REALWORLDSCALE
290
1
  9
$INTERFERECOLOR
 62
256
  9
$CSHADOW
280
0
  9
$SHADOWPLANELOCATION
 40
0.0
  0
ENDSEC
  0
SECTION
  2
CLASSES
  0
CLASS
  1
ACDBDICTIONARYWDFLT
  2
AcDbDictionaryWithDefault
  3
ObjectDBX Classes
 90
0
 91
0
280
0
281
0
  0
CLASS
  1
SUN
  2
AcDbSun
  3
SCENEOE
 90
1153
 91
0
280
0
281
0
  0
CLASS
  1
VISUALSTYLE
  2
AcDbVisualStyle
  3
ObjectDBX Classes
 90
4095
 91
0
280
0
281
0
  0
CLASS
  1
MATERIAL
  2
AcDbMaterial
  3
ObjectDBX Classes
 90
1153
 91
0
280
0
281
0
  0
CLASS
  1
SCALE
  2
AcDbScale
  3
ObjectDBX Classes
 90
1153
 91
0
280
0
281
0
  0
CLASS
  1
TABLESTYLE
  2
AcDbTableStyle
  3
ObjectDBX Classes
 90
4095
 91
0
280
0
281
0
  0
CLASS
  1
MLEADERSTYLE
  2
AcDbMLeaderStyle
  3
ACDB_MLEADERSTYLE_CLASS
 90
4095
 91
0
280
0
281
0
  0
CLASS
  1
DICTIONARYVAR
  2
AcDbDictionaryVar
  3
ObjectDBX Classes
 90
0
 91
0
280
0
281
0
  0
CLASS
  1
CELLSTYLEMAP
  2
AcDbCellStyleMap
  3
ObjectDBX Classes
 90
1152
 91
0
280
0
281
0
  0
CLASS
  1
MENTALRAYRENDERSETTINGS
  2
AcDbMentalRayRenderSettings
  3
SCENEOE
 90
1024
 91
0
280
0
281
0
  0
CLASS
  1
ACDBDETAILVIEWSTYLE
  2
AcDbDetailViewStyle
  3
ObjectDBX Classes
 90
1025
 91
0
280
0
281
0
  0
CLASS
  1
ACDBSECTIONVIEWSTYLE
  2
AcDbSectionViewStyle
  3
ObjectDBX Classes
 90
1025
 91
0
280
0
281
0
  0
CLASS
  1
RASTERVARIABLES
  2
AcDbRasterVariables
  3
ISM
 90
0
 91
0
280
0
281
0
  0
CLASS
  1
ACDBPLACEHOLDER
  2
AcDbPlaceHolder
  3
ObjectDBX Classes
 90
0
 91
0
280
0
281
0
  0
CLASS
  1
LAYOUT
  2
AcDbLayout
  3
ObjectDBX Classes
 90
0
 91
0
280
0
281
0
  0
ENDSEC
  0
SECTION
  2
TABLES
  0
TABLE
  2
VPORT
  5
8
330
0
100
AcDbSymbolTable
 70
1
  0
VPORT
  5
23
330
8
100
AcDbSymbolTableRecord
100
AcDbViewportTableRecord
  2
*Active
 70
0
 10
0.0
 20
0.0
 11
1.0
 21
1.0
 12
0.0
 22
0.0
 13
0.0
 23
0.0
 14
0.5
 24
0.5
 15
0.5
 25
0.5
 16
0.0
 26
0.0
 36
1.0
 17
0.0
 27
0.0
 37
0.0
 40
1000.0
 41
1.34
 42
50.0
 43
0.0
 44
0.0
 50
0.0
 51
0.0
 71
0
 72
1000
 73
1
 74
3
 75
0
 76
0
 77
0
 78
0
281
0
 65
0
146
0.0
  0
ENDTAB
  0
TABLE
  2
LTYPE
  5
2
330
0
100
AcDbSymbolTable
 70
3
  0
LTYPE
  5
24
330
2
100
AcDbSymbolTableRecord
100
AcDbLinetypeTableRecord
  2
ByBlock
 70
0
  3

 72
65
 73
0
 40
0.0
  0
LTYPE
  5
25
330
2
100
AcDbSymbolTableRecord
100
AcDbLinetypeTableRecord
  2
ByLayer
 70
0
  3

 72
65
 73
0
 40
0.0
  0
LTYPE
  5
26
330
2
100
AcDbSymbolTableRecord
100
AcDbLinetypeTableRecord
  2
Continuous
 70
0
  3

 72
65
 73
0
 40
0.0
  0
ENDTAB
  0
TABLE
  2
LAYER
  5
1
330
0
100
AcDbSymbolTable
 70
2
  0
LAYER
  5
27
330
1
100
AcDbSymbolTableRecord
100
AcDbLayerTableRecord
  2
0
 70
0
 62
7
  6
Continuous
370
-3
390
13
347
21
  0
LAYER
  5
28
330
1
100
AcDbSymbolTableRecord
100
AcDbLayerTableRecord
  2
Defpoints
 70
0
 62
7
  6
Continuous
290
0
370
-3
390
13
347
21
  0
ENDTAB
  0
TABLE
  2
STYLE
  5
5
330
0
100
AcDbSymbolTable
 70
1
  0
STYLE
  5
29
330
5
100
AcDbSymbolTableRecord
100
AcDbTextStyleTableRecord
  2
Standard
 70
0
 40
0.0
 41
1.0
 50
0.0
 71
0
 42
2.5
  3
txt
  4

  0
ENDTAB
  0
TABLE
  2
VIEW
  5
7
330
0
100
AcDbSymbolTable
 70
0
  0
ENDTAB
  0
TABLE
  2
UCS
  5
6
330
0
100
AcDbSymbolTable
 70
0
  0
ENDTAB
  0
TABLE
  2
APPID
  5
3
330
0
100
AcDbSymbolTable
 70
3
  0
APPID
  5
2A
330
3
100
AcDbSymbolTableRecord
100
AcDbRegAppTableRecord
  2
ACAD
 70
0
  0
APPID
  5
3A
330
3
100
AcDbSymbolTableRecord
100
AcDbRegAppTableRecord
  2
HATCHBACKGROUNDCOLOR
 70
0
  0
APPID
  5
3B
330
3
100
AcDbSymbolTableRecord
100
AcDbRegAppTableRecord
  2
EZDXF
 70
0
  0
ENDTAB
  0
TABLE
  2
DIMSTYLE
  5
4
330
0
100
AcDbSymbolTable
 70
1
100
AcDbDimStyleTable
  0
DIMSTYLE
105
2B
330
4
100
AcDbSymbolTableRecord
100
AcDbDimStyleTableRecord
  2
Standard
 70
0
 40
1.0
 41
2.5
 42
0.625
 43
3.75
 44
1.25
 45
0.0
 46
0.0
 47
0.0
 48
0.0
 49
2.5
140
2.5
141
2.5
142
0.0
143
0.03937007874
144
1.0
145
0.0
146
1.0
147
0.625
148
0.0
 69
0
 70
0
 71
0
 72
0
 73
0
 74
0
 75
0
 76
0
 77
1
 78
8
 79
3
170
0
171
3
172
1
173
0
174
0
175
0
176
0
177
0
178
0
179
2
271
2
272
2
273
2
274
3
275
0
276
0
277
2
278
44
279
0
280
0
281
0
282
0
283
0
284
8
285
0
286
0
288
0
289
3
290
0
371
-2
372
-2
  0
ENDTAB
  0
TABLE
  2
BLOCK_RECORD
  5
9
330
0
100
AcDbSymbolTable
 70
2
  0
BLOCK_RECORD
  5
17
330
9
100
AcDbSymbolTableRecord
100
AcDbBlockTableRecord
  2
*Model_Space
340
1A
 70
0
280
1
281
0
  0
BLOCK_RECORD
  5
1B
330
9
100
AcDbSymbolTableRecord
100
AcDbBlockTableRecord
  2
*Paper_Space
340
1E
 70
0
280
1
281
0
  0
ENDTAB
  0
ENDSEC
  0
SECTION
  2
BLOCKS
  0
BLOCK
  5
18
330
17
100
AcDbEntity
  8
0
100
AcDbBlockBegin
  2
*Model_Space
 70
0
 10
0.0
 20
0.0
 30
0.0
  3
*Model_Space
  1

  0
ENDBLK
  5
19
330
17
100
AcDbEntity
  8
0
100
AcDbBlockEnd
  0
BLOCK
  5
1C
330
1B
100
AcDbEntity
  8
0
100
AcDbBlockBegin
  2
*Paper_Space
 70
0
 10
0.0
 20
0.0
 30
0.0
  3
*Paper_Space
  1

  0
ENDBLK
  5
1D
330
1B
100
AcDbEntity
  8
0
100
AcDbBlockEnd
  0
ENDSEC
  0
SECTION
  2
ENTITIES
  0
TEXT
  5
2F
330
17
100
AcDbEntity
  8
RESEARCH_ONLY
100
AcDbText
 10
0.0
 20
0.0
 30
0.0
 40
3.0
  1
RESEARCH BENCH PROTOTYPE — NOT FOR HUMAN USE
100
AcDbText
  0
LWPOLYLINE
  5
30
330
17
100
AcDbEntity
  8
TOOTH_001
100
AcDbPolyline
 90
28
 70
1
 10
-106.06974547849804
 20
-7.753117185742402
 10
-106.05284646528727
 20
-7.747744388999106
 10
-106.10465638425896
 20
-7.682571850478377
 10
-106.14892346772103
 20
-7.612058356714054
 10
-106.1851022092576
 20
-7.537072850501717
 10
-106.21274677566517
 20
-7.458539383564203
 10
-106.23151650098704
 20
-7.377425729396544
 10
-106.24118008456396
 20
-7.294731457324405
 10
-106.24161844136863
 20
-7.2114756147402295
 10
-106.232826169499
 20
-7.1286841693098015
 10
-106.21491161674625
 20
-7.047377365899768
 10
-106.18809554541728
 20
-6.968557154027632
 10
-106.15270841186509
 20
-6.893194840766639
 10
-104.89378089048682
 20
-4.558500566590045
 10
-103.13994996404499
 20
-2.467323746973495
 10
-103.76081278122159
 20
-1.392567301142645
 10
-103.26746275629303
 20
-1.0703894447535287
 10
-99.82725580284234
 20
-6.338368458787508
 10
-104.16067518177078
 20
-8.059806673948032
 10
-105.50768962490955
 20
-8.297662691228467
 10
-105.50871207821852
 20
-8.297162637847185
 10
-105.5789883435025
 20
-8.252519900265096
 10
-105.64388347840816
 20
-8.20036293575732
 10
-105.70259777557547
 20
-8.141334478304675
 10
-105.80358895253444
 20
-8.164364194670815
 10
-105.81472878994536
 20
-8.1469856785607
 10
-105.98686701055611
 20
-7.880446306885718
 10
-106.06974547849804
 20
-7.753117185742402
  0
LWPOLYLINE
  5
31
330
17
100
AcDbEntity
  8
TOOTH_002
100
AcDbPolyline
 90
44
 70
1
 10
-99.7232360751475
 20
-14.233408361166045
 10
-99.80463731913397
 20
-14.250888777595401
 10
-99.88747450435326
 20
-14.259239120464528
 10
-99.97072682228409
 20
-14.258356487904733
 10
-100.05336834869519
 20
-14.248251756659787
 10
-100.13438068618265
 20
-14.229049448051034
 10
-100.21276551395349
 20
-14.200986193492321
 10
-100.28755689020365
 20
-14.164407818464232
 10
-100.35783315548763
 20
-14.11976508088214
 10
-100.4227282903933
 20
-14.067608116374364
 10
-100.48144258756061
 20
-14.00857965892172
 10
-101.90517611543872
 20
-14.607907094608175
 10
-101.98783280050714
 20
-14.465944202722003
 10
-102.12694158547106
 20
-14.227433120997944
 10
-102.12553867324249
 20
-14.226959422417355
 10
-102.06527931611254
 20
-14.205667473537254
 10
-102.00093650251992
 20
-14.181928957576062
 10
-101.93230915774635
 20
-14.155541390990049
 10
-101.85918996123222
 20
-14.126287117850564
 10
-101.78136564511499
 20
-14.093932234794288
 10
-101.69861732165162
 20
-14.05822543731343
 10
-101.61072080157739
 20
-14.018896758681802
 10
-101.51744728225334
 20
-13.975656363277022
 10
-101.41856392409714
 20
-13.92819318384161
 10
-101.31383468064827
 20
-13.87617355608046
 10
-101.2030214119796
 20
-13.81923987558583
 10
-101.08588502485654
 20
-13.757009151793586
 10
-100.96218698914602
 20
-13.689071635246126
 10
-100.83169127727241
 20
-13.614989569616146
 10
-100.8835011962441
 20
-13.549817031095417
 10
-100.92776827970616
 20
-13.479303537331095
 10
-100.96394702124273
 20
-13.404318031118759
 10
-100.9915915876503
 20
-13.325784564181244
 10
-101.01036131297218
 20
-13.244670910013586
 10
-101.02002489654909
 20
-13.161976637941446
 10
-101.02046325335377
 20
-13.07872079535727
 10
-101.01167098148413
 20
-12.995929349926843
 10
-100.99375642873139
 20
-12.914622546516808
 10
-100.96694035740241
 20
-12.835802334644672
 10
-100.93155322385022
 20
-12.76044002138368
 10
-98.5804921106179
 20
-8.400372562302772
 10
-96.02980722242602
 20
-12.771176938773637
 10
-99.6442738857093
 20
-14.207013283590591
 10
-99.7232360751475
 20
-14.233408361166045
  0
LWPOLYLINE
  5
32
330
17
100
AcDbEntity
  8
TOOTH_003
100
AcDbPolyline
 90
55
 70
1
 10
-97.18661890367297
 20
-21.69611716488671
 10
-97.26866734050418
 20
-21.710251573068206
 10
-97.35177686533548
 20
-21.71520479054831
 10
-97.43492331358514
 20
-21.710915778475947
 10
-97.51708206566153
 20
-21.697437390651736
 10
-97.59724067342317
 20
-21.67493572220685
 10
-97.67441133664916
 20
-21.643688062800898
 10
-97.74764307577146
 20
-21.604079479561747
 10
-97.81603345086373
 20
-21.55659807187592
 10
-97.8787396824727
 20
-21.5018289565052
 10
-97.93498903724925
 20
-21.44044705715115
 10
-97.98097646219067
 20
-21.37747031290069
 10
-98.06276298322176
 20
-21.237576800814065
 10
-98.22795183471851
 20
-20.954577586076788
 10
-98.24705801147783
 20
-20.92179653247668
 10
-98.21753946555137
 20
-20.910152988667612
 10
-98.16086548614447
 20
-20.887283483759198
 10
-98.10050918658033
 20
-20.862375350070543
 10
-98.03629318973327
 20
-20.835279973233117
 10
-97.96803369853282
 20
-20.805838504082608
 10
-97.89554006250665
 20
-20.7738809600196
 10
-97.81861490422945
 20
-20.73922549774805
 10
-97.73705386990781
 20
-20.70167745265551
 10
-97.65064577345419
 20
-20.661028476896906
 10
-97.55917258131895
 20
-20.617055526650798
 10
-97.46240935102001
 20
-20.56951973386336
 10
-97.36012450690632
 20
-20.518165342700712
 10
-97.25208014730146
 20
-20.46271856597083
 10
-97.1380321375419
 20
-20.402886221713757
 10
-97.01773064969487
 20
-20.338354476860985
 10
-96.8909207240918
 20
-20.26878748374854
 10
-96.75734279781976
 20
-20.19382586430319
 10
-96.61673377420588
 20
-20.11308535421855
 10
-96.46882789020678
 20
-20.0261551959909
 10
-96.31335793754981
 20
-19.932596580320098
 10
-96.15005686765628
 20
-19.831941167070372
 10
-95.97865939243016
 20
-19.72368945547129
 10
-95.79890409348562
 20
-19.607309316024864
 10
-95.61053608925754
 20
-19.48223475023319
 10
-95.66234600822922
 20
-19.417062211712462
 10
-95.7066130916913
 20
-19.34654871794814
 10
-95.74279183322786
 20
-19.271563211735803
 10
-95.77043639963543
 20
-19.193029744798288
 10
-95.7892061249573
 20
-19.111916090630626
 10
-95.79886970853423
 20
-19.02922181855849
 10
-95.79930806533889
 20
-18.945965975974314
 10
-95.79051579346927
 20
-18.863174530543887
 10
-95.77260124071651
 20
-18.78186772713385
 10
-95.74578516938755
 20
-18.703047515261716
 10
-95.71039803583535
 20
-18.627685202000723
 10
-94.23525109509836
 20
-15.89200974998003
 10
-91.02140245417245
 20
-21.399855813309305
 10
-91.19675987386803
 20
-21.502177519196685
 10
-91.8647975687298
 20
-20.47176495730526
 10
-97.18661890367297
 20
-21.69611716488671
  0
LWPOLYLINE
  5
33
330
17
100
AcDbEntity
  8
TOOTH_004
100
AcDbPolyline
 90
105
 70
1
 10
-87.94473016722903
 20
-28.082204817426597
 10
-88.09851830758949
 20
-27.865109983323435
 10
-88.12470508795629
 20
-27.828143447892923
 10
-88.30307112658555
 20
-27.573175749412485
 10
-88.37953662020892
 20
-27.462468083403966
 10
-88.38036655673046
 20
-27.46268477210225
 10
-88.38876261894768
 20
-27.450682909660973
 10
-88.39156409680426
 20
-27.451432265099534
 10
-88.39951597728907
 20
-27.440207003056486
 10
-88.40423360597319
 20
-27.441498789169053
 10
-88.4117439996961
 20
-27.431026714039405
 10
-88.41832394638249
 20
-27.432869743030864
 10
-88.4253957881849
 20
-27.423128087899748
 10
-88.43378577841277
 20
-27.42553028818893
 10
-88.44042220707728
 20
-27.416496940837764
 10
-88.45057152710284
 20
-27.419465423895463
 10
-88.45677586247365
 20
-27.411118917386496
 10
-88.46863535262472
 20
-27.41466004042153
 10
-88.47441106810679
 20
-27.406979550758685
 10
-88.49328381067609
 20
-27.404064316327894
 10
-88.51335171615008
 20
-27.40235868061867
 10
-88.53457402262656
 20
-27.40184814678425
 10
-88.55691153619107
 20
-27.40251829871932
 10
-88.5803265659588
 20
-27.404354837115264
 10
-88.6047829354457
 20
-27.407343616638762
 10
-88.63024590505842
 20
-27.41147067712911
 10
-88.65668211687701
 20
-27.416722267452595
 10
-88.6840596135064
 20
-27.423084882634953
 10
-88.71234773995015
 20
-27.430545277535334
 10
-88.74151712788242
 20
-27.43909049234989
 10
-88.77153963682393
 20
-27.448707866113494
 10
-88.80238832495928
 20
-27.459385055612117
 10
-88.83403744541589
 20
-27.47111006378146
 10
-88.884057986228
 20
-27.49034256230205
 10
-88.95728512515484
 20
-27.518099866642444
 10
-89.03170119060677
 20
-27.545900701535416
 10
-89.1073311372433
 20
-27.57373837926692
 10
-89.18420090419058
 20
-27.601605931255172
 10
-89.26233750825044
 20
-27.629496106995934
 10
-89.34176904774918
 20
-27.65740133805754
 10
-89.42252475833641
 20
-27.68531371937989
 10
-89.50463497506327
 20
-27.713224955837113
 10
-89.58813116691096
 20
-27.74112633424587
 10
-89.67304602946663
 20
-27.76900871152074
 10
-89.75941341788919
 20
-27.79686244785991
 10
-89.84726839475663
 20
-27.824677378129188
 10
-89.93664729752336
 20
-27.852442785797166
 10
-90.02758768075446
 20
-27.880147336193875
 10
-90.12012835250601
 20
-27.907779038758036
 10
-90.21430938091957
 20
-27.935325198155752
 10
-90.31017212332108
 20
-27.962772370472337
 10
-90.40775920551359
 20
-27.990106303442495
 10
-90.50711453758639
 20
-28.017311886326375
 10
-90.60828329407097
 20
-28.044373088222518
 10
-90.71131189580711
 20
-28.071272896842686
 10
-90.81624803454312
 20
-28.097993267074134
 10
-90.92314063366265
 20
-28.12451505181751
 10
-91.0320398045875
 20
-28.150817931878436
 10
-91.14299683989587
 20
-28.17688035507729
 10
-91.25606414622322
 20
-28.202679460150424
 10
-91.37129525893894
 20
-28.2281910206525
 10
-91.47121465440848
 20
-28.249628347608265
 10
-91.60030596004933
 20
-28.276739910506485
 10
-91.71226960571964
 20
-28.300077809873837
 10
-91.82465514720566
 20
-28.32332981036488
 10
-91.93744383939767
 20
-28.346494186520104
 10
-92.05061641301617
 20
-28.36956928363452
 10
-92.16415301530967
 20
-28.392553507428726
 10
-92.27803305806069
 20
-28.41544529631225
 10
-92.39223553249765
 20
-28.438243187121042
 10
-92.50673867456007
 20
-28.46094574925018
 10
-92.6215201543305
 20
-28.483551625382365
 10
-92.73655710465499
 20
-28.50605953734854
 10
-92.85182567831198
 20
-28.5284682016763
 10
-92.96730153775859
 20
-28.55077642719298
 10
-93.08295966441882
 20
-28.57298307786229
 10
-93.14329947519843
 20
-28.584499327699632
 10
-93.58435071537042
 20
-28.66409771769143
 10
-93.63877141592837
 20
-28.579227431632738
 10
-93.82169327768696
 20
-28.28983683636879
 10
-93.99994406205757
 20
-28.0040232696791
 10
-94.1738127980753
 20
-27.723791642815126
 10
-94.23240420549784
 20
-27.62904110562465
 10
-94.20414528662945
 20
-27.616362496758853
 10
-94.13958236627167
 20
-27.5869956125566
 10
-94.0709799886533
 20
-27.555356067037028
 10
-93.99815662386521
 20
-27.521296168393263
 10
-94.0395008410572
 20
-27.449030110067998
 10
-94.07258047456692
 20
-27.37262680301947
 10
-94.09698788171943
 20
-27.293027770631
 10
-94.11242228830156
 20
-27.211213917436403
 10
-94.11869349502395
 20
-27.128193441363727
 10
-94.11572422136042
 20
-27.044989409640497
 10
-94.10355105788142
 20
-26.962627151463575
 10
-94.08232401534568
 20
-26.882121622794575
 10
-94.05230467610714
 20
-26.80446489898542
 10
-94.01386297061697
 20
-26.730613949363253
 10
-93.96747261874425
 20
-26.661478844429407
 10
-90.67771938676474
 20
-22.302769824324244
 10
-91.19675987386803
 20
-21.502177519196685
 10
-91.03180660670164
 20
-21.405926674964014
 10
-86.94176967525506
 20
-28.001039780292075
 10
-87.6755294035768
 20
-28.456089502672057
 10
-87.76317142406674
 20
-28.335360226981024
 10
-87.94473016722903
 20
-28.082204817426597
  0
LWPOLYLINE
  5
34
330
17
100
AcDbEntity
  8
TOOTH_005
100
AcDbPolyline
 90
177
 70
1
 10
-83.20136373724509
 20
-33.91029404530861
 10
-83.4134211992581
 20
-33.677654790439796
 10
-83.62435428103346
 20
-33.444140564095704
 10
-83.69551262341083
 20
-33.364639053990224
 10
-83.69599378050661
 20
-33.36483179870742
 10
-83.70351109949195
 20
-33.35650972370492
 10
-83.70544046935264
 20
-33.35729282459694
 10
-83.71255934516869
 20
-33.3494830076274
 10
-83.71590434871585
 20
-33.3508583105927
 10
-83.72262877487029
 20
-33.343547159242576
 10
-83.72735801096653
 20
-33.34551635791879
 10
-83.73369190060772
 20
-33.33869075349329
 10
-83.73977512612669
 20
-33.34125541709065
 10
-83.74572232173672
 20
-33.33490268438147
 10
-83.75313040638619
 20
-33.3380642735352
 10
-83.7586946547123
 20
-33.332172188710935
 10
-83.76739955422346
 20
-33.33593207729686
 10
-83.77258451200063
 20
-33.33048884340975
 10
-83.78736846847389
 20
-33.329842571315325
 10
-83.80302403547259
 20
-33.33022364648339
 10
-83.81952961604166
 20
-33.33162269896084
 10
-83.83686445730937
 20
-33.33403071357151
 10
-83.85500866543606
 20
-33.33743903707606
 10
-83.87394311407412
 20
-33.341839370255826
 10
-83.89364947658325
 20
-33.34722377936687
 10
-83.91411013642589
 20
-33.353584681808414
 10
-83.93530819845138
 20
-33.36091485377038
 10
-83.95722746087691
 20
-33.369207430249375
 10
-83.97985234992177
 20
-33.3784558879411
 10
-84.0031679690091
 20
-33.38865407231061
 10
-84.0271599849751
 20
-33.399796158595095
 10
-84.05181465612434
 20
-33.41187666911015
 10
-84.1114814530202
 20
-33.44210407622092
 10
-84.18705711710169
 20
-33.48002382601425
 10
-84.26369038670758
 20
-33.51810091235689
 10
-84.34139465953079
 20
-33.55633051399339
 10
-84.42018398330303
 20
-33.59470781763104
 10
-84.50007302786362
 20
-33.63322798525197
 10
-84.58107707905891
 20
-33.671886133744934
 10
-84.66321212420793
 20
-33.71067735632458
 10
-84.74649479524004
 20
-33.74959667567389
 10
-84.83094249072097
 20
-33.788639080923765
 10
-84.91657332920722
 20
-33.827799483196856
 10
-85.00340619660044
 20
-33.86707271578741
 10
-85.09146077546343
 20
-33.90645352320139
 10
-85.18075751826278
 20
-33.94593652573878
 10
-85.27131777437893
 20
-33.98551625031094
 10
-85.36316373373141
 20
-34.025187078651925
 10
-85.4152863981946
 20
-34.04743175570787
 10
-85.45631844368779
 20
-34.06494322812282
 10
-85.49643859546134
 20
-34.08185772396935
 10
-85.55080584781147
 20
-34.1047787405511
 10
-85.6466508924413
 20
-34.144687497730054
 10
-85.74387947625922
 20
-34.18466316823405
 10
-85.84251843714384
 20
-34.22469917161046
 10
-85.94259565843174
 20
-34.26478868891006
 10
-86.0441400932057
 20
-34.304924637696
 10
-86.14718171827329
 20
-34.34509961796819
 10
-86.19782989984928
 20
-34.36457343935068
 10
-86.25175160827995
 20
-34.385305905669185
 10
-86.35788193861985
 20
-34.425535415140175
 10
-86.46560604333763
 20
-34.46577968270613
 10
-86.57495845651545
 20
-34.506029839854
 10
-86.6859748281023
 20
-34.54627654060003
 10
-86.7986920387247
 20
-34.586509960660855
 10
-86.91314819556844
 20
-34.6267197504157
 10
-87.02938268939091
 20
-34.666895008497036
 10
-87.06413705207456
 20
-34.67870885180974
 10
-87.14743612836442
 20
-34.70702421021061
 10
-87.26735036663557
 20
-34.747095169910246
 10
-87.3891686223924
 20
-34.787095029343
 10
-87.51293536324532
 20
-34.82701016664469
 10
-87.63869635467384
 20
-34.866826160364184
 10
-87.76649873852601
 20
-34.906527758602145
 10
-87.89639093533471
 20
-34.94609879167643
 10
-87.98563722731387
 20
-34.972746825975804
 10
-88.02842266778725
 20
-34.985522122965335
 10
-88.1626449623714
 20
-35.02477959109476
 10
-88.29911016249211
 20
-35.06385195402845
 10
-88.43787188295344
 20
-35.10271881509959
 10
-88.5789850124221
 20
-35.14135856255623
 10
-88.72250566518561
 20
-35.179748293691176
 10
-88.7410743376589
 20
-35.184596401182155
 10
-88.78513290300103
 20
-35.1327297185572
 10
-89.00285992857144
 20
-34.873873042888206
 10
-89.21939529416585
 20
-34.61384610013827
 10
-89.43472074313108
 20
-34.3526403499209
 10
-89.64881750775277
 20
-34.0902471490547
 10
-89.86166630431332
 20
-33.82665774966926
 10
-89.92771223762345
 20
-33.744001014061304
 10
-89.89940121479803
 20
-33.68694901072285
 10
-89.83723977465266
 20
-33.56302699169627
 10
-89.77503544816337
 20
-33.440354002735305
 10
-89.71280134282429
 20
-33.318946486414056
 10
-89.68027917136477
 20
-33.256188036401824
 10
-89.65055112784901
 20
-33.19882145080134
 10
-89.58829911429345
 20
-33.07999658083403
 10
-89.52606031015698
 20
-32.96249029049866
 10
-89.46385039971138
 20
-32.84632163156308
 10
-89.40168577947237
 20
-32.73151030862631
 10
-89.33958363391929
 20
-32.61807676431251
 10
-89.27756194181514
 20
-32.5060421299032
 10
-89.21563952314207
 20
-32.395428251423795
 10
-89.15383605699628
 20
-32.28625765702783
 10
-89.13621833672197
 20
-32.25548601493178
 10
-89.09217210893387
 20
-32.17855354375657
 10
-89.03066923063928
 20
-32.07233988332496
 10
-88.96934994576779
 20
-31.967641325788353
 10
-88.90823780368729
 20
-31.86448322033382
 10
-88.8473574012804
 20
-31.76289157741396
 10
-88.78673446816997
 20
-31.662893135160136
 10
-88.72639590104113
 20
-31.564515332672336
 10
-88.66636975310286
 20
-31.467786211114955
 10
-88.60668534071729
 20
-31.372734502502464
 10
-88.54737326586908
 20
-31.279389574752418
 10
-88.48846542472009
 20
-31.187781356269316
 10
-88.42999509987602
 20
-31.097940387804417
 10
-88.37199698813895
 20
-31.00989776812605
 10
-88.31450724235074
 20
-30.923685119518105
 10
-88.25756350076976
 20
-30.839334531825337
 10
-88.20120494201787
 20
-30.756878541945095
 10
-88.1454723151932
 20
-30.676350072978153
 10
-88.09040798607215
 20
-30.597782395063305
 10
-88.03605597766158
 20
-30.521209074060042
 10
-87.98246198208741
 20
-30.446663878471927
 10
-87.92967340361642
 20
-30.37418072884572
 10
-87.87773939450156
 20
-30.303793634618874
 10
-87.82946422908967
 20
-30.2392195627811
 10
-87.82671086553282
 20
-30.23553659464213
 10
-87.77664052057538
 20
-30.169443530314282
 10
-87.72758284204174
 20
-30.10554815207426
 10
-87.68588305631059
 20
-30.051965006430205
 10
-87.6167101534634
 20
-29.963869744349385
 10
-87.55298163558611
 20
-29.882960114370714
 10
-87.48931376771772
 20
-29.802373612050413
 10
-87.42569692925667
 20
-29.722092046178574
 10
-87.36212108610272
 20
-29.64209679815608
 10
-87.29857580070836
 20
-29.562368833317645
 10
-87.2449460822518
 20
-29.49526990936274
 10
-87.23902425247164
 20
-29.48765166564067
 10
-87.23337187834777
 20
-29.480096197045405
 10
-87.22800770710451
 20
-29.472617210674514
 10
-87.22294988463352
 20
-29.465228135048022
 10
-87.21821600510516
 20
-29.457942175871995
 10
-87.21382310309845
 20
-29.4507722910117
 10
-87.20265358224391
 20
-29.431027636263508
 10
-87.1874994813374
 20
-29.402114323877857
 10
-87.17449694792676
 20
-29.374611501186173
 10
-87.16357668333524
 20
-29.34851168330419
 10
-87.15467121108324
 20
-29.32380635410413
 10
-87.14771487645515
 20
-29.300486028829205
 10
-87.14264386999064
 20
-29.278540383404724
 10
-87.13939622812318
 20
-29.257958334299833
 10
-87.14534903368697
 20
-29.249339790445056
 10
-87.13791183688372
 20
-29.23872814235355
 10
-87.1442469188916
 20
-29.22967237539451
 10
-87.13813242563918
 20
-29.220837500597128
 10
-87.14484563664786
 20
-29.21136080475562
 10
-87.14000155493304
 20
-29.204273619389248
 10
-87.14708871498812
 20
-29.19439167773736
 10
-87.1434646022872
 20
-29.189023290840055
 10
-87.15092151145208
 20
-29.178751194905498
 10
-87.14846874144095
 20
-29.175072977230556
 10
-87.15629120078387
 20
-29.16442523339766
 10
-87.15496292031764
 20
-29.162408869615952
 10
-87.16314674573343
 20
-29.151399414449738
 10
-87.16289783367476
 20
-29.151016955476358
 10
-87.20923625294003
 20
-29.089396581123747
 10
-87.39540050042181
 20
-28.838955395972164
 10
-87.58005347097385
 20
-28.587610206150167
 10
-87.6755294035768
 20
-28.456089502672057
 10
-86.94176967525506
 20
-28.001039780292075
 10
-87.08679361322598
 20
-27.76719121365822
 10
-82.20898241081615
 20
-33.68698712860379
 10
-82.88986663963723
 20
-34.24802415869847
 10
-82.988197255946
 20
-34.142059904842
 10
-83.20136373724509
 20
-33.91029404530861
  0
LWPOLYLINE
  5
35
330
17
100
AcDbEntity
  8
TOOTH_006
100
AcDbPolyline
 90
172
 70
1
 10
-77.80976400024466
 20
-39.23501207537706
 10
-78.04492135158674
 20
-39.02294675387337
 10
-78.27924022684105
 20
-38.81003676859753
 10
-78.33681795075361
 20
-38.757321310453925
 10
-78.33709660868683
 20
-38.757466520496386
 10
-78.34400520896638
 20
-38.75118913468101
 10
-78.345436344608
 20
-38.751941793798665
 10
-78.3519944873038
 20
-38.74602764894497
 10
-78.35456029077943
 20
-38.74738937309437
 10
-78.36077034881222
 20
-38.74183102893548
 10
-78.36445368647821
 20
-38.743803510414814
 10
-78.37031791601949
 20
-38.738593782534494
 10
-78.37510230477902
 20
-38.74117879342876
 10
-78.38062284794513
 20
-38.736310742481685
 10
-78.3864924354551
 20
-38.73951014045913
 10
-78.39167132564033
 20
-38.734977059532774
 10
-78.39861087299711
 20
-38.73879279432631
 10
-78.4034500373966
 20
-38.73458819923801
 10
-78.41594613631075
 20
-38.735139938639804
 10
-78.42914724384347
 20
-38.73662835965025
 10
-78.44304143403133
 20
-38.739049847745214
 10
-78.45761717649992
 20
-38.742401080047344
 10
-78.47286336737362
 20
-38.74667902791277
 10
-78.4887692803306
 20
-38.75188094588104
 10
-78.50532457751474
 20
-38.75800437481558
 10
-78.5225192589327
 20
-38.76504712507024
 10
-78.54034367341808
 20
-38.773007279940664
 10
-78.55878848971163
 20
-38.78188318492658
 10
-78.57784471579048
 20
-38.79167345936466
 10
-78.59750362123063
 20
-38.802376959732634
 10
-78.61775677997154
 20
-38.81399280196782
 10
-78.63859601659614
 20
-38.82652033414566
 10
-78.70536167241441
 20
-38.86799327397912
 10
-78.77999933890652
 20
-38.91400062708471
 10
-78.85562965034462
 20
-38.96025997406124
 10
-78.93225961856957
 20
-39.00676638120347
 10
-79.0098965774199
 20
-39.053514967925196
 10
-79.08854823238627
 20
-39.10050092776646
 10
-79.16822266484634
 20
-39.147719520099855
 10
-79.24892827405776
 20
-39.195166026312734
 10
-79.33067383423246
 20
-39.242835773715576
 10
-79.4134685341167
 20
-39.29072414818915
 10
-79.4973219846507
 20
-39.33882658682115
 10
-79.58224419330114
 20
-39.38713855212257
 10
-79.66824559104313
 20
-39.43565553573297
 10
-79.75533706838598
 20
-39.48437306732815
 10
-79.84353003801291
 20
-39.533286735839205
 10
-79.9328363425208
 20
-39.582392124976764
 10
-80.02326834405035
 20
-39.6316848499423
 10
-80.11483894666542
 20
-39.681160554625166
 10
-80.2075615672555
 20
-39.73081488132948
 10
-80.3014501678131
 20
-39.78064347340494
 10
-80.39651935708727
 20
-39.83064201304967
 10
-80.49278428658742
 20
-39.88080614919519
 10
-80.59026071456245
 20
-39.93113151525522
 10
-80.6889650509043
 20
-39.98161373436749
 10
-80.78891439234955
 20
-40.0322484188402
 10
-80.89012651302613
 20
-40.083031145512244
 10
-80.9926198533667
 20
-40.133957431050675
 10
-81.09641356839768
 20
-40.185022735876764
 10
-81.20152762238992
 20
-40.23622248951733
 10
-81.30798274276293
 20
-40.28755204419444
 10
-81.41580040878789
 20
-40.33900664778344
 10
-81.52500296062605
 20
-40.39058147174482
 10
-81.63561351958577
 20
-40.442271548614464
 10
-81.74765613929479
 20
-40.49407181787018
 10
-81.86115574614298
 20
-40.54597707000346
 10
-81.97613819205797
 20
-40.59798194416938
 10
-82.09263028479099
 20
-40.6500809119733
 10
-82.21065975217886
 20
-40.702268232745276
 10
-82.33025539837418
 20
-40.75453799146116
 10
-82.45144702588023
 20
-40.80688403134198
 10
-82.57426544810407
 20
-40.859299926941866
 10
-82.69874253648877
 20
-40.911778970549555
 10
-82.82491135110017
 20
-40.96431419138784
 10
-82.95280606627023
 20
-41.016898285407095
 10
-83.08246194656468
 20
-41.06952356870982
 10
-83.15392428445371
 20
-41.098150369036645
 10
-83.24191742757397
 20
-41.014089459809384
 10
-83.48387973721591
 20
-40.78110988021427
 10
-83.72496648642279
 20
-40.54712298531587
 10
-83.9651682150802
 20
-40.31212374667855
 10
-84.20447521619138
 20
-40.07610697436421
 10
-84.44287751540611
 20
-39.83906732804623
 10
-84.50982687383319
 20
-39.771954276224825
 10
-84.46659116966799
 20
-39.65924105474267
 10
-84.41801656380731
 20
-39.53398002900254
 10
-84.36934989900436
 20
-39.40983597543702
 10
-84.32059937063566
 20
-39.28681658309388
 10
-84.2717734424999
 20
-39.164930005498775
 10
-84.22288084929052
 20
-39.04418484016437
 10
-84.17393057311139
 20
-38.92459004595612
 10
-84.12493191948559
 20
-38.80615510475062
 10
-84.07589451399069
 20
-38.688889981522244
 10
-84.02682830416497
 20
-38.57280510069793
 10
-83.97774357166763
 20
-38.45791134556012
 10
-83.92865096576422
 20
-38.344220107467265
 10
-83.87956153836681
 20
-38.23174333297017
 10
-83.83048675049962
 20
-38.120493503888774
 10
-83.78143845921453
 20
-38.0104835725658
 10
-83.73242897184669
 20
-37.90172705150042
 10
-83.68347108474367
 20
-37.79423805842457
 10
-83.6345780662493
 20
-37.68803124036805
 10
-83.5857637278616
 20
-37.583121887821605
 10
-83.53704239234713
 20
-37.479525822158124
 10
-83.4884289570066
 20
-37.37725948988105
 10
-83.43993890896643
 20
-37.27633994694202
 10
-83.39158834916753
 20
-37.17678486372591
 10
-83.37516249700629
 20
-37.143325238068755
 10
-83.34339404808648
 20
-37.07861258887833
 10
-83.29537341988454
 20
-36.98184204627429
 10
-83.2475445968255
 20
-36.88649283449154
 10
-83.19992646433182
 20
-36.79258524041535
 10
-83.15253868478557
 20
-36.700140228354144
 10
-83.10540169090673
 20
-36.60917936869093
 10
-83.05853675844773
 20
-36.519724920755706
 10
-83.01196605991917
 20
-36.43179986984345
 10
-82.96571266079823
 20
-36.345427854378315
 10
-82.91980055837831
 20
-36.26063317217206
 10
-82.87425475267456
 20
-36.177440842445094
 10
-82.82910126204172
 20
-36.09587655995406
 10
-82.78436717138966
 20
-36.015966708670646
 10
-82.74008065928976
 20
-35.93773833166887
 10
-82.6962710313538
 20
-35.861219112938166
 10
-82.65296880635518
 20
-35.78643744499885
 10
-82.61020571846915
 20
-35.71342234661893
 10
-82.56801477200746
 20
-35.64220347003976
 10
-82.52643026910748
 20
-35.57281105798933
 10
-82.4854878849828
 20
-35.5052759780359
 10
-82.4452247038779
 20
-35.43962968468239
 10
-82.40567922784312
 20
-35.37590413690368
 10
-82.37303579986377
 20
-35.32391713593662
 10
-82.35352575928628
 20
-35.29186144262882
 10
-82.33574533293563
 20
-35.2611312475543
 10
-82.31964303159442
 20
-35.231712391720414
 10
-82.30516908032146
 20
-35.20359063902856
 10
-82.29227538530888
 20
-35.176751732256626
 10
-82.2809154664055
 20
-35.15118137342128
 10
-82.2710444508589
 20
-35.12686532528533
 10
-82.26261902156968
 20
-35.10378942104068
 10
-82.25559738371271
 20
-35.08193961246944
 10
-82.2499392204273
 20
-35.06130198964754
 10
-82.2456056492897
 20
-35.041862787735
 10
-82.24255919725694
 20
-35.02360847256274
 10
-82.24076374523878
 20
-35.00652569850658
 10
-82.24018449725392
 20
-34.99060137777306
 10
-82.24548125010044
 20
-34.98468359166555
 10
-82.24078793653469
 20
-34.97582265877739
 10
-82.24642267718447
 20
-34.96958469888789
 10
-82.24254178935894
 20
-34.962176970769754
 10
-82.24851164568716
 20
-34.955627694386415
 10
-82.24541498517138
 20
-34.949652029002976
 10
-82.2517171881245
 20
-34.942799941022336
 10
-82.24937761514192
 20
-34.93823585604803
 10
-82.25600951611904
 20
-34.931089104964094
 10
-82.25440090411247
 20
-34.92791676544914
 10
-82.2613599573596
 20
-34.92048317689971
 10
-82.26045716184753
 20
-34.91868340774439
 10
-82.26774093454479
 20
-34.91097048695837
 10
-82.26751975046254
 20
-34.910524759685394
 10
-82.34219116296006
 20
-34.832133771682635
 10
-82.55859651288411
 20
-34.602978169083954
 10
-82.5717251708584
 20
-34.588954272711646
 10
-82.77393666595773
 20
-34.37295404952693
 10
-82.988197255946
 20
-34.142059904842
 10
-82.88986663963723
 20
-34.24802415869847
 10
-82.20898241081615
 20
-33.68698712860379
 10
-82.4187281267908
 20
-33.43243610539267
 10
-76.83127012062506
 20
-38.89681341621126
 10
-77.46398079568762
 20
-39.543775389346905
 10
-77.57377690782154
 20
-39.44623352770786
 10
-77.80976400024466
 20
-39.23501207537706
  0
LWPOLYLINE
  5
36
330
17
100
AcDbEntity
  8
TOOTH_007
100
AcDbPolyline
 90
175
 70
1
 10
-71.68113018350141
 20
-44.263238511551556
 10
-71.93481502894483
 20
-44.07220156324996
 10
-72.18783416067018
 20
-43.88032150353189
 10
-72.44018227030678
 20
-43.68759885658709
 10
-72.47895356563946
 20
-43.65777922583267
 10
-72.47910316263177
 20
-43.65787429316107
 10
-72.48581181448536
 20
-43.65275077888345
 10
-72.48695280905048
 20
-43.65348132855136
 10
-72.49333712363463
 20
-43.648639707859225
 10
-72.49545978668006
 20
-43.650008966716186
 10
-72.50152044663622
 20
-43.64544499687914
 10
-72.50461540252182
 20
-43.647456304700505
 10
-72.51035300313067
 20
-43.64316586659264
 10
-72.5144112090661
 20
-43.64582267135862
 10
-72.51982625121632
 20
-43.641801770957464
 10
-72.52483900011508
 20
-43.645107639022505
 10
-72.52993191562898
 20
-43.6413523851008
 10
-72.53589080739596
 20
-43.64531099050755
 10
-72.5406619356922
 20
-43.641817608577306
 10
-72.55200847783495
 20
-43.64319755681166
 10
-72.56396392244024
 20
-43.64549255834432
 10
-72.57652083565806
 20
-43.6487031458606
 10
-72.58967199085049
 20
-43.65283005781721
 10
-72.60341034056303
 20
-43.6578742312115
 10
-72.61772900570011
 20
-43.663836795369846
 10
-72.63262126643852
 20
-43.67071906628627
 10
-72.64808058073037
 20
-43.6785225554605
 10
-72.66410051766742
 20
-43.68724893703602
 10
-72.68067483409422
 20
-43.69690008730171
 10
-72.69779736792869
 20
-43.70747802637644
 10
-72.71546211398406
 20
-43.71898496081952
 10
-72.7336631866934
 20
-43.73142326390162
 10
-72.75239479697376
 20
-43.74479546010613
 10
-72.82431005359523
 20
-43.7978900545417
 10
-72.89606657300057
 20
-43.85050550298892
 10
-72.96878619831976
 20
-43.90346169576742
 10
-73.04247266417978
 20
-43.956752984352484
 10
-73.11712987567215
 20
-44.01037379431543
 10
-73.19276184427343
 20
-44.06431857433517
 10
-73.26937279692734
 20
-44.11858187016403
 10
-73.34696715022594
 20
-44.17315829906827
 10
-73.42554948397952
 20
-44.22804252679545
 10
-73.50512461844346
 20
-44.28322931500702
 10
-73.58569753538107
 20
-44.33871346072479
 10
-73.66727345511624
 20
-44.39448984366869
 10
-73.7498578563965
 20
-44.45055343284028
 10
-73.83345640489195
 20
-44.506899231037636
 10
-73.91807500401727
 20
-44.563522303587575
 10
-74.00371985840441
 20
-44.620417813171315
 10
-74.09039739209204
 20
-44.677580957857266
 10
-74.17811435929494
 20
-44.73500703731968
 10
-74.26687776404711
 20
-44.7926913910967
 10
-74.35669485721645
 20
-44.85062939053268
 10
-74.44757326463062
 20
-44.90881651287853
 10
-74.5395209503431
 20
-44.967248308183045
 10
-74.63254616754752
 20
-45.025920359071414
 10
-74.72665750469264
 20
-45.08482830185877
 10
-74.82186391757782
 20
-45.14396783677315
 10
-74.9181747523042
 20
-45.20333473273068
 10
-75.01559974947487
 20
-45.262924818539
 10
-75.11414899352022
 20
-45.32273394247962
 10
-75.21383297660505
 20
-45.38275800057021
 10
-75.31466266069862
 20
-45.44299296307231
 10
-75.41664947968071
 20
-45.50343486243957
 10
-75.51980526537558
 20
-45.56407973799022
 10
-75.62414231711405
 20
-45.624923665054894
 10
-75.72967345280311
 20
-45.68596277204561
 10
-75.83641201297824
 20
-45.74719322836906
 10
-75.94437183276024
 20
-45.80861121490218
 10
-76.0535672648377
 20
-45.8702129228689
 10
-76.16401323229798
 20
-45.931994569862034
 10
-76.27572530250713
 20
-45.99395242425801
 10
-76.38871956494623
 20
-46.056082721306566
 10
-76.50301274702566
 20
-46.11838171164614
 10
-76.61862223985544
 20
-46.18084565708752
 10
-76.73556605322352
 20
-46.24347078866893
 10
-76.85386286377701
 20
-46.306253314789146
 10
-76.97353212994217
 20
-46.369189462602066
 10
-77.06454271213738
 20
-46.41661553209206
 10
-77.19292926111486
 20
-46.31395258507426
 10
-77.4536139430245
 20
-46.10400996690473
 10
-77.71359047971472
 20
-45.89313893768547
 10
-77.97285366864273
 20
-45.681337650436596
 10
-78.2313981784907
 20
-45.468604153854145
 10
-78.48921855725843
 20
-45.25493638062474
 10
-78.54623351241271
 20
-45.207343635248066
 10
-78.54045978404982
 20
-45.18723455105604
 10
-78.50324540676567
 20
-45.05923596762135
 10
-78.46587860319411
 20
-44.93230025988374
 10
-78.42836583981722
 20
-44.80642981694614
 10
-78.39071364123072
 20
-44.681627191568964
 10
-78.3529286349464
 20
-44.55789523926049
 10
-78.31501756449892
 20
-44.435237139640144
 10
-78.27698724631502
 20
-44.31365624272852
 10
-78.23884459915104
 20
-44.19315615087357
 10
-78.20059667637113
 20
-44.07374080495228
 10
-78.16225065998309
 20
-43.955414445240905
 10
-78.12381386138954
 20
-43.838181597801984
 10
-78.08529372569518
 20
-43.722047068892714
 10
-78.04669784503898
 20
-43.60701597053554
 10
-78.00803399384758
 20
-43.49309380345809
 10
-77.9693101177965
 20
-43.380286404108816
 10
-77.93053432653991
 20
-43.26859990238392
 10
-77.89171490915578
 20
-43.15804074973027
 10
-77.8528603800654
 20
-43.04861582682702
 10
-77.81397946902675
 20
-42.94033239123473
 10
-77.77508112066323
 20
-42.83319805260673
 10
-77.73617451130993
 20
-42.727220797798914
 10
-77.69726907966931
 20
-42.62240904869485
 10
-77.65837453606744
 20
-42.51877166123714
 10
-77.61950086568456
 20
-42.416317905357246
 10
-77.58065832305678
 20
-42.315057426439004
 10
-77.54185749631576
 20
-42.21500038488349
 10
-77.50310929005022
 20
-42.11615737984761
 10
-77.46442493971746
 20
-42.01853945794257
 10
-77.42581604905197
 20
-41.92215817595494
 10
-77.38729460117442
 20
-41.827025594768756
 10
-77.34887294297071
 20
-41.733154208033426
 10
-77.31056385517248
 20
-41.64055708086193
 10
-77.30773364444434
 20
-41.6337890839329
 10
-77.27238055292989
 20
-41.54924781199759
 10
-77.23433669670187
 20
-41.45924052323386
 10
-77.19644640846694
 20
-41.37054985961862
 10
-77.15872430552005
 20
-41.2831910301457
 10
-77.1211855355714
 20
-41.19717984634777
 10
-77.08384578895775
 20
-41.11253270655876
 10
-77.0467212989878
 20
-41.02926655222413
 10
-77.00982889108468
 20
-40.94739893530428
 10
-76.97318602183685
 20
-40.866948054926794
 10
-76.93681077585767
 20
-40.78793270160149
 10
-76.91770356807257
 20
-40.746868439257426
 10
-76.90072192945826
 20
-40.71037234464571
 10
-76.86493893539628
 20
-40.63428704519042
 10
-76.83625133244996
 20
-40.573937968549544
 10
-76.82948198361855
 20
-40.55969753332741
 10
-76.80556950918965
 20
-40.5099298781602
 10
-76.79303956087224
 20
-40.48303492169649
 10
-76.78167939600995
 20
-40.457252474641415
 10
-76.77146104096326
 20
-40.43257126058951
 10
-76.76235750523135
 20
-40.40898030014754
 10
-76.7543427810526
 20
-40.38646899454862
 10
-76.74739178847607
 20
-40.36502707607692
 10
-76.74148034703153
 20
-40.34464461572301
 10
-76.73658515442102
 20
-40.325312059911205
 10
-76.73268373808108
 20
-40.30702016462485
 10
-76.72975444523266
 20
-40.28976007199789
 10
-76.72777640151004
 20
-40.27352326336161
 10
-76.72672948561552
 20
-40.25830157127866
 10
-76.7265943013497
 20
-40.244087161633125
 10
-76.72735215296126
 20
-40.23087255791066
 10
-76.73217876149283
 20
-40.22645354196609
 10
-76.72898501791293
 20
-40.21865062161495
 10
-76.73413167298663
 20
-40.21397419828042
 10
-76.73147552007542
 20
-40.207414562119496
 10
-76.7369411291025
 20
-40.202485666089125
 10
-76.73480690990286
 20
-40.197157909218646
 10
-76.74059047918857
 20
-40.191981295991035
 10
-76.73896303777342
 20
-40.18787453324067
 10
-76.74506367098141
 20
-40.18245478650539
 10
-76.74392832921241
 20
-40.17955863716053
 10
-76.75034523007339
 20
-40.17390017215562
 10
-76.74968776559103
 20
-40.172204745625876
 10
-76.75642023958436
 20
-40.1663118132881
 10
-76.75622686643433
 20
-40.165807699590665
 10
-76.8609231436222
 20
-40.07484045473454
 10
-77.09934811968387
 20
-39.86614714927804
 10
-77.3369687845433
 20
-39.656611698181095
 10
-77.57377690782154
 20
-39.44623352770786
 10
-77.46398079568762
 20
-39.543775389346905
 10
-76.83127012062506
 20
-38.89681341621126
 10
-77.00464515131613
 20
-38.72725749598327
 10
-70.97147646605741
 20
-43.65110054835966
 10
-71.55067455273394
 20
-44.360790057535226
 10
-71.63831318874512
 20
-44.29525601825693
 10
-71.68113018350141
 20
-44.263238511551556
  0
LWPOLYLINE
  5
37
330
17
100
AcDbEntity
  8
TOOTH_008
100
AcDbPolyline
 90
103
 70
1
 10
-70.11829275215081
 20
-50.623098649036564
 10
-70.19007311613709
 20
-50.66528047956925
 10
-70.26608656102444
 20
-50.699246398921524
 10
-70.34539636772868
 20
-50.72457784265503
 10
-70.42702519586467
 20
-50.74096264958811
 10
-70.50996712758132
 20
-50.74819890858037
 10
-70.59320006355873
 20
-50.7461974466979
 10
-70.67569831841091
 20
-50.73498292809772
 10
-70.75644526027955
 20
-50.71469355008966
 10
-70.83444583886067
 20
-50.68557934012103
 10
-70.90873884748036
 20
-50.647999074670636
 10
-70.99126255462528
 20
-50.90334514705019
 10
-71.01222450334735
 20
-50.889089269476294
 10
-71.28798031594637
 20
-50.70022394998012
 10
-71.56312270894004
 20
-50.51044558709654
 10
-71.837648335992
 20
-50.31975444250455
 10
-72.11155377811778
 20
-50.12815071739624
 10
-72.15072528111435
 20
-50.100555946796874
 10
-72.14242431471698
 20
-50.059787825994455
 10
-72.11554928994677
 20
-49.92995655503833
 10
-72.08845591707149
 20
-49.80118014379231
 10
-72.06115048300639
 20
-49.673458119468194
 10
-72.03363929694825
 20
-49.54679022580956
 10
-72.00592869431995
 20
-49.42117642124242
 10
-71.9780250055212
 20
-49.29661672711212
 10
-71.94993457664717
 20
-49.1731113123165
 10
-71.92166377681166
 20
-49.05066051494274
 10
-71.89321900341497
 20
-48.929264852184936
 10
-71.86460667188153
 20
-48.80892496428798
 10
-71.83583323444508
 20
-48.68964168508294
 10
-71.8069051869754
 20
-48.57141605409421
 10
-71.77782905997663
 20
-48.45424926835311
 10
-71.74861142215633
 20
-48.338142684455185
 10
-71.71925888634776
 20
-48.223097831913364
 10
-71.68977814541915
 20
-48.10911654002228
 10
-71.66017593656545
 20
-47.99620077997431
 10
-71.63045905921025
 20
-47.884352726721396
 10
-71.60063439478722
 20
-47.77357481444253
 10
-71.57070888561509
 20
-47.66386964611861
 10
-71.54068957431193
 20
-47.55524012228938
 10
-71.5385472099218
 20
-47.54758673048115
 10
-71.51058358379332
 20
-47.4476893516198
 10
-71.48039812067718
 20
-47.341220649461235
 10
-71.45014051091724
 20
-47.23583764841413
 10
-71.41981819192151
 20
-47.13154424997102
 10
-71.38943870036691
 20
-47.02834456756293
 10
-71.35900971250538
 20
-46.92624304702737
 10
-71.32853901705396
 20
-46.825244355525435
 10
-71.29803455449682
 20
-46.72535349728623
 10
-71.26750443059571
 20
-46.62657583327718
 10
-71.23695688457096
 20
-46.528916959476035
 10
-71.20640031547366
 20
-46.43238277381329
 10
-71.17584331184933
 20
-46.33697954945739
 10
-71.14529465047141
 20
-46.24271390636361
 10
-71.11476329875958
 20
-46.14959279773056
 10
-71.08425842454123
 20
-46.05762351639431
 10
-71.05378940802977
 20
-45.96681371038429
 10
-71.02336587474356
 20
-45.877171454496185
 10
-70.99299769058788
 20
-45.78870521023274
 10
-70.9626949605509
 20
-45.7014237956989
 10
-70.93246804495615
 20
-45.61533640952254
 10
-70.90232760052582
 20
-45.530452719377024
 10
-70.87228457660922
 20
-45.446782821775166
 10
-70.84235022062967
 20
-45.36433722793776
 10
-70.81253609523465
 20
-45.28312688305346
 10
-70.79613260969379
 20
-45.23893567533673
 10
-70.78746910887206
 20
-45.21484721424737
 10
-70.77967884873557
 20
-45.191726917699484
 10
-70.7727466226223
 20
-45.16956936813937
 10
-70.7666577223339
 20
-45.14836943825147
 10
-70.76139793356782
 20
-45.128122333837055
 10
-70.7569535059141
 20
-45.10882355251824
 10
-70.75331113954714
 20
-45.090468896124094
 10
-70.7504579620578
 20
-45.0730544338755
 10
-70.74838152292946
 20
-45.056576558835346
 10
-70.7470697667845
 20
-45.041031928222395
 10
-70.74651102197666
 20
-45.026417492741
 10
-70.74669398318657
 20
-45.01273044573391
 10
-70.74760769887902
 20
-44.99996827820615
 10
-70.74924155612723
 20
-44.988128727765876
 10
-70.75388385168154
 20
-44.98455826311943
 10
-70.75158526468554
 20
-44.97720980320777
 10
-70.75654816633954
 20
-44.97341954876655
 10
-70.75462884739521
 20
-44.96720975274924
 10
-70.75991262091671
 20
-44.96320274042599
 10
-70.75836262534561
 20
-44.95812707690387
 10
-70.76396760960192
 20
-44.95390625288999
 10
-70.76277720573258
 20
-44.949960519739435
 10
-70.76870380122247
 20
-44.94552875585882
 10
-70.7678634608868
 20
-44.94270907528222
 10
-70.77411215297067
 20
-44.93806915414961
 10
-70.77361253715314
 20
-44.93637195017887
 10
-70.78018386867579
 20
-44.93152658834164
 10
-70.78001582208765
 20
-44.93094859330844
 10
-70.91613423977267
 20
-44.83128377794637
 10
-71.17178472272636
 20
-44.64278026241038
 10
-71.42678502583824
 20
-44.45343163083306
 10
-71.55067455273394
 20
-44.360790057535226
 10
-70.97147646605741
 20
-43.65110054835966
 10
-71.11196056674771
 20
-43.53644742008837
 10
-65.92244341829688
 20
-47.110123792542744
 10
-70.05163002359299
 20
-50.573220717019325
 10
-70.11829275215081
 20
-50.623098649036564
  0
LWPOLYLINE
  5
38
330
17
100
AcDbEntity
  8
TOOTH_009
100
AcDbPolyline
 90
30
 70
1
 10
-63.317495413750486
 20
-54.55173493518161
 10
-63.38927577773675
 20
-54.59391676571428
 10
-63.46528922262411
 20
-54.627882685066574
 10
-63.54459902932836
 20
-54.65321412880007
 10
-63.62622785746434
 20
-54.66959893573316
 10
-63.709169789180976
 20
-54.67683519472541
 10
-63.7924027251584
 20
-54.67483373284294
 10
-63.87490098001058
 20
-54.663619214242765
 10
-63.95564792187921
 20
-54.64332983623471
 10
-64.03364850046034
 20
-54.61421562626608
 10
-64.10794150908004
 20
-54.57663536081568
 10
-64.24564954774729
 20
-55.13017544400236
 10
-64.50763084945449
 20
-54.97936013765689
 10
-64.70531566725457
 20
-54.864702383215835
 10
-64.56415670878106
 20
-54.313092205704116
 10
-64.63382662941355
 20
-54.26750898905421
 10
-64.6980149146749
 20
-54.214484546423506
 10
-64.75593056776351
 20
-54.15467230178739
 10
-64.80685988996984
 20
-54.08880932568783
 10
-64.85017527563646
 20
-54.017707252260664
 10
-64.885342946187
 20
-53.94224227741049
 10
-64.91192952791766
 20
-53.86334436138626
 10
-64.92960739249209
 20
-53.781985768814984
 10
-64.93815869432859
 20
-53.69916908741571
 10
-64.93747805512686
 20
-53.6159148730397
 10
-64.92757386245215
 20
-53.533249073288225
 10
-64.00976540081314
 20
-48.335452496626225
 10
-59.20986380874601
 20
-51.11274717945748
 10
-63.25083268519267
 20
-54.50185700316437
 10
-63.317495413750486
 20
-54.55173493518161
  0
LWPOLYLINE
  5
39
330
17
100
AcDbEntity
  8
TOOTH_010
100
AcDbPolyline
 90
38
 70
1
 10
-52.884501984914095
 20
-55.374075907242094
 10
-52.88915160035264
 20
-55.37710133580002
 10
-52.90186825372156
 20
-55.38619805941995
 10
-52.91496299779899
 20
-55.396370600298766
 10
-53.14666268856041
 20
-55.6599961462522
 10
-56.45003534679234
 20
-58.43049328930942
 10
-56.516698075350156
 20
-58.48037122132665
 10
-56.58847843933642
 20
-58.52255305185933
 10
-56.66449188422378
 20
-58.55651897121162
 10
-56.74380169092803
 20
-58.581850414945116
 10
-56.825430519064014
 20
-58.598235221878205
 10
-56.90837245078065
 20
-58.605471480870456
 10
-56.99160538675807
 20
-58.603470018987984
 10
-57.07410364161025
 20
-58.59225550038781
 10
-57.15485058347888
 20
-58.571966122379756
 10
-57.232851162060015
 20
-58.54285191241112
 10
-57.30714417067971
 20
-58.50527164696073
 10
-57.31762020901014
 20
-58.76220348123361
 10
-57.41359290687847
 20
-58.71656231516849
 10
-57.714976258231864
 20
-58.57201415250544
 10
-57.78291493866749
 20
-58.53915386542153
 10
-57.76335937038074
 20
-58.24172849184916
 10
-57.833029291013226
 20
-58.19614527519925
 10
-57.89721757627457
 20
-58.143120832568556
 10
-57.95513322936318
 20
-58.08330858793244
 10
-58.006062551569514
 20
-58.01744561183288
 10
-58.04937793723612
 20
-57.946343538405706
 10
-58.084545607786666
 20
-57.870878563555536
 10
-58.111132189517335
 20
-57.791980647531304
 10
-58.12881005409175
 20
-57.710622054960034
 10
-58.137361355928256
 20
-57.62780537356075
 10
-58.13668071672653
 20
-57.54455115918474
 10
-58.12677652405182
 20
-57.46188535943327
 10
-57.19271579771309
 20
-52.172047829402544
 10
-51.30991121035606
 20
-54.983726936603325
 10
-51.49339255076056
 20
-55.36762027217696
 10
-52.26593679282075
 20
-54.92134240342283
 10
-52.884501984914095
 20
-55.374075907242094
  0
ENDSEC
  0
SECTION
  2
OBJECTS
  0
DICTIONARY
  5
A
330
0
100
AcDbDictionary
281
1
  3
ACAD_COLOR
350
B
  3
ACAD_GROUP
350
C
  3
ACAD_LAYOUT
350
D
  3
ACAD_MATERIAL
350
E
  3
ACAD_MLEADERSTYLE
350
F
  3
ACAD_MLINESTYLE
350
10
  3
ACAD_PLOTSETTINGS
350
11
  3
ACAD_PLOTSTYLENAME
350
12
  3
ACAD_SCALELIST
350
14
  3
ACAD_TABLESTYLE
350
15
  3
ACAD_VISUALSTYLE
350
16
  3
EZDXF_META
350
2D
  0
DICTIONARY
  5
B
330
A
100
AcDbDictionary
281
1
  0
DICTIONARY
  5
C
330
A
100
AcDbDictionary
281
1
  0
DICTIONARY
  5
D
330
A
100
AcDbDictionary
281
1
  3
Model
350
1A
  3
Layout1
350
1E
  0
DICTIONARY
  5
E
330
A
100
AcDbDictionary
281
1
  3
ByBlock
350
1F
  3
ByLayer
350
20
  3
Global
350
21
  0
DICTIONARY
  5
F
330
A
100
AcDbDictionary
281
1
  3
Standard
350
2C
  0
DICTIONARY
  5
10
330
A
100
AcDbDictionary
281
1
  3
Standard
350
22
  0
DICTIONARY
  5
11
330
A
100
AcDbDictionary
281
1
  0
ACDBDICTIONARYWDFLT
  5
12
330
A
100
AcDbDictionary
281
1
  3
Normal
350
13
100
AcDbDictionaryWithDefault
340
13
  0
ACDBPLACEHOLDER
  5
13
330
12
  0
DICTIONARY
  5
14
330
A
100
AcDbDictionary
281
1
  0
DICTIONARY
  5
15
330
A
100
AcDbDictionary
281
1
  0
DICTIONARY
  5
16
330
A
100
AcDbDictionary
281
1
  0
LAYOUT
  5
1A
330
D
100
AcDbPlotSettings
  1

  4
A3
  6

 40
7.5
 41
20.0
 42
7.5
 43
20.0
 44
420.0
 45
297.0
 46
0.0
 47
0.0
 48
0.0
 49
0.0
140
0.0
141
0.0
142
1.0
143
1.0
 70
1024
 72
1
 73
0
 74
5
  7

 75
16
 76
0
 77
2
 78
300
147
1.0
148
0.0
149
0.0
100
AcDbLayout
  1
Model
 70
1
 71
0
 10
0.0
 20
0.0
 11
420.0
 21
297.0
 12
0.0
 22
0.0
 32
0.0
 14
1e+20
 24
1e+20
 34
1e+20
 15
-1e+20
 25
-1e+20
 35
-1e+20
146
0.0
 13
0.0
 23
0.0
 33
0.0
 16
1.0
 26
0.0
 36
0.0
 17
0.0
 27
1.0
 37
0.0
 76
1
330
17
  0
LAYOUT
  5
1E
330
D
100
AcDbPlotSettings
  1

  4
A3
  6

 40
7.5
 41
20.0
 42
7.5
 43
20.0
 44
420.0
 45
297.0
 46
0.0
 47
0.0
 48
0.0
 49
0.0
140
0.0
141
0.0
142
1.0
143
1.0
 70
0
 72
1
 73
0
 74
5
  7

 75
16
 76
0
 77
2
 78
300
147
1.0
148
0.0
149
0.0
100
AcDbLayout
  1
Layout1
 70
1
 71
1
 10
0.0
 20
0.0
 11
420.0
 21
297.0
 12
0.0
 22
0.0
 32
0.0
 14
1e+20
 24
1e+20
 34
1e+20
 15
-1e+20
 25
-1e+20
 35
-1e+20
146
0.0
 13
0.0
 23
0.0
 33
0.0
 16
1.0
 26
0.0
 36
0.0
 17
0.0
 27
1.0
 37
0.0
 76
1
330
1B
  0
MATERIAL
  5
1F
102
{ACAD_REACTORS
330
E
102
}
330
E
100
AcDbMaterial
  1
ByBlock
  2

 70
0
 40
1.0
 71
1
 41
1.0
 91
-1023410177
 42
1.0
 72
1
  3

 73
1
 74
1
 75
1
 44
0.5
 73
0
 45
1.0
 46
1.0
 77
1
  4

 78
1
 79
1
170
1
 48
1.0
171
1
  6

172
1
173
1
174
1
140
1.0
141
1.0
175
1
  7

176
1
177
1
178
1
143
1.0
179
1
  8

270
1
271
1
272
1
145
1.0
146
1.0
273
1
  9

274
1
275
1
276
1
 42
1.0
 72
1
  3

 73
1
 74
1
 75
1
 94
63
  0
MATERIAL
  5
20
102
{ACAD_REACTORS
330
E
102
}
330
E
100
AcDbMaterial
  1
ByLayer
  2

 70
0
 40
1.0
 71
1
 41
1.0
 91
-1023410177
 42
1.0
 72
1
  3

 73
1
 74
1
 75
1
 44
0.5
 73
0
 45
1.0
 46
1.0
 77
1
  4

 78
1
 79
1
170
1
 48
1.0
171
1
  6

172
1
173
1
174
1
140
1.0
141
1.0
175
1
  7

176
1
177
1
178
1
143
1.0
179
1
  8

270
1
271
1
272
1
145
1.0
146
1.0
273
1
  9

274
1
275
1
276
1
 42
1.0
 72
1
  3

 73
1
 74
1
 75
1
 94
63
  0
MATERIAL
  5
21
102
{ACAD_REACTORS
330
E
102
}
330
E
100
AcDbMaterial
  1
Global
  2

 70
0
 40
1.0
 71
1
 41
1.0
 91
-1023410177
 42
1.0
 72
1
  3

 73
1
 74
1
 75
1
 44
0.5
 73
0
 45
1.0
 46
1.0
 77
1
  4

 78
1
 79
1
170
1
 48
1.0
171
1
  6

172
1
173
1
174
1
140
1.0
141
1.0
175
1
  7

176
1
177
1
178
1
143
1.0
179
1
  8

270
1
271
1
272
1
145
1.0
146
1.0
273
1
  9

274
1
275
1
276
1
 42
1.0
 72
1
  3

 73
1
 74
1
 75
1
 94
63
  0
MLINESTYLE
  5
22
102
{ACAD_REACTORS
330
10
102
}
330
10
100
AcDbMlineStyle
  2
Standard
 70
0
  3

 62
256
 51
90.0
 52
90.0
 71
2
 49
0.5
 62
256
  6
BYLAYER
 49
-0.5
 62
256
  6
BYLAYER
  0
MLEADERSTYLE
  5
2C
102
{ACAD_REACTORS
330
F
102
}
330
F
100
AcDbMLeaderStyle
179
2
170
2
171
1
172
0
 90
2
 40
0.0
 41
0.0
173
1
 91
-1056964608
 92
-2
290
1
 42
2.0
291
1
 43
8.0
  3
Standard
 44
4.0
300

342
29
174
1
175
1
176
0
178
1
 93
-1056964608
 45
4.0
292
0
297
0
 46
4.0
 94
-1056964608
 47
1.0
 49
1.0
140
1.0
294
1
141
0.0
177
0
142
1.0
295
0
296
0
143
3.75
271
0
272
9
273
9
  0
DICTIONARY
  5
2D
330
A
100
AcDbDictionary
280
1
281
1
  3
CREATED_BY_EZDXF
350
2E
  3
WRITTEN_BY_EZDXF
350
3C
  0
DICTIONARYVAR
  5
2E
330
2D
100
DictionaryVariables
280
0
  1
1.4.4 @ 2026-07-26T20:09:58.472161+00:00
  0
DICTIONARYVAR
  5
3C
330
2D
100
DictionaryVariables
280
0
  1
1.4.4 @ 2026-07-26T20:09:58.474192+00:00
  0
ENDSEC
  0
EOF
