  0
SECTION
  2
HEADER
  9
$ACADVER
  1
AC1024
  9
$ACADMAINTVER
 70
6
  9
$DWGCODEPAGE
  3
ANSI_1252
  9
$LASTSAVEDBY
  1
ezdxf
  9
$INSBASE
 10
0.0
 20
0.0
 30
0.0
  9
$EXTMIN
 10
1e+20
 20
1e+20
 30
1e+20
  9
$EXTMAX
 10
-1e+20
 20
-1e+20
 30
-1e+20
  9
$LIMMIN
 10
0.0
 20
0.0
  9
$LIMMAX
 10
420.0
 20
297.0
  9
$ORTHOMODE
 70
0
  9
$REGENMODE
 70
1
  9
$FILLMODE
 70
1
  9
$QTEXTMODE
 70
0
  9
$MIRRTEXT
 70
1
  9
$LTSCALE
 40
1.0
  9
$ATTMODE
 70
1
  9
$TEXTSIZE
 40
2.5
  9
$TRACEWID
 40
1.0
  9
$TEXTSTYLE
  7
Standard
  9
$CLAYER
  8
0
  9
$CELTYPE
  6
ByLayer
  9
$CECOLOR
 62
256
  9
$CELTSCALE
 40
1.0
  9
$DISPSILH
 70
0
  9
$DIMSCALE
 40
1.0
  9
$DIMASZ
 40
2.5
  9
$DIMEXO
 40
0.625
  9
$DIMDLI
 40
3.75
  9
$DIMRND
 40
0.0
  9
$DIMDLE
 40
0.0
  9
$DIMEXE
 40
1.25
  9
$DIMTP
 40
0.0
  9
$DIMTM
 40
0.0
  9
$DIMTXT
 40
2.5
  9
$DIMCEN
 40
2.5
  9
$DIMTSZ
 40
0.0
  9
$DIMTOL
 70
0
  9
$DIMLIM
 70
0
  9
$DIMTIH
 70
0
  9
$DIMTOH
 70
0
  9
$DIMSE1
 70
0
  9
$DIMSE2
 70
0
  9
$DIMTAD
 70
1
  9
$DIMZIN
 70
8
  9
$DIMBLK
  1

  9
$DIMASO
 70
1
  9
$DIMSHO
 70
1
  9
$DIMPOST
  1

  9
$DIMAPOST
  1

  9
$DIMALT
 70
0
  9
$DIMALTD
 70
3
  9
$DIMALTF
 40
0.03937007874
  9
$DIMLFAC
 40
1.0
  9
$DIMTOFL
 70
1
  9
$DIMTVP
 40
0.0
  9
$DIMTIX
 70
0
  9
$DIMSOXD
 70
0
  9
$DIMSAH
 70
0
  9
$DIMBLK1
  1

  9
$DIMBLK2
  1

  9
$DIMSTYLE
  2
ISO-25
  9
$DIMCLRD
 70
0
  9
$DIMCLRE
 70
0
  9
$DIMCLRT
 70
0
  9
$DIMTFAC
 40
1.0
  9
$DIMGAP
 40
0.625
  9
$DIMJUST
 70
0
  9
$DIMSD1
 70
0
  9
$DIMSD2
 70
0
  9
$DIMTOLJ
 70
0
  9
$DIMTZIN
 70
8
  9
$DIMALTZ
 70
0
  9
$DIMALTTZ
 70
0
  9
$DIMUPT
 70
0
  9
$DIMDEC
 70
2
  9
$DIMTDEC
 70
2
  9
$DIMALTU
 70
2
  9
$DIMALTTD
 70
3
  9
$DIMTXSTY
  7
Standard
  9
$DIMAUNIT
 70
0
  9
$DIMADEC
 70
0
  9
$DIMALTRND
 40
0.0
  9
$DIMAZIN
 70
0
  9
$DIMDSEP
 70
44
  9
$DIMATFIT
 70
3
  9
$DIMFRAC
 70
0
  9
$DIMLDRBLK
  1

  9
$DIMLUNIT
 70
2
  9
$DIMLWD
 70
-2
  9
$DIMLWE
 70
-2
  9
$DIMTMOVE
 70
0
  9
$DIMFXL
 40
1.0
  9
$DIMFXLON
 70
0
  9
$DIMJOGANG
 40
0.785398163397
  9
$DIMTFILL
 70
0
  9
$DIMTFILLCLR
 70
0
  9
$DIMARCSYM
 70
0
  9
$DIMLTYPE
  6

  9
$DIMLTEX1
  6

  9
$DIMLTEX2
  6

  9
$DIMTXTDIRECTION
 70
0
  9
$LUNITS
 70
2
  9
$LUPREC
 70
4
  9
$SKETCHINC
 40
1.0
  9
$FILLETRAD
 40
10.0
  9
$AUNITS
 70
0
  9
$AUPREC
 70
2
  9
$MENU
  1
.
  9
$ELEVATION
 40
0.0
  9
$PELEVATION
 40
0.0
  9
$THICKNESS
 40
0.0
  9
$LIMCHECK
 70
0
  9
$CHAMFERA
 40
0.0
  9
$CHAMFERB
 40
0.0
  9
$CHAMFERC
 40
0.0
  9
$CHAMFERD
 40
0.0
  9
$SKPOLY
 70
0
  9
$TDCREATE
 40
2461246.7345949076
  9
$TDUCREATE
 40
2458532.153996898
  9
$TDUPDATE
 40
2461246.7345949076
  9
$TDUUPDATE
 40
2458532.1544311
  9
$TDINDWG
 40
0.0
  9
$TDUSRTIMER
 40
0.0
  9
$USRTIMER
 70
1
  9
$ANGBASE
 50
0.0
  9
$ANGDIR
 70
0
  9
$PDMODE
 70
0
  9
$PDSIZE
 40
0.0
  9
$PLINEWID
 40
0.0
  9
$SPLFRAME
 70
0
  9
$SPLINETYPE
 70
6
  9
$SPLINESEGS
 70
8
  9
$HANDSEED
  5
4E
  9
$SURFTAB1
 70
6
  9
$SURFTAB2
 70
6
  9
$SURFTYPE
 70
6
  9
$SURFU
 70
6
  9
$SURFV
 70
6
  9
$UCSBASE
  2

  9
$UCSNAME
  2

  9
$UCSORG
 10
0.0
 20
0.0
 30
0.0
  9
$UCSXDIR
 10
1.0
 20
0.0
 30
0.0
  9
$UCSYDIR
 10
0.0
 20
1.0
 30
0.0
  9
$UCSORTHOREF
  2

  9
$UCSORTHOVIEW
 70
0
  9
$UCSORGTOP
 10
0.0
 20
0.0
 30
0.0
  9
$UCSORGBOTTOM
 10
0.0
 20
0.0
 30
0.0
  9
$UCSORGLEFT
 10
0.0
 20
0.0
 30
0.0
  9
$UCSORGRIGHT
 10
0.0
 20
0.0
 30
0.0
  9
$UCSORGFRONT
 10
0.0
 20
0.0
 30
0.0
  9
$UCSORGBACK
 10
0.0
 20
0.0
 30
0.0
  9
$PUCSBASE
  2

  9
$PUCSNAME
  2

  9
$PUCSORG
 10
0.0
 20
0.0
 30
0.0
  9
$PUCSXDIR
 10
1.0
 20
0.0
 30
0.0
  9
$PUCSYDIR
 10
0.0
 20
1.0
 30
0.0
  9
$PUCSORTHOREF
  2

  9
$PUCSORTHOVIEW
 70
0
  9
$PUCSORGTOP
 10
0.0
 20
0.0
 30
0.0
  9
$PUCSORGBOTTOM
 10
0.0
 20
0.0
 30
0.0
  9
$PUCSORGLEFT
 10
0.0
 20
0.0
 30
0.0
  9
$PUCSORGRIGHT
 10
0.0
 20
0.0
 30
0.0
  9
$PUCSORGFRONT
 10
0.0
 20
0.0
 30
0.0
  9
$PUCSORGBACK
 10
0.0
 20
0.0
 30
0.0
  9
$USERI1
 70
0
  9
$USERI2
 70
0
  9
$USERI3
 70
0
  9
$USERI4
 70
0
  9
$USERI5
 70
0
  9
$USERR1
 40
0.0
  9
$USERR2
 40
0.0
  9
$USERR3
 40
0.0
  9
$USERR4
 40
0.0
  9
$USERR5
 40
0.0
  9
$WORLDVIEW
 70
1
  9
$SHADEDGE
 70
3
  9
$SHADEDIF
 70
70
  9
$TILEMODE
 70
1
  9
$MAXACTVP
 70
64
  9
$PINSBASE
 10
0.0
 20
0.0
 30
0.0
  9
$PLIMCHECK
 70
0
  9
$PEXTMIN
 10
1e+20
 20
1e+20
 30
1e+20
  9
$PEXTMAX
 10
-1e+20
 20
-1e+20
 30
-1e+20
  9
$PLIMMIN
 10
0.0
 20
0.0
  9
$PLIMMAX
 10
420.0
 20
297.0
  9
$UNITMODE
 70
0
  9
$VISRETAIN
 70
1
  9
$PLINEGEN
 70
0
  9
$PSLTSCALE
 70
1
  9
$TREEDEPTH
 70
3020
  9
$CMLSTYLE
  2
Standard
  9
$CMLJUST
 70
0
  9
$CMLSCALE
 40
20.0
  9
$PROXYGRAPHICS
 70
1
  9
$MEASUREMENT
 70
1
  9
$CELWEIGHT
370
-1
  9
$ENDCAPS
280
0
  9
$JOINSTYLE
280
0
  9
$LWDISPLAY
290
0
  9
$INSUNITS
 70
4
  9
$HYPERLINKBASE
  1

  9
$STYLESHEET
  1

  9
$XEDIT
290
1
  9
$CEPSNTYPE
380
0
  9
$PSTYLEMODE
290
1
  9
$FINGERPRINTGUID
  2
{68AC70B6-D112-41D3-878D-658A69478C3A}
  9
$VERSIONGUID
  2
{B9BEF722-E097-403B-8582-5821989D6259}
  9
$EXTNAMES
290
1
  9
$PSVPSCALE
 40
0.0
  9
$OLESTARTUP
290
0
  9
$SORTENTS
280
127
  9
$INDEXCTL
280
0
  9
$HIDETEXT
280
1
  9
$XCLIPFRAME
280
1
  9
$HALOGAP
280
0
  9
$OBSCOLOR
 70
257
  9
$OBSLTYPE
280
0
  9
$INTERSECTIONDISPLAY
280
0
  9
$INTERSECTIONCOLOR
 70
257
  9
$DIMASSOC
280
2
  9
$PROJECTNAME
  1

  9
$CAMERADISPLAY
290
0
  9
$LENSLENGTH
 40
50.0
  9
$CAMERAHEIGHT
 40
0.0
  9
$STEPSPERSEC
 40
24.0
  9
$STEPSIZE
 40
100.0
  9
$3DDWFPREC
 40
2.0
  9
$PSOLWIDTH
 40
0.005
  9
$PSOLHEIGHT
 40
0.08
  9
$LOFTANG1
 40
1.570796326795
  9
$LOFTANG2
 40
1.570796326795
  9
$LOFTMAG1
 40
0.0
  9
$LOFTMAG2
 40
0.0
  9
$LOFTPARAM
 70
7
  9
$LOFTNORMALS
280
1
  9
$LATITUDE
 40
37.795
  9
$LONGITUDE
 40
-122.394
  9
$NORTHDIRECTION
 40
0.0
  9
$TIMEZONE
 70
-8000
  9
$LIGHTGLYPHDISPLAY
280
1
  9
$TILEMODELIGHTSYNCH
280
1
  9
$CMATERIAL
347
20
  9
$SOLIDHIST
280
0
  9
$SHOWHIST
280
1
  9
$DWFFRAME
280
2
  9
$DGNFRAME
280
2
  9
$REALWORLDSCALE
290
1
  9
$INTERFERECOLOR
 62
256
  9
$CSHADOW
280
0
  9
$SHADOWPLANELOCATION
 40
0.0
  0
ENDSEC
  0
SECTION
  2
CLASSES
  0
CLASS
  1
ACDBDICTIONARYWDFLT
  2
AcDbDictionaryWithDefault
  3
ObjectDBX Classes
 90
0
 91
0
280
0
281
0
  0
CLASS
  1
SUN
  2
AcDbSun
  3
SCENEOE
 90
1153
 91
0
280
0
281
0
  0
CLASS
  1
VISUALSTYLE
  2
AcDbVisualStyle
  3
ObjectDBX Classes
 90
4095
 91
0
280
0
281
0
  0
CLASS
  1
MATERIAL
  2
AcDbMaterial
  3
ObjectDBX Classes
 90
1153
 91
0
280
0
281
0
  0
CLASS
  1
SCALE
  2
AcDbScale
  3
ObjectDBX Classes
 90
1153
 91
0
280
0
281
0
  0
CLASS
  1
TABLESTYLE
  2
AcDbTableStyle
  3
ObjectDBX Classes
 90
4095
 91
0
280
0
281
0
  0
CLASS
  1
MLEADERSTYLE
  2
AcDbMLeaderStyle
  3
ACDB_MLEADERSTYLE_CLASS
 90
4095
 91
0
280
0
281
0
  0
CLASS
  1
DICTIONARYVAR
  2
AcDbDictionaryVar
  3
ObjectDBX Classes
 90
0
 91
0
280
0
281
0
  0
CLASS
  1
CELLSTYLEMAP
  2
AcDbCellStyleMap
  3
ObjectDBX Classes
 90
1152
 91
0
280
0
281
0
  0
CLASS
  1
MENTALRAYRENDERSETTINGS
  2
AcDbMentalRayRenderSettings
  3
SCENEOE
 90
1024
 91
0
280
0
281
0
  0
CLASS
  1
ACDBDETAILVIEWSTYLE
  2
AcDbDetailViewStyle
  3
ObjectDBX Classes
 90
1025
 91
0
280
0
281
0
  0
CLASS
  1
ACDBSECTIONVIEWSTYLE
  2
AcDbSectionViewStyle
  3
ObjectDBX Classes
 90
1025
 91
0
280
0
281
0
  0
CLASS
  1
RASTERVARIABLES
  2
AcDbRasterVariables
  3
ISM
 90
0
 91
0
280
0
281
0
  0
CLASS
  1
LAYOUT
  2
AcDbLayout
  3
ObjectDBX Classes
 90
0
 91
0
280
0
281
0
  0
CLASS
  1
ACDBPLACEHOLDER
  2
AcDbPlaceHolder
  3
ObjectDBX Classes
 90
0
 91
0
280
0
281
0
  0
ENDSEC
  0
SECTION
  2
TABLES
  0
TABLE
  2
VPORT
  5
8
330
0
100
AcDbSymbolTable
 70
1
  0
VPORT
  5
23
330
8
100
AcDbSymbolTableRecord
100
AcDbViewportTableRecord
  2
*Active
 70
0
 10
0.0
 20
0.0
 11
1.0
 21
1.0
 12
0.0
 22
0.0
 13
0.0
 23
0.0
 14
0.5
 24
0.5
 15
0.5
 25
0.5
 16
0.0
 26
0.0
 36
1.0
 17
0.0
 27
0.0
 37
0.0
 40
1000.0
 41
1.34
 42
50.0
 43
0.0
 44
0.0
 50
0.0
 51
0.0
 71
0
 72
1000
 73
1
 74
3
 75
0
 76
0
 77
0
 78
0
281
0
 65
0
146
0.0
  0
ENDTAB
  0
TABLE
  2
LTYPE
  5
2
330
0
100
AcDbSymbolTable
 70
3
  0
LTYPE
  5
24
330
2
100
AcDbSymbolTableRecord
100
AcDbLinetypeTableRecord
  2
ByBlock
 70
0
  3

 72
65
 73
0
 40
0.0
  0
LTYPE
  5
25
330
2
100
AcDbSymbolTableRecord
100
AcDbLinetypeTableRecord
  2
ByLayer
 70
0
  3

 72
65
 73
0
 40
0.0
  0
LTYPE
  5
26
330
2
100
AcDbSymbolTableRecord
100
AcDbLinetypeTableRecord
  2
Continuous
 70
0
  3

 72
65
 73
0
 40
0.0
  0
ENDTAB
  0
TABLE
  2
LAYER
  5
1
330
0
100
AcDbSymbolTable
 70
2
  0
LAYER
  5
27
330
1
100
AcDbSymbolTableRecord
100
AcDbLayerTableRecord
  2
0
 70
0
 62
7
  6
Continuous
370
-3
390
13
347
21
  0
LAYER
  5
28
330
1
100
AcDbSymbolTableRecord
100
AcDbLayerTableRecord
  2
Defpoints
 70
0
 62
7
  6
Continuous
290
0
370
-3
390
13
347
21
  0
ENDTAB
  0
TABLE
  2
STYLE
  5
5
330
0
100
AcDbSymbolTable
 70
1
  0
STYLE
  5
29
330
5
100
AcDbSymbolTableRecord
100
AcDbTextStyleTableRecord
  2
Standard
 70
0
 40
0.0
 41
1.0
 50
0.0
 71
0
 42
2.5
  3
txt
  4

  0
ENDTAB
  0
TABLE
  2
VIEW
  5
7
330
0
100
AcDbSymbolTable
 70
0
  0
ENDTAB
  0
TABLE
  2
UCS
  5
6
330
0
100
AcDbSymbolTable
 70
0
  0
ENDTAB
  0
TABLE
  2
APPID
  5
3
330
0
100
AcDbSymbolTable
 70
3
  0
APPID
  5
2A
330
3
100
AcDbSymbolTableRecord
100
AcDbRegAppTableRecord
  2
ACAD
 70
0
  0
APPID
  5
4B
330
3
100
AcDbSymbolTableRecord
100
AcDbRegAppTableRecord
  2
HATCHBACKGROUNDCOLOR
 70
0
  0
APPID
  5
4C
330
3
100
AcDbSymbolTableRecord
100
AcDbRegAppTableRecord
  2
EZDXF
 70
0
  0
ENDTAB
  0
TABLE
  2
DIMSTYLE
  5
4
330
0
100
AcDbSymbolTable
 70
1
100
AcDbDimStyleTable
  0
DIMSTYLE
105
2B
330
4
100
AcDbSymbolTableRecord
100
AcDbDimStyleTableRecord
  2
Standard
 70
0
 40
1.0
 41
2.5
 42
0.625
 43
3.75
 44
1.25
 45
0.0
 46
0.0
 47
0.0
 48
0.0
 49
2.5
140
2.5
141
2.5
142
0.0
143
0.03937007874
144
1.0
145
0.0
146
1.0
147
0.625
148
0.0
 69
0
 70
0
 71
0
 72
0
 73
0
 74
0
 75
0
 76
0
 77
1
 78
8
 79
3
170
0
171
3
172
1
173
0
174
0
175
0
176
0
177
0
178
0
179
2
271
2
272
2
273
2
274
3
275
0
276
0
277
2
278
44
279
0
280
0
281
0
282
0
283
0
284
8
285
0
286
0
288
0
289
3
290
0
371
-2
372
-2
  0
ENDTAB
  0
TABLE
  2
BLOCK_RECORD
  5
9
330
0
100
AcDbSymbolTable
 70
2
  0
BLOCK_RECORD
  5
17
330
9
100
AcDbSymbolTableRecord
100
AcDbBlockTableRecord
  2
*Model_Space
340
1A
 70
0
280
1
281
0
  0
BLOCK_RECORD
  5
1B
330
9
100
AcDbSymbolTableRecord
100
AcDbBlockTableRecord
  2
*Paper_Space
340
1E
 70
0
280
1
281
0
  0
ENDTAB
  0
ENDSEC
  0
SECTION
  2
BLOCKS
  0
BLOCK
  5
18
330
17
100
AcDbEntity
  8
0
100
AcDbBlockBegin
  2
*Model_Space
 70
0
 10
0.0
 20
0.0
 30
0.0
  3
*Model_Space
  1

  0
ENDBLK
  5
19
330
17
100
AcDbEntity
  8
0
100
AcDbBlockEnd
  0
BLOCK
  5
1C
330
1B
100
AcDbEntity
  8
0
100
AcDbBlockBegin
  2
*Paper_Space
 70
0
 10
0.0
 20
0.0
 30
0.0
  3
*Paper_Space
  1

  0
ENDBLK
  5
1D
330
1B
100
AcDbEntity
  8
0
100
AcDbBlockEnd
  0
ENDSEC
  0
SECTION
  2
ENTITIES
  0
TEXT
  5
2F
330
17
100
AcDbEntity
  8
RESEARCH_ONLY
100
AcDbText
 10
0.0
 20
0.0
 30
0.0
 40
3.0
  1
RESEARCH BENCH PROTOTYPE — NOT FOR HUMAN USE
100
AcDbText
  0
LWPOLYLINE
  5
30
330
17
100
AcDbEntity
  8
TOOTH_001
100
AcDbPolyline
 90
13
 70
1
 10
7.473999679461477
 20
-5.9300001487410485
 10
7.478399646448421
 20
-5.922567369685926
 10
11.439720285084427
 20
-1.4646142232358297
 10
11.447940280697097
 20
-1.4584851827357035
 10
11.458039286457531
 20
-1.4602581880868342
 10
13.256068451445886
 20
-2.1730259412422104
 10
13.26463926965393
 20
-2.178653955152024
 10
13.266427253006489
 20
-2.188750319886695
 10
13.0973966374681
 20
-8.150028379920347
 10
13.095508875237151
 20
-8.158457037448558
 10
13.087019470267622
 20
-8.156864581096968
 10
7.481274374035078
 20
-5.9346568356351135
 10
7.473999679461477
 20
-5.9300001487410485
  0
LWPOLYLINE
  5
31
330
17
100
AcDbEntity
  8
TOOTH_002
100
AcDbPolyline
 90
13
 70
1
 10
14.78068441189079
 20
-3.6848157639263732
 10
14.789308958438054
 20
-3.685288110009799
 10
20.63687882313647
 20
-5.157874958177592
 10
20.64469841949083
 20
-5.16154372184174
 10
20.641304790715566
 20
-5.169486592714675
 10
17.29483585073782
 20
-10.105735481475465
 10
17.28748484983216
 20
-10.112883645646043
 10
17.277240900727374
 20
-10.112442089236264
 10
15.401647026845929
 20
-9.640113423638635
 10
15.39241575933933
 20
-9.635650558466336
 10
15.389327049698224
 20
-9.625873373898308
 10
14.77991136121405
 20
-3.6934185719923294
 10
14.78068441189079
 20
-3.6848157639263732
  0
LWPOLYLINE
  5
32
330
17
100
AcDbEntity
  8
TOOTH_003
100
AcDbPolyline
 90
13
 70
1
 10
8.712436356472576
 20
-9.038591905997999
 10
8.720272620648762
 20
-9.034958880023765
 10
14.509977615899398
 20
-7.605020585551656
 10
14.520223474122057
 20
-7.604625801299768
 10
14.527541764309081
 20
-7.611807451114609
 10
15.605556214883398
 20
-9.21768154096095
 10
15.60943148062951
 20
-9.227174474159996
 10
15.605185939952102
 20
-9.236507686344495
 10
12.089161219345138
 20
-14.05345460551525
 10
12.082831156004008
 20
-14.059331357344767
 10
12.076737068108216
 20
-14.053210245788284
 10
8.715793687629773
 20
-9.046550187311793
 10
8.712436356472576
 20
-9.038591905997999
  0
LWPOLYLINE
  5
33
330
17
100
AcDbEntity
  8
TOOTH_004
100
AcDbPolyline
 90
13
 70
1
 10
8.062065491452358
 20
-12.474753982781662
 10
8.070163203776167
 20
-12.471748492956467
 10
14.019973565338272
 20
-11.490758172222355
 10
14.028607509768795
 20
-11.491004987009454
 10
14.028662165649779
 20
-11.499642285586166
 10
12.927805696211104
 20
-17.36083009111866
 10
12.923914276719909
 20
-17.370316413887156
 10
12.914343721497385
 20
-17.37399580759496
 10
11.005956455828036
 20
-17.68864607744698
 10
10.995711284471964
 20
-17.688233852739632
 10
10.988980462686872
 20
-17.680498899383508
 10
8.064786544329817
 20
-12.482951652280162
 10
8.062065491452358
 20
-12.474753982781662
  0
LWPOLYLINE
  5
34
330
17
100
AcDbEntity
  8
TOOTH_005
100
AcDbPolyline
 90
13
 70
1
 10
7.259067057130508
 20
-20.98235475102651
 10
7.260549425848454
 20
-20.972209010624326
 10
9.298210746018947
 20
-15.36744819482594
 10
9.302656683642759
 20
-15.360042821600125
 10
9.310212706700732
 20
-15.364227607080386
 10
13.930975104602814
 20
-19.238648881291564
 10
13.936413278953962
 20
-19.245359482881206
 10
13.929896554829325
 20
-19.251028541061526
 10
8.766286615902414
 20
-22.234740969671762
 10
8.756554765253409
 20
-22.237969676575435
 10
8.747527887826443
 20
-22.2331066580434
 10
7.265429538136367
 20
-20.990395416470015
 10
7.259067057130508
 20
-20.98235475102651
  0
LWPOLYLINE
  5
35
330
17
100
AcDbEntity
  8
TOOTH_006
100
AcDbPolyline
 90
13
 70
1
 10
3.17770115001321
 20
-16.5926774667972
 10
3.186323403509024
 20
-16.592164964482688
 10
9.097632167205774
 20
-17.380730851565076
 10
9.107311459750571
 20
-17.384113862229626
 10
9.11149308053338
 20
-17.39347588727517
 10
9.526877718670924
 20
-19.282497419838048
 10
9.527009241536872
 20
-19.292750037409196
 10
9.519642014225438
 20
-19.29988147674961
 10
4.484436402596994
 20
-22.495520991252683
 10
4.476394524149495
 20
-22.498672832778528
 10
4.472963945129984
 20
-22.49074585090903
 10
3.177912427817713
 20
-16.601312353921983
 10
3.17770115001321
 20
-16.5926774667972
  0
LWPOLYLINE
  5
36
330
17
100
AcDbEntity
  8
TOOTH_007
100
AcDbPolyline
 90
13
 70
1
 10
4.9385563850609255
 20
-24.288069000226454
 10
4.947168139047832
 20
-24.28740296176101
 10
10.87158803604654
 20
-24.97052545595491
 10
10.881326065312956
 20
-24.973735479526628
 10
10.885673819931453
 20
-24.98302151716933
 10
11.334648085260131
 20
-26.864342557597958
 10
11.334962251962647
 20
-26.874591204562677
 10
11.327723250571216
 20
-26.88185276942016
 10
6.350251634605849
 20
-30.166694283144516
 10
6.342267187064595
 20
-30.16998890170051
 10
6.33869592230057
 20
-30.1621242985984
 10
4.938921471913863
 20
-24.29669875257274
 10
4.9385563850609255
 20
-24.288069000226454
  0
LWPOLYLINE
  5
37
330
17
100
AcDbEntity
  8
TOOTH_008
100
AcDbPolyline
 90
13
 70
1
 10
6.8392700055861555
 20
-31.40419915202679
 10
6.840371011149237
 20
-31.39563213967017
 10
6.848971229253432
 20
-31.39643349011092
 10
12.572255027055313
 20
-33.07256893447288
 10
12.581309136080957
 20
-33.07738106238845
 10
12.584022227682508
 20
-33.08726906518407
 10
12.708051600648004
 20
-35.01744093906698
 10
12.706626367222107
 20
-35.02759486318557
 10
12.698262615939187
 20
-35.033526231476415
 10
7.236573770447853
 20
-37.42838790035495
 10
7.22814684607367
 20
-37.43028338434596
 10
7.225958421340879
 20
-37.4219277448637
 10
6.8392700055861555
 20
-31.40419915202679
  0
LWPOLYLINE
  5
38
330
17
100
AcDbEntity
  8
TOOTH_009
100
AcDbPolyline
 90
13
 70
1
 10
4.736569005766127
 20
-30.578030351939276
 10
4.743289669583596
 20
-30.57028657100379
 10
9.482227103233885
 20
-26.949806014782553
 10
9.489965174303778
 20
-26.945968284973695
 10
9.494070621057116
 20
-26.95356770738095
 10
11.295250492215633
 20
-32.70842100000792
 10
11.2962102024212
 20
-32.71700498919068
 10
11.287664935775867
 20
-32.718263691668895
 10
5.330228205789529
 20
-32.44558243775234
 10
5.320291881974362
 20
-32.4430520357359
 10
5.315313710574396
 20
-32.434088148474395
 10
4.73758962855905
 20
-30.588232890566456
 10
4.736569005766127
 20
-30.578030351939276
  0
LWPOLYLINE
  5
39
330
17
100
AcDbEntity
  8
TOOTH_010
100
AcDbPolyline
 90
13
 70
1
 10
2.444352309388447
 20
-22.975094104275378
 10
2.451347533508803
 20
-22.967597418018727
 10
7.317615093000146
 20
-19.520156700983847
 10
7.325486373146531
 20
-19.5166001770031
 10
7.329315434304478
 20
-19.524342541281353
 10
8.922043973246465
 20
-25.340337825767545
 10
8.922693876222999
 20
-25.348950812478876
 10
8.914108817597256
 20
-25.349900908453403
 10
2.9703594168798455
 20
-24.862817220059483
 10
2.960520682496107
 20
-24.85993056610536
 10
2.9558686092966298
 20
-24.85079318791076
 10
2.445004787313066
 20
-22.985326784172756
 10
2.444352309388447
 20
-22.975094104275378
  0
LWPOLYLINE
  5
3A
330
17
100
AcDbEntity
  8
TOOTH_011
100
AcDbPolyline
 90
13
 70
1
 10
0.5089008654979259
 20
-15.321385292015593
 10
0.5160172196064448
 20
-15.314003492131643
 10
5.4377692152905786
 20
-11.946249826703134
 10
5.4456973575900465
 20
-11.942821930314997
 10
5.449399853972362
 20
-11.950625611145696
 10
6.947224205297862
 20
-17.791781965884216
 10
6.947733789873044
 20
-17.800404392313546
 10
6.939134400238118
 20
-17.80121458480631
 10
1.0041033049206773
 20
-17.21742236522563
 10
0.9943128737101322
 20
-17.21437590465048
 10
0.9898101872832188
 20
-17.205163994953498
 10
0.5093866536617943
 20
-15.331627238861007
 10
0.5089008654979259
 20
-15.321385292015593
  0
LWPOLYLINE
  5
3B
330
17
100
AcDbEntity
  8
TOOTH_012
100
AcDbPolyline
 90
13
 70
1
 10
-1.870596848323338
 20
-8.217422374949944
 10
-1.8692643211029885
 20
-8.20888830879274
 10
-1.860688949138977
 20
-8.2099221896598
 10
3.815121055191051
 20
-10.04038340279029
 10
3.82404157240743
 20
-10.04543887882294
 10
3.8264859827408815
 20
-10.055396706068185
 10
3.8982165034020326
 20
-11.988218860456051
 10
3.896516906456477
 20
-11.998330479295147
 10
3.887995647247657
 20
-12.004033251149293
 10
-1.6365248545805395
 20
-14.250158956204105
 10
-1.645000004724645
 20
-14.251825612738383
 10
-1.646961424451302
 20
-14.24341379090097
 10
-1.870596848323338
 20
-8.217422374949944
  0
LWPOLYLINE
  5
3C
330
17
100
AcDbEntity
  8
TOOTH_013
100
AcDbPolyline
 90
13
 70
1
 10
-1.5561765889143409
 20
-15.949889711477917
 10
-1.5545275116454138
 20
-15.941411123262323
 10
-1.5459965363899693
 20
-15.942763297496464
 10
4.057790515306678
 20
-17.983101048278158
 10
4.066516791149389
 20
-17.98848487361349
 10
4.068589072336431
 20
-17.998526741766693
 10
4.068367794423633
 20
-19.932679450092216
 10
4.066293215598845
 20
-19.94272084382138
 10
4.057565708104974
 20
-19.948102672346057
 10
-1.5466880490474975
 20
-21.987158160426333
 10
-1.5552193334722428
 20
-21.988508382642312
 10
-1.5568664707019806
 20
-21.9800294173213
 10
-1.5561765889143409
 20
-15.949889711477917
  0
LWPOLYLINE
  5
3D
330
17
100
AcDbEntity
  8
TOOTH_014
100
AcDbPolyline
 90
13
 70
1
 10
-2.2118008787905703
 20
-27.216630314307153
 10
-2.209251468615275
 20
-27.206698850513604
 10
0.41100461269101224
 20
-21.849491973193558
 10
0.4162104334879827
 20
-21.842599561148532
 10
0.4232803273875511
 20
-21.847561668988686
 10
4.6073455838374855
 20
-26.18993236685573
 10
4.612041837000506
 20
-26.197181581999274
 10
4.604960934754742
 20
-26.202127968291748
 10
-0.8458178791474922
 20
-28.621718384032057
 10
-0.8558371325562719
 20
-28.62389738069458
 10
-0.8642977061631206
 20
-28.618104958095394
 10
-2.2063265052192014
 20
-27.225300072050338
 10
-2.2118008787905703
 20
-27.216630314307153
  0
LWPOLYLINE
  5
3E
330
17
100
AcDbEntity
  8
TOOTH_015
100
AcDbPolyline
 90
13
 70
1
 10
-8.7701818283424
 20
-26.036284361200913
 10
-8.765451329156079
 20
-26.029057446823618
 10
-4.560887620599073
 20
-21.70653163792309
 10
-4.553794328353688
 20
-21.70160303577947
 10
-4.548621176252004
 20
-21.70852000124861
 10
-1.9537412543089803
 20
-27.07806426950126
 10
-1.9512388619193468
 20
-27.088007684289593
 10
-1.956754193891548
 20
-27.09665144380503
 10
-3.3053578218228186
 20
-28.483091129769594
 10
-3.3138457067210636
 20
-28.488843457583492
 10
-3.323854538385194
 20
-28.48661708069637
 10
-8.76312440844684
 20
-26.04126419436942
 10
-8.7701818283424
 20
-26.036284361200913
  0
LWPOLYLINE
  5
3F
330
17
100
AcDbEntity
  8
TOOTH_016
100
AcDbPolyline
 90
13
 70
1
 10
-14.27326480495383
 20
-22.26717074178484
 10
-14.264661412979367
 20
-22.2664042168328
 10
-8.266557935465235
 20
-22.887161835359368
 10
-8.258293864030941
 20
-22.889674013159095
 10
-8.260516099546052
 20
-22.898020724085182
 10
-10.866268289877775
 20
-28.262297281143873
 10
-10.872520887538212
 20
-28.27042368796492
 10
-10.882722614519958
 20
-28.271452391962224
 10
-12.806599780186422
 20
-28.07234588901944
 10
-12.816374619057646
 20
-28.069249763962844
 10
-12.820830480737351
 20
-28.060015113887417
 10
-14.272799000997923
 20
-22.27579564414041
 10
-14.27326480495383
 20
-22.26717074178484
  0
LWPOLYLINE
  5
40
330
17
100
AcDbEntity
  8
TOOTH_017
100
AcDbPolyline
 90
13
 70
1
 10
-21.967586209473165
 20
-23.505637699168165
 10
-21.960323987828684
 20
-23.500961584247097
 10
-16.36053869574557
 20
-21.263778080263705
 10
-16.352053577607524
 20
-21.262162938117665
 10
-16.350143293009964
 20
-21.270586519702995
 10
-16.165179274036593
 20
-27.23139147958158
 10
-16.166940264247287
 20
-27.241492587382325
 10
-16.175496008618705
 20
-27.247143490281477
 10
-17.971613580858115
 20
-27.964714681717982
 10
-17.981707811444508
 20
-27.966514674549476
 10
-17.989944160115773
 20
-27.96040762731782
 10
-21.963166390995298
 20
-23.513058690920708
 10
-21.967586209473165
 20
-23.505637699168165
  0
LWPOLYLINE
  5
41
330
17
100
AcDbEntity
  8
TOOTH_018
100
AcDbPolyline
 90
13
 70
1
 10
-24.403486415862822
 20
-21.970208533347453
 10
-24.40346746016326
 20
-21.959955089730506
 10
-24.008846640455957
 20
-20.066487066039482
 10
-24.004768053478404
 20
-20.057079696928454
 10
-23.99512648494284
 20
-20.05359062520401
 10
-18.092831313178802
 20
-19.200174452754105
 10
-18.084203952765378
 20
-19.20059226403355
 10
-18.084320418989183
 20
-19.209228950295486
 10
-19.314636238120972
 20
-25.112525345795216
 10
-19.31797958334227
 20
-25.120489512838894
 10
-19.326055579896103
 20
-25.117426149714646
 10
-24.396041339430813
 20
-21.97725866116516
 10
-24.403486415862822
 20
-21.970208533347453
  0
LWPOLYLINE
  5
42
330
17
100
AcDbEntity
  8
TOOTH_019
100
AcDbPolyline
 90
13
 70
1
 10
-19.725019260663842
 20
-14.35220241359449
 10
-19.720193286410737
 20
-14.343155677286148
 10
-18.483567976515697
 20
-12.855975597062535
 10
-18.475553460024678
 20
-12.849580208822594
 10
-18.465401728267796
 20
-12.851020975167533
 10
-12.85233512189757
 20
-14.865689863714577
 10
-12.844911585885143
 20
-14.870105407513554
 10
-12.849065362183556
 20
-14.877678521564672
 10
-16.704512427118143
 20
-19.51428431432009
 10
-16.71120067989375
 20
-19.519749951408116
 10
-16.716896404119037
 20
-19.51325652091891
 10
-19.721750687606654
 20
-14.36192094720272
 10
-19.725019260663842
 20
-14.35220241359449
  0
LWPOLYLINE
  5
43
330
17
100
AcDbEntity
  8
TOOTH_020
100
AcDbPolyline
 90
13
 70
1
 10
-22.51387424581339
 20
-12.826508170432584
 10
-22.507488925616954
 20
-12.820691504724687
 10
-17.35671958209619
 20
-9.685063893261146
 10
-17.34862025497794
 20
-9.682062757776029
 10
-17.345338285263413
 20
-9.690052412885075
 10
-16.173538850662688
 20
-15.537470094485847
 10
-16.173598785833814
 20
-15.547723380451796
 10
-16.18109788579497
 20
-15.554716016942933
 10
-17.83319467985049
 20
-16.560460980220572
 10
-17.842850116047323
 20
-16.563911489918173
 10
-17.851985888201416
 20
-16.55925626355706
 10
-22.508283967922214
 20
-12.833092599570183
 10
-22.51387424581339
 20
-12.826508170432584
  0
LWPOLYLINE
  5
44
330
17
100
AcDbEntity
  8
TOOTH_021
100
AcDbPolyline
 90
13
 70
1
 10
-29.267428926177242
 20
-16.91571583456896
 10
-29.26112642906491
 20
-16.909809529114824
 10
-24.155175620212702
 20
-13.701717933554088
 10
-24.147119505680855
 20
-13.698602659470138
 10
-24.143724974995163
 20
-13.706545144937072
 10
-22.889422334268755
 20
-19.53682235476977
 10
-22.88933739124517
 20
-19.547075464054632
 10
-22.896736941243507
 20
-19.554173359879904
 10
-24.5344582988347
 20
-20.58316097058109
 10
-24.5440640177447
 20
-20.586747560820683
 10
-24.553264653225792
 20
-20.582221881637576
 10
-29.261746172661997
 20
-16.922220619458056
 10
-29.267428926177242
 20
-16.91571583456896
  0
LWPOLYLINE
  5
45
330
17
100
AcDbEntity
  8
TOOTH_022
100
AcDbPolyline
 90
13
 70
1
 10
-36.07300653160246
 20
-20.587685587415336
 10
-36.06648271461922
 20
-20.58202469296856
 10
-30.841550503887117
 20
-17.571598022016406
 10
-30.8333811177257
 20
-17.568793196939108
 10
-30.830292893806654
 20
-17.576859719547656
 10
-29.79993269882931
 20
-23.450850298926753
 10
-29.800240028090162
 20
-23.461099153206604
 10
-29.807905676684992
 20
-23.467908800550266
 10
-31.483790030808976
 20
-24.43349586534002
 10
-31.493525916345124
 20
-24.43671238491117
 10
-31.502546697935195
 20
-24.431838068053555
 10
-36.06757676354891
 20
-20.59440299263263
 10
-36.07300653160246
 20
-20.587685587415336
  0
LWPOLYLINE
  5
46
330
17
100
AcDbEntity
  8
TOOTH_023
100
AcDbPolyline
 90
13
 70
1
 10
-40.27273432028604
 20
-19.829952381698043
 10
-40.264114269880544
 20
-19.83050069271853
 10
-34.42974501163228
 20
-21.354548167810233
 10
-34.42195804099426
 20
-21.358285680653193
 10
-34.425421515689266
 20
-21.366198344996207
 10
-37.815249512622515
 20
-26.27277287405777
 10
-37.82266320440348
 20
-26.27985599762729
 10
-37.8329028657784
 20
-26.27932420795864
 10
-39.70426267710696
 20
-25.79048967088999
 10
-39.71345426798287
 20
-25.785945650369065
 10
-39.716456719606484
 20
-25.776141633357028
 10
-40.27358313271097
 20
-19.838548045223074
 10
-40.27273432028604
 20
-19.829952381698043
  0
LWPOLYLINE
  5
47
330
17
100
AcDbEntity
  8
TOOTH_024
100
AcDbPolyline
 90
13
 70
1
 10
-35.85138979966326
 20
-17.19048541467295
 10
-35.84485819005522
 20
-17.1825815206167
 10
-34.3367326817441
 20
-15.971588457354866
 10
-34.32760468008955
 20
-15.966918012930751
 10
-34.3179435071151
 20
-15.970352427303338
 10
-29.21878649915887
 20
-19.062925024064597
 10
-29.212391494506498
 20
-19.06873104072532
 10
-29.21797079185496
 20
-19.07532477677294
 10
-33.91987849020589
 20
-22.85085776485747
 10
-33.92752158162589
 20
-22.854881328888734
 10
-33.93180943465449
 20
-22.847383313793134
 10
-35.850122977936294
 20
-17.200660316541583
 10
-35.85138979966326
 20
-17.19048541467295
  0
LWPOLYLINE
  5
48
330
17
100
AcDbEntity
  8
TOOTH_025
100
AcDbPolyline
 90
13
 70
1
 10
-35.76942665092691
 20
-13.555241765450637
 10
-35.7698259080961
 20
-13.544996080552243
 10
-35.45276046414963
 20
-11.637008593082292
 10
-35.4490689600357
 20
-11.62744270249639
 10
-35.439577719536004
 20
-11.623563292863277
 10
-29.577001266024677
 20
-10.530126150288309
 10
-29.56836404354371
 20
-10.530191738265444
 10
-29.56812815684893
 20
-10.538825988171235
 10
-30.55664830557481
 20
-16.487389954666757
 10
-30.55966404218381
 20
-16.49548385648686
 10
-30.567858261107467
 20
-16.492752430082998
 10
-35.761700222898234
 20
-13.561982371895315
 10
-35.76942665092691
 20
-13.555241765450637
  0
LWPOLYLINE
  5
49
330
17
100
AcDbEntity
  8
TOOTH_026
100
AcDbPolyline
 90
13
 70
1
 10
-41.81453585273457
 20
-11.329610328231027
 10
-41.813929145701394
 20
-11.319374832546899
 10
-40.26449642457839
 20
-5.560497711029048
 10
-40.2607020284598
 20
-5.552738299191591
 10
-40.25281492093151
 20
-5.556259584298774
 10
-35.316771443008236
 20
-9.020081192288512
 10
-35.31077774086723
 20
-9.026300633470287
 10
-35.31678421614537
 20
-9.0325077397769
 10
-40.2054534015673
 20
-12.448107402139879
 10
-40.214872464219646
 20
-12.452158911003911
 10
-40.224283177957695
 20
-12.448088047180951
 10
-41.80750717059362
 20
-11.337075654257827
 10
-41.81453585273457
 20
-11.329610328231027
  0
LWPOLYLINE
  5
4A
330
17
100
AcDbEntity
  8
TOOTH_027
100
AcDbPolyline
 90
13
 70
1
 10
-48.01614533086346
 20
-5.792492297695075
 10
-48.013635888640664
 20
-5.78255065974877
 10
-45.414949298300634
 20
-0.41484766282218505
 10
-45.40977124296662
 20
-0.4079343671590217
 10
-45.402681447171325
 20
-0.4128679976224401
 10
-41.201183718989384
 20
-4.738374001318189
 10
-41.1964583452969
 20
-4.745604268079148
 10
-41.203519294411116
 20
-4.750579095872655
 10
-46.64452169525062
 20
-7.192074607252221
 10
-46.65453210303004
 20
-7.194293886733068
 10
-46.66301590705798
 20
-7.1885355419587444
 10
-48.01063612920839
 20
-5.801139965730315
 10
-48.01614533086346
 20
-5.792492297695075
  0
ENDSEC
  0
SECTION
  2
OBJECTS
  0
DICTIONARY
  5
A
330
0
100
AcDbDictionary
281
1
  3
ACAD_COLOR
350
B
  3
ACAD_GROUP
350
C
  3
ACAD_LAYOUT
350
D
  3
ACAD_MATERIAL
350
E
  3
ACAD_MLEADERSTYLE
350
F
  3
ACAD_MLINESTYLE
350
10
  3
ACAD_PLOTSETTINGS
350
11
  3
ACAD_PLOTSTYLENAME
350
12
  3
ACAD_SCALELIST
350
14
  3
ACAD_TABLESTYLE
350
15
  3
ACAD_VISUALSTYLE
350
16
  3
EZDXF_META
350
2D
  0
DICTIONARY
  5
B
330
A
100
AcDbDictionary
281
1
  0
DICTIONARY
  5
C
330
A
100
AcDbDictionary
281
1
  0
DICTIONARY
  5
D
330
A
100
AcDbDictionary
281
1
  3
Model
350
1A
  3
Layout1
350
1E
  0
DICTIONARY
  5
E
330
A
100
AcDbDictionary
281
1
  3
ByBlock
350
1F
  3
ByLayer
350
20
  3
Global
350
21
  0
DICTIONARY
  5
F
330
A
100
AcDbDictionary
281
1
  3
Standard
350
2C
  0
DICTIONARY
  5
10
330
A
100
AcDbDictionary
281
1
  3
Standard
350
22
  0
DICTIONARY
  5
11
330
A
100
AcDbDictionary
281
1
  0
ACDBDICTIONARYWDFLT
  5
12
330
A
100
AcDbDictionary
281
1
  3
Normal
350
13
100
AcDbDictionaryWithDefault
340
13
  0
ACDBPLACEHOLDER
  5
13
330
12
  0
DICTIONARY
  5
14
330
A
100
AcDbDictionary
281
1
  0
DICTIONARY
  5
15
330
A
100
AcDbDictionary
281
1
  0
DICTIONARY
  5
16
330
A
100
AcDbDictionary
281
1
  0
LAYOUT
  5
1A
330
D
100
AcDbPlotSettings
  1

  4
A3
  6

 40
7.5
 41
20.0
 42
7.5
 43
20.0
 44
420.0
 45
297.0
 46
0.0
 47
0.0
 48
0.0
 49
0.0
140
0.0
141
0.0
142
1.0
143
1.0
 70
1024
 72
1
 73
0
 74
5
  7

 75
16
 76
0
 77
2
 78
300
147
1.0
148
0.0
149
0.0
100
AcDbLayout
  1
Model
 70
1
 71
0
 10
0.0
 20
0.0
 11
420.0
 21
297.0
 12
0.0
 22
0.0
 32
0.0
 14
1e+20
 24
1e+20
 34
1e+20
 15
-1e+20
 25
-1e+20
 35
-1e+20
146
0.0
 13
0.0
 23
0.0
 33
0.0
 16
1.0
 26
0.0
 36
0.0
 17
0.0
 27
1.0
 37
0.0
 76
1
330
17
  0
LAYOUT
  5
1E
330
D
100
AcDbPlotSettings
  1

  4
A3
  6

 40
7.5
 41
20.0
 42
7.5
 43
20.0
 44
420.0
 45
297.0
 46
0.0
 47
0.0
 48
0.0
 49
0.0
140
0.0
141
0.0
142
1.0
143
1.0
 70
0
 72
1
 73
0
 74
5
  7

 75
16
 76
0
 77
2
 78
300
147
1.0
148
0.0
149
0.0
100
AcDbLayout
  1
Layout1
 70
1
 71
1
 10
0.0
 20
0.0
 11
420.0
 21
297.0
 12
0.0
 22
0.0
 32
0.0
 14
1e+20
 24
1e+20
 34
1e+20
 15
-1e+20
 25
-1e+20
 35
-1e+20
146
0.0
 13
0.0
 23
0.0
 33
0.0
 16
1.0
 26
0.0
 36
0.0
 17
0.0
 27
1.0
 37
0.0
 76
1
330
1B
  0
MATERIAL
  5
1F
102
{ACAD_REACTORS
330
E
102
}
330
E
100
AcDbMaterial
  1
ByBlock
  2

 70
0
 40
1.0
 71
1
 41
1.0
 91
-1023410177
 42
1.0
 72
1
  3

 73
1
 74
1
 75
1
 44
0.5
 73
0
 45
1.0
 46
1.0
 77
1
  4

 78
1
 79
1
170
1
 48
1.0
171
1
  6

172
1
173
1
174
1
140
1.0
141
1.0
175
1
  7

176
1
177
1
178
1
143
1.0
179
1
  8

270
1
271
1
272
1
145
1.0
146
1.0
273
1
  9

274
1
275
1
276
1
 42
1.0
 72
1
  3

 73
1
 74
1
 75
1
 94
63
  0
MATERIAL
  5
20
102
{ACAD_REACTORS
330
E
102
}
330
E
100
AcDbMaterial
  1
ByLayer
  2

 70
0
 40
1.0
 71
1
 41
1.0
 91
-1023410177
 42
1.0
 72
1
  3

 73
1
 74
1
 75
1
 44
0.5
 73
0
 45
1.0
 46
1.0
 77
1
  4

 78
1
 79
1
170
1
 48
1.0
171
1
  6

172
1
173
1
174
1
140
1.0
141
1.0
175
1
  7

176
1
177
1
178
1
143
1.0
179
1
  8

270
1
271
1
272
1
145
1.0
146
1.0
273
1
  9

274
1
275
1
276
1
 42
1.0
 72
1
  3

 73
1
 74
1
 75
1
 94
63
  0
MATERIAL
  5
21
102
{ACAD_REACTORS
330
E
102
}
330
E
100
AcDbMaterial
  1
Global
  2

 70
0
 40
1.0
 71
1
 41
1.0
 91
-1023410177
 42
1.0
 72
1
  3

 73
1
 74
1
 75
1
 44
0.5
 73
0
 45
1.0
 46
1.0
 77
1
  4

 78
1
 79
1
170
1
 48
1.0
171
1
  6

172
1
173
1
174
1
140
1.0
141
1.0
175
1
  7

176
1
177
1
178
1
143
1.0
179
1
  8

270
1
271
1
272
1
145
1.0
146
1.0
273
1
  9

274
1
275
1
276
1
 42
1.0
 72
1
  3

 73
1
 74
1
 75
1
 94
63
  0
MLINESTYLE
  5
22
102
{ACAD_REACTORS
330
10
102
}
330
10
100
AcDbMlineStyle
  2
Standard
 70
0
  3

 62
256
 51
90.0
 52
90.0
 71
2
 49
0.5
 62
256
  6
BYLAYER
 49
-0.5
 62
256
  6
BYLAYER
  0
MLEADERSTYLE
  5
2C
102
{ACAD_REACTORS
330
F
102
}
330
F
100
AcDbMLeaderStyle
179
2
170
2
171
1
172
0
 90
2
 40
0.0
 41
0.0
173
1
 91
-1056964608
 92
-2
290
1
 42
2.0
291
1
 43
8.0
  3
Standard
 44
4.0
300

342
29
174
1
175
1
176
0
178
1
 93
-1056964608
 45
4.0
292
0
297
0
 46
4.0
 94
-1056964608
 47
1.0
 49
1.0
140
1.0
294
1
141
0.0
177
0
142
1.0
295
0
296
0
143
3.75
271
0
272
9
273
9
  0
DICTIONARY
  5
2D
330
A
100
AcDbDictionary
280
1
281
1
  3
CREATED_BY_EZDXF
350
2E
  3
WRITTEN_BY_EZDXF
350
4D
  0
DICTIONARYVAR
  5
2E
330
2D
100
DictionaryVariables
280
0
  1
1.4.4 @ 2026-07-24T21:37:49.090190+00:00
  0
DICTIONARYVAR
  5
4D
330
2D
100
DictionaryVariables
280
0
  1
1.4.4 @ 2026-07-24T21:37:49.091334+00:00
  0
ENDSEC
  0
EOF
