  0
SECTION
  2
HEADER
  9
$ACADVER
  1
AC1024
  9
$ACADMAINTVER
 70
6
  9
$DWGCODEPAGE
  3
ANSI_1252
  9
$LASTSAVEDBY
  1
ezdxf
  9
$INSBASE
 10
0.0
 20
0.0
 30
0.0
  9
$EXTMIN
 10
1e+20
 20
1e+20
 30
1e+20
  9
$EXTMAX
 10
-1e+20
 20
-1e+20
 30
-1e+20
  9
$LIMMIN
 10
0.0
 20
0.0
  9
$LIMMAX
 10
420.0
 20
297.0
  9
$ORTHOMODE
 70
0
  9
$REGENMODE
 70
1
  9
$FILLMODE
 70
1
  9
$QTEXTMODE
 70
0
  9
$MIRRTEXT
 70
1
  9
$LTSCALE
 40
1.0
  9
$ATTMODE
 70
1
  9
$TEXTSIZE
 40
2.5
  9
$TRACEWID
 40
1.0
  9
$TEXTSTYLE
  7
Standard
  9
$CLAYER
  8
0
  9
$CELTYPE
  6
ByLayer
  9
$CECOLOR
 62
256
  9
$CELTSCALE
 40
1.0
  9
$DISPSILH
 70
0
  9
$DIMSCALE
 40
1.0
  9
$DIMASZ
 40
2.5
  9
$DIMEXO
 40
0.625
  9
$DIMDLI
 40
3.75
  9
$DIMRND
 40
0.0
  9
$DIMDLE
 40
0.0
  9
$DIMEXE
 40
1.25
  9
$DIMTP
 40
0.0
  9
$DIMTM
 40
0.0
  9
$DIMTXT
 40
2.5
  9
$DIMCEN
 40
2.5
  9
$DIMTSZ
 40
0.0
  9
$DIMTOL
 70
0
  9
$DIMLIM
 70
0
  9
$DIMTIH
 70
0
  9
$DIMTOH
 70
0
  9
$DIMSE1
 70
0
  9
$DIMSE2
 70
0
  9
$DIMTAD
 70
1
  9
$DIMZIN
 70
8
  9
$DIMBLK
  1

  9
$DIMASO
 70
1
  9
$DIMSHO
 70
1
  9
$DIMPOST
  1

  9
$DIMAPOST
  1

  9
$DIMALT
 70
0
  9
$DIMALTD
 70
3
  9
$DIMALTF
 40
0.03937007874
  9
$DIMLFAC
 40
1.0
  9
$DIMTOFL
 70
1
  9
$DIMTVP
 40
0.0
  9
$DIMTIX
 70
0
  9
$DIMSOXD
 70
0
  9
$DIMSAH
 70
0
  9
$DIMBLK1
  1

  9
$DIMBLK2
  1

  9
$DIMSTYLE
  2
ISO-25
  9
$DIMCLRD
 70
0
  9
$DIMCLRE
 70
0
  9
$DIMCLRT
 70
0
  9
$DIMTFAC
 40
1.0
  9
$DIMGAP
 40
0.625
  9
$DIMJUST
 70
0
  9
$DIMSD1
 70
0
  9
$DIMSD2
 70
0
  9
$DIMTOLJ
 70
0
  9
$DIMTZIN
 70
8
  9
$DIMALTZ
 70
0
  9
$DIMALTTZ
 70
0
  9
$DIMUPT
 70
0
  9
$DIMDEC
 70
2
  9
$DIMTDEC
 70
2
  9
$DIMALTU
 70
2
  9
$DIMALTTD
 70
3
  9
$DIMTXSTY
  7
Standard
  9
$DIMAUNIT
 70
0
  9
$DIMADEC
 70
0
  9
$DIMALTRND
 40
0.0
  9
$DIMAZIN
 70
0
  9
$DIMDSEP
 70
44
  9
$DIMATFIT
 70
3
  9
$DIMFRAC
 70
0
  9
$DIMLDRBLK
  1

  9
$DIMLUNIT
 70
2
  9
$DIMLWD
 70
-2
  9
$DIMLWE
 70
-2
  9
$DIMTMOVE
 70
0
  9
$DIMFXL
 40
1.0
  9
$DIMFXLON
 70
0
  9
$DIMJOGANG
 40
0.785398163397
  9
$DIMTFILL
 70
0
  9
$DIMTFILLCLR
 70
0
  9
$DIMARCSYM
 70
0
  9
$DIMLTYPE
  6

  9
$DIMLTEX1
  6

  9
$DIMLTEX2
  6

  9
$DIMTXTDIRECTION
 70
0
  9
$LUNITS
 70
2
  9
$LUPREC
 70
4
  9
$SKETCHINC
 40
1.0
  9
$FILLETRAD
 40
10.0
  9
$AUNITS
 70
0
  9
$AUPREC
 70
2
  9
$MENU
  1
.
  9
$ELEVATION
 40
0.0
  9
$PELEVATION
 40
0.0
  9
$THICKNESS
 40
0.0
  9
$LIMCHECK
 70
0
  9
$CHAMFERA
 40
0.0
  9
$CHAMFERB
 40
0.0
  9
$CHAMFERC
 40
0.0
  9
$CHAMFERD
 40
0.0
  9
$SKPOLY
 70
0
  9
$TDCREATE
 40
2461246.7345949076
  9
$TDUCREATE
 40
2458532.153996898
  9
$TDUPDATE
 40
2461246.7345949076
  9
$TDUUPDATE
 40
2458532.1544311
  9
$TDINDWG
 40
0.0
  9
$TDUSRTIMER
 40
0.0
  9
$USRTIMER
 70
1
  9
$ANGBASE
 50
0.0
  9
$ANGDIR
 70
0
  9
$PDMODE
 70
0
  9
$PDSIZE
 40
0.0
  9
$PLINEWID
 40
0.0
  9
$SPLFRAME
 70
0
  9
$SPLINETYPE
 70
6
  9
$SPLINESEGS
 70
8
  9
$HANDSEED
  5
4E
  9
$SURFTAB1
 70
6
  9
$SURFTAB2
 70
6
  9
$SURFTYPE
 70
6
  9
$SURFU
 70
6
  9
$SURFV
 70
6
  9
$UCSBASE
  2

  9
$UCSNAME
  2

  9
$UCSORG
 10
0.0
 20
0.0
 30
0.0
  9
$UCSXDIR
 10
1.0
 20
0.0
 30
0.0
  9
$UCSYDIR
 10
0.0
 20
1.0
 30
0.0
  9
$UCSORTHOREF
  2

  9
$UCSORTHOVIEW
 70
0
  9
$UCSORGTOP
 10
0.0
 20
0.0
 30
0.0
  9
$UCSORGBOTTOM
 10
0.0
 20
0.0
 30
0.0
  9
$UCSORGLEFT
 10
0.0
 20
0.0
 30
0.0
  9
$UCSORGRIGHT
 10
0.0
 20
0.0
 30
0.0
  9
$UCSORGFRONT
 10
0.0
 20
0.0
 30
0.0
  9
$UCSORGBACK
 10
0.0
 20
0.0
 30
0.0
  9
$PUCSBASE
  2

  9
$PUCSNAME
  2

  9
$PUCSORG
 10
0.0
 20
0.0
 30
0.0
  9
$PUCSXDIR
 10
1.0
 20
0.0
 30
0.0
  9
$PUCSYDIR
 10
0.0
 20
1.0
 30
0.0
  9
$PUCSORTHOREF
  2

  9
$PUCSORTHOVIEW
 70
0
  9
$PUCSORGTOP
 10
0.0
 20
0.0
 30
0.0
  9
$PUCSORGBOTTOM
 10
0.0
 20
0.0
 30
0.0
  9
$PUCSORGLEFT
 10
0.0
 20
0.0
 30
0.0
  9
$PUCSORGRIGHT
 10
0.0
 20
0.0
 30
0.0
  9
$PUCSORGFRONT
 10
0.0
 20
0.0
 30
0.0
  9
$PUCSORGBACK
 10
0.0
 20
0.0
 30
0.0
  9
$USERI1
 70
0
  9
$USERI2
 70
0
  9
$USERI3
 70
0
  9
$USERI4
 70
0
  9
$USERI5
 70
0
  9
$USERR1
 40
0.0
  9
$USERR2
 40
0.0
  9
$USERR3
 40
0.0
  9
$USERR4
 40
0.0
  9
$USERR5
 40
0.0
  9
$WORLDVIEW
 70
1
  9
$SHADEDGE
 70
3
  9
$SHADEDIF
 70
70
  9
$TILEMODE
 70
1
  9
$MAXACTVP
 70
64
  9
$PINSBASE
 10
0.0
 20
0.0
 30
0.0
  9
$PLIMCHECK
 70
0
  9
$PEXTMIN
 10
1e+20
 20
1e+20
 30
1e+20
  9
$PEXTMAX
 10
-1e+20
 20
-1e+20
 30
-1e+20
  9
$PLIMMIN
 10
0.0
 20
0.0
  9
$PLIMMAX
 10
420.0
 20
297.0
  9
$UNITMODE
 70
0
  9
$VISRETAIN
 70
1
  9
$PLINEGEN
 70
0
  9
$PSLTSCALE
 70
1
  9
$TREEDEPTH
 70
3020
  9
$CMLSTYLE
  2
Standard
  9
$CMLJUST
 70
0
  9
$CMLSCALE
 40
20.0
  9
$PROXYGRAPHICS
 70
1
  9
$MEASUREMENT
 70
1
  9
$CELWEIGHT
370
-1
  9
$ENDCAPS
280
0
  9
$JOINSTYLE
280
0
  9
$LWDISPLAY
290
0
  9
$INSUNITS
 70
4
  9
$HYPERLINKBASE
  1

  9
$STYLESHEET
  1

  9
$XEDIT
290
1
  9
$CEPSNTYPE
380
0
  9
$PSTYLEMODE
290
1
  9
$FINGERPRINTGUID
  2
{2D4176BE-8B91-40D6-9E5E-CB21E5E8F292}
  9
$VERSIONGUID
  2
{180D621F-0B6A-48E3-AA15-BBD8D5C83057}
  9
$EXTNAMES
290
1
  9
$PSVPSCALE
 40
0.0
  9
$OLESTARTUP
290
0
  9
$SORTENTS
280
127
  9
$INDEXCTL
280
0
  9
$HIDETEXT
280
1
  9
$XCLIPFRAME
280
1
  9
$HALOGAP
280
0
  9
$OBSCOLOR
 70
257
  9
$OBSLTYPE
280
0
  9
$INTERSECTIONDISPLAY
280
0
  9
$INTERSECTIONCOLOR
 70
257
  9
$DIMASSOC
280
2
  9
$PROJECTNAME
  1

  9
$CAMERADISPLAY
290
0
  9
$LENSLENGTH
 40
50.0
  9
$CAMERAHEIGHT
 40
0.0
  9
$STEPSPERSEC
 40
24.0
  9
$STEPSIZE
 40
100.0
  9
$3DDWFPREC
 40
2.0
  9
$PSOLWIDTH
 40
0.005
  9
$PSOLHEIGHT
 40
0.08
  9
$LOFTANG1
 40
1.570796326795
  9
$LOFTANG2
 40
1.570796326795
  9
$LOFTMAG1
 40
0.0
  9
$LOFTMAG2
 40
0.0
  9
$LOFTPARAM
 70
7
  9
$LOFTNORMALS
280
1
  9
$LATITUDE
 40
37.795
  9
$LONGITUDE
 40
-122.394
  9
$NORTHDIRECTION
 40
0.0
  9
$TIMEZONE
 70
-8000
  9
$LIGHTGLYPHDISPLAY
280
1
  9
$TILEMODELIGHTSYNCH
280
1
  9
$CMATERIAL
347
20
  9
$SOLIDHIST
280
0
  9
$SHOWHIST
280
1
  9
$DWFFRAME
280
2
  9
$DGNFRAME
280
2
  9
$REALWORLDSCALE
290
1
  9
$INTERFERECOLOR
 62
256
  9
$CSHADOW
280
0
  9
$SHADOWPLANELOCATION
 40
0.0
  0
ENDSEC
  0
SECTION
  2
CLASSES
  0
CLASS
  1
ACDBDICTIONARYWDFLT
  2
AcDbDictionaryWithDefault
  3
ObjectDBX Classes
 90
0
 91
0
280
0
281
0
  0
CLASS
  1
SUN
  2
AcDbSun
  3
SCENEOE
 90
1153
 91
0
280
0
281
0
  0
CLASS
  1
VISUALSTYLE
  2
AcDbVisualStyle
  3
ObjectDBX Classes
 90
4095
 91
0
280
0
281
0
  0
CLASS
  1
MATERIAL
  2
AcDbMaterial
  3
ObjectDBX Classes
 90
1153
 91
0
280
0
281
0
  0
CLASS
  1
SCALE
  2
AcDbScale
  3
ObjectDBX Classes
 90
1153
 91
0
280
0
281
0
  0
CLASS
  1
TABLESTYLE
  2
AcDbTableStyle
  3
ObjectDBX Classes
 90
4095
 91
0
280
0
281
0
  0
CLASS
  1
MLEADERSTYLE
  2
AcDbMLeaderStyle
  3
ACDB_MLEADERSTYLE_CLASS
 90
4095
 91
0
280
0
281
0
  0
CLASS
  1
DICTIONARYVAR
  2
AcDbDictionaryVar
  3
ObjectDBX Classes
 90
0
 91
0
280
0
281
0
  0
CLASS
  1
CELLSTYLEMAP
  2
AcDbCellStyleMap
  3
ObjectDBX Classes
 90
1152
 91
0
280
0
281
0
  0
CLASS
  1
MENTALRAYRENDERSETTINGS
  2
AcDbMentalRayRenderSettings
  3
SCENEOE
 90
1024
 91
0
280
0
281
0
  0
CLASS
  1
ACDBDETAILVIEWSTYLE
  2
AcDbDetailViewStyle
  3
ObjectDBX Classes
 90
1025
 91
0
280
0
281
0
  0
CLASS
  1
ACDBSECTIONVIEWSTYLE
  2
AcDbSectionViewStyle
  3
ObjectDBX Classes
 90
1025
 91
0
280
0
281
0
  0
CLASS
  1
RASTERVARIABLES
  2
AcDbRasterVariables
  3
ISM
 90
0
 91
0
280
0
281
0
  0
CLASS
  1
LAYOUT
  2
AcDbLayout
  3
ObjectDBX Classes
 90
0
 91
0
280
0
281
0
  0
CLASS
  1
ACDBPLACEHOLDER
  2
AcDbPlaceHolder
  3
ObjectDBX Classes
 90
0
 91
0
280
0
281
0
  0
ENDSEC
  0
SECTION
  2
TABLES
  0
TABLE
  2
VPORT
  5
8
330
0
100
AcDbSymbolTable
 70
1
  0
VPORT
  5
23
330
8
100
AcDbSymbolTableRecord
100
AcDbViewportTableRecord
  2
*Active
 70
0
 10
0.0
 20
0.0
 11
1.0
 21
1.0
 12
0.0
 22
0.0
 13
0.0
 23
0.0
 14
0.5
 24
0.5
 15
0.5
 25
0.5
 16
0.0
 26
0.0
 36
1.0
 17
0.0
 27
0.0
 37
0.0
 40
1000.0
 41
1.34
 42
50.0
 43
0.0
 44
0.0
 50
0.0
 51
0.0
 71
0
 72
1000
 73
1
 74
3
 75
0
 76
0
 77
0
 78
0
281
0
 65
0
146
0.0
  0
ENDTAB
  0
TABLE
  2
LTYPE
  5
2
330
0
100
AcDbSymbolTable
 70
3
  0
LTYPE
  5
24
330
2
100
AcDbSymbolTableRecord
100
AcDbLinetypeTableRecord
  2
ByBlock
 70
0
  3

 72
65
 73
0
 40
0.0
  0
LTYPE
  5
25
330
2
100
AcDbSymbolTableRecord
100
AcDbLinetypeTableRecord
  2
ByLayer
 70
0
  3

 72
65
 73
0
 40
0.0
  0
LTYPE
  5
26
330
2
100
AcDbSymbolTableRecord
100
AcDbLinetypeTableRecord
  2
Continuous
 70
0
  3

 72
65
 73
0
 40
0.0
  0
ENDTAB
  0
TABLE
  2
LAYER
  5
1
330
0
100
AcDbSymbolTable
 70
2
  0
LAYER
  5
27
330
1
100
AcDbSymbolTableRecord
100
AcDbLayerTableRecord
  2
0
 70
0
 62
7
  6
Continuous
370
-3
390
13
347
21
  0
LAYER
  5
28
330
1
100
AcDbSymbolTableRecord
100
AcDbLayerTableRecord
  2
Defpoints
 70
0
 62
7
  6
Continuous
290
0
370
-3
390
13
347
21
  0
ENDTAB
  0
TABLE
  2
STYLE
  5
5
330
0
100
AcDbSymbolTable
 70
1
  0
STYLE
  5
29
330
5
100
AcDbSymbolTableRecord
100
AcDbTextStyleTableRecord
  2
Standard
 70
0
 40
0.0
 41
1.0
 50
0.0
 71
0
 42
2.5
  3
txt
  4

  0
ENDTAB
  0
TABLE
  2
VIEW
  5
7
330
0
100
AcDbSymbolTable
 70
0
  0
ENDTAB
  0
TABLE
  2
UCS
  5
6
330
0
100
AcDbSymbolTable
 70
0
  0
ENDTAB
  0
TABLE
  2
APPID
  5
3
330
0
100
AcDbSymbolTable
 70
3
  0
APPID
  5
2A
330
3
100
AcDbSymbolTableRecord
100
AcDbRegAppTableRecord
  2
ACAD
 70
0
  0
APPID
  5
4B
330
3
100
AcDbSymbolTableRecord
100
AcDbRegAppTableRecord
  2
HATCHBACKGROUNDCOLOR
 70
0
  0
APPID
  5
4C
330
3
100
AcDbSymbolTableRecord
100
AcDbRegAppTableRecord
  2
EZDXF
 70
0
  0
ENDTAB
  0
TABLE
  2
DIMSTYLE
  5
4
330
0
100
AcDbSymbolTable
 70
1
100
AcDbDimStyleTable
  0
DIMSTYLE
105
2B
330
4
100
AcDbSymbolTableRecord
100
AcDbDimStyleTableRecord
  2
Standard
 70
0
 40
1.0
 41
2.5
 42
0.625
 43
3.75
 44
1.25
 45
0.0
 46
0.0
 47
0.0
 48
0.0
 49
2.5
140
2.5
141
2.5
142
0.0
143
0.03937007874
144
1.0
145
0.0
146
1.0
147
0.625
148
0.0
 69
0
 70
0
 71
0
 72
0
 73
0
 74
0
 75
0
 76
0
 77
1
 78
8
 79
3
170
0
171
3
172
1
173
0
174
0
175
0
176
0
177
0
178
0
179
2
271
2
272
2
273
2
274
3
275
0
276
0
277
2
278
44
279
0
280
0
281
0
282
0
283
0
284
8
285
0
286
0
288
0
289
3
290
0
371
-2
372
-2
  0
ENDTAB
  0
TABLE
  2
BLOCK_RECORD
  5
9
330
0
100
AcDbSymbolTable
 70
2
  0
BLOCK_RECORD
  5
17
330
9
100
AcDbSymbolTableRecord
100
AcDbBlockTableRecord
  2
*Model_Space
340
1A
 70
0
280
1
281
0
  0
BLOCK_RECORD
  5
1B
330
9
100
AcDbSymbolTableRecord
100
AcDbBlockTableRecord
  2
*Paper_Space
340
1E
 70
0
280
1
281
0
  0
ENDTAB
  0
ENDSEC
  0
SECTION
  2
BLOCKS
  0
BLOCK
  5
18
330
17
100
AcDbEntity
  8
0
100
AcDbBlockBegin
  2
*Model_Space
 70
0
 10
0.0
 20
0.0
 30
0.0
  3
*Model_Space
  1

  0
ENDBLK
  5
19
330
17
100
AcDbEntity
  8
0
100
AcDbBlockEnd
  0
BLOCK
  5
1C
330
1B
100
AcDbEntity
  8
0
100
AcDbBlockBegin
  2
*Paper_Space
 70
0
 10
0.0
 20
0.0
 30
0.0
  3
*Paper_Space
  1

  0
ENDBLK
  5
1D
330
1B
100
AcDbEntity
  8
0
100
AcDbBlockEnd
  0
ENDSEC
  0
SECTION
  2
ENTITIES
  0
TEXT
  5
2F
330
17
100
AcDbEntity
  8
RESEARCH_ONLY
100
AcDbText
 10
0.0
 20
0.0
 30
0.0
 40
3.0
  1
RESEARCH BENCH PROTOTYPE — NOT FOR HUMAN USE
100
AcDbText
  0
LWPOLYLINE
  5
30
330
17
100
AcDbEntity
  8
TOOTH_001
100
AcDbPolyline
 90
13
 70
1
 10
-106.88609906350052
 20
0.09639759766599594
 10
-106.87761733069772
 20
0.09803042424291386
 10
-100.84748737498714
 20
0.08716464457793402
 10
-100.83901158167201
 20
0.08550126198583698
 10
-100.84037815005553
 20
0.07697258067969946
 10
-102.89016942178463
 20
-5.523363409274042
 10
-102.89556796509989
 20
-5.53208058745265
 10
-102.90561331594267
 20
-5.534135919973131
 10
-104.83976289693672
 20
-5.530650747457687
 10
-104.84980077550367
 20
-5.528559226671396
 10
-104.85516786864143
 20
-5.519822649734469
 10
-106.88476323980343
 20
0.08786404687994337
 10
-106.88609906350052
 20
0.09639759766599594
  0
LWPOLYLINE
  5
31
330
17
100
AcDbEntity
  8
TOOTH_002
100
AcDbPolyline
 90
13
 70
1
 10
-107.56642762002662
 20
-8.472646635241007
 10
-107.56685809514478
 20
-8.464019897436895
 10
-106.72210694885112
 20
-2.5604783367410264
 10
-106.71863203395269
 20
-2.55083165690942
 10
-106.70923066202315
 20
-2.546739265045635
 10
-104.81634395078265
 20
-2.149339407853867
 10
-104.80609054603822
 20
-2.149305400923167
 10
-104.79902949702765
 20
-2.15674012029883
 10
-101.65142304997947
 20
-7.22211089769788
 10
-101.64834783522574
 20
-7.2301823887737235
 10
-101.65630708592012
 20
-7.233537421165897
 10
-107.55779111403311
 20
-8.472517491164197
 10
-107.56642762002662
 20
-8.472646635241007
  0
LWPOLYLINE
  5
32
330
17
100
AcDbEntity
  8
TOOTH_003
100
AcDbPolyline
 90
13
 70
1
 10
-101.74803921601199
 20
-5.232638574430086
 10
-101.73941911019095
 20
-5.233186013561654
 10
-95.90489573003946
 20
-6.7566433560533286
 10
-95.89710838140574
 20
-6.760380081253962
 10
-95.90057105574641
 20
-6.768293095874149
 10
-99.28990275353023
 20
-11.675210468362295
 10
-99.29731572884158
 20
-11.68229434176299
 10
-99.30755544395268
 20
-11.681763587800818
 10
-101.17896468950849
 20
-11.19311833433458
 10
-101.1881567399482
 20
-11.188575243532217
 10
-101.1911601831964
 20
-11.178771530257187
 10
-101.7488871590131
 20
-5.241234323765376
 10
-101.74803921601199
 20
-5.232638574430086
  0
LWPOLYLINE
  5
33
330
17
100
AcDbEntity
  8
TOOTH_004
100
AcDbPolyline
 90
13
 70
1
 10
-104.26053462324072
 20
-16.627634872544583
 10
-104.25890792775249
 20
-16.617511270067567
 10
-103.57223078431836
 20
-14.80935717022651
 10
-103.56672737221949
 20
-14.800705816540814
 10
-103.55665793505203
 20
-14.798771934317204
 10
-97.5935581920429
 20
-14.881530093748852
 10
-97.58510310250233
 20
-14.883295702660611
 10
-97.58657255748331
 20
-14.891807260451502
 10
-99.72743717995778
 20
-20.529119032578627
 10
-99.73198812055983
 20
-20.53646034401493
 10
-99.7394837854041
 20
-20.532168383797174
 10
-104.25428728781732
 20
-16.635765325510544
 10
-104.26053462324072
 20
-16.627634872544583
  0
LWPOLYLINE
  5
34
330
17
100
AcDbEntity
  8
TOOTH_005
100
AcDbPolyline
 90
13
 70
1
 10
-102.12416482603436
 20
-17.304287143533053
 10
-102.11696901324218
 20
-17.296982778838906
 10
-100.50900968633754
 20
-16.222081131660406
 10
-100.49950926407058
 20
-16.218224262194912
 10
-100.49018429354545
 20
-16.222487874516673
 10
-95.68005739572547
 20
-19.747837032386883
 10
-95.67419291705369
 20
-19.754178467861394
 10
-95.68032582214296
 20
-19.760260686957636
 10
-100.69348705848792
 20
-23.111499229098996
 10
-100.70145182844432
 20
-23.114841137761736
 10
-100.70506966776945
 20
-23.106997850658306
 10
-102.1237898900437
 20
-17.314533747279082
 10
-102.12416482603436
 20
-17.304287143533053
  0
LWPOLYLINE
  5
35
330
17
100
AcDbEntity
  8
TOOTH_006
100
AcDbPolyline
 90
13
 70
1
 10
-97.38774019734306
 20
-15.715371149378822
 10
-97.3793703103798
 20
-15.713237864074294
 10
-91.35922294057325
 20
-15.36623499126619
 10
-91.35066337377565
 20
-15.367392458417234
 10
-91.35152141125575
 20
-15.375987205979028
 10
-93.06535617515776
 20
-21.088095210916347
 10
-93.07022789560509
 20
-21.09711739497608
 10
-93.08013357189856
 20
-21.099765232299873
 10
-95.01108126263728
 20
-21.21106556346603
 10
-95.0212255689472
 20
-21.20957341239636
 10
-95.02710166296706
 20
-21.201170735180476
 10
-97.38590031642077
 20
-15.72381038821658
 10
-97.38774019734306
 20
-15.715371149378822
  0
LWPOLYLINE
  5
36
330
17
100
AcDbEntity
  8
TOOTH_007
100
AcDbPolyline
 90
13
 70
1
 10
-89.7769994155959
 20
-14.908786318333139
 10
-89.76876887595303
 20
-14.90616636963984
 10
-83.77928883182973
 20
-14.207085438005482
 10
-83.77067615830356
 20
-14.207739478294851
 10
-83.77102922219792
 20
-14.216369730889907
 10
-85.14729226049582
 20
-20.019068026290388
 10
-85.151627073982
 20
-20.028360112028476
 10
-85.16136062172976
 20
-20.03158369909363
 10
-87.08247184201821
 20
-20.255812215051407
 10
-87.09268613994786
 20
-20.254916903301897
 10
-87.0990443903212
 20
-20.246872892019304
 10
-89.77466830459568
 20
-14.91710327904443
 10
-89.7769994155959
 20
-14.908786318333139
  0
LWPOLYLINE
  5
37
330
17
100
AcDbEntity
  8
TOOTH_008
100
AcDbPolyline
 90
13
 70
1
 10
-81.53944970602619
 20
-14.309854398004633
 10
-81.53094488627437
 20
-14.308346434159724
 10
-75.50162627464725
 20
-14.407857375330547
 10
-75.49317584988844
 20
-14.40964517715512
 10
-75.49466764706145
 20
-14.418152847527402
 10
-77.62656554022888
 20
-19.987750573677438
 10
-77.63209164765281
 20
-19.9963874482316
 10
-77.64216612755867
 20
-19.99829488629105
 10
-79.57605547190265
 20
-19.96637699288187
 10
-79.586061519241
 20
-19.964138135586847
 10
-79.59129959977138
 20
-19.95532360339955
 10
-81.538239474721
 20
-14.318406664029288
 10
-81.53944970602619
 20
-14.309854398004633
  0
LWPOLYLINE
  5
38
330
17
100
AcDbEntity
  8
TOOTH_009
100
AcDbPolyline
 90
13
 70
1
 10
-91.76637770445349
 20
-25.150255887041705
 10
-91.76757639869223
 20
-25.14170199634269
 10
-91.45308800125305
 20
-19.18632589521324
 10
-91.45048792082366
 20
-19.176407576450192
 10
-91.44148931373425
 20
-19.171492443107653
 10
-89.59162461194646
 20
-18.606738219425925
 10
-89.58141516111311
 20
-18.605789231013986
 10
-89.5737187416945
 20
-18.61256408108296
 10
-85.98658886214882
 20
-23.376796095300836
 10
-85.982805538588
 20
-23.384560911898976
 10
-85.99043358898152
 20
-23.388612918952564
 10
-91.75778719072797
 20
-25.149356449495354
 10
-91.76637770445349
 20
-25.150255887041705
  0
LWPOLYLINE
  5
39
330
17
100
AcDbEntity
  8
TOOTH_010
100
AcDbPolyline
 90
13
 70
1
 10
-99.30732440640706
 20
-27.438538373842952
 10
-99.30844158459675
 20
-27.429973455462633
 10
-98.93725232073372
 20
-21.477862402363854
 10
-98.93455790259729
 20
-21.467969294852576
 10
-98.92551289504524
 20
-21.463140081282212
 10
-97.07035372930443
 20
-20.916028376184713
 10
-97.06013570390219
 20
-20.915176658975877
 10
-97.0525041527666
 20
-20.92202449751
 10
-93.5109083892841
 20
-25.720201954223228
 10
-93.507199184352
 20
-25.728002448613935
 10
-93.51486547750706
 20
-25.731981627326903
 10
-99.29872571658709
 20
-27.437720787548802
 10
-99.30732440640706
 20
-27.438538373842952
  0
LWPOLYLINE
  5
3A
330
17
100
AcDbEntity
  8
TOOTH_011
100
AcDbPolyline
 90
13
 70
1
 10
-106.84230058250256
 20
-29.614778968830525
 10
-106.84344691949008
 20
-29.6062179043243
 10
-106.49252794655338
 20
-23.652877385551598
 10
-106.48986723206527
 20
-23.64297516036041
 10
-106.48083872140005
 20
-23.638115174713068
 10
-104.62755333707227
 20
-23.084689450406778
 10
-104.61733827118016
 20
-23.083802943698146
 10
-104.6096834460185
 20
-23.09062475555928
 10
-101.05176945350973
 20
-27.876714545767822
 10
-101.04803370782554
 20
-27.88450236434243
 10
-101.05568640662733
 20
-27.888507625259983
 10
-106.83370472658162
 20
-29.613932107003027
 10
-106.84230058250256
 20
-29.614778968830525
  0
LWPOLYLINE
  5
3B
330
17
100
AcDbEntity
  8
TOOTH_012
100
AcDbPolyline
 90
13
 70
1
 10
-105.10580334577486
 20
-23.40157007866604
 10
-105.09770213766201
 20
-23.39857402441401
 10
-99.14675299621425
 20
-22.42451567717407
 10
-99.13811934517251
 20
-22.42477255001789
 10
-99.13807475146027
 20
-22.43340990640567
 10
-100.24575853973327
 20
-28.293311277864458
 10
-100.24966100779714
 20
-28.302793060836848
 10
-100.25923584288223
 20
-28.30646130270698
 10
-102.16798836944228
 20
-28.618888158846914
 10
-102.17823305361983
 20
-28.618463999175635
 10
-102.18495485990458
 20
-28.61072120991111
 10
-105.10309184472395
 20
-23.409770912527275
 10
-105.10580334577486
 20
-23.40157007866604
  0
LWPOLYLINE
  5
3C
330
17
100
AcDbEntity
  8
TOOTH_013
100
AcDbPolyline
 90
13
 70
1
 10
-97.39864266046851
 20
-22.019730119598762
 10
-97.39056406705355
 20
-22.016673611394335
 10
-91.447059891055
 20
-20.998173018456903
 10
-91.4384245615468
 20
-20.99836536775718
 10
-91.43831542501938
 20
-21.00700214974967
 10
-92.50217921318364
 20
-26.87501725694404
 10
-92.50601071811148
 20
-26.884527937009757
 10
-92.51555787432191
 20
-26.888267625983236
 10
-94.42192244624252
 20
-27.21494922481123
 10
-94.4321700139835
 20
-27.21460163206324
 10
-94.43894949185135
 20
-27.20690928878151
 10
-97.39586995305054
 20
-22.027910462350963
 10
-97.39864266046851
 20
-22.019730119598762
  0
LWPOLYLINE
  5
3D
330
17
100
AcDbEntity
  8
TOOTH_014
100
AcDbPolyline
 90
13
 70
1
 10
-95.0642940091071
 20
-28.006051408216642
 10
-95.0608822231601
 20
-27.996382220971768
 10
-94.06176643636392
 20
-26.340267975920586
 10
-94.05480391013242
 20
-26.332740911831564
 10
-94.04455094671084
 20
-26.33263988510232
 10
-88.19248401044882
 20
-27.48099524453463
 10
-88.18448126637094
 20
-27.484245167794032
 10
-88.18744991812436
 20
-27.49235645750258
 10
-91.302409637055
 20
-32.65565107405942
 10
-91.30820066563652
 20
-32.66205965439649
 10
-91.31480744602248
 20
-32.656495809781454
 10
-95.05960220674606
 20
-28.01516845027698
 10
-95.0642940091071
 20
-28.006051408216642
  0
LWPOLYLINE
  5
3E
330
17
100
AcDbEntity
  8
TOOTH_015
100
AcDbPolyline
 90
13
 70
1
 10
-87.18464412202464
 20
-26.379931736169905
 10
-87.17604527864148
 20
-26.38074770580203
 10
-81.39186444419794
 20
-28.085399406995432
 10
-81.38419740304934
 20
-28.08937714429124
 10
-81.38790514133778
 20
-28.097178335915164
 10
-84.92859873247086
 20
-32.896021566500686
 10
-84.93622899600318
 20
-32.90287083972874
 10
-84.94644718135693
 20
-32.902021043635315
 10
-86.80170917728428
 20
-32.35525813838785
 10
-86.8107550926213
 20
-32.35043062546305
 10
-86.81345137072238
 20
-32.34053802470655
 10
-87.1857596898964
 20
-26.388496864440512
 10
-87.18464412202464
 20
-26.379931736169905
  0
LWPOLYLINE
  5
3F
330
17
100
AcDbEntity
  8
TOOTH_016
100
AcDbPolyline
 90
13
 70
1
 10
-84.87130323879538
 20
-38.829839878407526
 10
-84.86820572994827
 20
-38.820065477951935
 10
-81.95422046134104
 20
-33.61678792314395
 10
-81.94863957440273
 20
-33.6101955324585
 10
-81.94185642947824
 20
-33.6155429485543
 10
-78.00563046888945
 20
-38.18377132891283
 10
-78.0013444237595
 20
-38.19127037759332
 10
-78.00868932340431
 20
-38.195815524805084
 10
-83.585533887742
 20
-40.308683756201575
 10
-83.59565877045999
 20
-40.31030246410354
 10
-83.60378429202089
 20
-40.30404871605235
 10
-84.86631923708634
 20
-38.838800525275296
 10
-84.87130323879538
 20
-38.829839878407526
  0
LWPOLYLINE
  5
40
330
17
100
AcDbEntity
  8
TOOTH_017
100
AcDbPolyline
 90
13
 70
1
 10
-78.79945755961398
 20
-35.7691343504797
 10
-78.79084154905722
 20
-35.76852584735402
 10
-72.80514064734258
 20
-36.499258399755085
 10
-72.79692407218057
 20
-36.501921819845
 10
-72.79929911544917
 20
-36.510226341712084
 10
-75.50305969535515
 20
-41.82577769454226
 10
-75.50946037887405
 20
-41.83378798266533
 10
-75.51967926685772
 20
-41.83462928742701
 10
-77.43957833637002
 20
-41.60024859075451
 10
-77.44929470770417
 20
-41.59697359557574
 10
-77.45358034111337
 20
-41.58765872511999
 10
-78.79915012160399
 20
-35.777766348848495
 10
-78.79945755961398
 20
-35.7691343504797
  0
LWPOLYLINE
  5
41
330
17
100
AcDbEntity
  8
TOOTH_018
100
AcDbPolyline
 90
13
 70
1
 10
-82.33569906942651
 20
-47.11814379319182
 10
-82.33297356739602
 20
-47.10825920397399
 10
-81.45242332034364
 20
-45.386173837186625
 10
-81.44600563469511
 20
-45.378177164363485
 10
-81.43578498255248
 20
-45.37735756988846
 10
-75.51760859114508
 20
-46.11260967509892
 10
-75.50939769253179
 20
-46.11529054397499
 10
-75.51179037206589
 20
-46.12359000170516
 10
-78.25709635792965
 20
-51.49256386939229
 10
-78.26242384335033
 20
-51.49936267907198
 10
-78.26940443793875
 20
-51.49427571404746
 10
-82.33037963274906
 20
-47.126909468223396
 10
-82.33569906942651
 20
-47.11814379319182
  0
LWPOLYLINE
  5
42
330
17
100
AcDbEntity
  8
TOOTH_019
100
AcDbPolyline
 90
13
 70
1
 10
-89.14459595232498
 20
-50.193010852583114
 10
-89.1381090140753
 20
-50.18507025452822
 10
-87.63683588243521
 20
-48.965592607212564
 10
-87.62773436103026
 20
-48.960870767164565
 10
-87.61805397608356
 20
-48.964250650684455
 10
-82.50154000738412
 20
-52.02802157327838
 10
-82.4951123661314
 20
-52.03379143825897
 10
-82.50065439482145
 20
-52.0404165293502
 10
-87.18119832573792
 20
-55.84240204466809
 10
-87.18881860806563
 20
-55.84646864167471
 10
-87.1931486718292
 20
-55.83899492360591
 10
-89.14327177773075
 20
-50.20317844949529
 10
-89.14459595232498
 20
-50.193010852583114
  0
LWPOLYLINE
  5
43
330
17
100
AcDbEntity
  8
TOOTH_020
100
AcDbPolyline
 90
13
 70
1
 10
-83.46379640879897
 20
-47.08311122502057
 10
-83.45683776139676
 20
-47.07799427863628
 10
-78.00637152299747
 20
-44.498265003693675
 10
-77.9980027356228
 20
-44.49612740881961
 10
-77.99557437644638
 20
-44.504416497169906
 10
-77.44176333776548
 20
-50.44232023430332
 10
-77.44289530134613
 20
-50.45251102052306
 10
-77.45108461117084
 20
-50.458681001877885
 10
-79.1993084585257
 20
-51.28612291985564
 10
-79.20927181948252
 20
-51.28854467619539
 10
-79.21787061435201
 20
-51.282959500091074
 10
-83.45892543281224
 20
-47.09024421225628
 10
-83.46379640879897
 20
-47.08311122502057
  0
LWPOLYLINE
  5
44
330
17
100
AcDbEntity
  8
TOOTH_021
100
AcDbPolyline
 90
13
 70
1
 10
-76.57444690965119
 20
-43.6616598612244
 10
-76.56775435628751
 20
-43.65619949095834
 10
-71.2538973445651
 20
-40.80567164389305
 10
-71.24564662643628
 20
-40.80311595135922
 10
-71.24280454485117
 20
-40.811272450990316
 10
-70.3911227786049
 20
-46.71381814137441
 10
-70.39174089445095
 20
-46.72405295442225
 10
-70.39960960451901
 20
-46.73062690811767
 10
-72.1040163732242
 20
-47.64492681234975
 10
-72.1138453595907
 20
-47.64784648567598
 10
-72.12271411271288
 20
-47.64270074147506
 10
-76.56922343243922
 20
-43.6685389018395
 10
-76.57444690965119
 20
-43.6616598612244
  0
LWPOLYLINE
  5
45
330
17
100
AcDbEntity
  8
TOOTH_022
100
AcDbPolyline
 90
13
 70
1
 10
-69.50540420077827
 20
-40.205400302508686
 10
-69.49867902848945
 20
-40.19998015752414
 10
-64.16782637183312
 20
-37.38136430910731
 10
-64.15956047861923
 20
-37.37885813206947
 10
-64.15676735276377
 20
-37.387031525607256
 10
-63.340491308690375
 20
-43.29457762173721
 10
-63.341170779196254
 20
-43.30480854472373
 10
-63.34907876385845
 20
-43.311335201134696
 10
-65.05893684452029
 20
-44.21539940907698
 10
-65.06878315995436
 20
-44.21826009740277
 10
-65.07762090086973
 20
-44.213061270531526
 10
-69.50022206272769
 20
-40.212310538336304
 10
-69.50540420077827
 20
-40.205400302508686
  0
LWPOLYLINE
  5
46
330
17
100
AcDbEntity
  8
TOOTH_023
100
AcDbPolyline
 90
13
 70
1
 10
-60.96304415635799
 20
-38.823079033358795
 10
-60.954410346075015
 20
-38.82333049700555
 10
-55.07106801010858
 20
-40.14577834314216
 10
-55.06315708055088
 20
-40.14924577843376
 10
-55.06634631611457
 20
-40.157272900613435
 10
-58.285385863134124
 20
-45.177550965895506
 10
-58.29255151347765
 20
-45.18488492256832
 10
-58.302803407878
 20
-45.18470568382293
 10
-60.18987121529363
 20
-44.76053373955674
 10
-60.19921367701776
 20
-44.75630859171818
 10
-60.20255160208353
 20
-44.74661365893969
 10
-60.96359678245339
 20
-38.83169880820316
 10
-60.96304415635799
 20
-38.823079033358795
  0
LWPOLYLINE
  5
47
330
17
100
AcDbEntity
  8
TOOTH_024
100
AcDbPolyline
 90
13
 70
1
 10
-71.94299176426954
 20
-48.867847118010204
 10
-71.93737409205418
 20
-48.85926951786766
 10
-70.5723880861237
 20
-47.4889557028235
 10
-70.56383243515477
 20
-47.48330465851098
 10
-70.5538507705405
 20
-47.4856498316076
 10
-65.14402771117214
 20
-49.99547491004512
 10
-65.13702997428817
 20
-50.00053826787085
 10
-65.1418460301578
 20
-50.007708450562305
 10
-69.39748534801078
 20
-54.27995836650469
 10
-69.40463671496802
 20
-54.284802317847486
 10
-69.40972729461407
 20
-54.27782435877371
 10
-71.94060772459999
 20
-48.8778195710774
 10
-71.94299176426954
 20
-48.867847118010204
  0
LWPOLYLINE
  5
48
330
17
100
AcDbEntity
  8
TOOTH_025
100
AcDbPolyline
 90
13
 70
1
 10
-68.24099549509381
 20
-55.66015277129469
 10
-68.23305297378792
 20
-55.653668187990384
 10
-62.94623437554602
 20
-52.89414711227615
 10
-62.937955294260696
 20
-52.89168485172139
 10
-62.93520559787852
 20
-52.89987295795996
 10
-62.14155463524905
 20
-58.8775567483125
 10
-62.1420724797431
 20
-58.886178682611025
 10
-62.150707234304456
 20
-58.885962054741476
 10
-67.9744311994037
 20
-57.60157635085181
 10
-67.98379063175415
 20
-57.597388930237315
 10
-67.98716764455865
 20
-57.58770754346462
 10
-68.24172926895143
 20
-55.670379943007795
 10
-68.24099549509381
 20
-55.66015277129469
  0
LWPOLYLINE
  5
49
330
17
100
AcDbEntity
  8
TOOTH_026
100
AcDbPolyline
 90
13
 70
1
 10
-57.77631731800353
 20
-49.79788714303926
 10
-57.76769835360534
 20
-49.797322017680905
 10
-51.785751542800284
 20
-50.558175289097555
 10
-51.77754847848182
 20
-50.560880034881464
 10
-51.77996529379155
 20
-50.569172496381356
 10
-54.51044829229517
 20
-55.87104669829434
 10
-54.51688921578233
 20
-55.87902466607801
 10
-54.52711220914467
 20
-55.879814521784795
 10
-56.445807163088496
 20
-55.635772677427056
 10
-56.45550692611787
 20
-55.63244881483996
 10
-56.459745617352034
 20
-55.62311248997704
 10
-57.776053334423864
 20
-49.80652057958784
 10
-57.77631731800353
 20
-49.79788714303926
  0
LWPOLYLINE
  5
4A
330
17
100
AcDbEntity
  8
TOOTH_027
100
AcDbPolyline
 90
13
 70
1
 10
-50.063971119859964
 20
-50.63554704807222
 10
-50.05537355379797
 20
-50.63471772800239
 10
-44.052897643811846
 20
-51.21166512418534
 10
-44.0446154506044
 20
-51.21411689694048
 10
-44.04677668543129
 20
-51.2224796104948
 10
-46.61329347563207
 20
-56.605638443712095
 10
-46.61948657367315
 20
-56.613810285730736
 10
-46.629680517903836
 20
-56.614913447707266
 10
-48.554960130697566
 20
-56.42985896749228
 10
-48.56475731462039
 20
-56.42683429354172
 10
-48.56928048205608
 20
-56.41763242298878
 10
-50.063442355717946
 20
-50.6441683195823
 10
-50.063971119859964
 20
-50.63554704807222
  0
ENDSEC
  0
SECTION
  2
OBJECTS
  0
DICTIONARY
  5
A
330
0
100
AcDbDictionary
281
1
  3
ACAD_COLOR
350
B
  3
ACAD_GROUP
350
C
  3
ACAD_LAYOUT
350
D
  3
ACAD_MATERIAL
350
E
  3
ACAD_MLEADERSTYLE
350
F
  3
ACAD_MLINESTYLE
350
10
  3
ACAD_PLOTSETTINGS
350
11
  3
ACAD_PLOTSTYLENAME
350
12
  3
ACAD_SCALELIST
350
14
  3
ACAD_TABLESTYLE
350
15
  3
ACAD_VISUALSTYLE
350
16
  3
EZDXF_META
350
2D
  0
DICTIONARY
  5
B
330
A
100
AcDbDictionary
281
1
  0
DICTIONARY
  5
C
330
A
100
AcDbDictionary
281
1
  0
DICTIONARY
  5
D
330
A
100
AcDbDictionary
281
1
  3
Model
350
1A
  3
Layout1
350
1E
  0
DICTIONARY
  5
E
330
A
100
AcDbDictionary
281
1
  3
ByBlock
350
1F
  3
ByLayer
350
20
  3
Global
350
21
  0
DICTIONARY
  5
F
330
A
100
AcDbDictionary
281
1
  3
Standard
350
2C
  0
DICTIONARY
  5
10
330
A
100
AcDbDictionary
281
1
  3
Standard
350
22
  0
DICTIONARY
  5
11
330
A
100
AcDbDictionary
281
1
  0
ACDBDICTIONARYWDFLT
  5
12
330
A
100
AcDbDictionary
281
1
  3
Normal
350
13
100
AcDbDictionaryWithDefault
340
13
  0
ACDBPLACEHOLDER
  5
13
330
12
  0
DICTIONARY
  5
14
330
A
100
AcDbDictionary
281
1
  0
DICTIONARY
  5
15
330
A
100
AcDbDictionary
281
1
  0
DICTIONARY
  5
16
330
A
100
AcDbDictionary
281
1
  0
LAYOUT
  5
1A
330
D
100
AcDbPlotSettings
  1

  4
A3
  6

 40
7.5
 41
20.0
 42
7.5
 43
20.0
 44
420.0
 45
297.0
 46
0.0
 47
0.0
 48
0.0
 49
0.0
140
0.0
141
0.0
142
1.0
143
1.0
 70
1024
 72
1
 73
0
 74
5
  7

 75
16
 76
0
 77
2
 78
300
147
1.0
148
0.0
149
0.0
100
AcDbLayout
  1
Model
 70
1
 71
0
 10
0.0
 20
0.0
 11
420.0
 21
297.0
 12
0.0
 22
0.0
 32
0.0
 14
1e+20
 24
1e+20
 34
1e+20
 15
-1e+20
 25
-1e+20
 35
-1e+20
146
0.0
 13
0.0
 23
0.0
 33
0.0
 16
1.0
 26
0.0
 36
0.0
 17
0.0
 27
1.0
 37
0.0
 76
1
330
17
  0
LAYOUT
  5
1E
330
D
100
AcDbPlotSettings
  1

  4
A3
  6

 40
7.5
 41
20.0
 42
7.5
 43
20.0
 44
420.0
 45
297.0
 46
0.0
 47
0.0
 48
0.0
 49
0.0
140
0.0
141
0.0
142
1.0
143
1.0
 70
0
 72
1
 73
0
 74
5
  7

 75
16
 76
0
 77
2
 78
300
147
1.0
148
0.0
149
0.0
100
AcDbLayout
  1
Layout1
 70
1
 71
1
 10
0.0
 20
0.0
 11
420.0
 21
297.0
 12
0.0
 22
0.0
 32
0.0
 14
1e+20
 24
1e+20
 34
1e+20
 15
-1e+20
 25
-1e+20
 35
-1e+20
146
0.0
 13
0.0
 23
0.0
 33
0.0
 16
1.0
 26
0.0
 36
0.0
 17
0.0
 27
1.0
 37
0.0
 76
1
330
1B
  0
MATERIAL
  5
1F
102
{ACAD_REACTORS
330
E
102
}
330
E
100
AcDbMaterial
  1
ByBlock
  2

 70
0
 40
1.0
 71
1
 41
1.0
 91
-1023410177
 42
1.0
 72
1
  3

 73
1
 74
1
 75
1
 44
0.5
 73
0
 45
1.0
 46
1.0
 77
1
  4

 78
1
 79
1
170
1
 48
1.0
171
1
  6

172
1
173
1
174
1
140
1.0
141
1.0
175
1
  7

176
1
177
1
178
1
143
1.0
179
1
  8

270
1
271
1
272
1
145
1.0
146
1.0
273
1
  9

274
1
275
1
276
1
 42
1.0
 72
1
  3

 73
1
 74
1
 75
1
 94
63
  0
MATERIAL
  5
20
102
{ACAD_REACTORS
330
E
102
}
330
E
100
AcDbMaterial
  1
ByLayer
  2

 70
0
 40
1.0
 71
1
 41
1.0
 91
-1023410177
 42
1.0
 72
1
  3

 73
1
 74
1
 75
1
 44
0.5
 73
0
 45
1.0
 46
1.0
 77
1
  4

 78
1
 79
1
170
1
 48
1.0
171
1
  6

172
1
173
1
174
1
140
1.0
141
1.0
175
1
  7

176
1
177
1
178
1
143
1.0
179
1
  8

270
1
271
1
272
1
145
1.0
146
1.0
273
1
  9

274
1
275
1
276
1
 42
1.0
 72
1
  3

 73
1
 74
1
 75
1
 94
63
  0
MATERIAL
  5
21
102
{ACAD_REACTORS
330
E
102
}
330
E
100
AcDbMaterial
  1
Global
  2

 70
0
 40
1.0
 71
1
 41
1.0
 91
-1023410177
 42
1.0
 72
1
  3

 73
1
 74
1
 75
1
 44
0.5
 73
0
 45
1.0
 46
1.0
 77
1
  4

 78
1
 79
1
170
1
 48
1.0
171
1
  6

172
1
173
1
174
1
140
1.0
141
1.0
175
1
  7

176
1
177
1
178
1
143
1.0
179
1
  8

270
1
271
1
272
1
145
1.0
146
1.0
273
1
  9

274
1
275
1
276
1
 42
1.0
 72
1
  3

 73
1
 74
1
 75
1
 94
63
  0
MLINESTYLE
  5
22
102
{ACAD_REACTORS
330
10
102
}
330
10
100
AcDbMlineStyle
  2
Standard
 70
0
  3

 62
256
 51
90.0
 52
90.0
 71
2
 49
0.5
 62
256
  6
BYLAYER
 49
-0.5
 62
256
  6
BYLAYER
  0
MLEADERSTYLE
  5
2C
102
{ACAD_REACTORS
330
F
102
}
330
F
100
AcDbMLeaderStyle
179
2
170
2
171
1
172
0
 90
2
 40
0.0
 41
0.0
173
1
 91
-1056964608
 92
-2
290
1
 42
2.0
291
1
 43
8.0
  3
Standard
 44
4.0
300

342
29
174
1
175
1
176
0
178
1
 93
-1056964608
 45
4.0
292
0
297
0
 46
4.0
 94
-1056964608
 47
1.0
 49
1.0
140
1.0
294
1
141
0.0
177
0
142
1.0
295
0
296
0
143
3.75
271
0
272
9
273
9
  0
DICTIONARY
  5
2D
330
A
100
AcDbDictionary
280
1
281
1
  3
CREATED_BY_EZDXF
350
2E
  3
WRITTEN_BY_EZDXF
350
4D
  0
DICTIONARYVAR
  5
2E
330
2D
100
DictionaryVariables
280
0
  1
1.4.4 @ 2026-07-24T21:37:49.093956+00:00
  0
DICTIONARYVAR
  5
4D
330
2D
100
DictionaryVariables
280
0
  1
1.4.4 @ 2026-07-24T21:37:49.094969+00:00
  0
ENDSEC
  0
EOF
